<?xml version="1.0" encoding="utf-8" standalone="no"?>
<!DOCTYPE svg PUBLIC "-//W3C//DTD SVG 1.1//EN"
  "http://www.w3.org/Graphics/SVG/1.1/DTD/svg11.dtd">
<svg xmlns:xlink="http://www.w3.org/1999/xlink" width="504pt" height="230.4pt" viewBox="0 0 504 230.4" xmlns="http://www.w3.org/2000/svg" version="1.1">
 <metadata>
  <rdf:RDF xmlns:dc="http://purl.org/dc/elements/1.1/" xmlns:cc="http://creativecommons.org/ns#" xmlns:rdf="http://www.w3.org/1999/02/22-rdf-syntax-ns#">
   <cc:Work>
    <dc:type rdf:resource="http://purl.org/dc/dcmitype/StillImage"/>
    <dc:date>2026-07-04T22:08:00.926289</dc:date>
    <dc:format>image/svg+xml</dc:format>
    <dc:creator>
     <cc:Agent>
      <dc:title>Matplotlib v3.11.0, https://matplotlib.org/</dc:title>
     </cc:Agent>
    </dc:creator>
   </cc:Work>
  </rdf:RDF>
 </metadata>
 <defs>
  <style type="text/css">*{stroke-linejoin: round; stroke-linecap: butt}</style>
 </defs>
 <g id="figure_1">
  <g id="patch_1">
   <path d="M 0 230.4 
L 504 230.4 
L 504 0 
L 0 0 
L 0 230.4 
z
" style="fill: none"/>
  </g>
  <g id="axes_1">
   <g id="patch_2">
    <path d="M 104.2 190.277656 
L 493.2 190.277656 
L 493.2 24.72 
L 104.2 24.72 
L 104.2 190.277656 
z
" style="fill: none"/>
   </g>
   <g id="matplotlib.axis_1">
    <g id="xtick_1">
     <g id="line2d_1">
      <defs>
       <path id="m9b4af68c60" d="M 0 0 
L 0 3.5 
" style="stroke: #000000; stroke-width: 0.8"/>
      </defs>
      <g>
       <use xlink:href="#m9b4af68c60" x="157.61315" y="190.277656" style="stroke: #000000; stroke-width: 0.8"/>
      </g>
     </g>
     <g id="text_1">
      <!-- −0.010 -->
      <g transform="translate(142.810025 203.355781) scale(0.08 -0.08)">
       <defs>
        <path id="DejaVuSans-c9c" d="M 678 2272 
L 4684 2272 
L 4684 1741 
L 678 1741 
L 678 2272 
z
" transform="scale(0.015625)"/>
        <path id="DejaVuSans-13" d="M 2034 4250 
Q 1547 4250 1301 3770 
Q 1056 3291 1056 2328 
Q 1056 1369 1301 889 
Q 1547 409 2034 409 
Q 2525 409 2770 889 
Q 3016 1369 3016 2328 
Q 3016 3291 2770 3770 
Q 2525 4250 2034 4250 
z
M 2034 4750 
Q 2819 4750 3233 4129 
Q 3647 3509 3647 2328 
Q 3647 1150 3233 529 
Q 2819 -91 2034 -91 
Q 1250 -91 836 529 
Q 422 1150 422 2328 
Q 422 3509 836 4129 
Q 1250 4750 2034 4750 
z
" transform="scale(0.015625)"/>
        <path id="DejaVuSans-11" d="M 684 794 
L 1344 794 
L 1344 0 
L 684 0 
L 684 794 
z
" transform="scale(0.015625)"/>
        <path id="DejaVuSans-14" d="M 794 531 
L 1825 531 
L 1825 4091 
L 703 3866 
L 703 4441 
L 1819 4666 
L 2450 4666 
L 2450 531 
L 3481 531 
L 3481 0 
L 794 0 
L 794 531 
z
" transform="scale(0.015625)"/>
       </defs>
       <use xlink:href="#DejaVuSans-c9c"/>
       <use xlink:href="#DejaVuSans-13" transform="translate(83.796875 0)"/>
       <use xlink:href="#DejaVuSans-11" transform="translate(147.421875 0)"/>
       <use xlink:href="#DejaVuSans-13" transform="translate(179.203125 0)"/>
       <use xlink:href="#DejaVuSans-14" transform="translate(242.828125 0)"/>
       <use xlink:href="#DejaVuSans-13" transform="translate(306.453125 0)"/>
      </g>
     </g>
    </g>
    <g id="xtick_2">
     <g id="line2d_2">
      <g>
       <use xlink:href="#m9b4af68c60" x="231.671309" y="190.277656" style="stroke: #000000; stroke-width: 0.8"/>
      </g>
     </g>
     <g id="text_2">
      <!-- −0.005 -->
      <g transform="translate(216.868184 203.355781) scale(0.08 -0.08)">
       <defs>
        <path id="DejaVuSans-18" d="M 691 4666 
L 3169 4666 
L 3169 4134 
L 1269 4134 
L 1269 2991 
Q 1406 3038 1543 3061 
Q 1681 3084 1819 3084 
Q 2600 3084 3056 2656 
Q 3513 2228 3513 1497 
Q 3513 744 3044 326 
Q 2575 -91 1722 -91 
Q 1428 -91 1123 -41 
Q 819 9 494 109 
L 494 744 
Q 775 591 1075 516 
Q 1375 441 1709 441 
Q 2250 441 2565 725 
Q 2881 1009 2881 1497 
Q 2881 1984 2565 2268 
Q 2250 2553 1709 2553 
Q 1456 2553 1204 2497 
Q 953 2441 691 2322 
L 691 4666 
z
" transform="scale(0.015625)"/>
       </defs>
       <use xlink:href="#DejaVuSans-c9c"/>
       <use xlink:href="#DejaVuSans-13" transform="translate(83.796875 0)"/>
       <use xlink:href="#DejaVuSans-11" transform="translate(147.421875 0)"/>
       <use xlink:href="#DejaVuSans-13" transform="translate(179.203125 0)"/>
       <use xlink:href="#DejaVuSans-13" transform="translate(242.828125 0)"/>
       <use xlink:href="#DejaVuSans-18" transform="translate(306.453125 0)"/>
      </g>
     </g>
    </g>
    <g id="xtick_3">
     <g id="line2d_3">
      <g>
       <use xlink:href="#m9b4af68c60" x="305.729469" y="190.277656" style="stroke: #000000; stroke-width: 0.8"/>
      </g>
     </g>
     <g id="text_3">
      <!-- 0.000 -->
      <g transform="translate(294.278219 203.355781) scale(0.08 -0.08)">
       <use xlink:href="#DejaVuSans-13"/>
       <use xlink:href="#DejaVuSans-11" transform="translate(63.625 0)"/>
       <use xlink:href="#DejaVuSans-13" transform="translate(95.40625 0)"/>
       <use xlink:href="#DejaVuSans-13" transform="translate(159.03125 0)"/>
       <use xlink:href="#DejaVuSans-13" transform="translate(222.65625 0)"/>
      </g>
     </g>
    </g>
    <g id="xtick_4">
     <g id="line2d_4">
      <g>
       <use xlink:href="#m9b4af68c60" x="379.787629" y="190.277656" style="stroke: #000000; stroke-width: 0.8"/>
      </g>
     </g>
     <g id="text_4">
      <!-- 0.005 -->
      <g transform="translate(368.336379 203.355781) scale(0.08 -0.08)">
       <use xlink:href="#DejaVuSans-13"/>
       <use xlink:href="#DejaVuSans-11" transform="translate(63.625 0)"/>
       <use xlink:href="#DejaVuSans-13" transform="translate(95.40625 0)"/>
       <use xlink:href="#DejaVuSans-13" transform="translate(159.03125 0)"/>
       <use xlink:href="#DejaVuSans-18" transform="translate(222.65625 0)"/>
      </g>
     </g>
    </g>
    <g id="xtick_5">
     <g id="line2d_5">
      <g>
       <use xlink:href="#m9b4af68c60" x="453.845788" y="190.277656" style="stroke: #000000; stroke-width: 0.8"/>
      </g>
     </g>
     <g id="text_5">
      <!-- 0.010 -->
      <g transform="translate(442.394538 203.355781) scale(0.08 -0.08)">
       <use xlink:href="#DejaVuSans-13"/>
       <use xlink:href="#DejaVuSans-11" transform="translate(63.625 0)"/>
       <use xlink:href="#DejaVuSans-13" transform="translate(95.40625 0)"/>
       <use xlink:href="#DejaVuSans-14" transform="translate(159.03125 0)"/>
       <use xlink:href="#DejaVuSans-13" transform="translate(222.65625 0)"/>
      </g>
     </g>
    </g>
    <g id="text_6">
     <!-- drop in ROC-AUC when feature is shuffled (test set) -->
     <g transform="translate(170.189844 216.876094) scale(0.1 -0.1)">
      <defs>
       <path id="DejaVuSans-47" d="M 2906 2969 
L 2906 4863 
L 3481 4863 
L 3481 0 
L 2906 0 
L 2906 525 
Q 2725 213 2448 61 
Q 2172 -91 1784 -91 
Q 1150 -91 751 415 
Q 353 922 353 1747 
Q 353 2572 751 3078 
Q 1150 3584 1784 3584 
Q 2172 3584 2448 3432 
Q 2725 3281 2906 2969 
z
M 947 1747 
Q 947 1113 1208 752 
Q 1469 391 1925 391 
Q 2381 391 2643 752 
Q 2906 1113 2906 1747 
Q 2906 2381 2643 2742 
Q 2381 3103 1925 3103 
Q 1469 3103 1208 2742 
Q 947 2381 947 1747 
z
" transform="scale(0.015625)"/>
       <path id="DejaVuSans-55" d="M 2631 2963 
Q 2534 3019 2420 3045 
Q 2306 3072 2169 3072 
Q 1681 3072 1420 2755 
Q 1159 2438 1159 1844 
L 1159 0 
L 581 0 
L 581 3500 
L 1159 3500 
L 1159 2956 
Q 1341 3275 1631 3429 
Q 1922 3584 2338 3584 
Q 2397 3584 2469 3576 
Q 2541 3569 2628 3553 
L 2631 2963 
z
" transform="scale(0.015625)"/>
       <path id="DejaVuSans-52" d="M 1959 3097 
Q 1497 3097 1228 2736 
Q 959 2375 959 1747 
Q 959 1119 1226 758 
Q 1494 397 1959 397 
Q 2419 397 2687 759 
Q 2956 1122 2956 1747 
Q 2956 2369 2687 2733 
Q 2419 3097 1959 3097 
z
M 1959 3584 
Q 2709 3584 3137 3096 
Q 3566 2609 3566 1747 
Q 3566 888 3137 398 
Q 2709 -91 1959 -91 
Q 1206 -91 779 398 
Q 353 888 353 1747 
Q 353 2609 779 3096 
Q 1206 3584 1959 3584 
z
" transform="scale(0.015625)"/>
       <path id="DejaVuSans-53" d="M 1159 525 
L 1159 -1331 
L 581 -1331 
L 581 3500 
L 1159 3500 
L 1159 2969 
Q 1341 3281 1617 3432 
Q 1894 3584 2278 3584 
Q 2916 3584 3314 3078 
Q 3713 2572 3713 1747 
Q 3713 922 3314 415 
Q 2916 -91 2278 -91 
Q 1894 -91 1617 61 
Q 1341 213 1159 525 
z
M 3116 1747 
Q 3116 2381 2855 2742 
Q 2594 3103 2138 3103 
Q 1681 3103 1420 2742 
Q 1159 2381 1159 1747 
Q 1159 1113 1420 752 
Q 1681 391 2138 391 
Q 2594 391 2855 752 
Q 3116 1113 3116 1747 
z
" transform="scale(0.015625)"/>
       <path id="DejaVuSans-3" transform="scale(0.015625)"/>
       <path id="DejaVuSans-4c" d="M 603 3500 
L 1178 3500 
L 1178 0 
L 603 0 
L 603 3500 
z
M 603 4863 
L 1178 4863 
L 1178 4134 
L 603 4134 
L 603 4863 
z
" transform="scale(0.015625)"/>
       <path id="DejaVuSans-51" d="M 3513 2113 
L 3513 0 
L 2938 0 
L 2938 2094 
Q 2938 2591 2744 2837 
Q 2550 3084 2163 3084 
Q 1697 3084 1428 2787 
Q 1159 2491 1159 1978 
L 1159 0 
L 581 0 
L 581 3500 
L 1159 3500 
L 1159 2956 
Q 1366 3272 1645 3428 
Q 1925 3584 2291 3584 
Q 2894 3584 3203 3211 
Q 3513 2838 3513 2113 
z
" transform="scale(0.015625)"/>
       <path id="DejaVuSans-35" d="M 2841 2188 
Q 3044 2119 3236 1894 
Q 3428 1669 3622 1275 
L 4263 0 
L 3584 0 
L 2988 1197 
Q 2756 1666 2539 1819 
Q 2322 1972 1947 1972 
L 1259 1972 
L 1259 0 
L 628 0 
L 628 4666 
L 2053 4666 
Q 2853 4666 3247 4331 
Q 3641 3997 3641 3322 
Q 3641 2881 3436 2590 
Q 3231 2300 2841 2188 
z
M 1259 4147 
L 1259 2491 
L 2053 2491 
Q 2509 2491 2742 2702 
Q 2975 2913 2975 3322 
Q 2975 3731 2742 3939 
Q 2509 4147 2053 4147 
L 1259 4147 
z
" transform="scale(0.015625)"/>
       <path id="DejaVuSans-32" d="M 2522 4238 
Q 1834 4238 1429 3725 
Q 1025 3213 1025 2328 
Q 1025 1447 1429 934 
Q 1834 422 2522 422 
Q 3209 422 3611 934 
Q 4013 1447 4013 2328 
Q 4013 3213 3611 3725 
Q 3209 4238 2522 4238 
z
M 2522 4750 
Q 3503 4750 4090 4092 
Q 4678 3434 4678 2328 
Q 4678 1225 4090 567 
Q 3503 -91 2522 -91 
Q 1538 -91 948 565 
Q 359 1222 359 2328 
Q 359 3434 948 4092 
Q 1538 4750 2522 4750 
z
" transform="scale(0.015625)"/>
       <path id="DejaVuSans-26" d="M 4122 4306 
L 4122 3641 
Q 3803 3938 3442 4084 
Q 3081 4231 2675 4231 
Q 1875 4231 1450 3742 
Q 1025 3253 1025 2328 
Q 1025 1406 1450 917 
Q 1875 428 2675 428 
Q 3081 428 3442 575 
Q 3803 722 4122 1019 
L 4122 359 
Q 3791 134 3420 21 
Q 3050 -91 2638 -91 
Q 1578 -91 968 557 
Q 359 1206 359 2328 
Q 359 3453 968 4101 
Q 1578 4750 2638 4750 
Q 3056 4750 3426 4639 
Q 3797 4528 4122 4306 
z
" transform="scale(0.015625)"/>
       <path id="DejaVuSans-10" d="M 313 2009 
L 1997 2009 
L 1997 1497 
L 313 1497 
L 313 2009 
z
" transform="scale(0.015625)"/>
       <path id="DejaVuSans-24" d="M 2188 4044 
L 1331 1722 
L 3047 1722 
L 2188 4044 
z
M 1831 4666 
L 2547 4666 
L 4325 0 
L 3669 0 
L 3244 1197 
L 1141 1197 
L 716 0 
L 50 0 
L 1831 4666 
z
" transform="scale(0.015625)"/>
       <path id="DejaVuSans-38" d="M 556 4666 
L 1191 4666 
L 1191 1831 
Q 1191 1081 1462 751 
Q 1734 422 2344 422 
Q 2950 422 3222 751 
Q 3494 1081 3494 1831 
L 3494 4666 
L 4128 4666 
L 4128 1753 
Q 4128 841 3676 375 
Q 3225 -91 2344 -91 
Q 1459 -91 1007 375 
Q 556 841 556 1753 
L 556 4666 
z
" transform="scale(0.015625)"/>
       <path id="DejaVuSans-5a" d="M 269 3500 
L 844 3500 
L 1563 769 
L 2278 3500 
L 2956 3500 
L 3675 769 
L 4391 3500 
L 4966 3500 
L 4050 0 
L 3372 0 
L 2619 2869 
L 1863 0 
L 1184 0 
L 269 3500 
z
" transform="scale(0.015625)"/>
       <path id="DejaVuSans-4b" d="M 3513 2113 
L 3513 0 
L 2938 0 
L 2938 2094 
Q 2938 2591 2744 2837 
Q 2550 3084 2163 3084 
Q 1697 3084 1428 2787 
Q 1159 2491 1159 1978 
L 1159 0 
L 581 0 
L 581 4863 
L 1159 4863 
L 1159 2956 
Q 1366 3272 1645 3428 
Q 1925 3584 2291 3584 
Q 2894 3584 3203 3211 
Q 3513 2838 3513 2113 
z
" transform="scale(0.015625)"/>
       <path id="DejaVuSans-48" d="M 3597 1894 
L 3597 1613 
L 953 1613 
Q 991 1019 1311 708 
Q 1631 397 2203 397 
Q 2534 397 2845 478 
Q 3156 559 3463 722 
L 3463 178 
Q 3153 47 2828 -22 
Q 2503 -91 2169 -91 
Q 1331 -91 842 396 
Q 353 884 353 1716 
Q 353 2575 817 3079 
Q 1281 3584 2069 3584 
Q 2775 3584 3186 3129 
Q 3597 2675 3597 1894 
z
M 3022 2063 
Q 3016 2534 2758 2815 
Q 2500 3097 2075 3097 
Q 1594 3097 1305 2825 
Q 1016 2553 972 2059 
L 3022 2063 
z
" transform="scale(0.015625)"/>
       <path id="DejaVuSans-49" d="M 2375 4863 
L 2375 4384 
L 1825 4384 
Q 1516 4384 1395 4259 
Q 1275 4134 1275 3809 
L 1275 3500 
L 2222 3500 
L 2222 3053 
L 1275 3053 
L 1275 0 
L 697 0 
L 697 3053 
L 147 3053 
L 147 3500 
L 697 3500 
L 697 3744 
Q 697 4328 969 4595 
Q 1241 4863 1831 4863 
L 2375 4863 
z
" transform="scale(0.015625)"/>
       <path id="DejaVuSans-44" d="M 2194 1759 
Q 1497 1759 1228 1600 
Q 959 1441 959 1056 
Q 959 750 1161 570 
Q 1363 391 1709 391 
Q 2188 391 2477 730 
Q 2766 1069 2766 1631 
L 2766 1759 
L 2194 1759 
z
M 3341 1997 
L 3341 0 
L 2766 0 
L 2766 531 
Q 2569 213 2275 61 
Q 1981 -91 1556 -91 
Q 1019 -91 701 211 
Q 384 513 384 1019 
Q 384 1609 779 1909 
Q 1175 2209 1959 2209 
L 2766 2209 
L 2766 2266 
Q 2766 2663 2505 2880 
Q 2244 3097 1772 3097 
Q 1472 3097 1187 3025 
Q 903 2953 641 2809 
L 641 3341 
Q 956 3463 1253 3523 
Q 1550 3584 1831 3584 
Q 2591 3584 2966 3190 
Q 3341 2797 3341 1997 
z
" transform="scale(0.015625)"/>
       <path id="DejaVuSans-57" d="M 1172 4494 
L 1172 3500 
L 2356 3500 
L 2356 3053 
L 1172 3053 
L 1172 1153 
Q 1172 725 1289 603 
Q 1406 481 1766 481 
L 2356 481 
L 2356 0 
L 1766 0 
Q 1100 0 847 248 
Q 594 497 594 1153 
L 594 3053 
L 172 3053 
L 172 3500 
L 594 3500 
L 594 4494 
L 1172 4494 
z
" transform="scale(0.015625)"/>
       <path id="DejaVuSans-58" d="M 544 1381 
L 544 3500 
L 1119 3500 
L 1119 1403 
Q 1119 906 1312 657 
Q 1506 409 1894 409 
Q 2359 409 2629 706 
Q 2900 1003 2900 1516 
L 2900 3500 
L 3475 3500 
L 3475 0 
L 2900 0 
L 2900 538 
Q 2691 219 2414 64 
Q 2138 -91 1772 -91 
Q 1169 -91 856 284 
Q 544 659 544 1381 
z
M 1991 3584 
L 1991 3584 
z
" transform="scale(0.015625)"/>
       <path id="DejaVuSans-56" d="M 2834 3397 
L 2834 2853 
Q 2591 2978 2328 3040 
Q 2066 3103 1784 3103 
Q 1356 3103 1142 2972 
Q 928 2841 928 2578 
Q 928 2378 1081 2264 
Q 1234 2150 1697 2047 
L 1894 2003 
Q 2506 1872 2764 1633 
Q 3022 1394 3022 966 
Q 3022 478 2636 193 
Q 2250 -91 1575 -91 
Q 1294 -91 989 -36 
Q 684 19 347 128 
L 347 722 
Q 666 556 975 473 
Q 1284 391 1588 391 
Q 1994 391 2212 530 
Q 2431 669 2431 922 
Q 2431 1156 2273 1281 
Q 2116 1406 1581 1522 
L 1381 1569 
Q 847 1681 609 1914 
Q 372 2147 372 2553 
Q 372 3047 722 3315 
Q 1072 3584 1716 3584 
Q 2034 3584 2315 3537 
Q 2597 3491 2834 3397 
z
" transform="scale(0.015625)"/>
       <path id="DejaVuSans-13b2" d="M 2375 4863 
L 2375 4384 
L 1825 4384 
Q 1516 4384 1394 4259 
Q 1275 4134 1275 3809 
L 1275 3500 
L 2853 3500 
L 2853 3744 
Q 2853 4328 3125 4595 
Q 3397 4863 3988 4863 
L 5588 4863 
L 5588 0 
L 5009 0 
L 5009 4384 
L 3981 4384 
Q 3672 4384 3551 4259 
Q 3431 4134 3431 3809 
L 3431 3500 
L 4378 3500 
L 4378 3053 
L 3431 3053 
L 3431 0 
L 2853 0 
L 2853 3053 
L 1275 3053 
L 1275 0 
L 697 0 
L 697 3053 
L 147 3053 
L 147 3500 
L 697 3500 
L 697 3744 
Q 697 4328 969 4595 
Q 1241 4863 1831 4863 
L 2375 4863 
z
" transform="scale(0.015625)"/>
       <path id="DejaVuSans-b" d="M 1984 4856 
Q 1566 4138 1362 3434 
Q 1159 2731 1159 2009 
Q 1159 1288 1364 580 
Q 1569 -128 1984 -844 
L 1484 -844 
Q 1016 -109 783 600 
Q 550 1309 550 2009 
Q 550 2706 781 3412 
Q 1013 4119 1484 4856 
L 1984 4856 
z
" transform="scale(0.015625)"/>
       <path id="DejaVuSans-c" d="M 513 4856 
L 1013 4856 
Q 1481 4119 1714 3412 
Q 1947 2706 1947 2009 
Q 1947 1309 1714 600 
Q 1481 -109 1013 -844 
L 513 -844 
Q 928 -128 1133 580 
Q 1338 1288 1338 2009 
Q 1338 2731 1133 3434 
Q 928 4138 513 4856 
z
" transform="scale(0.015625)"/>
      </defs>
      <use xlink:href="#DejaVuSans-47"/>
      <use xlink:href="#DejaVuSans-55" transform="translate(63.484375 0)"/>
      <use xlink:href="#DejaVuSans-52" transform="translate(102.390625 0)"/>
      <use xlink:href="#DejaVuSans-53" transform="translate(163.578125 0)"/>
      <use xlink:href="#DejaVuSans-3" transform="translate(227.0625 0)"/>
      <use xlink:href="#DejaVuSans-4c" transform="translate(258.84375 0)"/>
      <use xlink:href="#DejaVuSans-51" transform="translate(286.625 0)"/>
      <use xlink:href="#DejaVuSans-3" transform="translate(350 0)"/>
      <use xlink:href="#DejaVuSans-35" transform="translate(381.78125 0)"/>
      <use xlink:href="#DejaVuSans-32" transform="translate(451.265625 0)"/>
      <use xlink:href="#DejaVuSans-26" transform="translate(529.984375 0)"/>
      <use xlink:href="#DejaVuSans-10" transform="translate(599.8125 0)"/>
      <use xlink:href="#DejaVuSans-24" transform="translate(633.6875 0)"/>
      <use xlink:href="#DejaVuSans-38" transform="translate(702.09375 0)"/>
      <use xlink:href="#DejaVuSans-26" transform="translate(775.28125 0)"/>
      <use xlink:href="#DejaVuSans-3" transform="translate(845.109375 0)"/>
      <use xlink:href="#DejaVuSans-5a" transform="translate(876.890625 0)"/>
      <use xlink:href="#DejaVuSans-4b" transform="translate(958.671875 0)"/>
      <use xlink:href="#DejaVuSans-48" transform="translate(1022.046875 0)"/>
      <use xlink:href="#DejaVuSans-51" transform="translate(1083.578125 0)"/>
      <use xlink:href="#DejaVuSans-3" transform="translate(1146.953125 0)"/>
      <use xlink:href="#DejaVuSans-49" transform="translate(1178.734375 0)"/>
      <use xlink:href="#DejaVuSans-48" transform="translate(1213.9375 0)"/>
      <use xlink:href="#DejaVuSans-44" transform="translate(1275.46875 0)"/>
      <use xlink:href="#DejaVuSans-57" transform="translate(1336.75 0)"/>
      <use xlink:href="#DejaVuSans-58" transform="translate(1375.953125 0)"/>
      <use xlink:href="#DejaVuSans-55" transform="translate(1439.328125 0)"/>
      <use xlink:href="#DejaVuSans-48" transform="translate(1478.234375 0)"/>
      <use xlink:href="#DejaVuSans-3" transform="translate(1539.765625 0)"/>
      <use xlink:href="#DejaVuSans-4c" transform="translate(1571.546875 0)"/>
      <use xlink:href="#DejaVuSans-56" transform="translate(1599.328125 0)"/>
      <use xlink:href="#DejaVuSans-3" transform="translate(1651.421875 0)"/>
      <use xlink:href="#DejaVuSans-56" transform="translate(1683.203125 0)"/>
      <use xlink:href="#DejaVuSans-4b" transform="translate(1735.296875 0)"/>
      <use xlink:href="#DejaVuSans-58" transform="translate(1798.671875 0)"/>
      <use xlink:href="#DejaVuSans-13b2" transform="translate(1862.046875 0)"/>
      <use xlink:href="#DejaVuSans-48" transform="translate(1958.734375 0)"/>
      <use xlink:href="#DejaVuSans-47" transform="translate(2020.265625 0)"/>
      <use xlink:href="#DejaVuSans-3" transform="translate(2083.75 0)"/>
      <use xlink:href="#DejaVuSans-b" transform="translate(2115.53125 0)"/>
      <use xlink:href="#DejaVuSans-57" transform="translate(2154.546875 0)"/>
      <use xlink:href="#DejaVuSans-48" transform="translate(2193.75 0)"/>
      <use xlink:href="#DejaVuSans-56" transform="translate(2255.28125 0)"/>
      <use xlink:href="#DejaVuSans-57" transform="translate(2307.375 0)"/>
      <use xlink:href="#DejaVuSans-3" transform="translate(2346.578125 0)"/>
      <use xlink:href="#DejaVuSans-56" transform="translate(2378.359375 0)"/>
      <use xlink:href="#DejaVuSans-48" transform="translate(2430.453125 0)"/>
      <use xlink:href="#DejaVuSans-57" transform="translate(2491.984375 0)"/>
      <use xlink:href="#DejaVuSans-c" transform="translate(2531.1875 0)"/>
     </g>
    </g>
   </g>
   <g id="matplotlib.axis_2">
    <g id="ytick_1">
     <g id="line2d_6">
      <defs>
       <path id="m44011fe011" d="M 0 0 
L -3.5 0 
" style="stroke: #000000; stroke-width: 0.8"/>
      </defs>
      <g>
       <use xlink:href="#m44011fe011" x="104.2" y="179.930303" style="stroke: #000000; stroke-width: 0.8"/>
      </g>
     </g>
     <g id="text_7">
      <!-- mean area -->
      <g transform="translate(54.13 182.969365) scale(0.08 -0.08)">
       <defs>
        <path id="DejaVuSans-50" d="M 3328 2828 
Q 3544 3216 3844 3400 
Q 4144 3584 4550 3584 
Q 5097 3584 5394 3201 
Q 5691 2819 5691 2113 
L 5691 0 
L 5113 0 
L 5113 2094 
Q 5113 2597 4934 2840 
Q 4756 3084 4391 3084 
Q 3944 3084 3684 2787 
Q 3425 2491 3425 1978 
L 3425 0 
L 2847 0 
L 2847 2094 
Q 2847 2600 2669 2842 
Q 2491 3084 2119 3084 
Q 1678 3084 1418 2786 
Q 1159 2488 1159 1978 
L 1159 0 
L 581 0 
L 581 3500 
L 1159 3500 
L 1159 2956 
Q 1356 3278 1631 3431 
Q 1906 3584 2284 3584 
Q 2666 3584 2933 3390 
Q 3200 3197 3328 2828 
z
" transform="scale(0.015625)"/>
       </defs>
       <use xlink:href="#DejaVuSans-50"/>
       <use xlink:href="#DejaVuSans-48" transform="translate(97.40625 0)"/>
       <use xlink:href="#DejaVuSans-44" transform="translate(158.9375 0)"/>
       <use xlink:href="#DejaVuSans-51" transform="translate(220.21875 0)"/>
       <use xlink:href="#DejaVuSans-3" transform="translate(283.59375 0)"/>
       <use xlink:href="#DejaVuSans-44" transform="translate(315.375 0)"/>
       <use xlink:href="#DejaVuSans-55" transform="translate(376.65625 0)"/>
       <use xlink:href="#DejaVuSans-48" transform="translate(415.5625 0)"/>
       <use xlink:href="#DejaVuSans-44" transform="translate(477.09375 0)"/>
      </g>
     </g>
    </g>
    <g id="ytick_2">
     <g id="line2d_7">
      <g>
       <use xlink:href="#m44011fe011" x="104.2" y="159.235596" style="stroke: #000000; stroke-width: 0.8"/>
      </g>
     </g>
     <g id="text_8">
      <!-- mean symmetry -->
      <g transform="translate(31.4 162.274658) scale(0.08 -0.08)">
       <defs>
        <path id="DejaVuSans-5c" d="M 2059 -325 
Q 1816 -950 1584 -1140 
Q 1353 -1331 966 -1331 
L 506 -1331 
L 506 -850 
L 844 -850 
Q 1081 -850 1212 -737 
Q 1344 -625 1503 -206 
L 1606 56 
L 191 3500 
L 800 3500 
L 1894 763 
L 2988 3500 
L 3597 3500 
L 2059 -325 
z
" transform="scale(0.015625)"/>
       </defs>
       <use xlink:href="#DejaVuSans-50"/>
       <use xlink:href="#DejaVuSans-48" transform="translate(97.40625 0)"/>
       <use xlink:href="#DejaVuSans-44" transform="translate(158.9375 0)"/>
       <use xlink:href="#DejaVuSans-51" transform="translate(220.21875 0)"/>
       <use xlink:href="#DejaVuSans-3" transform="translate(283.59375 0)"/>
       <use xlink:href="#DejaVuSans-56" transform="translate(315.375 0)"/>
       <use xlink:href="#DejaVuSans-5c" transform="translate(367.46875 0)"/>
       <use xlink:href="#DejaVuSans-50" transform="translate(426.65625 0)"/>
       <use xlink:href="#DejaVuSans-50" transform="translate(524.0625 0)"/>
       <use xlink:href="#DejaVuSans-48" transform="translate(621.46875 0)"/>
       <use xlink:href="#DejaVuSans-57" transform="translate(683 0)"/>
       <use xlink:href="#DejaVuSans-55" transform="translate(722.203125 0)"/>
       <use xlink:href="#DejaVuSans-5c" transform="translate(763.3125 0)"/>
      </g>
     </g>
    </g>
    <g id="ytick_3">
     <g id="line2d_8">
      <g>
       <use xlink:href="#m44011fe011" x="104.2" y="138.540889" style="stroke: #000000; stroke-width: 0.8"/>
      </g>
     </g>
     <g id="text_9">
      <!-- radius error -->
      <g transform="translate(50.56 141.580264) scale(0.08 -0.08)">
       <use xlink:href="#DejaVuSans-55"/>
       <use xlink:href="#DejaVuSans-44" transform="translate(41.109375 0)"/>
       <use xlink:href="#DejaVuSans-47" transform="translate(102.390625 0)"/>
       <use xlink:href="#DejaVuSans-4c" transform="translate(165.875 0)"/>
       <use xlink:href="#DejaVuSans-58" transform="translate(193.65625 0)"/>
       <use xlink:href="#DejaVuSans-56" transform="translate(257.03125 0)"/>
       <use xlink:href="#DejaVuSans-3" transform="translate(309.125 0)"/>
       <use xlink:href="#DejaVuSans-48" transform="translate(340.90625 0)"/>
       <use xlink:href="#DejaVuSans-55" transform="translate(402.4375 0)"/>
       <use xlink:href="#DejaVuSans-55" transform="translate(441.796875 0)"/>
       <use xlink:href="#DejaVuSans-52" transform="translate(480.703125 0)"/>
       <use xlink:href="#DejaVuSans-55" transform="translate(541.890625 0)"/>
      </g>
     </g>
    </g>
    <g id="ytick_4">
     <g id="line2d_9">
      <g>
       <use xlink:href="#m44011fe011" x="104.2" y="117.846182" style="stroke: #000000; stroke-width: 0.8"/>
      </g>
     </g>
     <g id="text_10">
      <!-- perimeter error -->
      <g transform="translate(35.715 120.885557) scale(0.08 -0.08)">
       <use xlink:href="#DejaVuSans-53"/>
       <use xlink:href="#DejaVuSans-48" transform="translate(63.484375 0)"/>
       <use xlink:href="#DejaVuSans-55" transform="translate(125.015625 0)"/>
       <use xlink:href="#DejaVuSans-4c" transform="translate(166.125 0)"/>
       <use xlink:href="#DejaVuSans-50" transform="translate(193.90625 0)"/>
       <use xlink:href="#DejaVuSans-48" transform="translate(291.3125 0)"/>
       <use xlink:href="#DejaVuSans-57" transform="translate(352.84375 0)"/>
       <use xlink:href="#DejaVuSans-48" transform="translate(392.046875 0)"/>
       <use xlink:href="#DejaVuSans-55" transform="translate(453.578125 0)"/>
       <use xlink:href="#DejaVuSans-3" transform="translate(494.6875 0)"/>
       <use xlink:href="#DejaVuSans-48" transform="translate(526.46875 0)"/>
       <use xlink:href="#DejaVuSans-55" transform="translate(588 0)"/>
       <use xlink:href="#DejaVuSans-55" transform="translate(627.359375 0)"/>
       <use xlink:href="#DejaVuSans-52" transform="translate(666.265625 0)"/>
       <use xlink:href="#DejaVuSans-55" transform="translate(727.453125 0)"/>
      </g>
     </g>
    </g>
    <g id="ytick_5">
     <g id="line2d_10">
      <g>
       <use xlink:href="#m44011fe011" x="104.2" y="97.151475" style="stroke: #000000; stroke-width: 0.8"/>
      </g>
     </g>
     <g id="text_11">
      <!-- worst radius -->
      <g transform="translate(47.8975 100.19085) scale(0.08 -0.08)">
       <use xlink:href="#DejaVuSans-5a"/>
       <use xlink:href="#DejaVuSans-52" transform="translate(81.78125 0)"/>
       <use xlink:href="#DejaVuSans-55" transform="translate(142.96875 0)"/>
       <use xlink:href="#DejaVuSans-56" transform="translate(184.078125 0)"/>
       <use xlink:href="#DejaVuSans-57" transform="translate(236.171875 0)"/>
       <use xlink:href="#DejaVuSans-3" transform="translate(275.375 0)"/>
       <use xlink:href="#DejaVuSans-55" transform="translate(307.15625 0)"/>
       <use xlink:href="#DejaVuSans-44" transform="translate(348.265625 0)"/>
       <use xlink:href="#DejaVuSans-47" transform="translate(409.546875 0)"/>
       <use xlink:href="#DejaVuSans-4c" transform="translate(473.03125 0)"/>
       <use xlink:href="#DejaVuSans-58" transform="translate(500.8125 0)"/>
       <use xlink:href="#DejaVuSans-56" transform="translate(564.1875 0)"/>
      </g>
     </g>
    </g>
    <g id="ytick_6">
     <g id="line2d_11">
      <g>
       <use xlink:href="#m44011fe011" x="104.2" y="76.456768" style="stroke: #000000; stroke-width: 0.8"/>
      </g>
     </g>
     <g id="text_12">
      <!-- worst concave points -->
      <g transform="translate(12.1925 79.496143) scale(0.08 -0.08)">
       <defs>
        <path id="DejaVuSans-46" d="M 3122 3366 
L 3122 2828 
Q 2878 2963 2633 3030 
Q 2388 3097 2138 3097 
Q 1578 3097 1268 2742 
Q 959 2388 959 1747 
Q 959 1106 1268 751 
Q 1578 397 2138 397 
Q 2388 397 2633 464 
Q 2878 531 3122 666 
L 3122 134 
Q 2881 22 2623 -34 
Q 2366 -91 2075 -91 
Q 1284 -91 818 406 
Q 353 903 353 1747 
Q 353 2603 823 3093 
Q 1294 3584 2113 3584 
Q 2378 3584 2631 3529 
Q 2884 3475 3122 3366 
z
" transform="scale(0.015625)"/>
        <path id="DejaVuSans-59" d="M 191 3500 
L 800 3500 
L 1894 563 
L 2988 3500 
L 3597 3500 
L 2284 0 
L 1503 0 
L 191 3500 
z
" transform="scale(0.015625)"/>
       </defs>
       <use xlink:href="#DejaVuSans-5a"/>
       <use xlink:href="#DejaVuSans-52" transform="translate(81.78125 0)"/>
       <use xlink:href="#DejaVuSans-55" transform="translate(142.96875 0)"/>
       <use xlink:href="#DejaVuSans-56" transform="translate(184.078125 0)"/>
       <use xlink:href="#DejaVuSans-57" transform="translate(236.171875 0)"/>
       <use xlink:href="#DejaVuSans-3" transform="translate(275.375 0)"/>
       <use xlink:href="#DejaVuSans-46" transform="translate(307.15625 0)"/>
       <use xlink:href="#DejaVuSans-52" transform="translate(362.140625 0)"/>
       <use xlink:href="#DejaVuSans-51" transform="translate(423.328125 0)"/>
       <use xlink:href="#DejaVuSans-46" transform="translate(486.703125 0)"/>
       <use xlink:href="#DejaVuSans-44" transform="translate(541.6875 0)"/>
       <use xlink:href="#DejaVuSans-59" transform="translate(602.96875 0)"/>
       <use xlink:href="#DejaVuSans-48" transform="translate(662.15625 0)"/>
       <use xlink:href="#DejaVuSans-3" transform="translate(723.6875 0)"/>
       <use xlink:href="#DejaVuSans-53" transform="translate(755.46875 0)"/>
       <use xlink:href="#DejaVuSans-52" transform="translate(818.953125 0)"/>
       <use xlink:href="#DejaVuSans-4c" transform="translate(880.140625 0)"/>
       <use xlink:href="#DejaVuSans-51" transform="translate(907.921875 0)"/>
       <use xlink:href="#DejaVuSans-57" transform="translate(971.296875 0)"/>
       <use xlink:href="#DejaVuSans-56" transform="translate(1010.5 0)"/>
      </g>
     </g>
    </g>
    <g id="ytick_7">
     <g id="line2d_12">
      <g>
       <use xlink:href="#m44011fe011" x="104.2" y="55.762061" style="stroke: #000000; stroke-width: 0.8"/>
      </g>
     </g>
     <g id="text_13">
      <!-- worst area -->
      <g transform="translate(54.7875 58.801123) scale(0.08 -0.08)">
       <use xlink:href="#DejaVuSans-5a"/>
       <use xlink:href="#DejaVuSans-52" transform="translate(81.78125 0)"/>
       <use xlink:href="#DejaVuSans-55" transform="translate(142.96875 0)"/>
       <use xlink:href="#DejaVuSans-56" transform="translate(184.078125 0)"/>
       <use xlink:href="#DejaVuSans-57" transform="translate(236.171875 0)"/>
       <use xlink:href="#DejaVuSans-3" transform="translate(275.375 0)"/>
       <use xlink:href="#DejaVuSans-44" transform="translate(307.15625 0)"/>
       <use xlink:href="#DejaVuSans-55" transform="translate(368.4375 0)"/>
       <use xlink:href="#DejaVuSans-48" transform="translate(407.34375 0)"/>
       <use xlink:href="#DejaVuSans-44" transform="translate(468.875 0)"/>
      </g>
     </g>
    </g>
    <g id="ytick_8">
     <g id="line2d_13">
      <g>
       <use xlink:href="#m44011fe011" x="104.2" y="35.067354" style="stroke: #000000; stroke-width: 0.8"/>
      </g>
     </g>
     <g id="text_14">
      <!-- worst texture -->
      <g transform="translate(43.7325 38.106416) scale(0.08 -0.08)">
       <defs>
        <path id="DejaVuSans-5b" d="M 3513 3500 
L 2247 1797 
L 3578 0 
L 2900 0 
L 1881 1375 
L 863 0 
L 184 0 
L 1544 1831 
L 300 3500 
L 978 3500 
L 1906 2253 
L 2834 3500 
L 3513 3500 
z
" transform="scale(0.015625)"/>
       </defs>
       <use xlink:href="#DejaVuSans-5a"/>
       <use xlink:href="#DejaVuSans-52" transform="translate(81.78125 0)"/>
       <use xlink:href="#DejaVuSans-55" transform="translate(142.96875 0)"/>
       <use xlink:href="#DejaVuSans-56" transform="translate(184.078125 0)"/>
       <use xlink:href="#DejaVuSans-57" transform="translate(236.171875 0)"/>
       <use xlink:href="#DejaVuSans-3" transform="translate(275.375 0)"/>
       <use xlink:href="#DejaVuSans-57" transform="translate(307.15625 0)"/>
       <use xlink:href="#DejaVuSans-48" transform="translate(346.359375 0)"/>
       <use xlink:href="#DejaVuSans-5b" transform="translate(406.140625 0)"/>
       <use xlink:href="#DejaVuSans-57" transform="translate(465.328125 0)"/>
       <use xlink:href="#DejaVuSans-58" transform="translate(504.53125 0)"/>
       <use xlink:href="#DejaVuSans-55" transform="translate(567.90625 0)"/>
       <use xlink:href="#DejaVuSans-48" transform="translate(606.8125 0)"/>
      </g>
     </g>
    </g>
   </g>
   <g id="patch_3">
    <path d="M 295.45563 185.103979 
L 295.45563 174.756626 
L 359.261579 174.756626 
L 359.261579 185.103979 
L 295.45563 185.103979 
z
" clip-path="url(#p46bfaa7732)" style="fill: #d3e5ff; stroke: #000000; stroke-linejoin: miter"/>
   </g>
   <g id="line2d_14">
    <path d="M 295.45563 179.930303 
L 221.375841 179.930303 
" clip-path="url(#p46bfaa7732)" style="fill: none; stroke: #000000; stroke-linecap: square"/>
   </g>
   <g id="line2d_15">
    <path d="M 359.261579 179.930303 
L 372.779789 179.930303 
" clip-path="url(#p46bfaa7732)" style="fill: none; stroke: #000000; stroke-linecap: square"/>
   </g>
   <g id="line2d_16">
    <path d="M 221.375841 182.517141 
L 221.375841 177.343464 
" clip-path="url(#p46bfaa7732)" style="fill: none; stroke: #000000; stroke-linecap: square"/>
   </g>
   <g id="line2d_17">
    <path d="M 372.779789 182.517141 
L 372.779789 177.343464 
" clip-path="url(#p46bfaa7732)" style="fill: none; stroke: #000000; stroke-linecap: square"/>
   </g>
   <g id="line2d_18">
    <defs>
     <path id="md8a0dab1c7" d="M 0 3 
C 0.795609 3 1.55874 2.683901 2.12132 2.12132 
C 2.683901 1.55874 3 0.795609 3 0 
C 3 -0.795609 2.683901 -1.55874 2.12132 -2.12132 
C 1.55874 -2.683901 0.795609 -3 0 -3 
C -0.795609 -3 -1.55874 -2.683901 -2.12132 -2.12132 
C -2.683901 -1.55874 -3 -0.795609 -3 0 
C -3 0.795609 -2.683901 1.55874 -2.12132 2.12132 
C -1.55874 2.683901 -0.795609 3 0 3 
z
" style="stroke: #000000"/>
    </defs>
    <g clip-path="url(#p46bfaa7732)">
     <use xlink:href="#md8a0dab1c7" x="152.162608" y="179.930303" style="fill-opacity: 0; stroke: #000000"/>
     <use xlink:href="#md8a0dab1c7" x="145.673867" y="179.930303" style="fill-opacity: 0; stroke: #000000"/>
    </g>
   </g>
   <g id="patch_4">
    <path d="M 307.892383 164.409272 
L 307.892383 154.061919 
L 314.381123 154.061919 
L 314.381123 164.409272 
L 307.892383 164.409272 
z
" clip-path="url(#p46bfaa7732)" style="fill: #d3e5ff; stroke: #000000; stroke-linejoin: miter"/>
   </g>
   <g id="line2d_19">
    <path d="M 307.892383 159.235596 
L 299.240728 159.235596 
" clip-path="url(#p46bfaa7732)" style="fill: none; stroke: #000000; stroke-linecap: square"/>
   </g>
   <g id="line2d_20">
    <path d="M 314.381123 159.235596 
L 318.70695 159.235596 
" clip-path="url(#p46bfaa7732)" style="fill: none; stroke: #000000; stroke-linecap: square"/>
   </g>
   <g id="line2d_21">
    <path d="M 299.240728 161.822434 
L 299.240728 156.648757 
" clip-path="url(#p46bfaa7732)" style="fill: none; stroke: #000000; stroke-linecap: square"/>
   </g>
   <g id="line2d_22">
    <path d="M 318.70695 161.822434 
L 318.70695 156.648757 
" clip-path="url(#p46bfaa7732)" style="fill: none; stroke: #000000; stroke-linecap: square"/>
   </g>
   <g id="line2d_23"/>
   <g id="patch_5">
    <path d="M 307.892383 143.714565 
L 307.892383 133.367212 
L 341.417542 133.367212 
L 341.417542 143.714565 
L 307.892383 143.714565 
z
" clip-path="url(#p46bfaa7732)" style="fill: #d3e5ff; stroke: #000000; stroke-linejoin: miter"/>
   </g>
   <g id="line2d_24">
    <path d="M 307.892383 138.540889 
L 299.240728 138.540889 
" clip-path="url(#p46bfaa7732)" style="fill: none; stroke: #000000; stroke-linecap: square"/>
   </g>
   <g id="line2d_25">
    <path d="M 341.417542 138.540889 
L 353.313567 138.540889 
" clip-path="url(#p46bfaa7732)" style="fill: none; stroke: #000000; stroke-linecap: square"/>
   </g>
   <g id="line2d_26">
    <path d="M 299.240728 141.127727 
L 299.240728 135.95405 
" clip-path="url(#p46bfaa7732)" style="fill: none; stroke: #000000; stroke-linecap: square"/>
   </g>
   <g id="line2d_27">
    <path d="M 353.313567 141.127727 
L 353.313567 135.95405 
" clip-path="url(#p46bfaa7732)" style="fill: none; stroke: #000000; stroke-linecap: square"/>
   </g>
   <g id="line2d_28">
    <g clip-path="url(#p46bfaa7732)">
     <use xlink:href="#md8a0dab1c7" x="141.34804" y="138.540889" style="fill-opacity: 0; stroke: #000000"/>
     <use xlink:href="#md8a0dab1c7" x="190.013595" y="138.540889" style="fill-opacity: 0; stroke: #000000"/>
    </g>
   </g>
   <g id="patch_6">
    <path d="M 324.654962 123.019858 
L 324.654962 112.672505 
L 338.7139 112.672505 
L 338.7139 123.019858 
L 324.654962 123.019858 
z
" clip-path="url(#p46bfaa7732)" style="fill: #d3e5ff; stroke: #000000; stroke-linejoin: miter"/>
   </g>
   <g id="line2d_29">
    <path d="M 324.654962 117.846182 
L 320.869864 117.846182 
" clip-path="url(#p46bfaa7732)" style="fill: none; stroke: #000000; stroke-linecap: square"/>
   </g>
   <g id="line2d_30">
    <path d="M 338.7139 117.846182 
L 354.395024 117.846182 
" clip-path="url(#p46bfaa7732)" style="fill: none; stroke: #000000; stroke-linecap: square"/>
   </g>
   <g id="line2d_31">
    <path d="M 320.869864 120.43302 
L 320.869864 115.259343 
" clip-path="url(#p46bfaa7732)" style="fill: none; stroke: #000000; stroke-linecap: square"/>
   </g>
   <g id="line2d_32">
    <path d="M 354.395024 120.43302 
L 354.395024 115.259343 
" clip-path="url(#p46bfaa7732)" style="fill: none; stroke: #000000; stroke-linecap: square"/>
   </g>
   <g id="line2d_33">
    <g clip-path="url(#p46bfaa7732)">
     <use xlink:href="#md8a0dab1c7" x="288.426161" y="117.846182" style="fill-opacity: 0; stroke: #000000"/>
     <use xlink:href="#md8a0dab1c7" x="162.977175" y="117.846182" style="fill-opacity: 0; stroke: #000000"/>
     <use xlink:href="#md8a0dab1c7" x="183.524854" y="117.846182" style="fill-opacity: 0; stroke: #000000"/>
    </g>
   </g>
   <g id="patch_7">
    <path d="M 279.774507 102.325151 
L 279.774507 91.977798 
L 401.979121 91.977798 
L 401.979121 102.325151 
L 279.774507 102.325151 
z
" clip-path="url(#p46bfaa7732)" style="fill: #d3e5ff; stroke: #000000; stroke-linejoin: miter"/>
   </g>
   <g id="line2d_34">
    <path d="M 279.774507 97.151475 
L 121.881818 97.151475 
" clip-path="url(#p46bfaa7732)" style="fill: none; stroke: #000000; stroke-linecap: square"/>
   </g>
   <g id="line2d_35">
    <path d="M 401.979121 97.151475 
L 454.970503 97.151475 
" clip-path="url(#p46bfaa7732)" style="fill: none; stroke: #000000; stroke-linecap: square"/>
   </g>
   <g id="line2d_36">
    <path d="M 121.881818 99.738313 
L 121.881818 94.564636 
" clip-path="url(#p46bfaa7732)" style="fill: none; stroke: #000000; stroke-linecap: square"/>
   </g>
   <g id="line2d_37">
    <path d="M 454.970503 99.738313 
L 454.970503 94.564636 
" clip-path="url(#p46bfaa7732)" style="fill: none; stroke: #000000; stroke-linecap: square"/>
   </g>
   <g id="line2d_38"/>
   <g id="patch_8">
    <path d="M 271.663581 81.630444 
L 271.663581 71.283091 
L 417.660245 71.283091 
L 417.660245 81.630444 
L 271.663581 81.630444 
z
" clip-path="url(#p46bfaa7732)" style="fill: #d3e5ff; stroke: #000000; stroke-linejoin: miter"/>
   </g>
   <g id="line2d_39">
    <path d="M 271.663581 76.456768 
L 124.044732 76.456768 
" clip-path="url(#p46bfaa7732)" style="fill: none; stroke: #000000; stroke-linecap: square"/>
   </g>
   <g id="line2d_40">
    <path d="M 417.660245 76.456768 
L 463.622157 76.456768 
" clip-path="url(#p46bfaa7732)" style="fill: none; stroke: #000000; stroke-linecap: square"/>
   </g>
   <g id="line2d_41">
    <path d="M 124.044732 79.043606 
L 124.044732 73.869929 
" clip-path="url(#p46bfaa7732)" style="fill: none; stroke: #000000; stroke-linecap: square"/>
   </g>
   <g id="line2d_42">
    <path d="M 463.622157 79.043606 
L 463.622157 73.869929 
" clip-path="url(#p46bfaa7732)" style="fill: none; stroke: #000000; stroke-linecap: square"/>
   </g>
   <g id="line2d_43"/>
   <g id="patch_9">
    <path d="M 298.159272 60.935737 
L 298.159272 50.588384 
L 405.223492 50.588384 
L 405.223492 60.935737 
L 298.159272 60.935737 
z
" clip-path="url(#p46bfaa7732)" style="fill: #d3e5ff; stroke: #000000; stroke-linejoin: miter"/>
   </g>
   <g id="line2d_44">
    <path d="M 298.159272 55.762061 
L 146.755324 55.762061 
" clip-path="url(#p46bfaa7732)" style="fill: none; stroke: #000000; stroke-linecap: square"/>
   </g>
   <g id="line2d_45">
    <path d="M 405.223492 55.762061 
L 475.518182 55.762061 
" clip-path="url(#p46bfaa7732)" style="fill: none; stroke: #000000; stroke-linecap: square"/>
   </g>
   <g id="line2d_46">
    <path d="M 146.755324 58.348899 
L 146.755324 53.175222 
" clip-path="url(#p46bfaa7732)" style="fill: none; stroke: #000000; stroke-linecap: square"/>
   </g>
   <g id="line2d_47">
    <path d="M 475.518182 58.348899 
L 475.518182 53.175222 
" clip-path="url(#p46bfaa7732)" style="fill: none; stroke: #000000; stroke-linecap: square"/>
   </g>
   <g id="line2d_48"/>
   <g id="patch_10">
    <path d="M 339.795357 40.24103 
L 339.795357 29.893677 
L 356.557937 29.893677 
L 356.557937 40.24103 
L 339.795357 40.24103 
z
" clip-path="url(#p46bfaa7732)" style="fill: #d3e5ff; stroke: #000000; stroke-linejoin: miter"/>
   </g>
   <g id="line2d_49">
    <path d="M 339.795357 35.067354 
L 331.684431 35.067354 
" clip-path="url(#p46bfaa7732)" style="fill: none; stroke: #000000; stroke-linecap: square"/>
   </g>
   <g id="line2d_50">
    <path d="M 356.557937 35.067354 
L 366.291048 35.067354 
" clip-path="url(#p46bfaa7732)" style="fill: none; stroke: #000000; stroke-linecap: square"/>
   </g>
   <g id="line2d_51">
    <path d="M 331.684431 37.654192 
L 331.684431 32.480515 
" clip-path="url(#p46bfaa7732)" style="fill: none; stroke: #000000; stroke-linecap: square"/>
   </g>
   <g id="line2d_52">
    <path d="M 366.291048 37.654192 
L 366.291048 32.480515 
" clip-path="url(#p46bfaa7732)" style="fill: none; stroke: #000000; stroke-linecap: square"/>
   </g>
   <g id="line2d_53">
    <g clip-path="url(#p46bfaa7732)">
     <use xlink:href="#md8a0dab1c7" x="262.471198" y="35.067354" style="fill-opacity: 0; stroke: #000000"/>
     <use xlink:href="#md8a0dab1c7" x="292.751988" y="35.067354" style="fill-opacity: 0; stroke: #000000"/>
    </g>
   </g>
   <g id="line2d_54">
    <path d="M 348.98774 185.103979 
L 348.98774 174.756626 
" clip-path="url(#p46bfaa7732)" style="fill: none; stroke: #f0883e"/>
   </g>
   <g id="line2d_55">
    <path d="M 308.973839 164.409272 
L 308.973839 154.061919 
" clip-path="url(#p46bfaa7732)" style="fill: none; stroke: #f0883e"/>
   </g>
   <g id="line2d_56">
    <path d="M 333.847345 143.714565 
L 333.847345 133.367212 
" clip-path="url(#p46bfaa7732)" style="fill: none; stroke: #f0883e"/>
   </g>
   <g id="line2d_57">
    <path d="M 331.684431 123.019858 
L 331.684431 112.672505 
" clip-path="url(#p46bfaa7732)" style="fill: none; stroke: #f0883e"/>
   </g>
   <g id="line2d_58">
    <path d="M 339.254629 102.325151 
L 339.254629 91.977798 
" clip-path="url(#p46bfaa7732)" style="fill: none; stroke: #f0883e"/>
   </g>
   <g id="line2d_59">
    <path d="M 347.906283 81.630444 
L 347.906283 71.283091 
" clip-path="url(#p46bfaa7732)" style="fill: none; stroke: #f0883e"/>
   </g>
   <g id="line2d_60">
    <path d="M 337.091715 60.935737 
L 337.091715 50.588384 
" clip-path="url(#p46bfaa7732)" style="fill: none; stroke: #f0883e"/>
   </g>
   <g id="line2d_61">
    <path d="M 345.743369 40.24103 
L 345.743369 29.893677 
" clip-path="url(#p46bfaa7732)" style="fill: none; stroke: #f0883e"/>
   </g>
   <g id="patch_11">
    <path d="M 104.2 190.277656 
L 104.2 24.72 
" style="fill: none; stroke: #000000; stroke-width: 0.8; stroke-linejoin: miter; stroke-linecap: square"/>
   </g>
   <g id="patch_12">
    <path d="M 493.2 190.277656 
L 493.2 24.72 
" style="fill: none; stroke: #000000; stroke-width: 0.8; stroke-linejoin: miter; stroke-linecap: square"/>
   </g>
   <g id="patch_13">
    <path d="M 104.2 190.277656 
L 493.2 190.277656 
" style="fill: none; stroke: #000000; stroke-width: 0.8; stroke-linejoin: miter; stroke-linecap: square"/>
   </g>
   <g id="patch_14">
    <path d="M 104.2 24.72 
L 493.2 24.72 
" style="fill: none; stroke: #000000; stroke-width: 0.8; stroke-linejoin: miter; stroke-linecap: square"/>
   </g>
   <g id="text_15">
    <!-- Permutation importance — top 8 features -->
    <g transform="translate(194.634375 18.72) scale(0.1 -0.1)">
     <defs>
      <path id="DejaVuSans-33" d="M 1259 4147 
L 1259 2394 
L 2053 2394 
Q 2494 2394 2734 2622 
Q 2975 2850 2975 3272 
Q 2975 3691 2734 3919 
Q 2494 4147 2053 4147 
L 1259 4147 
z
M 628 4666 
L 2053 4666 
Q 2838 4666 3239 4311 
Q 3641 3956 3641 3272 
Q 3641 2581 3239 2228 
Q 2838 1875 2053 1875 
L 1259 1875 
L 1259 0 
L 628 0 
L 628 4666 
z
" transform="scale(0.015625)"/>
      <path id="DejaVuSans-af6" d="M 313 1978 
L 6088 1978 
L 6088 1528 
L 313 1528 
L 313 1978 
z
" transform="scale(0.015625)"/>
      <path id="DejaVuSans-1b" d="M 2034 2216 
Q 1584 2216 1326 1975 
Q 1069 1734 1069 1313 
Q 1069 891 1326 650 
Q 1584 409 2034 409 
Q 2484 409 2743 651 
Q 3003 894 3003 1313 
Q 3003 1734 2745 1975 
Q 2488 2216 2034 2216 
z
M 1403 2484 
Q 997 2584 770 2862 
Q 544 3141 544 3541 
Q 544 4100 942 4425 
Q 1341 4750 2034 4750 
Q 2731 4750 3128 4425 
Q 3525 4100 3525 3541 
Q 3525 3141 3298 2862 
Q 3072 2584 2669 2484 
Q 3125 2378 3379 2068 
Q 3634 1759 3634 1313 
Q 3634 634 3220 271 
Q 2806 -91 2034 -91 
Q 1263 -91 848 271 
Q 434 634 434 1313 
Q 434 1759 690 2068 
Q 947 2378 1403 2484 
z
M 1172 3481 
Q 1172 3119 1398 2916 
Q 1625 2713 2034 2713 
Q 2441 2713 2670 2916 
Q 2900 3119 2900 3481 
Q 2900 3844 2670 4047 
Q 2441 4250 2034 4250 
Q 1625 4250 1398 4047 
Q 1172 3844 1172 3481 
z
" transform="scale(0.015625)"/>
     </defs>
     <use xlink:href="#DejaVuSans-33"/>
     <use xlink:href="#DejaVuSans-48" transform="translate(56.734375 0)"/>
     <use xlink:href="#DejaVuSans-55" transform="translate(118.265625 0)"/>
     <use xlink:href="#DejaVuSans-50" transform="translate(157.625 0)"/>
     <use xlink:href="#DejaVuSans-58" transform="translate(255.03125 0)"/>
     <use xlink:href="#DejaVuSans-57" transform="translate(318.40625 0)"/>
     <use xlink:href="#DejaVuSans-44" transform="translate(357.609375 0)"/>
     <use xlink:href="#DejaVuSans-57" transform="translate(418.890625 0)"/>
     <use xlink:href="#DejaVuSans-4c" transform="translate(458.09375 0)"/>
     <use xlink:href="#DejaVuSans-52" transform="translate(485.875 0)"/>
     <use xlink:href="#DejaVuSans-51" transform="translate(547.0625 0)"/>
     <use xlink:href="#DejaVuSans-3" transform="translate(610.4375 0)"/>
     <use xlink:href="#DejaVuSans-4c" transform="translate(642.21875 0)"/>
     <use xlink:href="#DejaVuSans-50" transform="translate(670 0)"/>
     <use xlink:href="#DejaVuSans-53" transform="translate(767.40625 0)"/>
     <use xlink:href="#DejaVuSans-52" transform="translate(830.890625 0)"/>
     <use xlink:href="#DejaVuSans-55" transform="translate(892.078125 0)"/>
     <use xlink:href="#DejaVuSans-57" transform="translate(933.1875 0)"/>
     <use xlink:href="#DejaVuSans-44" transform="translate(972.390625 0)"/>
     <use xlink:href="#DejaVuSans-51" transform="translate(1033.671875 0)"/>
     <use xlink:href="#DejaVuSans-46" transform="translate(1097.046875 0)"/>
     <use xlink:href="#DejaVuSans-48" transform="translate(1152.03125 0)"/>
     <use xlink:href="#DejaVuSans-3" transform="translate(1213.5625 0)"/>
     <use xlink:href="#DejaVuSans-af6" transform="translate(1245.34375 0)"/>
     <use xlink:href="#DejaVuSans-3" transform="translate(1345.34375 0)"/>
     <use xlink:href="#DejaVuSans-57" transform="translate(1377.125 0)"/>
     <use xlink:href="#DejaVuSans-52" transform="translate(1416.328125 0)"/>
     <use xlink:href="#DejaVuSans-53" transform="translate(1477.515625 0)"/>
     <use xlink:href="#DejaVuSans-3" transform="translate(1541 0)"/>
     <use xlink:href="#DejaVuSans-1b" transform="translate(1572.78125 0)"/>
     <use xlink:href="#DejaVuSans-3" transform="translate(1636.40625 0)"/>
     <use xlink:href="#DejaVuSans-49" transform="translate(1668.1875 0)"/>
     <use xlink:href="#DejaVuSans-48" transform="translate(1703.390625 0)"/>
     <use xlink:href="#DejaVuSans-44" transform="translate(1764.921875 0)"/>
     <use xlink:href="#DejaVuSans-57" transform="translate(1826.203125 0)"/>
     <use xlink:href="#DejaVuSans-58" transform="translate(1865.40625 0)"/>
     <use xlink:href="#DejaVuSans-55" transform="translate(1928.78125 0)"/>
     <use xlink:href="#DejaVuSans-48" transform="translate(1967.6875 0)"/>
     <use xlink:href="#DejaVuSans-56" transform="translate(2029.21875 0)"/>
    </g>
   </g>
  </g>
 </g>
 <defs>
  <clipPath id="p46bfaa7732">
   <rect x="104.2" y="24.72" width="389" height="165.557656"/>
  </clipPath>
 </defs>
</svg>

