<?xml version="1.0" encoding="utf-8" standalone="no"?>
<!DOCTYPE svg PUBLIC "-//W3C//DTD SVG 1.1//EN"
  "http://www.w3.org/Graphics/SVG/1.1/DTD/svg11.dtd">
<svg xmlns:xlink="http://www.w3.org/1999/xlink" width="648pt" height="230.4pt" viewBox="0 0 648 230.4" xmlns="http://www.w3.org/2000/svg" version="1.1">
 <metadata>
  <rdf:RDF xmlns:dc="http://purl.org/dc/elements/1.1/" xmlns:cc="http://creativecommons.org/ns#" xmlns:rdf="http://www.w3.org/1999/02/22-rdf-syntax-ns#">
   <cc:Work>
    <dc:type rdf:resource="http://purl.org/dc/dcmitype/StillImage"/>
    <dc:date>2026-07-04T22:08:07.063564</dc:date>
    <dc:format>image/svg+xml</dc:format>
    <dc:creator>
     <cc:Agent>
      <dc:title>Matplotlib v3.11.0, https://matplotlib.org/</dc:title>
     </cc:Agent>
    </dc:creator>
   </cc:Work>
  </rdf:RDF>
 </metadata>
 <defs>
  <style type="text/css">*{stroke-linejoin: round; stroke-linecap: butt}</style>
 </defs>
 <g id="figure_1">
  <g id="patch_1">
   <path d="M 0 230.4 
L 648 230.4 
L 648 0 
L 0 0 
L 0 230.4 
z
" style="fill: none"/>
  </g>
  <g id="axes_1">
   <g id="patch_2">
    <path d="M 44.76 188.277656 
L 317.358828 188.277656 
L 317.358828 24.72 
L 44.76 24.72 
L 44.76 188.277656 
z
" style="fill: none"/>
   </g>
   <g id="PathCollection_1">
    <defs>
     <path id="m5629a50061" d="M 0 1.870829 
C 0.49615 1.870829 0.972045 1.673706 1.322876 1.322876 
C 1.673706 0.972045 1.870829 0.49615 1.870829 0 
C 1.870829 -0.49615 1.673706 -0.972045 1.322876 -1.322876 
C 0.972045 -1.673706 0.49615 -1.870829 0 -1.870829 
C -0.49615 -1.870829 -0.972045 -1.673706 -1.322876 -1.322876 
C -1.673706 -0.972045 -1.870829 -0.49615 -1.870829 0 
C -1.870829 0.49615 -1.673706 0.972045 -1.322876 1.322876 
C -0.972045 1.673706 -0.49615 1.870829 0 1.870829 
z
" style="stroke: #f0883e"/>
    </defs>
    <g clip-path="url(#p2810a70486)">
     <use xlink:href="#m5629a50061" x="78.376185" y="180.843217" style="fill: #f0883e; stroke: #f0883e"/>
     <use xlink:href="#m5629a50061" x="115.836553" y="134.367354" style="fill: #f0883e; stroke: #f0883e"/>
     <use xlink:href="#m5629a50061" x="255.720383" y="60.714448" style="fill: #f0883e; stroke: #f0883e"/>
     <use xlink:href="#m5629a50061" x="201.420573" y="103.629371" style="fill: #f0883e; stroke: #f0883e"/>
     <use xlink:href="#m5629a50061" x="80.477545" y="171.179615" style="fill: #f0883e; stroke: #f0883e"/>
     <use xlink:href="#m5629a50061" x="164.487125" y="114.562202" style="fill: #f0883e; stroke: #f0883e"/>
     <use xlink:href="#m5629a50061" x="175.867967" y="110.225903" style="fill: #f0883e; stroke: #f0883e"/>
     <use xlink:href="#m5629a50061" x="96.736893" y="127.084991" style="fill: #f0883e; stroke: #f0883e"/>
     <use xlink:href="#m5629a50061" x="239.191647" y="68.000835" style="fill: #f0883e; stroke: #f0883e"/>
     <use xlink:href="#m5629a50061" x="85.320728" y="150.290399" style="fill: #f0883e; stroke: #f0883e"/>
     <use xlink:href="#m5629a50061" x="154.103898" y="103.713875" style="fill: #f0883e; stroke: #f0883e"/>
     <use xlink:href="#m5629a50061" x="185.207918" y="107.953294" style="fill: #f0883e; stroke: #f0883e"/>
     <use xlink:href="#m5629a50061" x="163.86785" y="128.766683" style="fill: #f0883e; stroke: #f0883e"/>
     <use xlink:href="#m5629a50061" x="202.569586" y="88.04762" style="fill: #f0883e; stroke: #f0883e"/>
     <use xlink:href="#m5629a50061" x="239.999689" y="70.019345" style="fill: #f0883e; stroke: #f0883e"/>
     <use xlink:href="#m5629a50061" x="294.130249" y="55.561984" style="fill: #f0883e; stroke: #f0883e"/>
     <use xlink:href="#m5629a50061" x="127.580769" y="144.175869" style="fill: #f0883e; stroke: #f0883e"/>
     <use xlink:href="#m5629a50061" x="217.871955" y="85.852078" style="fill: #f0883e; stroke: #f0883e"/>
     <use xlink:href="#m5629a50061" x="229.685097" y="119.929722" style="fill: #f0883e; stroke: #f0883e"/>
     <use xlink:href="#m5629a50061" x="129.692068" y="121.64316" style="fill: #f0883e; stroke: #f0883e"/>
     <use xlink:href="#m5629a50061" x="57.520124" y="159.350867" style="fill: #f0883e; stroke: #f0883e"/>
     <use xlink:href="#m5629a50061" x="298.390974" y="74.307481" style="fill: #f0883e; stroke: #f0883e"/>
     <use xlink:href="#m5629a50061" x="131.099786" y="130.148504" style="fill: #f0883e; stroke: #f0883e"/>
     <use xlink:href="#m5629a50061" x="134.961961" y="143.264373" style="fill: #f0883e; stroke: #f0883e"/>
     <use xlink:href="#m5629a50061" x="278.132122" y="49.078656" style="fill: #f0883e; stroke: #f0883e"/>
     <use xlink:href="#m5629a50061" x="202.164248" y="126.486463" style="fill: #f0883e; stroke: #f0883e"/>
     <use xlink:href="#m5629a50061" x="173.949458" y="123.73829" style="fill: #f0883e; stroke: #f0883e"/>
     <use xlink:href="#m5629a50061" x="248.782135" y="63.928411" style="fill: #f0883e; stroke: #f0883e"/>
     <use xlink:href="#m5629a50061" x="64.671116" y="146.18847" style="fill: #f0883e; stroke: #f0883e"/>
     <use xlink:href="#m5629a50061" x="232.348907" y="113.738919" style="fill: #f0883e; stroke: #f0883e"/>
     <use xlink:href="#m5629a50061" x="149.894883" y="129.255499" style="fill: #f0883e; stroke: #f0883e"/>
     <use xlink:href="#m5629a50061" x="79.665713" y="151.057231" style="fill: #f0883e; stroke: #f0883e"/>
     <use xlink:href="#m5629a50061" x="220.834078" y="96.669343" style="fill: #f0883e; stroke: #f0883e"/>
     <use xlink:href="#m5629a50061" x="287.983542" y="32.154439" style="fill: #f0883e; stroke: #f0883e"/>
     <use xlink:href="#m5629a50061" x="108.496374" y="159.34482" style="fill: #f0883e; stroke: #f0883e"/>
     <use xlink:href="#m5629a50061" x="213.297992" y="86.226501" style="fill: #f0883e; stroke: #f0883e"/>
     <use xlink:href="#m5629a50061" x="131.040773" y="146.386768" style="fill: #f0883e; stroke: #f0883e"/>
     <use xlink:href="#m5629a50061" x="240.970857" y="57.523573" style="fill: #f0883e; stroke: #f0883e"/>
     <use xlink:href="#m5629a50061" x="236.115656" y="80.717556" style="fill: #f0883e; stroke: #f0883e"/>
     <use xlink:href="#m5629a50061" x="111.352282" y="146.005118" style="fill: #f0883e; stroke: #f0883e"/>
    </g>
   </g>
   <g id="matplotlib.axis_1">
    <g id="xtick_1">
     <g id="line2d_1">
      <defs>
       <path id="mb159356f61" d="M 0 0 
L 0 3.5 
" style="stroke: #000000; stroke-width: 0.8"/>
      </defs>
      <g>
       <use xlink:href="#mb159356f61" x="57.150856" y="188.277656" style="stroke: #000000; stroke-width: 0.8"/>
      </g>
     </g>
     <g id="text_1">
      <!-- 0 -->
      <g transform="translate(53.969606 202.875313) scale(0.1 -0.1)">
       <defs>
        <path id="DejaVuSans-13" d="M 2034 4250 
Q 1547 4250 1301 3770 
Q 1056 3291 1056 2328 
Q 1056 1369 1301 889 
Q 1547 409 2034 409 
Q 2525 409 2770 889 
Q 3016 1369 3016 2328 
Q 3016 3291 2770 3770 
Q 2525 4250 2034 4250 
z
M 2034 4750 
Q 2819 4750 3233 4129 
Q 3647 3509 3647 2328 
Q 3647 1150 3233 529 
Q 2819 -91 2034 -91 
Q 1250 -91 836 529 
Q 422 1150 422 2328 
Q 422 3509 836 4129 
Q 1250 4750 2034 4750 
z
" transform="scale(0.015625)"/>
       </defs>
       <use xlink:href="#DejaVuSans-13"/>
      </g>
     </g>
    </g>
    <g id="xtick_2">
     <g id="line2d_2">
      <g>
       <use xlink:href="#mb159356f61" x="106.714279" y="188.277656" style="stroke: #000000; stroke-width: 0.8"/>
      </g>
     </g>
     <g id="text_2">
      <!-- 2 -->
      <g transform="translate(103.533029 202.875313) scale(0.1 -0.1)">
       <defs>
        <path id="DejaVuSans-15" d="M 1228 531 
L 3431 531 
L 3431 0 
L 469 0 
L 469 531 
Q 828 903 1448 1529 
Q 2069 2156 2228 2338 
Q 2531 2678 2651 2914 
Q 2772 3150 2772 3378 
Q 2772 3750 2511 3984 
Q 2250 4219 1831 4219 
Q 1534 4219 1204 4116 
Q 875 4013 500 3803 
L 500 4441 
Q 881 4594 1212 4672 
Q 1544 4750 1819 4750 
Q 2544 4750 2975 4387 
Q 3406 4025 3406 3419 
Q 3406 3131 3298 2873 
Q 3191 2616 2906 2266 
Q 2828 2175 2409 1742 
Q 1991 1309 1228 531 
z
" transform="scale(0.015625)"/>
       </defs>
       <use xlink:href="#DejaVuSans-15"/>
      </g>
     </g>
    </g>
    <g id="xtick_3">
     <g id="line2d_3">
      <g>
       <use xlink:href="#mb159356f61" x="156.277702" y="188.277656" style="stroke: #000000; stroke-width: 0.8"/>
      </g>
     </g>
     <g id="text_3">
      <!-- 4 -->
      <g transform="translate(153.096452 202.875313) scale(0.1 -0.1)">
       <defs>
        <path id="DejaVuSans-17" d="M 2419 4116 
L 825 1625 
L 2419 1625 
L 2419 4116 
z
M 2253 4666 
L 3047 4666 
L 3047 1625 
L 3713 1625 
L 3713 1100 
L 3047 1100 
L 3047 0 
L 2419 0 
L 2419 1100 
L 313 1100 
L 313 1709 
L 2253 4666 
z
" transform="scale(0.015625)"/>
       </defs>
       <use xlink:href="#DejaVuSans-17"/>
      </g>
     </g>
    </g>
    <g id="xtick_4">
     <g id="line2d_4">
      <g>
       <use xlink:href="#mb159356f61" x="205.841126" y="188.277656" style="stroke: #000000; stroke-width: 0.8"/>
      </g>
     </g>
     <g id="text_4">
      <!-- 6 -->
      <g transform="translate(202.659876 202.875313) scale(0.1 -0.1)">
       <defs>
        <path id="DejaVuSans-19" d="M 2113 2584 
Q 1688 2584 1439 2293 
Q 1191 2003 1191 1497 
Q 1191 994 1439 701 
Q 1688 409 2113 409 
Q 2538 409 2786 701 
Q 3034 994 3034 1497 
Q 3034 2003 2786 2293 
Q 2538 2584 2113 2584 
z
M 3366 4563 
L 3366 3988 
Q 3128 4100 2886 4159 
Q 2644 4219 2406 4219 
Q 1781 4219 1451 3797 
Q 1122 3375 1075 2522 
Q 1259 2794 1537 2939 
Q 1816 3084 2150 3084 
Q 2853 3084 3261 2657 
Q 3669 2231 3669 1497 
Q 3669 778 3244 343 
Q 2819 -91 2113 -91 
Q 1303 -91 875 529 
Q 447 1150 447 2328 
Q 447 3434 972 4092 
Q 1497 4750 2381 4750 
Q 2619 4750 2861 4703 
Q 3103 4656 3366 4563 
z
" transform="scale(0.015625)"/>
       </defs>
       <use xlink:href="#DejaVuSans-19"/>
      </g>
     </g>
    </g>
    <g id="xtick_5">
     <g id="line2d_5">
      <g>
       <use xlink:href="#mb159356f61" x="255.404549" y="188.277656" style="stroke: #000000; stroke-width: 0.8"/>
      </g>
     </g>
     <g id="text_5">
      <!-- 8 -->
      <g transform="translate(252.223299 202.875313) scale(0.1 -0.1)">
       <defs>
        <path id="DejaVuSans-1b" d="M 2034 2216 
Q 1584 2216 1326 1975 
Q 1069 1734 1069 1313 
Q 1069 891 1326 650 
Q 1584 409 2034 409 
Q 2484 409 2743 651 
Q 3003 894 3003 1313 
Q 3003 1734 2745 1975 
Q 2488 2216 2034 2216 
z
M 1403 2484 
Q 997 2584 770 2862 
Q 544 3141 544 3541 
Q 544 4100 942 4425 
Q 1341 4750 2034 4750 
Q 2731 4750 3128 4425 
Q 3525 4100 3525 3541 
Q 3525 3141 3298 2862 
Q 3072 2584 2669 2484 
Q 3125 2378 3379 2068 
Q 3634 1759 3634 1313 
Q 3634 634 3220 271 
Q 2806 -91 2034 -91 
Q 1263 -91 848 271 
Q 434 634 434 1313 
Q 434 1759 690 2068 
Q 947 2378 1403 2484 
z
M 1172 3481 
Q 1172 3119 1398 2916 
Q 1625 2713 2034 2713 
Q 2441 2713 2670 2916 
Q 2900 3119 2900 3481 
Q 2900 3844 2670 4047 
Q 2441 4250 2034 4250 
Q 1625 4250 1398 4047 
Q 1172 3844 1172 3481 
z
" transform="scale(0.015625)"/>
       </defs>
       <use xlink:href="#DejaVuSans-1b"/>
      </g>
     </g>
    </g>
    <g id="xtick_6">
     <g id="line2d_6">
      <g>
       <use xlink:href="#mb159356f61" x="304.967972" y="188.277656" style="stroke: #000000; stroke-width: 0.8"/>
      </g>
     </g>
     <g id="text_6">
      <!-- 10 -->
      <g transform="translate(298.605472 202.875313) scale(0.1 -0.1)">
       <defs>
        <path id="DejaVuSans-14" d="M 794 531 
L 1825 531 
L 1825 4091 
L 703 3866 
L 703 4441 
L 1819 4666 
L 2450 4666 
L 2450 531 
L 3481 531 
L 3481 0 
L 794 0 
L 794 531 
z
" transform="scale(0.015625)"/>
       </defs>
       <use xlink:href="#DejaVuSans-14"/>
       <use xlink:href="#DejaVuSans-13" transform="translate(63.625 0)"/>
      </g>
     </g>
    </g>
    <g id="text_7">
     <!-- x -->
     <g transform="translate(178.100039 216.875313) scale(0.1 -0.1)">
      <defs>
       <path id="DejaVuSans-5b" d="M 3513 3500 
L 2247 1797 
L 3578 0 
L 2900 0 
L 1881 1375 
L 863 0 
L 184 0 
L 1544 1831 
L 300 3500 
L 978 3500 
L 1906 2253 
L 2834 3500 
L 3513 3500 
z
" transform="scale(0.015625)"/>
      </defs>
      <use xlink:href="#DejaVuSans-5b"/>
     </g>
    </g>
   </g>
   <g id="matplotlib.axis_2">
    <g id="ytick_1">
     <g id="line2d_7">
      <defs>
       <path id="m1714f0f317" d="M 0 0 
L -3.5 0 
" style="stroke: #000000; stroke-width: 0.8"/>
      </defs>
      <g>
       <use xlink:href="#m1714f0f317" x="44.76" y="183.304571" style="stroke: #000000; stroke-width: 0.8"/>
      </g>
     </g>
     <g id="text_8">
      <!-- 0 -->
      <g transform="translate(31.3975 187.103399) scale(0.1 -0.1)">
       <use xlink:href="#DejaVuSans-13"/>
      </g>
     </g>
    </g>
    <g id="ytick_2">
     <g id="line2d_8">
      <g>
       <use xlink:href="#m1714f0f317" x="44.76" y="150.107756" style="stroke: #000000; stroke-width: 0.8"/>
      </g>
     </g>
     <g id="text_9">
      <!-- 5 -->
      <g transform="translate(31.3975 153.906584) scale(0.1 -0.1)">
       <defs>
        <path id="DejaVuSans-18" d="M 691 4666 
L 3169 4666 
L 3169 4134 
L 1269 4134 
L 1269 2991 
Q 1406 3038 1543 3061 
Q 1681 3084 1819 3084 
Q 2600 3084 3056 2656 
Q 3513 2228 3513 1497 
Q 3513 744 3044 326 
Q 2575 -91 1722 -91 
Q 1428 -91 1123 -41 
Q 819 9 494 109 
L 494 744 
Q 775 591 1075 516 
Q 1375 441 1709 441 
Q 2250 441 2565 725 
Q 2881 1009 2881 1497 
Q 2881 1984 2565 2268 
Q 2250 2553 1709 2553 
Q 1456 2553 1204 2497 
Q 953 2441 691 2322 
L 691 4666 
z
" transform="scale(0.015625)"/>
       </defs>
       <use xlink:href="#DejaVuSans-18"/>
      </g>
     </g>
    </g>
    <g id="ytick_3">
     <g id="line2d_9">
      <g>
       <use xlink:href="#m1714f0f317" x="44.76" y="116.91094" style="stroke: #000000; stroke-width: 0.8"/>
      </g>
     </g>
     <g id="text_10">
      <!-- 10 -->
      <g transform="translate(25.035 120.709768) scale(0.1 -0.1)">
       <use xlink:href="#DejaVuSans-14"/>
       <use xlink:href="#DejaVuSans-13" transform="translate(63.625 0)"/>
      </g>
     </g>
    </g>
    <g id="ytick_4">
     <g id="line2d_10">
      <g>
       <use xlink:href="#m1714f0f317" x="44.76" y="83.714125" style="stroke: #000000; stroke-width: 0.8"/>
      </g>
     </g>
     <g id="text_11">
      <!-- 15 -->
      <g transform="translate(25.035 87.512953) scale(0.1 -0.1)">
       <use xlink:href="#DejaVuSans-14"/>
       <use xlink:href="#DejaVuSans-18" transform="translate(63.625 0)"/>
      </g>
     </g>
    </g>
    <g id="ytick_5">
     <g id="line2d_11">
      <g>
       <use xlink:href="#m1714f0f317" x="44.76" y="50.51731" style="stroke: #000000; stroke-width: 0.8"/>
      </g>
     </g>
     <g id="text_12">
      <!-- 20 -->
      <g transform="translate(25.035 54.316138) scale(0.1 -0.1)">
       <use xlink:href="#DejaVuSans-15"/>
       <use xlink:href="#DejaVuSans-13" transform="translate(63.625 0)"/>
      </g>
     </g>
    </g>
    <g id="text_13">
     <!-- y -->
     <g transform="translate(18.632656 109.458203) rotate(-90) scale(0.1 -0.1)">
      <defs>
       <path id="DejaVuSans-5c" d="M 2059 -325 
Q 1816 -950 1584 -1140 
Q 1353 -1331 966 -1331 
L 506 -1331 
L 506 -850 
L 844 -850 
Q 1081 -850 1212 -737 
Q 1344 -625 1503 -206 
L 1606 56 
L 191 3500 
L 800 3500 
L 1894 763 
L 2988 3500 
L 3597 3500 
L 2059 -325 
z
" transform="scale(0.015625)"/>
      </defs>
      <use xlink:href="#DejaVuSans-5c"/>
     </g>
    </g>
   </g>
   <g id="line2d_12">
    <path d="M 57.150856 169.781869 
L 62.208348 167.303924 
L 67.26584 164.825978 
L 72.323332 162.348033 
L 77.380825 159.870088 
L 82.438317 157.392143 
L 87.495809 154.914198 
L 92.553301 152.436252 
L 97.610793 149.958307 
L 102.668285 147.480362 
L 107.725778 145.002417 
L 112.78327 142.524471 
L 117.840762 140.046526 
L 122.898254 137.568581 
L 127.955746 135.090636 
L 133.013238 132.612691 
L 138.070731 130.134745 
L 143.128223 127.6568 
L 148.185715 125.178855 
L 153.243207 122.70091 
L 158.300699 120.222964 
L 163.358191 117.745019 
L 168.415684 115.267074 
L 173.473176 112.789129 
L 178.530668 110.311184 
L 183.58816 107.833238 
L 188.645652 105.355293 
L 193.703144 102.877348 
L 198.760637 100.399403 
L 203.818129 97.921457 
L 208.875621 95.443512 
L 213.933113 92.965567 
L 218.990605 90.487622 
L 224.048098 88.009676 
L 229.10559 85.531731 
L 234.163082 83.053786 
L 239.220574 80.575841 
L 244.278066 78.097896 
L 249.335558 75.61995 
L 254.393051 73.142005 
L 259.450543 70.66406 
L 264.508035 68.186115 
L 269.565527 65.708169 
L 274.623019 63.230224 
L 279.680511 60.752279 
L 284.738004 58.274334 
L 289.795496 55.796389 
L 294.852988 53.318443 
L 299.91048 50.840498 
L 304.967972 48.362553 
" clip-path="url(#p2810a70486)" style="fill: none; stroke: #58a6ff; stroke-width: 1.5; stroke-linecap: square"/>
   </g>
   <g id="line2d_13">
    <path d="M 78.376185 180.843217 
L 78.376185 159.382406 
" clip-path="url(#p2810a70486)" style="fill: none; stroke: #808080; stroke-opacity: 0.6; stroke-width: 0.6; stroke-linecap: square"/>
   </g>
   <g id="line2d_14">
    <path d="M 115.836553 134.367354 
L 115.836553 141.028499 
" clip-path="url(#p2810a70486)" style="fill: none; stroke: #808080; stroke-opacity: 0.6; stroke-width: 0.6; stroke-linecap: square"/>
   </g>
   <g id="line2d_15">
    <path d="M 255.720383 60.714448 
L 255.720383 72.491671 
" clip-path="url(#p2810a70486)" style="fill: none; stroke: #808080; stroke-opacity: 0.6; stroke-width: 0.6; stroke-linecap: square"/>
   </g>
   <g id="line2d_16">
    <path d="M 201.420573 103.629371 
L 201.420573 99.096153 
" clip-path="url(#p2810a70486)" style="fill: none; stroke: #808080; stroke-opacity: 0.6; stroke-width: 0.6; stroke-linecap: square"/>
   </g>
   <g id="line2d_17">
    <path d="M 80.477545 171.179615 
L 80.477545 158.352834 
" clip-path="url(#p2810a70486)" style="fill: none; stroke: #808080; stroke-opacity: 0.6; stroke-width: 0.6; stroke-linecap: square"/>
   </g>
   <g id="line2d_18">
    <path d="M 164.487125 114.562202 
L 164.487125 117.191892 
" clip-path="url(#p2810a70486)" style="fill: none; stroke: #808080; stroke-opacity: 0.6; stroke-width: 0.6; stroke-linecap: square"/>
   </g>
   <g id="line2d_19">
    <path d="M 175.867967 110.225903 
L 175.867967 111.615788 
" clip-path="url(#p2810a70486)" style="fill: none; stroke: #808080; stroke-opacity: 0.6; stroke-width: 0.6; stroke-linecap: square"/>
   </g>
   <g id="line2d_20">
    <path d="M 96.736893 127.084991 
L 96.736893 150.386479 
" clip-path="url(#p2810a70486)" style="fill: none; stroke: #808080; stroke-opacity: 0.6; stroke-width: 0.6; stroke-linecap: square"/>
   </g>
   <g id="line2d_21">
    <path d="M 239.191647 68.000835 
L 239.191647 80.590014 
" clip-path="url(#p2810a70486)" style="fill: none; stroke: #808080; stroke-opacity: 0.6; stroke-width: 0.6; stroke-linecap: square"/>
   </g>
   <g id="line2d_22">
    <path d="M 85.320728 150.290399 
L 85.320728 155.97989 
" clip-path="url(#p2810a70486)" style="fill: none; stroke: #808080; stroke-opacity: 0.6; stroke-width: 0.6; stroke-linecap: square"/>
   </g>
   <g id="line2d_23">
    <path d="M 154.103898 103.713875 
L 154.103898 122.27921 
" clip-path="url(#p2810a70486)" style="fill: none; stroke: #808080; stroke-opacity: 0.6; stroke-width: 0.6; stroke-linecap: square"/>
   </g>
   <g id="line2d_24">
    <path d="M 185.207918 107.953294 
L 185.207918 107.039629 
" clip-path="url(#p2810a70486)" style="fill: none; stroke: #808080; stroke-opacity: 0.6; stroke-width: 0.6; stroke-linecap: square"/>
   </g>
   <g id="line2d_25">
    <path d="M 163.86785 128.766683 
L 163.86785 117.495309 
" clip-path="url(#p2810a70486)" style="fill: none; stroke: #808080; stroke-opacity: 0.6; stroke-width: 0.6; stroke-linecap: square"/>
   </g>
   <g id="line2d_26">
    <path d="M 202.569586 88.04762 
L 202.569586 98.533188 
" clip-path="url(#p2810a70486)" style="fill: none; stroke: #808080; stroke-opacity: 0.6; stroke-width: 0.6; stroke-linecap: square"/>
   </g>
   <g id="line2d_27">
    <path d="M 239.999689 70.019345 
L 239.999689 80.194109 
" clip-path="url(#p2810a70486)" style="fill: none; stroke: #808080; stroke-opacity: 0.6; stroke-width: 0.6; stroke-linecap: square"/>
   </g>
   <g id="line2d_28">
    <path d="M 294.130249 55.561984 
L 294.130249 53.672553 
" clip-path="url(#p2810a70486)" style="fill: none; stroke: #808080; stroke-opacity: 0.6; stroke-width: 0.6; stroke-linecap: square"/>
   </g>
   <g id="line2d_29">
    <path d="M 127.580769 144.175869 
L 127.580769 135.274358 
" clip-path="url(#p2810a70486)" style="fill: none; stroke: #808080; stroke-opacity: 0.6; stroke-width: 0.6; stroke-linecap: square"/>
   </g>
   <g id="line2d_30">
    <path d="M 217.871955 85.852078 
L 217.871955 91.035711 
" clip-path="url(#p2810a70486)" style="fill: none; stroke: #808080; stroke-opacity: 0.6; stroke-width: 0.6; stroke-linecap: square"/>
   </g>
   <g id="line2d_31">
    <path d="M 229.685097 119.929722 
L 229.685097 85.247799 
" clip-path="url(#p2810a70486)" style="fill: none; stroke: #808080; stroke-opacity: 0.6; stroke-width: 0.6; stroke-linecap: square"/>
   </g>
   <g id="line2d_32">
    <path d="M 129.692068 121.64316 
L 129.692068 134.239916 
" clip-path="url(#p2810a70486)" style="fill: none; stroke: #808080; stroke-opacity: 0.6; stroke-width: 0.6; stroke-linecap: square"/>
   </g>
   <g id="line2d_33">
    <path d="M 57.520124 159.350867 
L 57.520124 169.600944 
" clip-path="url(#p2810a70486)" style="fill: none; stroke: #808080; stroke-opacity: 0.6; stroke-width: 0.6; stroke-linecap: square"/>
   </g>
   <g id="line2d_34">
    <path d="M 298.390974 74.307481 
L 298.390974 51.584988 
" clip-path="url(#p2810a70486)" style="fill: none; stroke: #808080; stroke-opacity: 0.6; stroke-width: 0.6; stroke-linecap: square"/>
   </g>
   <g id="line2d_35">
    <path d="M 131.099786 130.148504 
L 131.099786 133.550197 
" clip-path="url(#p2810a70486)" style="fill: none; stroke: #808080; stroke-opacity: 0.6; stroke-width: 0.6; stroke-linecap: square"/>
   </g>
   <g id="line2d_36">
    <path d="M 134.961961 143.264373 
L 134.961961 131.657903 
" clip-path="url(#p2810a70486)" style="fill: none; stroke: #808080; stroke-opacity: 0.6; stroke-width: 0.6; stroke-linecap: square"/>
   </g>
   <g id="line2d_37">
    <path d="M 278.132122 49.078656 
L 278.132122 61.510921 
" clip-path="url(#p2810a70486)" style="fill: none; stroke: #808080; stroke-opacity: 0.6; stroke-width: 0.6; stroke-linecap: square"/>
   </g>
   <g id="line2d_38">
    <path d="M 202.164248 126.486463 
L 202.164248 98.731785 
" clip-path="url(#p2810a70486)" style="fill: none; stroke: #808080; stroke-opacity: 0.6; stroke-width: 0.6; stroke-linecap: square"/>
   </g>
   <g id="line2d_39">
    <path d="M 173.949458 123.73829 
L 173.949458 112.555772 
" clip-path="url(#p2810a70486)" style="fill: none; stroke: #808080; stroke-opacity: 0.6; stroke-width: 0.6; stroke-linecap: square"/>
   </g>
   <g id="line2d_40">
    <path d="M 248.782135 63.928411 
L 248.782135 75.891103 
" clip-path="url(#p2810a70486)" style="fill: none; stroke: #808080; stroke-opacity: 0.6; stroke-width: 0.6; stroke-linecap: square"/>
   </g>
   <g id="line2d_41">
    <path d="M 64.671116 146.18847 
L 64.671116 166.097277 
" clip-path="url(#p2810a70486)" style="fill: none; stroke: #808080; stroke-opacity: 0.6; stroke-width: 0.6; stroke-linecap: square"/>
   </g>
   <g id="line2d_42">
    <path d="M 232.348907 113.738919 
L 232.348907 83.942651 
" clip-path="url(#p2810a70486)" style="fill: none; stroke: #808080; stroke-opacity: 0.6; stroke-width: 0.6; stroke-linecap: square"/>
   </g>
   <g id="line2d_43">
    <path d="M 149.894883 129.255499 
L 149.894883 124.341439 
" clip-path="url(#p2810a70486)" style="fill: none; stroke: #808080; stroke-opacity: 0.6; stroke-width: 0.6; stroke-linecap: square"/>
   </g>
   <g id="line2d_44">
    <path d="M 79.665713 151.057231 
L 79.665713 158.750595 
" clip-path="url(#p2810a70486)" style="fill: none; stroke: #808080; stroke-opacity: 0.6; stroke-width: 0.6; stroke-linecap: square"/>
   </g>
   <g id="line2d_45">
    <path d="M 220.834078 96.669343 
L 220.834078 89.584402 
" clip-path="url(#p2810a70486)" style="fill: none; stroke: #808080; stroke-opacity: 0.6; stroke-width: 0.6; stroke-linecap: square"/>
   </g>
   <g id="line2d_46">
    <path d="M 287.983542 32.154439 
L 287.983542 56.684165 
" clip-path="url(#p2810a70486)" style="fill: none; stroke: #808080; stroke-opacity: 0.6; stroke-width: 0.6; stroke-linecap: square"/>
   </g>
   <g id="line2d_47">
    <path d="M 108.496374 159.34482 
L 108.496374 144.624859 
" clip-path="url(#p2810a70486)" style="fill: none; stroke: #808080; stroke-opacity: 0.6; stroke-width: 0.6; stroke-linecap: square"/>
   </g>
   <g id="line2d_48">
    <path d="M 213.297992 86.226501 
L 213.297992 93.276748 
" clip-path="url(#p2810a70486)" style="fill: none; stroke: #808080; stroke-opacity: 0.6; stroke-width: 0.6; stroke-linecap: square"/>
   </g>
   <g id="line2d_49">
    <path d="M 131.040773 146.386768 
L 131.040773 133.57911 
" clip-path="url(#p2810a70486)" style="fill: none; stroke: #808080; stroke-opacity: 0.6; stroke-width: 0.6; stroke-linecap: square"/>
   </g>
   <g id="line2d_50">
    <path d="M 240.970857 57.523573 
L 240.970857 79.71828 
" clip-path="url(#p2810a70486)" style="fill: none; stroke: #808080; stroke-opacity: 0.6; stroke-width: 0.6; stroke-linecap: square"/>
   </g>
   <g id="line2d_51">
    <path d="M 236.115656 80.717556 
L 236.115656 82.097112 
" clip-path="url(#p2810a70486)" style="fill: none; stroke: #808080; stroke-opacity: 0.6; stroke-width: 0.6; stroke-linecap: square"/>
   </g>
   <g id="line2d_52">
    <path d="M 111.352282 146.005118 
L 111.352282 143.225592 
" clip-path="url(#p2810a70486)" style="fill: none; stroke: #808080; stroke-opacity: 0.6; stroke-width: 0.6; stroke-linecap: square"/>
   </g>
   <g id="patch_3">
    <path d="M 44.76 188.277656 
L 44.76 24.72 
" style="fill: none; stroke: #000000; stroke-width: 0.8; stroke-linejoin: miter; stroke-linecap: square"/>
   </g>
   <g id="patch_4">
    <path d="M 317.358828 188.277656 
L 317.358828 24.72 
" style="fill: none; stroke: #000000; stroke-width: 0.8; stroke-linejoin: miter; stroke-linecap: square"/>
   </g>
   <g id="patch_5">
    <path d="M 44.76 188.277656 
L 317.358828 188.277656 
" style="fill: none; stroke: #000000; stroke-width: 0.8; stroke-linejoin: miter; stroke-linecap: square"/>
   </g>
   <g id="patch_6">
    <path d="M 44.76 24.72 
L 317.358828 24.72 
" style="fill: none; stroke: #000000; stroke-width: 0.8; stroke-linejoin: miter; stroke-linecap: square"/>
   </g>
   <g id="text_14">
    <!-- OLS fit — residuals as gray segments -->
    <g transform="translate(96.986758 18.72) scale(0.09 -0.09)">
     <defs>
      <path id="DejaVuSans-32" d="M 2522 4238 
Q 1834 4238 1429 3725 
Q 1025 3213 1025 2328 
Q 1025 1447 1429 934 
Q 1834 422 2522 422 
Q 3209 422 3611 934 
Q 4013 1447 4013 2328 
Q 4013 3213 3611 3725 
Q 3209 4238 2522 4238 
z
M 2522 4750 
Q 3503 4750 4090 4092 
Q 4678 3434 4678 2328 
Q 4678 1225 4090 567 
Q 3503 -91 2522 -91 
Q 1538 -91 948 565 
Q 359 1222 359 2328 
Q 359 3434 948 4092 
Q 1538 4750 2522 4750 
z
" transform="scale(0.015625)"/>
      <path id="DejaVuSans-2f" d="M 628 4666 
L 1259 4666 
L 1259 531 
L 3531 531 
L 3531 0 
L 628 0 
L 628 4666 
z
" transform="scale(0.015625)"/>
      <path id="DejaVuSans-36" d="M 3425 4513 
L 3425 3897 
Q 3066 4069 2747 4153 
Q 2428 4238 2131 4238 
Q 1616 4238 1336 4038 
Q 1056 3838 1056 3469 
Q 1056 3159 1242 3001 
Q 1428 2844 1947 2747 
L 2328 2669 
Q 3034 2534 3370 2195 
Q 3706 1856 3706 1288 
Q 3706 609 3251 259 
Q 2797 -91 1919 -91 
Q 1588 -91 1214 -16 
Q 841 59 441 206 
L 441 856 
Q 825 641 1194 531 
Q 1563 422 1919 422 
Q 2459 422 2753 634 
Q 3047 847 3047 1241 
Q 3047 1584 2836 1778 
Q 2625 1972 2144 2069 
L 1759 2144 
Q 1053 2284 737 2584 
Q 422 2884 422 3419 
Q 422 4038 858 4394 
Q 1294 4750 2059 4750 
Q 2388 4750 2728 4690 
Q 3069 4631 3425 4513 
z
" transform="scale(0.015625)"/>
      <path id="DejaVuSans-3" transform="scale(0.015625)"/>
      <path id="DejaVuSans-13af" d="M 3431 3500 
L 3431 0 
L 2853 0 
L 2853 3053 
L 1275 3053 
L 1275 0 
L 697 0 
L 697 3053 
L 147 3053 
L 147 3500 
L 697 3500 
L 697 3744 
Q 697 4316 967 4589 
Q 1238 4863 1797 4863 
L 2375 4863 
L 2375 4384 
L 1825 4384 
Q 1516 4384 1395 4259 
Q 1275 4134 1275 3809 
L 1275 3500 
L 3431 3500 
z
M 2853 4856 
L 3431 4856 
L 3431 4128 
L 2853 4128 
L 2853 4856 
z
" transform="scale(0.015625)"/>
      <path id="DejaVuSans-57" d="M 1172 4494 
L 1172 3500 
L 2356 3500 
L 2356 3053 
L 1172 3053 
L 1172 1153 
Q 1172 725 1289 603 
Q 1406 481 1766 481 
L 2356 481 
L 2356 0 
L 1766 0 
Q 1100 0 847 248 
Q 594 497 594 1153 
L 594 3053 
L 172 3053 
L 172 3500 
L 594 3500 
L 594 4494 
L 1172 4494 
z
" transform="scale(0.015625)"/>
      <path id="DejaVuSans-af6" d="M 313 1978 
L 6088 1978 
L 6088 1528 
L 313 1528 
L 313 1978 
z
" transform="scale(0.015625)"/>
      <path id="DejaVuSans-55" d="M 2631 2963 
Q 2534 3019 2420 3045 
Q 2306 3072 2169 3072 
Q 1681 3072 1420 2755 
Q 1159 2438 1159 1844 
L 1159 0 
L 581 0 
L 581 3500 
L 1159 3500 
L 1159 2956 
Q 1341 3275 1631 3429 
Q 1922 3584 2338 3584 
Q 2397 3584 2469 3576 
Q 2541 3569 2628 3553 
L 2631 2963 
z
" transform="scale(0.015625)"/>
      <path id="DejaVuSans-48" d="M 3597 1894 
L 3597 1613 
L 953 1613 
Q 991 1019 1311 708 
Q 1631 397 2203 397 
Q 2534 397 2845 478 
Q 3156 559 3463 722 
L 3463 178 
Q 3153 47 2828 -22 
Q 2503 -91 2169 -91 
Q 1331 -91 842 396 
Q 353 884 353 1716 
Q 353 2575 817 3079 
Q 1281 3584 2069 3584 
Q 2775 3584 3186 3129 
Q 3597 2675 3597 1894 
z
M 3022 2063 
Q 3016 2534 2758 2815 
Q 2500 3097 2075 3097 
Q 1594 3097 1305 2825 
Q 1016 2553 972 2059 
L 3022 2063 
z
" transform="scale(0.015625)"/>
      <path id="DejaVuSans-56" d="M 2834 3397 
L 2834 2853 
Q 2591 2978 2328 3040 
Q 2066 3103 1784 3103 
Q 1356 3103 1142 2972 
Q 928 2841 928 2578 
Q 928 2378 1081 2264 
Q 1234 2150 1697 2047 
L 1894 2003 
Q 2506 1872 2764 1633 
Q 3022 1394 3022 966 
Q 3022 478 2636 193 
Q 2250 -91 1575 -91 
Q 1294 -91 989 -36 
Q 684 19 347 128 
L 347 722 
Q 666 556 975 473 
Q 1284 391 1588 391 
Q 1994 391 2212 530 
Q 2431 669 2431 922 
Q 2431 1156 2273 1281 
Q 2116 1406 1581 1522 
L 1381 1569 
Q 847 1681 609 1914 
Q 372 2147 372 2553 
Q 372 3047 722 3315 
Q 1072 3584 1716 3584 
Q 2034 3584 2315 3537 
Q 2597 3491 2834 3397 
z
" transform="scale(0.015625)"/>
      <path id="DejaVuSans-4c" d="M 603 3500 
L 1178 3500 
L 1178 0 
L 603 0 
L 603 3500 
z
M 603 4863 
L 1178 4863 
L 1178 4134 
L 603 4134 
L 603 4863 
z
" transform="scale(0.015625)"/>
      <path id="DejaVuSans-47" d="M 2906 2969 
L 2906 4863 
L 3481 4863 
L 3481 0 
L 2906 0 
L 2906 525 
Q 2725 213 2448 61 
Q 2172 -91 1784 -91 
Q 1150 -91 751 415 
Q 353 922 353 1747 
Q 353 2572 751 3078 
Q 1150 3584 1784 3584 
Q 2172 3584 2448 3432 
Q 2725 3281 2906 2969 
z
M 947 1747 
Q 947 1113 1208 752 
Q 1469 391 1925 391 
Q 2381 391 2643 752 
Q 2906 1113 2906 1747 
Q 2906 2381 2643 2742 
Q 2381 3103 1925 3103 
Q 1469 3103 1208 2742 
Q 947 2381 947 1747 
z
" transform="scale(0.015625)"/>
      <path id="DejaVuSans-58" d="M 544 1381 
L 544 3500 
L 1119 3500 
L 1119 1403 
Q 1119 906 1312 657 
Q 1506 409 1894 409 
Q 2359 409 2629 706 
Q 2900 1003 2900 1516 
L 2900 3500 
L 3475 3500 
L 3475 0 
L 2900 0 
L 2900 538 
Q 2691 219 2414 64 
Q 2138 -91 1772 -91 
Q 1169 -91 856 284 
Q 544 659 544 1381 
z
M 1991 3584 
L 1991 3584 
z
" transform="scale(0.015625)"/>
      <path id="DejaVuSans-44" d="M 2194 1759 
Q 1497 1759 1228 1600 
Q 959 1441 959 1056 
Q 959 750 1161 570 
Q 1363 391 1709 391 
Q 2188 391 2477 730 
Q 2766 1069 2766 1631 
L 2766 1759 
L 2194 1759 
z
M 3341 1997 
L 3341 0 
L 2766 0 
L 2766 531 
Q 2569 213 2275 61 
Q 1981 -91 1556 -91 
Q 1019 -91 701 211 
Q 384 513 384 1019 
Q 384 1609 779 1909 
Q 1175 2209 1959 2209 
L 2766 2209 
L 2766 2266 
Q 2766 2663 2505 2880 
Q 2244 3097 1772 3097 
Q 1472 3097 1187 3025 
Q 903 2953 641 2809 
L 641 3341 
Q 956 3463 1253 3523 
Q 1550 3584 1831 3584 
Q 2591 3584 2966 3190 
Q 3341 2797 3341 1997 
z
" transform="scale(0.015625)"/>
      <path id="DejaVuSans-4f" d="M 603 4863 
L 1178 4863 
L 1178 0 
L 603 0 
L 603 4863 
z
" transform="scale(0.015625)"/>
      <path id="DejaVuSans-4a" d="M 2906 1791 
Q 2906 2416 2648 2759 
Q 2391 3103 1925 3103 
Q 1463 3103 1205 2759 
Q 947 2416 947 1791 
Q 947 1169 1205 825 
Q 1463 481 1925 481 
Q 2391 481 2648 825 
Q 2906 1169 2906 1791 
z
M 3481 434 
Q 3481 -459 3084 -895 
Q 2688 -1331 1869 -1331 
Q 1566 -1331 1297 -1286 
Q 1028 -1241 775 -1147 
L 775 -588 
Q 1028 -725 1275 -790 
Q 1522 -856 1778 -856 
Q 2344 -856 2625 -561 
Q 2906 -266 2906 331 
L 2906 616 
Q 2728 306 2450 153 
Q 2172 0 1784 0 
Q 1141 0 747 490 
Q 353 981 353 1791 
Q 353 2603 747 3093 
Q 1141 3584 1784 3584 
Q 2172 3584 2450 3431 
Q 2728 3278 2906 2969 
L 2906 3500 
L 3481 3500 
L 3481 434 
z
" transform="scale(0.015625)"/>
      <path id="DejaVuSans-50" d="M 3328 2828 
Q 3544 3216 3844 3400 
Q 4144 3584 4550 3584 
Q 5097 3584 5394 3201 
Q 5691 2819 5691 2113 
L 5691 0 
L 5113 0 
L 5113 2094 
Q 5113 2597 4934 2840 
Q 4756 3084 4391 3084 
Q 3944 3084 3684 2787 
Q 3425 2491 3425 1978 
L 3425 0 
L 2847 0 
L 2847 2094 
Q 2847 2600 2669 2842 
Q 2491 3084 2119 3084 
Q 1678 3084 1418 2786 
Q 1159 2488 1159 1978 
L 1159 0 
L 581 0 
L 581 3500 
L 1159 3500 
L 1159 2956 
Q 1356 3278 1631 3431 
Q 1906 3584 2284 3584 
Q 2666 3584 2933 3390 
Q 3200 3197 3328 2828 
z
" transform="scale(0.015625)"/>
      <path id="DejaVuSans-51" d="M 3513 2113 
L 3513 0 
L 2938 0 
L 2938 2094 
Q 2938 2591 2744 2837 
Q 2550 3084 2163 3084 
Q 1697 3084 1428 2787 
Q 1159 2491 1159 1978 
L 1159 0 
L 581 0 
L 581 3500 
L 1159 3500 
L 1159 2956 
Q 1366 3272 1645 3428 
Q 1925 3584 2291 3584 
Q 2894 3584 3203 3211 
Q 3513 2838 3513 2113 
z
" transform="scale(0.015625)"/>
     </defs>
     <use xlink:href="#DejaVuSans-32"/>
     <use xlink:href="#DejaVuSans-2f" transform="translate(78.71875 0)"/>
     <use xlink:href="#DejaVuSans-36" transform="translate(134.4375 0)"/>
     <use xlink:href="#DejaVuSans-3" transform="translate(197.921875 0)"/>
     <use xlink:href="#DejaVuSans-13af" transform="translate(229.703125 0)"/>
     <use xlink:href="#DejaVuSans-57" transform="translate(292.6875 0)"/>
     <use xlink:href="#DejaVuSans-3" transform="translate(331.890625 0)"/>
     <use xlink:href="#DejaVuSans-af6" transform="translate(363.671875 0)"/>
     <use xlink:href="#DejaVuSans-3" transform="translate(463.671875 0)"/>
     <use xlink:href="#DejaVuSans-55" transform="translate(495.453125 0)"/>
     <use xlink:href="#DejaVuSans-48" transform="translate(534.359375 0)"/>
     <use xlink:href="#DejaVuSans-56" transform="translate(595.890625 0)"/>
     <use xlink:href="#DejaVuSans-4c" transform="translate(647.984375 0)"/>
     <use xlink:href="#DejaVuSans-47" transform="translate(675.765625 0)"/>
     <use xlink:href="#DejaVuSans-58" transform="translate(739.25 0)"/>
     <use xlink:href="#DejaVuSans-44" transform="translate(802.625 0)"/>
     <use xlink:href="#DejaVuSans-4f" transform="translate(863.90625 0)"/>
     <use xlink:href="#DejaVuSans-56" transform="translate(891.6875 0)"/>
     <use xlink:href="#DejaVuSans-3" transform="translate(943.78125 0)"/>
     <use xlink:href="#DejaVuSans-44" transform="translate(975.5625 0)"/>
     <use xlink:href="#DejaVuSans-56" transform="translate(1036.84375 0)"/>
     <use xlink:href="#DejaVuSans-3" transform="translate(1088.9375 0)"/>
     <use xlink:href="#DejaVuSans-4a" transform="translate(1120.71875 0)"/>
     <use xlink:href="#DejaVuSans-55" transform="translate(1184.203125 0)"/>
     <use xlink:href="#DejaVuSans-44" transform="translate(1225.3125 0)"/>
     <use xlink:href="#DejaVuSans-5c" transform="translate(1286.59375 0)"/>
     <use xlink:href="#DejaVuSans-3" transform="translate(1345.78125 0)"/>
     <use xlink:href="#DejaVuSans-56" transform="translate(1377.5625 0)"/>
     <use xlink:href="#DejaVuSans-48" transform="translate(1429.65625 0)"/>
     <use xlink:href="#DejaVuSans-4a" transform="translate(1491.1875 0)"/>
     <use xlink:href="#DejaVuSans-50" transform="translate(1554.671875 0)"/>
     <use xlink:href="#DejaVuSans-48" transform="translate(1652.078125 0)"/>
     <use xlink:href="#DejaVuSans-51" transform="translate(1713.609375 0)"/>
     <use xlink:href="#DejaVuSans-57" transform="translate(1776.984375 0)"/>
     <use xlink:href="#DejaVuSans-56" transform="translate(1816.1875 0)"/>
    </g>
   </g>
   <g id="legend_1">
    <g id="patch_7">
     <path d="M 50.36 55.46875 
L 144.6325 55.46875 
Q 146.2325 55.46875 146.2325 53.86875 
L 146.2325 30.32 
Q 146.2325 28.72 144.6325 28.72 
L 50.36 28.72 
Q 48.76 28.72 48.76 30.32 
L 48.76 53.86875 
Q 48.76 55.46875 50.36 55.46875 
z
" style="fill: #ffffff; opacity: 0.8; stroke: #cccccc; stroke-linejoin: miter"/>
    </g>
    <g id="PathCollection_2">
     <g>
      <use xlink:href="#m5629a50061" x="59.96" y="35.89875" style="fill: #f0883e; stroke: #f0883e"/>
     </g>
    </g>
    <g id="text_15">
     <!-- data -->
     <g transform="translate(74.36 37.99875) scale(0.08 -0.08)">
      <use xlink:href="#DejaVuSans-47"/>
      <use xlink:href="#DejaVuSans-44" transform="translate(63.484375 0)"/>
      <use xlink:href="#DejaVuSans-57" transform="translate(124.765625 0)"/>
      <use xlink:href="#DejaVuSans-44" transform="translate(163.96875 0)"/>
     </g>
    </g>
    <g id="line2d_53">
     <path d="M 51.96 47.546875 
L 59.96 47.546875 
L 67.96 47.546875 
" style="fill: none; stroke: #58a6ff; stroke-width: 1.5; stroke-linecap: square"/>
    </g>
    <g id="text_16">
     <!-- ŷ = 2.04 + 1.83x -->
     <g transform="translate(74.36 50.346875) scale(0.08 -0.08)">
      <defs>
       <path id="DejaVuSans-139" d="M 1663 5141 
L 2125 5141 
L 2891 3966 
L 2457 3966 
L 1894 4731 
L 1332 3966 
L 897 3966 
L 1663 5141 
z
M 2059 -325 
Q 1816 -950 1584 -1140 
Q 1353 -1331 966 -1331 
L 506 -1331 
L 506 -850 
L 844 -850 
Q 1081 -850 1212 -737 
Q 1344 -625 1503 -206 
L 1606 56 
L 191 3500 
L 800 3500 
L 1894 763 
L 2988 3500 
L 3597 3500 
L 2059 -325 
z
" transform="scale(0.015625)"/>
       <path id="DejaVuSans-20" d="M 678 2906 
L 4684 2906 
L 4684 2381 
L 678 2381 
L 678 2906 
z
M 678 1631 
L 4684 1631 
L 4684 1100 
L 678 1100 
L 678 1631 
z
" transform="scale(0.015625)"/>
       <path id="DejaVuSans-11" d="M 684 794 
L 1344 794 
L 1344 0 
L 684 0 
L 684 794 
z
" transform="scale(0.015625)"/>
       <path id="DejaVuSans-e" d="M 2944 4013 
L 2944 2272 
L 4684 2272 
L 4684 1741 
L 2944 1741 
L 2944 0 
L 2419 0 
L 2419 1741 
L 678 1741 
L 678 2272 
L 2419 2272 
L 2419 4013 
L 2944 4013 
z
" transform="scale(0.015625)"/>
       <path id="DejaVuSans-16" d="M 2597 2516 
Q 3050 2419 3304 2112 
Q 3559 1806 3559 1356 
Q 3559 666 3084 287 
Q 2609 -91 1734 -91 
Q 1441 -91 1130 -33 
Q 819 25 488 141 
L 488 750 
Q 750 597 1062 519 
Q 1375 441 1716 441 
Q 2309 441 2620 675 
Q 2931 909 2931 1356 
Q 2931 1769 2642 2001 
Q 2353 2234 1838 2234 
L 1294 2234 
L 1294 2753 
L 1863 2753 
Q 2328 2753 2575 2939 
Q 2822 3125 2822 3475 
Q 2822 3834 2567 4026 
Q 2313 4219 1838 4219 
Q 1578 4219 1281 4162 
Q 984 4106 628 3988 
L 628 4550 
Q 988 4650 1302 4700 
Q 1616 4750 1894 4750 
Q 2613 4750 3031 4423 
Q 3450 4097 3450 3541 
Q 3450 3153 3228 2886 
Q 3006 2619 2597 2516 
z
" transform="scale(0.015625)"/>
      </defs>
      <use xlink:href="#DejaVuSans-139"/>
      <use xlink:href="#DejaVuSans-3" transform="translate(59.1875 0)"/>
      <use xlink:href="#DejaVuSans-20" transform="translate(90.96875 0)"/>
      <use xlink:href="#DejaVuSans-3" transform="translate(174.765625 0)"/>
      <use xlink:href="#DejaVuSans-15" transform="translate(206.546875 0)"/>
      <use xlink:href="#DejaVuSans-11" transform="translate(270.171875 0)"/>
      <use xlink:href="#DejaVuSans-13" transform="translate(301.953125 0)"/>
      <use xlink:href="#DejaVuSans-17" transform="translate(365.578125 0)"/>
      <use xlink:href="#DejaVuSans-3" transform="translate(429.203125 0)"/>
      <use xlink:href="#DejaVuSans-e" transform="translate(460.984375 0)"/>
      <use xlink:href="#DejaVuSans-3" transform="translate(544.78125 0)"/>
      <use xlink:href="#DejaVuSans-14" transform="translate(576.5625 0)"/>
      <use xlink:href="#DejaVuSans-11" transform="translate(640.1875 0)"/>
      <use xlink:href="#DejaVuSans-1b" transform="translate(671.96875 0)"/>
      <use xlink:href="#DejaVuSans-16" transform="translate(735.59375 0)"/>
      <use xlink:href="#DejaVuSans-5b" transform="translate(799.21875 0)"/>
     </g>
    </g>
   </g>
  </g>
  <g id="axes_2">
   <g id="patch_8">
    <path d="M 364.601172 188.277656 
L 637.2 188.277656 
L 637.2 24.72 
L 364.601172 24.72 
L 364.601172 188.277656 
z
" style="fill: none"/>
   </g>
   <g id="PathCollection_3">
    <g clip-path="url(#p65b0bf5d94)">
     <use xlink:href="#m5629a50061" x="398.449539" y="147.643146" style="fill: #f0883e; stroke: #f0883e"/>
     <use xlink:href="#m5629a50061" x="436.990194" y="77.024959" style="fill: #f0883e; stroke: #f0883e"/>
     <use xlink:href="#m5629a50061" x="580.908013" y="64.177765" style="fill: #f0883e; stroke: #f0883e"/>
     <use xlink:href="#m5629a50061" x="525.042297" y="105.135579" style="fill: #f0883e; stroke: #f0883e"/>
     <use xlink:href="#m5629a50061" x="400.611497" y="125.961883" style="fill: #f0883e; stroke: #f0883e"/>
     <use xlink:href="#m5629a50061" x="487.043758" y="87.148509" style="fill: #f0883e; stroke: #f0883e"/>
     <use xlink:href="#m5629a50061" x="498.752802" y="90.261834" style="fill: #f0883e; stroke: #f0883e"/>
     <use xlink:href="#m5629a50061" x="417.339735" y="35.238717" style="fill: #f0883e; stroke: #f0883e"/>
     <use xlink:href="#m5629a50061" x="563.902619" y="62.138833" style="fill: #f0883e; stroke: #f0883e"/>
     <use xlink:href="#m5629a50061" x="405.594349" y="79.464919" style="fill: #f0883e; stroke: #f0883e"/>
     <use xlink:href="#m5629a50061" x="476.361098" y="47.131865" style="fill: #f0883e; stroke: #f0883e"/>
     <use xlink:href="#m5629a50061" x="508.3621" y="96.04637" style="fill: #f0883e; stroke: #f0883e"/>
     <use xlink:href="#m5629a50061" x="486.406624" y="122.056034" style="fill: #f0883e; stroke: #f0883e"/>
     <use xlink:href="#m5629a50061" x="526.224446" y="67.421296" style="fill: #f0883e; stroke: #f0883e"/>
     <use xlink:href="#m5629a50061" x="564.733963" y="68.201766" style="fill: #f0883e; stroke: #f0883e"/>
     <use xlink:href="#m5629a50061" x="620.425548" y="98.496658" style="fill: #f0883e; stroke: #f0883e"/>
     <use xlink:href="#m5629a50061" x="449.073091" y="116.104977" style="fill: #f0883e; stroke: #f0883e"/>
     <use xlink:href="#m5629a50061" x="541.968106" y="80.735198" style="fill: #f0883e; stroke: #f0883e"/>
     <use xlink:href="#m5629a50061" x="554.121917" y="180.843217" style="fill: #f0883e; stroke: #f0883e"/>
     <use xlink:href="#m5629a50061" x="451.245276" y="62.119804" style="fill: #f0883e; stroke: #f0883e"/>
     <use xlink:href="#m5629a50061" x="376.992028" y="68.012644" style="fill: #f0883e; stroke: #f0883e"/>
     <use xlink:href="#m5629a50061" x="624.809144" y="150.811404" style="fill: #f0883e; stroke: #f0883e"/>
     <use xlink:href="#m5629a50061" x="452.69359" y="85.209902" style="fill: #f0883e; stroke: #f0883e"/>
     <use xlink:href="#m5629a50061" x="456.667143" y="122.897508" style="fill: #f0883e; stroke: #f0883e"/>
     <use xlink:href="#m5629a50061" x="603.966065" y="62.532864" style="fill: #f0883e; stroke: #f0883e"/>
     <use xlink:href="#m5629a50061" x="525.807419" y="163.447929" style="fill: #f0883e; stroke: #f0883e"/>
     <use xlink:href="#m5629a50061" x="496.778967" y="121.832907" style="fill: #f0883e; stroke: #f0883e"/>
     <use xlink:href="#m5629a50061" x="573.769678" y="63.712026" style="fill: #f0883e; stroke: #f0883e"/>
     <use xlink:href="#m5629a50061" x="384.349241" y="43.758216" style="fill: #f0883e; stroke: #f0883e"/>
     <use xlink:href="#m5629a50061" x="556.862547" y="168.57465" style="fill: #f0883e; stroke: #f0883e"/>
     <use xlink:href="#m5629a50061" x="472.030703" y="106.091927" style="fill: #f0883e; stroke: #f0883e"/>
     <use xlink:href="#m5629a50061" x="399.776255" y="74.432912" style="fill: #f0883e; stroke: #f0883e"/>
     <use xlink:href="#m5629a50061" x="545.015652" y="111.543313" style="fill: #f0883e; stroke: #f0883e"/>
     <use xlink:href="#m5629a50061" x="614.101582" y="32.154439" style="fill: #f0883e; stroke: #f0883e"/>
     <use xlink:href="#m5629a50061" x="429.438337" y="130.715923" style="fill: #f0883e; stroke: #f0883e"/>
     <use xlink:href="#m5629a50061" x="537.262239" y="76.047868" style="fill: #f0883e; stroke: #f0883e"/>
     <use xlink:href="#m5629a50061" x="452.632875" y="125.913859" style="fill: #f0883e; stroke: #f0883e"/>
     <use xlink:href="#m5629a50061" x="565.733138" y="38.017998" style="fill: #f0883e; stroke: #f0883e"/>
     <use xlink:href="#m5629a50061" x="560.737922" y="90.287771" style="fill: #f0883e; stroke: #f0883e"/>
     <use xlink:href="#m5629a50061" x="432.376604" y="100.731811" style="fill: #f0883e; stroke: #f0883e"/>
    </g>
   </g>
   <g id="matplotlib.axis_3">
    <g id="xtick_7">
     <g id="line2d_54">
      <g>
       <use xlink:href="#mb159356f61" x="383.070665" y="188.277656" style="stroke: #000000; stroke-width: 0.8"/>
      </g>
     </g>
     <g id="text_17">
      <!-- 2.5 -->
      <g transform="translate(375.119103 202.875313) scale(0.1 -0.1)">
       <use xlink:href="#DejaVuSans-15"/>
       <use xlink:href="#DejaVuSans-11" transform="translate(63.625 0)"/>
       <use xlink:href="#DejaVuSans-18" transform="translate(95.40625 0)"/>
      </g>
     </g>
    </g>
    <g id="xtick_8">
     <g id="line2d_55">
      <g>
       <use xlink:href="#mb159356f61" x="417.925016" y="188.277656" style="stroke: #000000; stroke-width: 0.8"/>
      </g>
     </g>
     <g id="text_18">
      <!-- 5.0 -->
      <g transform="translate(409.973453 202.875313) scale(0.1 -0.1)">
       <use xlink:href="#DejaVuSans-18"/>
       <use xlink:href="#DejaVuSans-11" transform="translate(63.625 0)"/>
       <use xlink:href="#DejaVuSans-13" transform="translate(95.40625 0)"/>
      </g>
     </g>
    </g>
    <g id="xtick_9">
     <g id="line2d_56">
      <g>
       <use xlink:href="#mb159356f61" x="452.779367" y="188.277656" style="stroke: #000000; stroke-width: 0.8"/>
      </g>
     </g>
     <g id="text_19">
      <!-- 7.5 -->
      <g transform="translate(444.827804 202.875313) scale(0.1 -0.1)">
       <defs>
        <path id="DejaVuSans-1a" d="M 525 4666 
L 3525 4666 
L 3525 4397 
L 1831 0 
L 1172 0 
L 2766 4134 
L 525 4134 
L 525 4666 
z
" transform="scale(0.015625)"/>
       </defs>
       <use xlink:href="#DejaVuSans-1a"/>
       <use xlink:href="#DejaVuSans-11" transform="translate(63.625 0)"/>
       <use xlink:href="#DejaVuSans-18" transform="translate(95.40625 0)"/>
      </g>
     </g>
    </g>
    <g id="xtick_10">
     <g id="line2d_57">
      <g>
       <use xlink:href="#mb159356f61" x="487.633717" y="188.277656" style="stroke: #000000; stroke-width: 0.8"/>
      </g>
     </g>
     <g id="text_20">
      <!-- 10.0 -->
      <g transform="translate(476.500905 202.875313) scale(0.1 -0.1)">
       <use xlink:href="#DejaVuSans-14"/>
       <use xlink:href="#DejaVuSans-13" transform="translate(63.625 0)"/>
       <use xlink:href="#DejaVuSans-11" transform="translate(127.25 0)"/>
       <use xlink:href="#DejaVuSans-13" transform="translate(159.03125 0)"/>
      </g>
     </g>
    </g>
    <g id="xtick_11">
     <g id="line2d_58">
      <g>
       <use xlink:href="#mb159356f61" x="522.488068" y="188.277656" style="stroke: #000000; stroke-width: 0.8"/>
      </g>
     </g>
     <g id="text_21">
      <!-- 12.5 -->
      <g transform="translate(511.355256 202.875313) scale(0.1 -0.1)">
       <use xlink:href="#DejaVuSans-14"/>
       <use xlink:href="#DejaVuSans-15" transform="translate(63.625 0)"/>
       <use xlink:href="#DejaVuSans-11" transform="translate(127.25 0)"/>
       <use xlink:href="#DejaVuSans-18" transform="translate(159.03125 0)"/>
      </g>
     </g>
    </g>
    <g id="xtick_12">
     <g id="line2d_59">
      <g>
       <use xlink:href="#mb159356f61" x="557.342419" y="188.277656" style="stroke: #000000; stroke-width: 0.8"/>
      </g>
     </g>
     <g id="text_22">
      <!-- 15.0 -->
      <g transform="translate(546.209607 202.875313) scale(0.1 -0.1)">
       <use xlink:href="#DejaVuSans-14"/>
       <use xlink:href="#DejaVuSans-18" transform="translate(63.625 0)"/>
       <use xlink:href="#DejaVuSans-11" transform="translate(127.25 0)"/>
       <use xlink:href="#DejaVuSans-13" transform="translate(159.03125 0)"/>
      </g>
     </g>
    </g>
    <g id="xtick_13">
     <g id="line2d_60">
      <g>
       <use xlink:href="#mb159356f61" x="592.19677" y="188.277656" style="stroke: #000000; stroke-width: 0.8"/>
      </g>
     </g>
     <g id="text_23">
      <!-- 17.5 -->
      <g transform="translate(581.063957 202.875313) scale(0.1 -0.1)">
       <use xlink:href="#DejaVuSans-14"/>
       <use xlink:href="#DejaVuSans-1a" transform="translate(63.625 0)"/>
       <use xlink:href="#DejaVuSans-11" transform="translate(127.25 0)"/>
       <use xlink:href="#DejaVuSans-18" transform="translate(159.03125 0)"/>
      </g>
     </g>
    </g>
    <g id="xtick_14">
     <g id="line2d_61">
      <g>
       <use xlink:href="#mb159356f61" x="627.051121" y="188.277656" style="stroke: #000000; stroke-width: 0.8"/>
      </g>
     </g>
     <g id="text_24">
      <!-- 20.0 -->
      <g transform="translate(615.918308 202.875313) scale(0.1 -0.1)">
       <use xlink:href="#DejaVuSans-15"/>
       <use xlink:href="#DejaVuSans-13" transform="translate(63.625 0)"/>
       <use xlink:href="#DejaVuSans-11" transform="translate(127.25 0)"/>
       <use xlink:href="#DejaVuSans-13" transform="translate(159.03125 0)"/>
      </g>
     </g>
    </g>
    <g id="text_25">
     <!-- predicted ŷ -->
     <g transform="translate(472.632617 217.310469) scale(0.1 -0.1)">
      <defs>
       <path id="DejaVuSans-53" d="M 1159 525 
L 1159 -1331 
L 581 -1331 
L 581 3500 
L 1159 3500 
L 1159 2969 
Q 1341 3281 1617 3432 
Q 1894 3584 2278 3584 
Q 2916 3584 3314 3078 
Q 3713 2572 3713 1747 
Q 3713 922 3314 415 
Q 2916 -91 2278 -91 
Q 1894 -91 1617 61 
Q 1341 213 1159 525 
z
M 3116 1747 
Q 3116 2381 2855 2742 
Q 2594 3103 2138 3103 
Q 1681 3103 1420 2742 
Q 1159 2381 1159 1747 
Q 1159 1113 1420 752 
Q 1681 391 2138 391 
Q 2594 391 2855 752 
Q 3116 1113 3116 1747 
z
" transform="scale(0.015625)"/>
       <path id="DejaVuSans-46" d="M 3122 3366 
L 3122 2828 
Q 2878 2963 2633 3030 
Q 2388 3097 2138 3097 
Q 1578 3097 1268 2742 
Q 959 2388 959 1747 
Q 959 1106 1268 751 
Q 1578 397 2138 397 
Q 2388 397 2633 464 
Q 2878 531 3122 666 
L 3122 134 
Q 2881 22 2623 -34 
Q 2366 -91 2075 -91 
Q 1284 -91 818 406 
Q 353 903 353 1747 
Q 353 2603 823 3093 
Q 1294 3584 2113 3584 
Q 2378 3584 2631 3529 
Q 2884 3475 3122 3366 
z
" transform="scale(0.015625)"/>
      </defs>
      <use xlink:href="#DejaVuSans-53"/>
      <use xlink:href="#DejaVuSans-55" transform="translate(63.484375 0)"/>
      <use xlink:href="#DejaVuSans-48" transform="translate(102.390625 0)"/>
      <use xlink:href="#DejaVuSans-47" transform="translate(163.921875 0)"/>
      <use xlink:href="#DejaVuSans-4c" transform="translate(227.40625 0)"/>
      <use xlink:href="#DejaVuSans-46" transform="translate(255.1875 0)"/>
      <use xlink:href="#DejaVuSans-57" transform="translate(310.171875 0)"/>
      <use xlink:href="#DejaVuSans-48" transform="translate(349.375 0)"/>
      <use xlink:href="#DejaVuSans-47" transform="translate(410.90625 0)"/>
      <use xlink:href="#DejaVuSans-3" transform="translate(474.390625 0)"/>
      <use xlink:href="#DejaVuSans-139" transform="translate(506.171875 0)"/>
     </g>
    </g>
   </g>
   <g id="matplotlib.axis_4">
    <g id="ytick_6">
     <g id="line2d_62">
      <g>
       <use xlink:href="#m1714f0f317" x="364.601172" y="160.441527" style="stroke: #000000; stroke-width: 0.8"/>
      </g>
     </g>
     <g id="text_26">
      <!-- −4 -->
      <g transform="translate(342.858984 164.240355) scale(0.1 -0.1)">
       <defs>
        <path id="DejaVuSans-c9c" d="M 678 2272 
L 4684 2272 
L 4684 1741 
L 678 1741 
L 678 2272 
z
" transform="scale(0.015625)"/>
       </defs>
       <use xlink:href="#DejaVuSans-c9c"/>
       <use xlink:href="#DejaVuSans-17" transform="translate(83.796875 0)"/>
      </g>
     </g>
    </g>
    <g id="ytick_7">
     <g id="line2d_63">
      <g>
       <use xlink:href="#m1714f0f317" x="364.601172" y="127.096779" style="stroke: #000000; stroke-width: 0.8"/>
      </g>
     </g>
     <g id="text_27">
      <!-- −2 -->
      <g transform="translate(342.858984 130.895607) scale(0.1 -0.1)">
       <use xlink:href="#DejaVuSans-c9c"/>
       <use xlink:href="#DejaVuSans-15" transform="translate(83.796875 0)"/>
      </g>
     </g>
    </g>
    <g id="ytick_8">
     <g id="line2d_64">
      <g>
       <use xlink:href="#m1714f0f317" x="364.601172" y="93.75203" style="stroke: #000000; stroke-width: 0.8"/>
      </g>
     </g>
     <g id="text_28">
      <!-- 0 -->
      <g transform="translate(351.238672 97.550858) scale(0.1 -0.1)">
       <use xlink:href="#DejaVuSans-13"/>
      </g>
     </g>
    </g>
    <g id="ytick_9">
     <g id="line2d_65">
      <g>
       <use xlink:href="#m1714f0f317" x="364.601172" y="60.407281" style="stroke: #000000; stroke-width: 0.8"/>
      </g>
     </g>
     <g id="text_29">
      <!-- 2 -->
      <g transform="translate(351.238672 64.20611) scale(0.1 -0.1)">
       <use xlink:href="#DejaVuSans-15"/>
      </g>
     </g>
    </g>
    <g id="ytick_10">
     <g id="line2d_66">
      <g>
       <use xlink:href="#m1714f0f317" x="364.601172" y="27.062533" style="stroke: #000000; stroke-width: 0.8"/>
      </g>
     </g>
     <g id="text_30">
      <!-- 4 -->
      <g transform="translate(351.238672 30.861361) scale(0.1 -0.1)">
       <use xlink:href="#DejaVuSans-17"/>
      </g>
     </g>
    </g>
    <g id="text_31">
     <!-- residual y − ŷ -->
     <g transform="translate(336.456641 141.186328) rotate(-90) scale(0.1 -0.1)">
      <use xlink:href="#DejaVuSans-55"/>
      <use xlink:href="#DejaVuSans-48" transform="translate(38.90625 0)"/>
      <use xlink:href="#DejaVuSans-56" transform="translate(100.4375 0)"/>
      <use xlink:href="#DejaVuSans-4c" transform="translate(152.53125 0)"/>
      <use xlink:href="#DejaVuSans-47" transform="translate(180.3125 0)"/>
      <use xlink:href="#DejaVuSans-58" transform="translate(243.796875 0)"/>
      <use xlink:href="#DejaVuSans-44" transform="translate(307.171875 0)"/>
      <use xlink:href="#DejaVuSans-4f" transform="translate(368.453125 0)"/>
      <use xlink:href="#DejaVuSans-3" transform="translate(396.234375 0)"/>
      <use xlink:href="#DejaVuSans-5c" transform="translate(428.015625 0)"/>
      <use xlink:href="#DejaVuSans-3" transform="translate(487.203125 0)"/>
      <use xlink:href="#DejaVuSans-c9c" transform="translate(518.984375 0)"/>
      <use xlink:href="#DejaVuSans-3" transform="translate(602.78125 0)"/>
      <use xlink:href="#DejaVuSans-139" transform="translate(634.5625 0)"/>
     </g>
    </g>
   </g>
   <g id="line2d_67">
    <path d="M 364.601172 93.75203 
L 637.2 93.75203 
" clip-path="url(#p65b0bf5d94)" style="fill: none; stroke: #58a6ff; stroke-linecap: square"/>
   </g>
   <g id="patch_9">
    <path d="M 364.601172 188.277656 
L 364.601172 24.72 
" style="fill: none; stroke: #000000; stroke-width: 0.8; stroke-linejoin: miter; stroke-linecap: square"/>
   </g>
   <g id="patch_10">
    <path d="M 637.2 188.277656 
L 637.2 24.72 
" style="fill: none; stroke: #000000; stroke-width: 0.8; stroke-linejoin: miter; stroke-linecap: square"/>
   </g>
   <g id="patch_11">
    <path d="M 364.601172 188.277656 
L 637.2 188.277656 
" style="fill: none; stroke: #000000; stroke-width: 0.8; stroke-linejoin: miter; stroke-linecap: square"/>
   </g>
   <g id="patch_12">
    <path d="M 364.601172 24.72 
L 637.2 24.72 
" style="fill: none; stroke: #000000; stroke-width: 0.8; stroke-linejoin: miter; stroke-linecap: square"/>
   </g>
   <g id="text_32">
    <!-- Residual plot — no pattern = good sign -->
    <g transform="translate(412.32582 18.72) scale(0.09 -0.09)">
     <defs>
      <path id="DejaVuSans-35" d="M 2841 2188 
Q 3044 2119 3236 1894 
Q 3428 1669 3622 1275 
L 4263 0 
L 3584 0 
L 2988 1197 
Q 2756 1666 2539 1819 
Q 2322 1972 1947 1972 
L 1259 1972 
L 1259 0 
L 628 0 
L 628 4666 
L 2053 4666 
Q 2853 4666 3247 4331 
Q 3641 3997 3641 3322 
Q 3641 2881 3436 2590 
Q 3231 2300 2841 2188 
z
M 1259 4147 
L 1259 2491 
L 2053 2491 
Q 2509 2491 2742 2702 
Q 2975 2913 2975 3322 
Q 2975 3731 2742 3939 
Q 2509 4147 2053 4147 
L 1259 4147 
z
" transform="scale(0.015625)"/>
      <path id="DejaVuSans-52" d="M 1959 3097 
Q 1497 3097 1228 2736 
Q 959 2375 959 1747 
Q 959 1119 1226 758 
Q 1494 397 1959 397 
Q 2419 397 2687 759 
Q 2956 1122 2956 1747 
Q 2956 2369 2687 2733 
Q 2419 3097 1959 3097 
z
M 1959 3584 
Q 2709 3584 3137 3096 
Q 3566 2609 3566 1747 
Q 3566 888 3137 398 
Q 2709 -91 1959 -91 
Q 1206 -91 779 398 
Q 353 888 353 1747 
Q 353 2609 779 3096 
Q 1206 3584 1959 3584 
z
" transform="scale(0.015625)"/>
     </defs>
     <use xlink:href="#DejaVuSans-35"/>
     <use xlink:href="#DejaVuSans-48" transform="translate(65 0)"/>
     <use xlink:href="#DejaVuSans-56" transform="translate(126.53125 0)"/>
     <use xlink:href="#DejaVuSans-4c" transform="translate(178.625 0)"/>
     <use xlink:href="#DejaVuSans-47" transform="translate(206.40625 0)"/>
     <use xlink:href="#DejaVuSans-58" transform="translate(269.890625 0)"/>
     <use xlink:href="#DejaVuSans-44" transform="translate(333.265625 0)"/>
     <use xlink:href="#DejaVuSans-4f" transform="translate(394.546875 0)"/>
     <use xlink:href="#DejaVuSans-3" transform="translate(422.328125 0)"/>
     <use xlink:href="#DejaVuSans-53" transform="translate(454.109375 0)"/>
     <use xlink:href="#DejaVuSans-4f" transform="translate(517.59375 0)"/>
     <use xlink:href="#DejaVuSans-52" transform="translate(545.375 0)"/>
     <use xlink:href="#DejaVuSans-57" transform="translate(606.5625 0)"/>
     <use xlink:href="#DejaVuSans-3" transform="translate(645.765625 0)"/>
     <use xlink:href="#DejaVuSans-af6" transform="translate(677.546875 0)"/>
     <use xlink:href="#DejaVuSans-3" transform="translate(777.546875 0)"/>
     <use xlink:href="#DejaVuSans-51" transform="translate(809.328125 0)"/>
     <use xlink:href="#DejaVuSans-52" transform="translate(872.703125 0)"/>
     <use xlink:href="#DejaVuSans-3" transform="translate(933.890625 0)"/>
     <use xlink:href="#DejaVuSans-53" transform="translate(965.671875 0)"/>
     <use xlink:href="#DejaVuSans-44" transform="translate(1029.15625 0)"/>
     <use xlink:href="#DejaVuSans-57" transform="translate(1090.4375 0)"/>
     <use xlink:href="#DejaVuSans-57" transform="translate(1129.640625 0)"/>
     <use xlink:href="#DejaVuSans-48" transform="translate(1168.84375 0)"/>
     <use xlink:href="#DejaVuSans-55" transform="translate(1230.375 0)"/>
     <use xlink:href="#DejaVuSans-51" transform="translate(1269.734375 0)"/>
     <use xlink:href="#DejaVuSans-3" transform="translate(1333.109375 0)"/>
     <use xlink:href="#DejaVuSans-20" transform="translate(1364.890625 0)"/>
     <use xlink:href="#DejaVuSans-3" transform="translate(1448.6875 0)"/>
     <use xlink:href="#DejaVuSans-4a" transform="translate(1480.46875 0)"/>
     <use xlink:href="#DejaVuSans-52" transform="translate(1543.953125 0)"/>
     <use xlink:href="#DejaVuSans-52" transform="translate(1605.140625 0)"/>
     <use xlink:href="#DejaVuSans-47" transform="translate(1666.328125 0)"/>
     <use xlink:href="#DejaVuSans-3" transform="translate(1729.8125 0)"/>
     <use xlink:href="#DejaVuSans-56" transform="translate(1761.59375 0)"/>
     <use xlink:href="#DejaVuSans-4c" transform="translate(1813.6875 0)"/>
     <use xlink:href="#DejaVuSans-4a" transform="translate(1841.46875 0)"/>
     <use xlink:href="#DejaVuSans-51" transform="translate(1904.953125 0)"/>
    </g>
   </g>
  </g>
 </g>
 <defs>
  <clipPath id="p2810a70486">
   <rect x="44.76" y="24.72" width="272.598828" height="163.557656"/>
  </clipPath>
  <clipPath id="p65b0bf5d94">
   <rect x="364.601172" y="24.72" width="272.598828" height="163.557656"/>
  </clipPath>
 </defs>
</svg>

