<?xml version="1.0" encoding="utf-8" standalone="no"?>
<!DOCTYPE svg PUBLIC "-//W3C//DTD SVG 1.1//EN"
  "http://www.w3.org/Graphics/SVG/1.1/DTD/svg11.dtd">
<svg xmlns:xlink="http://www.w3.org/1999/xlink" width="648pt" height="216pt" viewBox="0 0 648 216" xmlns="http://www.w3.org/2000/svg" version="1.1">
 <metadata>
  <rdf:RDF xmlns:dc="http://purl.org/dc/elements/1.1/" xmlns:cc="http://creativecommons.org/ns#" xmlns:rdf="http://www.w3.org/1999/02/22-rdf-syntax-ns#">
   <cc:Work>
    <dc:type rdf:resource="http://purl.org/dc/dcmitype/StillImage"/>
    <dc:date>2026-07-04T22:08:07.632143</dc:date>
    <dc:format>image/svg+xml</dc:format>
    <dc:creator>
     <cc:Agent>
      <dc:title>Matplotlib v3.11.0, https://matplotlib.org/</dc:title>
     </cc:Agent>
    </dc:creator>
   </cc:Work>
  </rdf:RDF>
 </metadata>
 <defs>
  <style type="text/css">*{stroke-linejoin: round; stroke-linecap: butt}</style>
 </defs>
 <g id="figure_1">
  <g id="patch_1">
   <path d="M 0 216 
L 648 216 
L 648 0 
L 0 0 
L 0 216 
z
" style="fill: none"/>
  </g>
  <g id="axes_1">
   <g id="patch_2">
    <path d="M 47.962344 173.877656 
L 323.28 173.877656 
L 323.28 24.72 
L 47.962344 24.72 
L 47.962344 173.877656 
z
" style="fill: none"/>
   </g>
   <g id="matplotlib.axis_1">
    <g id="xtick_1">
     <g id="line2d_1">
      <defs>
       <path id="m139679f62e" d="M 0 0 
L 0 3.5 
" style="stroke: #000000; stroke-width: 0.8"/>
      </defs>
      <g>
       <use xlink:href="#m139679f62e" x="60.476783" y="173.877656" style="stroke: #000000; stroke-width: 0.8"/>
      </g>
     </g>
     <g id="text_1">
      <!-- −8 -->
      <g transform="translate(53.105689 188.475313) scale(0.1 -0.1)">
       <defs>
        <path id="DejaVuSans-c9c" d="M 678 2272 
L 4684 2272 
L 4684 1741 
L 678 1741 
L 678 2272 
z
" transform="scale(0.015625)"/>
        <path id="DejaVuSans-1b" d="M 2034 2216 
Q 1584 2216 1326 1975 
Q 1069 1734 1069 1313 
Q 1069 891 1326 650 
Q 1584 409 2034 409 
Q 2484 409 2743 651 
Q 3003 894 3003 1313 
Q 3003 1734 2745 1975 
Q 2488 2216 2034 2216 
z
M 1403 2484 
Q 997 2584 770 2862 
Q 544 3141 544 3541 
Q 544 4100 942 4425 
Q 1341 4750 2034 4750 
Q 2731 4750 3128 4425 
Q 3525 4100 3525 3541 
Q 3525 3141 3298 2862 
Q 3072 2584 2669 2484 
Q 3125 2378 3379 2068 
Q 3634 1759 3634 1313 
Q 3634 634 3220 271 
Q 2806 -91 2034 -91 
Q 1263 -91 848 271 
Q 434 634 434 1313 
Q 434 1759 690 2068 
Q 947 2378 1403 2484 
z
M 1172 3481 
Q 1172 3119 1398 2916 
Q 1625 2713 2034 2713 
Q 2441 2713 2670 2916 
Q 2900 3119 2900 3481 
Q 2900 3844 2670 4047 
Q 2441 4250 2034 4250 
Q 1625 4250 1398 4047 
Q 1172 3844 1172 3481 
z
" transform="scale(0.015625)"/>
       </defs>
       <use xlink:href="#DejaVuSans-c9c"/>
       <use xlink:href="#DejaVuSans-1b" transform="translate(83.796875 0)"/>
      </g>
     </g>
    </g>
    <g id="xtick_2">
     <g id="line2d_2">
      <g>
       <use xlink:href="#m139679f62e" x="91.76288" y="173.877656" style="stroke: #000000; stroke-width: 0.8"/>
      </g>
     </g>
     <g id="text_2">
      <!-- −6 -->
      <g transform="translate(84.391786 188.475313) scale(0.1 -0.1)">
       <defs>
        <path id="DejaVuSans-19" d="M 2113 2584 
Q 1688 2584 1439 2293 
Q 1191 2003 1191 1497 
Q 1191 994 1439 701 
Q 1688 409 2113 409 
Q 2538 409 2786 701 
Q 3034 994 3034 1497 
Q 3034 2003 2786 2293 
Q 2538 2584 2113 2584 
z
M 3366 4563 
L 3366 3988 
Q 3128 4100 2886 4159 
Q 2644 4219 2406 4219 
Q 1781 4219 1451 3797 
Q 1122 3375 1075 2522 
Q 1259 2794 1537 2939 
Q 1816 3084 2150 3084 
Q 2853 3084 3261 2657 
Q 3669 2231 3669 1497 
Q 3669 778 3244 343 
Q 2819 -91 2113 -91 
Q 1303 -91 875 529 
Q 447 1150 447 2328 
Q 447 3434 972 4092 
Q 1497 4750 2381 4750 
Q 2619 4750 2861 4703 
Q 3103 4656 3366 4563 
z
" transform="scale(0.015625)"/>
       </defs>
       <use xlink:href="#DejaVuSans-c9c"/>
       <use xlink:href="#DejaVuSans-19" transform="translate(83.796875 0)"/>
      </g>
     </g>
    </g>
    <g id="xtick_3">
     <g id="line2d_3">
      <g>
       <use xlink:href="#m139679f62e" x="123.048977" y="173.877656" style="stroke: #000000; stroke-width: 0.8"/>
      </g>
     </g>
     <g id="text_3">
      <!-- −4 -->
      <g transform="translate(115.677884 188.475313) scale(0.1 -0.1)">
       <defs>
        <path id="DejaVuSans-17" d="M 2419 4116 
L 825 1625 
L 2419 1625 
L 2419 4116 
z
M 2253 4666 
L 3047 4666 
L 3047 1625 
L 3713 1625 
L 3713 1100 
L 3047 1100 
L 3047 0 
L 2419 0 
L 2419 1100 
L 313 1100 
L 313 1709 
L 2253 4666 
z
" transform="scale(0.015625)"/>
       </defs>
       <use xlink:href="#DejaVuSans-c9c"/>
       <use xlink:href="#DejaVuSans-17" transform="translate(83.796875 0)"/>
      </g>
     </g>
    </g>
    <g id="xtick_4">
     <g id="line2d_4">
      <g>
       <use xlink:href="#m139679f62e" x="154.335075" y="173.877656" style="stroke: #000000; stroke-width: 0.8"/>
      </g>
     </g>
     <g id="text_4">
      <!-- −2 -->
      <g transform="translate(146.963981 188.475313) scale(0.1 -0.1)">
       <defs>
        <path id="DejaVuSans-15" d="M 1228 531 
L 3431 531 
L 3431 0 
L 469 0 
L 469 531 
Q 828 903 1448 1529 
Q 2069 2156 2228 2338 
Q 2531 2678 2651 2914 
Q 2772 3150 2772 3378 
Q 2772 3750 2511 3984 
Q 2250 4219 1831 4219 
Q 1534 4219 1204 4116 
Q 875 4013 500 3803 
L 500 4441 
Q 881 4594 1212 4672 
Q 1544 4750 1819 4750 
Q 2544 4750 2975 4387 
Q 3406 4025 3406 3419 
Q 3406 3131 3298 2873 
Q 3191 2616 2906 2266 
Q 2828 2175 2409 1742 
Q 1991 1309 1228 531 
z
" transform="scale(0.015625)"/>
       </defs>
       <use xlink:href="#DejaVuSans-c9c"/>
       <use xlink:href="#DejaVuSans-15" transform="translate(83.796875 0)"/>
      </g>
     </g>
    </g>
    <g id="xtick_5">
     <g id="line2d_5">
      <g>
       <use xlink:href="#m139679f62e" x="185.621172" y="173.877656" style="stroke: #000000; stroke-width: 0.8"/>
      </g>
     </g>
     <g id="text_5">
      <!-- 0 -->
      <g transform="translate(182.439922 188.475313) scale(0.1 -0.1)">
       <defs>
        <path id="DejaVuSans-13" d="M 2034 4250 
Q 1547 4250 1301 3770 
Q 1056 3291 1056 2328 
Q 1056 1369 1301 889 
Q 1547 409 2034 409 
Q 2525 409 2770 889 
Q 3016 1369 3016 2328 
Q 3016 3291 2770 3770 
Q 2525 4250 2034 4250 
z
M 2034 4750 
Q 2819 4750 3233 4129 
Q 3647 3509 3647 2328 
Q 3647 1150 3233 529 
Q 2819 -91 2034 -91 
Q 1250 -91 836 529 
Q 422 1150 422 2328 
Q 422 3509 836 4129 
Q 1250 4750 2034 4750 
z
" transform="scale(0.015625)"/>
       </defs>
       <use xlink:href="#DejaVuSans-13"/>
      </g>
     </g>
    </g>
    <g id="xtick_6">
     <g id="line2d_6">
      <g>
       <use xlink:href="#m139679f62e" x="216.907269" y="173.877656" style="stroke: #000000; stroke-width: 0.8"/>
      </g>
     </g>
     <g id="text_6">
      <!-- 2 -->
      <g transform="translate(213.726019 188.475313) scale(0.1 -0.1)">
       <use xlink:href="#DejaVuSans-15"/>
      </g>
     </g>
    </g>
    <g id="xtick_7">
     <g id="line2d_7">
      <g>
       <use xlink:href="#m139679f62e" x="248.193366" y="173.877656" style="stroke: #000000; stroke-width: 0.8"/>
      </g>
     </g>
     <g id="text_7">
      <!-- 4 -->
      <g transform="translate(245.012116 188.475313) scale(0.1 -0.1)">
       <use xlink:href="#DejaVuSans-17"/>
      </g>
     </g>
    </g>
    <g id="xtick_8">
     <g id="line2d_8">
      <g>
       <use xlink:href="#m139679f62e" x="279.479464" y="173.877656" style="stroke: #000000; stroke-width: 0.8"/>
      </g>
     </g>
     <g id="text_8">
      <!-- 6 -->
      <g transform="translate(276.298214 188.475313) scale(0.1 -0.1)">
       <use xlink:href="#DejaVuSans-19"/>
      </g>
     </g>
    </g>
    <g id="xtick_9">
     <g id="line2d_9">
      <g>
       <use xlink:href="#m139679f62e" x="310.765561" y="173.877656" style="stroke: #000000; stroke-width: 0.8"/>
      </g>
     </g>
     <g id="text_9">
      <!-- 8 -->
      <g transform="translate(307.584311 188.475313) scale(0.1 -0.1)">
       <use xlink:href="#DejaVuSans-1b"/>
      </g>
     </g>
    </g>
    <g id="text_10">
     <!-- z = w·x + b -->
     <g transform="translate(156.449297 202.476094) scale(0.1 -0.1)">
      <defs>
       <path id="DejaVuSans-5d" d="M 353 3500 
L 3084 3500 
L 3084 2975 
L 922 459 
L 3084 459 
L 3084 0 
L 275 0 
L 275 525 
L 2438 3041 
L 353 3041 
L 353 3500 
z
" transform="scale(0.015625)"/>
       <path id="DejaVuSans-3" transform="scale(0.015625)"/>
       <path id="DejaVuSans-20" d="M 678 2906 
L 4684 2906 
L 4684 2381 
L 678 2381 
L 678 2906 
z
M 678 1631 
L 4684 1631 
L 4684 1100 
L 678 1100 
L 678 1631 
z
" transform="scale(0.015625)"/>
       <path id="DejaVuSans-5a" d="M 269 3500 
L 844 3500 
L 1563 769 
L 2278 3500 
L 2956 3500 
L 3675 769 
L 4391 3500 
L 4966 3500 
L 4050 0 
L 3372 0 
L 2619 2869 
L 1863 0 
L 1184 0 
L 269 3500 
z
" transform="scale(0.015625)"/>
       <path id="DejaVuSans-79" d="M 684 2619 
L 1344 2619 
L 1344 1825 
L 684 1825 
L 684 2619 
z
" transform="scale(0.015625)"/>
       <path id="DejaVuSans-5b" d="M 3513 3500 
L 2247 1797 
L 3578 0 
L 2900 0 
L 1881 1375 
L 863 0 
L 184 0 
L 1544 1831 
L 300 3500 
L 978 3500 
L 1906 2253 
L 2834 3500 
L 3513 3500 
z
" transform="scale(0.015625)"/>
       <path id="DejaVuSans-e" d="M 2944 4013 
L 2944 2272 
L 4684 2272 
L 4684 1741 
L 2944 1741 
L 2944 0 
L 2419 0 
L 2419 1741 
L 678 1741 
L 678 2272 
L 2419 2272 
L 2419 4013 
L 2944 4013 
z
" transform="scale(0.015625)"/>
       <path id="DejaVuSans-45" d="M 3116 1747 
Q 3116 2381 2855 2742 
Q 2594 3103 2138 3103 
Q 1681 3103 1420 2742 
Q 1159 2381 1159 1747 
Q 1159 1113 1420 752 
Q 1681 391 2138 391 
Q 2594 391 2855 752 
Q 3116 1113 3116 1747 
z
M 1159 2969 
Q 1341 3281 1617 3432 
Q 1894 3584 2278 3584 
Q 2916 3584 3314 3078 
Q 3713 2572 3713 1747 
Q 3713 922 3314 415 
Q 2916 -91 2278 -91 
Q 1894 -91 1617 61 
Q 1341 213 1159 525 
L 1159 0 
L 581 0 
L 581 4863 
L 1159 4863 
L 1159 2969 
z
" transform="scale(0.015625)"/>
      </defs>
      <use xlink:href="#DejaVuSans-5d"/>
      <use xlink:href="#DejaVuSans-3" transform="translate(52.484375 0)"/>
      <use xlink:href="#DejaVuSans-20" transform="translate(84.265625 0)"/>
      <use xlink:href="#DejaVuSans-3" transform="translate(168.0625 0)"/>
      <use xlink:href="#DejaVuSans-5a" transform="translate(199.84375 0)"/>
      <use xlink:href="#DejaVuSans-79" transform="translate(281.625 0)"/>
      <use xlink:href="#DejaVuSans-5b" transform="translate(313.40625 0)"/>
      <use xlink:href="#DejaVuSans-3" transform="translate(372.59375 0)"/>
      <use xlink:href="#DejaVuSans-e" transform="translate(404.375 0)"/>
      <use xlink:href="#DejaVuSans-3" transform="translate(488.171875 0)"/>
      <use xlink:href="#DejaVuSans-45" transform="translate(519.953125 0)"/>
     </g>
    </g>
   </g>
   <g id="matplotlib.axis_2">
    <g id="ytick_1">
     <g id="line2d_10">
      <defs>
       <path id="mae0f39f139" d="M 0 0 
L -3.5 0 
" style="stroke: #000000; stroke-width: 0.8"/>
      </defs>
      <g>
       <use xlink:href="#mae0f39f139" x="47.962344" y="167.143266" style="stroke: #000000; stroke-width: 0.8"/>
      </g>
     </g>
     <g id="text_11">
      <!-- 0.0 -->
      <g transform="translate(25.059219 170.942094) scale(0.1 -0.1)">
       <defs>
        <path id="DejaVuSans-11" d="M 684 794 
L 1344 794 
L 1344 0 
L 684 0 
L 684 794 
z
" transform="scale(0.015625)"/>
       </defs>
       <use xlink:href="#DejaVuSans-13"/>
       <use xlink:href="#DejaVuSans-11" transform="translate(63.625 0)"/>
       <use xlink:href="#DejaVuSans-13" transform="translate(95.40625 0)"/>
      </g>
     </g>
    </g>
    <g id="ytick_2">
     <g id="line2d_11">
      <g>
       <use xlink:href="#mae0f39f139" x="47.962344" y="140.005491" style="stroke: #000000; stroke-width: 0.8"/>
      </g>
     </g>
     <g id="text_12">
      <!-- 0.2 -->
      <g transform="translate(25.059219 143.804319) scale(0.1 -0.1)">
       <use xlink:href="#DejaVuSans-13"/>
       <use xlink:href="#DejaVuSans-11" transform="translate(63.625 0)"/>
       <use xlink:href="#DejaVuSans-15" transform="translate(95.40625 0)"/>
      </g>
     </g>
    </g>
    <g id="ytick_3">
     <g id="line2d_12">
      <g>
       <use xlink:href="#mae0f39f139" x="47.962344" y="112.867716" style="stroke: #000000; stroke-width: 0.8"/>
      </g>
     </g>
     <g id="text_13">
      <!-- 0.4 -->
      <g transform="translate(25.059219 116.666544) scale(0.1 -0.1)">
       <use xlink:href="#DejaVuSans-13"/>
       <use xlink:href="#DejaVuSans-11" transform="translate(63.625 0)"/>
       <use xlink:href="#DejaVuSans-17" transform="translate(95.40625 0)"/>
      </g>
     </g>
    </g>
    <g id="ytick_4">
     <g id="line2d_13">
      <g>
       <use xlink:href="#mae0f39f139" x="47.962344" y="85.729941" style="stroke: #000000; stroke-width: 0.8"/>
      </g>
     </g>
     <g id="text_14">
      <!-- 0.6 -->
      <g transform="translate(25.059219 89.528769) scale(0.1 -0.1)">
       <use xlink:href="#DejaVuSans-13"/>
       <use xlink:href="#DejaVuSans-11" transform="translate(63.625 0)"/>
       <use xlink:href="#DejaVuSans-19" transform="translate(95.40625 0)"/>
      </g>
     </g>
    </g>
    <g id="ytick_5">
     <g id="line2d_14">
      <g>
       <use xlink:href="#mae0f39f139" x="47.962344" y="58.592165" style="stroke: #000000; stroke-width: 0.8"/>
      </g>
     </g>
     <g id="text_15">
      <!-- 0.8 -->
      <g transform="translate(25.059219 62.390993) scale(0.1 -0.1)">
       <use xlink:href="#DejaVuSans-13"/>
       <use xlink:href="#DejaVuSans-11" transform="translate(63.625 0)"/>
       <use xlink:href="#DejaVuSans-1b" transform="translate(95.40625 0)"/>
      </g>
     </g>
    </g>
    <g id="ytick_6">
     <g id="line2d_15">
      <g>
       <use xlink:href="#mae0f39f139" x="47.962344" y="31.45439" style="stroke: #000000; stroke-width: 0.8"/>
      </g>
     </g>
     <g id="text_16">
      <!-- 1.0 -->
      <g transform="translate(25.059219 35.253218) scale(0.1 -0.1)">
       <defs>
        <path id="DejaVuSans-14" d="M 794 531 
L 1825 531 
L 1825 4091 
L 703 3866 
L 703 4441 
L 1819 4666 
L 2450 4666 
L 2450 531 
L 3481 531 
L 3481 0 
L 794 0 
L 794 531 
z
" transform="scale(0.015625)"/>
       </defs>
       <use xlink:href="#DejaVuSans-14"/>
       <use xlink:href="#DejaVuSans-11" transform="translate(63.625 0)"/>
       <use xlink:href="#DejaVuSans-13" transform="translate(95.40625 0)"/>
      </g>
     </g>
    </g>
    <g id="text_17">
     <!-- σ(z) -->
     <g transform="translate(18.656875 108.993359) rotate(-90) scale(0.1 -0.1)">
      <defs>
       <path id="DejaVuSans-357" d="M 1959 3044 
Q 1484 3044 1228 2700 
Q 959 2341 959 1747 
Q 959 1119 1226 758 
Q 1494 397 1959 397 
Q 2419 397 2687 759 
Q 2956 1122 2956 1747 
Q 2956 2319 2688 2700 
Q 2441 3044 1959 3044 
z
M 1959 3500 
L 3869 3500 
L 3869 2925 
L 3225 2925 
Q 3566 2438 3566 1747 
Q 3566 888 3138 400 
Q 2709 -91 1959 -91 
Q 1206 -91 781 400 
Q 353 888 353 1747 
Q 353 2613 781 3097 
Q 1134 3500 1959 3500 
z
" transform="scale(0.015625)"/>
       <path id="DejaVuSans-b" d="M 1984 4856 
Q 1566 4138 1362 3434 
Q 1159 2731 1159 2009 
Q 1159 1288 1364 580 
Q 1569 -128 1984 -844 
L 1484 -844 
Q 1016 -109 783 600 
Q 550 1309 550 2009 
Q 550 2706 781 3412 
Q 1013 4119 1484 4856 
L 1984 4856 
z
" transform="scale(0.015625)"/>
       <path id="DejaVuSans-c" d="M 513 4856 
L 1013 4856 
Q 1481 4119 1714 3412 
Q 1947 2706 1947 2009 
Q 1947 1309 1714 600 
Q 1481 -109 1013 -844 
L 513 -844 
Q 928 -128 1133 580 
Q 1338 1288 1338 2009 
Q 1338 2731 1133 3434 
Q 928 4138 513 4856 
z
" transform="scale(0.015625)"/>
      </defs>
      <use xlink:href="#DejaVuSans-357"/>
      <use xlink:href="#DejaVuSans-b" transform="translate(63.375 0)"/>
      <use xlink:href="#DejaVuSans-5d" transform="translate(102.390625 0)"/>
      <use xlink:href="#DejaVuSans-c" transform="translate(154.875 0)"/>
     </g>
    </g>
   </g>
   <g id="line2d_16">
    <path d="M 60.476783 167.097763 
L 85.631434 166.916371 
L 98.208759 166.637313 
L 107.012887 166.257507 
L 114.559283 165.71414 
L 120.847945 165.018047 
L 125.878876 164.229172 
L 129.652073 163.455859 
L 133.425271 162.484531 
L 137.198469 161.268726 
L 140.971666 159.753522 
L 143.487131 158.546028 
L 146.002596 157.156585 
L 148.518062 155.56305 
L 151.033527 153.742347 
L 153.548992 151.671071 
L 156.064457 149.326298 
L 158.579922 146.686647 
L 161.095387 143.73359 
L 163.610852 140.452978 
L 166.126317 136.836718 
L 168.641782 132.88449 
L 171.157247 128.60534 
L 174.930445 121.619774 
L 178.703643 114.059845 
L 183.734573 103.384998 
L 192.538701 84.537811 
L 196.311899 76.977882 
L 200.085096 69.992316 
L 202.600561 65.713166 
L 205.116026 61.760938 
L 207.631492 58.144678 
L 210.146957 54.864066 
L 212.662422 51.911009 
L 215.177887 49.271358 
L 217.693352 46.926585 
L 220.208817 44.855309 
L 222.724282 43.034607 
L 225.239747 41.441071 
L 227.755212 40.051629 
L 230.270678 38.844135 
L 234.043875 37.328931 
L 237.817073 36.113125 
L 241.590271 35.141798 
L 245.363468 34.368484 
L 250.394398 33.579609 
L 255.425329 33.001801 
L 261.713991 32.493491 
L 269.260387 32.097705 
L 279.322247 31.793278 
L 294.415038 31.583723 
L 310.765561 31.499893 
L 310.765561 31.499893 
" clip-path="url(#p96e2db5b93)" style="fill: none; stroke: #58a6ff; stroke-width: 1.6; stroke-linecap: square"/>
   </g>
   <g id="line2d_17">
    <path d="M 47.962344 99.298828 
L 323.28 99.298828 
" clip-path="url(#p96e2db5b93)" style="fill: none; stroke-dasharray: 2.96,1.28; stroke-dashoffset: 0; stroke: #808080; stroke-width: 0.8"/>
   </g>
   <g id="line2d_18">
    <path d="M 185.621172 173.877656 
L 185.621172 24.72 
" clip-path="url(#p96e2db5b93)" style="fill: none; stroke-dasharray: 2.96,1.28; stroke-dashoffset: 0; stroke: #808080; stroke-width: 0.8"/>
   </g>
   <g id="patch_3">
    <path d="M 47.962344 173.877656 
L 47.962344 24.72 
" style="fill: none; stroke: #000000; stroke-width: 0.8; stroke-linejoin: miter; stroke-linecap: square"/>
   </g>
   <g id="patch_4">
    <path d="M 323.28 173.877656 
L 323.28 24.72 
" style="fill: none; stroke: #000000; stroke-width: 0.8; stroke-linejoin: miter; stroke-linecap: square"/>
   </g>
   <g id="patch_5">
    <path d="M 47.962344 173.877656 
L 323.28 173.877656 
" style="fill: none; stroke: #000000; stroke-width: 0.8; stroke-linejoin: miter; stroke-linecap: square"/>
   </g>
   <g id="patch_6">
    <path d="M 47.962344 24.72 
L 323.28 24.72 
" style="fill: none; stroke: #000000; stroke-width: 0.8; stroke-linejoin: miter; stroke-linecap: square"/>
   </g>
   <g id="patch_7">
    <path d="M 212.986352 107.438836 
Q 200.260809 103.653514 188.606894 100.186957 
" style="fill: none; stroke: #808080; stroke-linecap: round"/>
    <path d="M 191.217895 102.632907 
L 188.606894 100.186957 
L 192.130255 99.565725 
" style="fill: none; stroke: #808080; stroke-linecap: round"/>
   </g>
   <g id="text_18">
    <!-- decision boundary -->
    <g transform="translate(216.907269 116.835041) scale(0.08 -0.08)">
     <defs>
      <path id="DejaVuSans-47" d="M 2906 2969 
L 2906 4863 
L 3481 4863 
L 3481 0 
L 2906 0 
L 2906 525 
Q 2725 213 2448 61 
Q 2172 -91 1784 -91 
Q 1150 -91 751 415 
Q 353 922 353 1747 
Q 353 2572 751 3078 
Q 1150 3584 1784 3584 
Q 2172 3584 2448 3432 
Q 2725 3281 2906 2969 
z
M 947 1747 
Q 947 1113 1208 752 
Q 1469 391 1925 391 
Q 2381 391 2643 752 
Q 2906 1113 2906 1747 
Q 2906 2381 2643 2742 
Q 2381 3103 1925 3103 
Q 1469 3103 1208 2742 
Q 947 2381 947 1747 
z
" transform="scale(0.015625)"/>
      <path id="DejaVuSans-48" d="M 3597 1894 
L 3597 1613 
L 953 1613 
Q 991 1019 1311 708 
Q 1631 397 2203 397 
Q 2534 397 2845 478 
Q 3156 559 3463 722 
L 3463 178 
Q 3153 47 2828 -22 
Q 2503 -91 2169 -91 
Q 1331 -91 842 396 
Q 353 884 353 1716 
Q 353 2575 817 3079 
Q 1281 3584 2069 3584 
Q 2775 3584 3186 3129 
Q 3597 2675 3597 1894 
z
M 3022 2063 
Q 3016 2534 2758 2815 
Q 2500 3097 2075 3097 
Q 1594 3097 1305 2825 
Q 1016 2553 972 2059 
L 3022 2063 
z
" transform="scale(0.015625)"/>
      <path id="DejaVuSans-46" d="M 3122 3366 
L 3122 2828 
Q 2878 2963 2633 3030 
Q 2388 3097 2138 3097 
Q 1578 3097 1268 2742 
Q 959 2388 959 1747 
Q 959 1106 1268 751 
Q 1578 397 2138 397 
Q 2388 397 2633 464 
Q 2878 531 3122 666 
L 3122 134 
Q 2881 22 2623 -34 
Q 2366 -91 2075 -91 
Q 1284 -91 818 406 
Q 353 903 353 1747 
Q 353 2603 823 3093 
Q 1294 3584 2113 3584 
Q 2378 3584 2631 3529 
Q 2884 3475 3122 3366 
z
" transform="scale(0.015625)"/>
      <path id="DejaVuSans-4c" d="M 603 3500 
L 1178 3500 
L 1178 0 
L 603 0 
L 603 3500 
z
M 603 4863 
L 1178 4863 
L 1178 4134 
L 603 4134 
L 603 4863 
z
" transform="scale(0.015625)"/>
      <path id="DejaVuSans-56" d="M 2834 3397 
L 2834 2853 
Q 2591 2978 2328 3040 
Q 2066 3103 1784 3103 
Q 1356 3103 1142 2972 
Q 928 2841 928 2578 
Q 928 2378 1081 2264 
Q 1234 2150 1697 2047 
L 1894 2003 
Q 2506 1872 2764 1633 
Q 3022 1394 3022 966 
Q 3022 478 2636 193 
Q 2250 -91 1575 -91 
Q 1294 -91 989 -36 
Q 684 19 347 128 
L 347 722 
Q 666 556 975 473 
Q 1284 391 1588 391 
Q 1994 391 2212 530 
Q 2431 669 2431 922 
Q 2431 1156 2273 1281 
Q 2116 1406 1581 1522 
L 1381 1569 
Q 847 1681 609 1914 
Q 372 2147 372 2553 
Q 372 3047 722 3315 
Q 1072 3584 1716 3584 
Q 2034 3584 2315 3537 
Q 2597 3491 2834 3397 
z
" transform="scale(0.015625)"/>
      <path id="DejaVuSans-52" d="M 1959 3097 
Q 1497 3097 1228 2736 
Q 959 2375 959 1747 
Q 959 1119 1226 758 
Q 1494 397 1959 397 
Q 2419 397 2687 759 
Q 2956 1122 2956 1747 
Q 2956 2369 2687 2733 
Q 2419 3097 1959 3097 
z
M 1959 3584 
Q 2709 3584 3137 3096 
Q 3566 2609 3566 1747 
Q 3566 888 3137 398 
Q 2709 -91 1959 -91 
Q 1206 -91 779 398 
Q 353 888 353 1747 
Q 353 2609 779 3096 
Q 1206 3584 1959 3584 
z
" transform="scale(0.015625)"/>
      <path id="DejaVuSans-51" d="M 3513 2113 
L 3513 0 
L 2938 0 
L 2938 2094 
Q 2938 2591 2744 2837 
Q 2550 3084 2163 3084 
Q 1697 3084 1428 2787 
Q 1159 2491 1159 1978 
L 1159 0 
L 581 0 
L 581 3500 
L 1159 3500 
L 1159 2956 
Q 1366 3272 1645 3428 
Q 1925 3584 2291 3584 
Q 2894 3584 3203 3211 
Q 3513 2838 3513 2113 
z
" transform="scale(0.015625)"/>
      <path id="DejaVuSans-58" d="M 544 1381 
L 544 3500 
L 1119 3500 
L 1119 1403 
Q 1119 906 1312 657 
Q 1506 409 1894 409 
Q 2359 409 2629 706 
Q 2900 1003 2900 1516 
L 2900 3500 
L 3475 3500 
L 3475 0 
L 2900 0 
L 2900 538 
Q 2691 219 2414 64 
Q 2138 -91 1772 -91 
Q 1169 -91 856 284 
Q 544 659 544 1381 
z
M 1991 3584 
L 1991 3584 
z
" transform="scale(0.015625)"/>
      <path id="DejaVuSans-44" d="M 2194 1759 
Q 1497 1759 1228 1600 
Q 959 1441 959 1056 
Q 959 750 1161 570 
Q 1363 391 1709 391 
Q 2188 391 2477 730 
Q 2766 1069 2766 1631 
L 2766 1759 
L 2194 1759 
z
M 3341 1997 
L 3341 0 
L 2766 0 
L 2766 531 
Q 2569 213 2275 61 
Q 1981 -91 1556 -91 
Q 1019 -91 701 211 
Q 384 513 384 1019 
Q 384 1609 779 1909 
Q 1175 2209 1959 2209 
L 2766 2209 
L 2766 2266 
Q 2766 2663 2505 2880 
Q 2244 3097 1772 3097 
Q 1472 3097 1187 3025 
Q 903 2953 641 2809 
L 641 3341 
Q 956 3463 1253 3523 
Q 1550 3584 1831 3584 
Q 2591 3584 2966 3190 
Q 3341 2797 3341 1997 
z
" transform="scale(0.015625)"/>
      <path id="DejaVuSans-55" d="M 2631 2963 
Q 2534 3019 2420 3045 
Q 2306 3072 2169 3072 
Q 1681 3072 1420 2755 
Q 1159 2438 1159 1844 
L 1159 0 
L 581 0 
L 581 3500 
L 1159 3500 
L 1159 2956 
Q 1341 3275 1631 3429 
Q 1922 3584 2338 3584 
Q 2397 3584 2469 3576 
Q 2541 3569 2628 3553 
L 2631 2963 
z
" transform="scale(0.015625)"/>
      <path id="DejaVuSans-5c" d="M 2059 -325 
Q 1816 -950 1584 -1140 
Q 1353 -1331 966 -1331 
L 506 -1331 
L 506 -850 
L 844 -850 
Q 1081 -850 1212 -737 
Q 1344 -625 1503 -206 
L 1606 56 
L 191 3500 
L 800 3500 
L 1894 763 
L 2988 3500 
L 3597 3500 
L 2059 -325 
z
" transform="scale(0.015625)"/>
     </defs>
     <use xlink:href="#DejaVuSans-47"/>
     <use xlink:href="#DejaVuSans-48" transform="translate(63.484375 0)"/>
     <use xlink:href="#DejaVuSans-46" transform="translate(125.015625 0)"/>
     <use xlink:href="#DejaVuSans-4c" transform="translate(180 0)"/>
     <use xlink:href="#DejaVuSans-56" transform="translate(207.78125 0)"/>
     <use xlink:href="#DejaVuSans-4c" transform="translate(259.875 0)"/>
     <use xlink:href="#DejaVuSans-52" transform="translate(287.65625 0)"/>
     <use xlink:href="#DejaVuSans-51" transform="translate(348.84375 0)"/>
     <use xlink:href="#DejaVuSans-3" transform="translate(412.21875 0)"/>
     <use xlink:href="#DejaVuSans-45" transform="translate(444 0)"/>
     <use xlink:href="#DejaVuSans-52" transform="translate(507.484375 0)"/>
     <use xlink:href="#DejaVuSans-58" transform="translate(568.671875 0)"/>
     <use xlink:href="#DejaVuSans-51" transform="translate(632.046875 0)"/>
     <use xlink:href="#DejaVuSans-47" transform="translate(695.421875 0)"/>
     <use xlink:href="#DejaVuSans-44" transform="translate(758.90625 0)"/>
     <use xlink:href="#DejaVuSans-55" transform="translate(820.1875 0)"/>
     <use xlink:href="#DejaVuSans-5c" transform="translate(861.296875 0)"/>
    </g>
    <!-- (z = 0 → p = 0.5) -->
    <g transform="translate(216.907269 126.436603) scale(0.08 -0.08)">
     <defs>
      <path id="DejaVuSans-c1c" d="M 5050 2147 
L 5050 1866 
L 3822 638 
L 3447 1013 
L 4175 1741 
L 366 1741 
L 366 2272 
L 4175 2272 
L 3447 3000 
L 3822 3375 
L 5050 2147 
z
" transform="scale(0.015625)"/>
      <path id="DejaVuSans-53" d="M 1159 525 
L 1159 -1331 
L 581 -1331 
L 581 3500 
L 1159 3500 
L 1159 2969 
Q 1341 3281 1617 3432 
Q 1894 3584 2278 3584 
Q 2916 3584 3314 3078 
Q 3713 2572 3713 1747 
Q 3713 922 3314 415 
Q 2916 -91 2278 -91 
Q 1894 -91 1617 61 
Q 1341 213 1159 525 
z
M 3116 1747 
Q 3116 2381 2855 2742 
Q 2594 3103 2138 3103 
Q 1681 3103 1420 2742 
Q 1159 2381 1159 1747 
Q 1159 1113 1420 752 
Q 1681 391 2138 391 
Q 2594 391 2855 752 
Q 3116 1113 3116 1747 
z
" transform="scale(0.015625)"/>
      <path id="DejaVuSans-18" d="M 691 4666 
L 3169 4666 
L 3169 4134 
L 1269 4134 
L 1269 2991 
Q 1406 3038 1543 3061 
Q 1681 3084 1819 3084 
Q 2600 3084 3056 2656 
Q 3513 2228 3513 1497 
Q 3513 744 3044 326 
Q 2575 -91 1722 -91 
Q 1428 -91 1123 -41 
Q 819 9 494 109 
L 494 744 
Q 775 591 1075 516 
Q 1375 441 1709 441 
Q 2250 441 2565 725 
Q 2881 1009 2881 1497 
Q 2881 1984 2565 2268 
Q 2250 2553 1709 2553 
Q 1456 2553 1204 2497 
Q 953 2441 691 2322 
L 691 4666 
z
" transform="scale(0.015625)"/>
     </defs>
     <use xlink:href="#DejaVuSans-b"/>
     <use xlink:href="#DejaVuSans-5d" transform="translate(39.015625 0)"/>
     <use xlink:href="#DejaVuSans-3" transform="translate(91.5 0)"/>
     <use xlink:href="#DejaVuSans-20" transform="translate(123.28125 0)"/>
     <use xlink:href="#DejaVuSans-3" transform="translate(207.078125 0)"/>
     <use xlink:href="#DejaVuSans-13" transform="translate(238.859375 0)"/>
     <use xlink:href="#DejaVuSans-3" transform="translate(302.484375 0)"/>
     <use xlink:href="#DejaVuSans-c1c" transform="translate(334.265625 0)"/>
     <use xlink:href="#DejaVuSans-3" transform="translate(418.0625 0)"/>
     <use xlink:href="#DejaVuSans-53" transform="translate(449.84375 0)"/>
     <use xlink:href="#DejaVuSans-3" transform="translate(513.328125 0)"/>
     <use xlink:href="#DejaVuSans-20" transform="translate(545.109375 0)"/>
     <use xlink:href="#DejaVuSans-3" transform="translate(628.90625 0)"/>
     <use xlink:href="#DejaVuSans-13" transform="translate(660.6875 0)"/>
     <use xlink:href="#DejaVuSans-11" transform="translate(724.3125 0)"/>
     <use xlink:href="#DejaVuSans-18" transform="translate(756.09375 0)"/>
     <use xlink:href="#DejaVuSans-c" transform="translate(819.71875 0)"/>
    </g>
   </g>
   <g id="text_19">
    <!-- Sigmoid: score → probability -->
    <g transform="translate(114.636016 18.72) scale(0.1 -0.1)">
     <defs>
      <path id="DejaVuSans-36" d="M 3425 4513 
L 3425 3897 
Q 3066 4069 2747 4153 
Q 2428 4238 2131 4238 
Q 1616 4238 1336 4038 
Q 1056 3838 1056 3469 
Q 1056 3159 1242 3001 
Q 1428 2844 1947 2747 
L 2328 2669 
Q 3034 2534 3370 2195 
Q 3706 1856 3706 1288 
Q 3706 609 3251 259 
Q 2797 -91 1919 -91 
Q 1588 -91 1214 -16 
Q 841 59 441 206 
L 441 856 
Q 825 641 1194 531 
Q 1563 422 1919 422 
Q 2459 422 2753 634 
Q 3047 847 3047 1241 
Q 3047 1584 2836 1778 
Q 2625 1972 2144 2069 
L 1759 2144 
Q 1053 2284 737 2584 
Q 422 2884 422 3419 
Q 422 4038 858 4394 
Q 1294 4750 2059 4750 
Q 2388 4750 2728 4690 
Q 3069 4631 3425 4513 
z
" transform="scale(0.015625)"/>
      <path id="DejaVuSans-4a" d="M 2906 1791 
Q 2906 2416 2648 2759 
Q 2391 3103 1925 3103 
Q 1463 3103 1205 2759 
Q 947 2416 947 1791 
Q 947 1169 1205 825 
Q 1463 481 1925 481 
Q 2391 481 2648 825 
Q 2906 1169 2906 1791 
z
M 3481 434 
Q 3481 -459 3084 -895 
Q 2688 -1331 1869 -1331 
Q 1566 -1331 1297 -1286 
Q 1028 -1241 775 -1147 
L 775 -588 
Q 1028 -725 1275 -790 
Q 1522 -856 1778 -856 
Q 2344 -856 2625 -561 
Q 2906 -266 2906 331 
L 2906 616 
Q 2728 306 2450 153 
Q 2172 0 1784 0 
Q 1141 0 747 490 
Q 353 981 353 1791 
Q 353 2603 747 3093 
Q 1141 3584 1784 3584 
Q 2172 3584 2450 3431 
Q 2728 3278 2906 2969 
L 2906 3500 
L 3481 3500 
L 3481 434 
z
" transform="scale(0.015625)"/>
      <path id="DejaVuSans-50" d="M 3328 2828 
Q 3544 3216 3844 3400 
Q 4144 3584 4550 3584 
Q 5097 3584 5394 3201 
Q 5691 2819 5691 2113 
L 5691 0 
L 5113 0 
L 5113 2094 
Q 5113 2597 4934 2840 
Q 4756 3084 4391 3084 
Q 3944 3084 3684 2787 
Q 3425 2491 3425 1978 
L 3425 0 
L 2847 0 
L 2847 2094 
Q 2847 2600 2669 2842 
Q 2491 3084 2119 3084 
Q 1678 3084 1418 2786 
Q 1159 2488 1159 1978 
L 1159 0 
L 581 0 
L 581 3500 
L 1159 3500 
L 1159 2956 
Q 1356 3278 1631 3431 
Q 1906 3584 2284 3584 
Q 2666 3584 2933 3390 
Q 3200 3197 3328 2828 
z
" transform="scale(0.015625)"/>
      <path id="DejaVuSans-1d" d="M 750 794 
L 1409 794 
L 1409 0 
L 750 0 
L 750 794 
z
M 750 3309 
L 1409 3309 
L 1409 2516 
L 750 2516 
L 750 3309 
z
" transform="scale(0.015625)"/>
      <path id="DejaVuSans-4f" d="M 603 4863 
L 1178 4863 
L 1178 0 
L 603 0 
L 603 4863 
z
" transform="scale(0.015625)"/>
      <path id="DejaVuSans-57" d="M 1172 4494 
L 1172 3500 
L 2356 3500 
L 2356 3053 
L 1172 3053 
L 1172 1153 
Q 1172 725 1289 603 
Q 1406 481 1766 481 
L 2356 481 
L 2356 0 
L 1766 0 
Q 1100 0 847 248 
Q 594 497 594 1153 
L 594 3053 
L 172 3053 
L 172 3500 
L 594 3500 
L 594 4494 
L 1172 4494 
z
" transform="scale(0.015625)"/>
     </defs>
     <use xlink:href="#DejaVuSans-36"/>
     <use xlink:href="#DejaVuSans-4c" transform="translate(63.484375 0)"/>
     <use xlink:href="#DejaVuSans-4a" transform="translate(91.265625 0)"/>
     <use xlink:href="#DejaVuSans-50" transform="translate(154.75 0)"/>
     <use xlink:href="#DejaVuSans-52" transform="translate(252.15625 0)"/>
     <use xlink:href="#DejaVuSans-4c" transform="translate(313.34375 0)"/>
     <use xlink:href="#DejaVuSans-47" transform="translate(341.125 0)"/>
     <use xlink:href="#DejaVuSans-1d" transform="translate(404.609375 0)"/>
     <use xlink:href="#DejaVuSans-3" transform="translate(438.296875 0)"/>
     <use xlink:href="#DejaVuSans-56" transform="translate(470.078125 0)"/>
     <use xlink:href="#DejaVuSans-46" transform="translate(522.171875 0)"/>
     <use xlink:href="#DejaVuSans-52" transform="translate(577.15625 0)"/>
     <use xlink:href="#DejaVuSans-55" transform="translate(638.34375 0)"/>
     <use xlink:href="#DejaVuSans-48" transform="translate(677.25 0)"/>
     <use xlink:href="#DejaVuSans-3" transform="translate(738.78125 0)"/>
     <use xlink:href="#DejaVuSans-c1c" transform="translate(770.5625 0)"/>
     <use xlink:href="#DejaVuSans-3" transform="translate(854.359375 0)"/>
     <use xlink:href="#DejaVuSans-53" transform="translate(886.140625 0)"/>
     <use xlink:href="#DejaVuSans-55" transform="translate(949.625 0)"/>
     <use xlink:href="#DejaVuSans-52" transform="translate(988.53125 0)"/>
     <use xlink:href="#DejaVuSans-45" transform="translate(1049.71875 0)"/>
     <use xlink:href="#DejaVuSans-44" transform="translate(1113.203125 0)"/>
     <use xlink:href="#DejaVuSans-45" transform="translate(1174.484375 0)"/>
     <use xlink:href="#DejaVuSans-4c" transform="translate(1237.96875 0)"/>
     <use xlink:href="#DejaVuSans-4f" transform="translate(1265.75 0)"/>
     <use xlink:href="#DejaVuSans-4c" transform="translate(1293.53125 0)"/>
     <use xlink:href="#DejaVuSans-57" transform="translate(1321.3125 0)"/>
     <use xlink:href="#DejaVuSans-5c" transform="translate(1360.515625 0)"/>
    </g>
   </g>
  </g>
  <g id="axes_2">
   <g id="patch_8">
    <path d="M 361.882344 173.877656 
L 637.2 173.877656 
L 637.2 24.72 
L 361.882344 24.72 
L 361.882344 173.877656 
z
" style="fill: none"/>
   </g>
   <g id="matplotlib.axis_3">
    <g id="xtick_10">
     <g id="line2d_19">
      <g>
       <use xlink:href="#m139679f62e" x="374.145992" y="173.877656" style="stroke: #000000; stroke-width: 0.8"/>
      </g>
     </g>
     <g id="text_20">
      <!-- 0.0 -->
      <g transform="translate(366.19443 188.475313) scale(0.1 -0.1)">
       <use xlink:href="#DejaVuSans-13"/>
       <use xlink:href="#DejaVuSans-11" transform="translate(63.625 0)"/>
       <use xlink:href="#DejaVuSans-13" transform="translate(95.40625 0)"/>
      </g>
     </g>
    </g>
    <g id="xtick_11">
     <g id="line2d_20">
      <g>
       <use xlink:href="#m139679f62e" x="424.304064" y="173.877656" style="stroke: #000000; stroke-width: 0.8"/>
      </g>
     </g>
     <g id="text_21">
      <!-- 0.2 -->
      <g transform="translate(416.352502 188.475313) scale(0.1 -0.1)">
       <use xlink:href="#DejaVuSans-13"/>
       <use xlink:href="#DejaVuSans-11" transform="translate(63.625 0)"/>
       <use xlink:href="#DejaVuSans-15" transform="translate(95.40625 0)"/>
      </g>
     </g>
    </g>
    <g id="xtick_12">
     <g id="line2d_21">
      <g>
       <use xlink:href="#m139679f62e" x="474.462136" y="173.877656" style="stroke: #000000; stroke-width: 0.8"/>
      </g>
     </g>
     <g id="text_22">
      <!-- 0.4 -->
      <g transform="translate(466.510573 188.475313) scale(0.1 -0.1)">
       <use xlink:href="#DejaVuSans-13"/>
       <use xlink:href="#DejaVuSans-11" transform="translate(63.625 0)"/>
       <use xlink:href="#DejaVuSans-17" transform="translate(95.40625 0)"/>
      </g>
     </g>
    </g>
    <g id="xtick_13">
     <g id="line2d_22">
      <g>
       <use xlink:href="#m139679f62e" x="524.620208" y="173.877656" style="stroke: #000000; stroke-width: 0.8"/>
      </g>
     </g>
     <g id="text_23">
      <!-- 0.6 -->
      <g transform="translate(516.668645 188.475313) scale(0.1 -0.1)">
       <use xlink:href="#DejaVuSans-13"/>
       <use xlink:href="#DejaVuSans-11" transform="translate(63.625 0)"/>
       <use xlink:href="#DejaVuSans-19" transform="translate(95.40625 0)"/>
      </g>
     </g>
    </g>
    <g id="xtick_14">
     <g id="line2d_23">
      <g>
       <use xlink:href="#m139679f62e" x="574.77828" y="173.877656" style="stroke: #000000; stroke-width: 0.8"/>
      </g>
     </g>
     <g id="text_24">
      <!-- 0.8 -->
      <g transform="translate(566.826717 188.475313) scale(0.1 -0.1)">
       <use xlink:href="#DejaVuSans-13"/>
       <use xlink:href="#DejaVuSans-11" transform="translate(63.625 0)"/>
       <use xlink:href="#DejaVuSans-1b" transform="translate(95.40625 0)"/>
      </g>
     </g>
    </g>
    <g id="xtick_15">
     <g id="line2d_24">
      <g>
       <use xlink:href="#m139679f62e" x="624.936351" y="173.877656" style="stroke: #000000; stroke-width: 0.8"/>
      </g>
     </g>
     <g id="text_25">
      <!-- 1.0 -->
      <g transform="translate(616.984789 188.475313) scale(0.1 -0.1)">
       <use xlink:href="#DejaVuSans-14"/>
       <use xlink:href="#DejaVuSans-11" transform="translate(63.625 0)"/>
       <use xlink:href="#DejaVuSans-13" transform="translate(95.40625 0)"/>
      </g>
     </g>
    </g>
    <g id="text_26">
     <!-- predicted probability p̂ -->
     <g transform="translate(442.791172 202.876094) scale(0.1 -0.1)">
      <defs>
       <path id="DejaVuSans-2b3" d="M -1831 5119 
L -1369 5119 
L -603 3944 
L -1038 3944 
L -1600 4709 
L -2163 3944 
L -2597 3944 
L -1831 5119 
z
M -1600 3584 
L -1600 3584 
z
" transform="scale(0.015625)"/>
      </defs>
      <use xlink:href="#DejaVuSans-53"/>
      <use xlink:href="#DejaVuSans-55" transform="translate(63.484375 0)"/>
      <use xlink:href="#DejaVuSans-48" transform="translate(102.390625 0)"/>
      <use xlink:href="#DejaVuSans-47" transform="translate(163.921875 0)"/>
      <use xlink:href="#DejaVuSans-4c" transform="translate(227.40625 0)"/>
      <use xlink:href="#DejaVuSans-46" transform="translate(255.1875 0)"/>
      <use xlink:href="#DejaVuSans-57" transform="translate(310.171875 0)"/>
      <use xlink:href="#DejaVuSans-48" transform="translate(349.375 0)"/>
      <use xlink:href="#DejaVuSans-47" transform="translate(410.90625 0)"/>
      <use xlink:href="#DejaVuSans-3" transform="translate(474.390625 0)"/>
      <use xlink:href="#DejaVuSans-53" transform="translate(506.171875 0)"/>
      <use xlink:href="#DejaVuSans-55" transform="translate(569.65625 0)"/>
      <use xlink:href="#DejaVuSans-52" transform="translate(608.5625 0)"/>
      <use xlink:href="#DejaVuSans-45" transform="translate(669.75 0)"/>
      <use xlink:href="#DejaVuSans-44" transform="translate(733.234375 0)"/>
      <use xlink:href="#DejaVuSans-45" transform="translate(794.515625 0)"/>
      <use xlink:href="#DejaVuSans-4c" transform="translate(858 0)"/>
      <use xlink:href="#DejaVuSans-4f" transform="translate(885.78125 0)"/>
      <use xlink:href="#DejaVuSans-4c" transform="translate(913.5625 0)"/>
      <use xlink:href="#DejaVuSans-57" transform="translate(941.34375 0)"/>
      <use xlink:href="#DejaVuSans-5c" transform="translate(980.546875 0)"/>
      <use xlink:href="#DejaVuSans-3" transform="translate(1039.734375 0)"/>
      <use xlink:href="#DejaVuSans-53" transform="translate(1071.515625 0)"/>
      <use xlink:href="#DejaVuSans-2b3" transform="translate(1129.625 0)"/>
     </g>
    </g>
   </g>
   <g id="matplotlib.axis_4">
    <g id="ytick_7">
     <g id="line2d_25">
      <g>
       <use xlink:href="#mae0f39f139" x="361.882344" y="173.877656" style="stroke: #000000; stroke-width: 0.8"/>
      </g>
     </g>
     <g id="text_27">
      <!-- 0 -->
      <g transform="translate(348.519844 177.676484) scale(0.1 -0.1)">
       <use xlink:href="#DejaVuSans-13"/>
      </g>
     </g>
    </g>
    <g id="ytick_8">
     <g id="line2d_26">
      <g>
       <use xlink:href="#mae0f39f139" x="361.882344" y="149.018047" style="stroke: #000000; stroke-width: 0.8"/>
      </g>
     </g>
     <g id="text_28">
      <!-- 1 -->
      <g transform="translate(348.519844 152.816875) scale(0.1 -0.1)">
       <use xlink:href="#DejaVuSans-14"/>
      </g>
     </g>
    </g>
    <g id="ytick_9">
     <g id="line2d_27">
      <g>
       <use xlink:href="#mae0f39f139" x="361.882344" y="124.158438" style="stroke: #000000; stroke-width: 0.8"/>
      </g>
     </g>
     <g id="text_29">
      <!-- 2 -->
      <g transform="translate(348.519844 127.957266) scale(0.1 -0.1)">
       <use xlink:href="#DejaVuSans-15"/>
      </g>
     </g>
    </g>
    <g id="ytick_10">
     <g id="line2d_28">
      <g>
       <use xlink:href="#mae0f39f139" x="361.882344" y="99.298828" style="stroke: #000000; stroke-width: 0.8"/>
      </g>
     </g>
     <g id="text_30">
      <!-- 3 -->
      <g transform="translate(348.519844 103.097656) scale(0.1 -0.1)">
       <defs>
        <path id="DejaVuSans-16" d="M 2597 2516 
Q 3050 2419 3304 2112 
Q 3559 1806 3559 1356 
Q 3559 666 3084 287 
Q 2609 -91 1734 -91 
Q 1441 -91 1130 -33 
Q 819 25 488 141 
L 488 750 
Q 750 597 1062 519 
Q 1375 441 1716 441 
Q 2309 441 2620 675 
Q 2931 909 2931 1356 
Q 2931 1769 2642 2001 
Q 2353 2234 1838 2234 
L 1294 2234 
L 1294 2753 
L 1863 2753 
Q 2328 2753 2575 2939 
Q 2822 3125 2822 3475 
Q 2822 3834 2567 4026 
Q 2313 4219 1838 4219 
Q 1578 4219 1281 4162 
Q 984 4106 628 3988 
L 628 4550 
Q 988 4650 1302 4700 
Q 1616 4750 1894 4750 
Q 2613 4750 3031 4423 
Q 3450 4097 3450 3541 
Q 3450 3153 3228 2886 
Q 3006 2619 2597 2516 
z
" transform="scale(0.015625)"/>
       </defs>
       <use xlink:href="#DejaVuSans-16"/>
      </g>
     </g>
    </g>
    <g id="ytick_11">
     <g id="line2d_29">
      <g>
       <use xlink:href="#mae0f39f139" x="361.882344" y="74.439219" style="stroke: #000000; stroke-width: 0.8"/>
      </g>
     </g>
     <g id="text_31">
      <!-- 4 -->
      <g transform="translate(348.519844 78.238047) scale(0.1 -0.1)">
       <use xlink:href="#DejaVuSans-17"/>
      </g>
     </g>
    </g>
    <g id="ytick_12">
     <g id="line2d_30">
      <g>
       <use xlink:href="#mae0f39f139" x="361.882344" y="49.579609" style="stroke: #000000; stroke-width: 0.8"/>
      </g>
     </g>
     <g id="text_32">
      <!-- 5 -->
      <g transform="translate(348.519844 53.378438) scale(0.1 -0.1)">
       <use xlink:href="#DejaVuSans-18"/>
      </g>
     </g>
    </g>
    <g id="ytick_13">
     <g id="line2d_31">
      <g>
       <use xlink:href="#mae0f39f139" x="361.882344" y="24.72" style="stroke: #000000; stroke-width: 0.8"/>
      </g>
     </g>
     <g id="text_33">
      <!-- 6 -->
      <g transform="translate(348.519844 28.518828) scale(0.1 -0.1)">
       <use xlink:href="#DejaVuSans-19"/>
      </g>
     </g>
    </g>
    <g id="text_34">
     <!-- cross-entropy loss -->
     <g transform="translate(342.1175 144.656641) rotate(-90) scale(0.1 -0.1)">
      <defs>
       <path id="DejaVuSans-10" d="M 313 2009 
L 1997 2009 
L 1997 1497 
L 313 1497 
L 313 2009 
z
" transform="scale(0.015625)"/>
      </defs>
      <use xlink:href="#DejaVuSans-46"/>
      <use xlink:href="#DejaVuSans-55" transform="translate(54.984375 0)"/>
      <use xlink:href="#DejaVuSans-52" transform="translate(93.890625 0)"/>
      <use xlink:href="#DejaVuSans-56" transform="translate(155.078125 0)"/>
      <use xlink:href="#DejaVuSans-56" transform="translate(207.171875 0)"/>
      <use xlink:href="#DejaVuSans-10" transform="translate(259.265625 0)"/>
      <use xlink:href="#DejaVuSans-48" transform="translate(295.34375 0)"/>
      <use xlink:href="#DejaVuSans-51" transform="translate(356.875 0)"/>
      <use xlink:href="#DejaVuSans-57" transform="translate(420.25 0)"/>
      <use xlink:href="#DejaVuSans-55" transform="translate(459.453125 0)"/>
      <use xlink:href="#DejaVuSans-52" transform="translate(498.359375 0)"/>
      <use xlink:href="#DejaVuSans-53" transform="translate(559.546875 0)"/>
      <use xlink:href="#DejaVuSans-5c" transform="translate(623.03125 0)"/>
      <use xlink:href="#DejaVuSans-3" transform="translate(682.21875 0)"/>
      <use xlink:href="#DejaVuSans-4f" transform="translate(714 0)"/>
      <use xlink:href="#DejaVuSans-52" transform="translate(741.78125 0)"/>
      <use xlink:href="#DejaVuSans-56" transform="translate(802.96875 0)"/>
      <use xlink:href="#DejaVuSans-56" transform="translate(855.0625 0)"/>
     </g>
    </g>
   </g>
   <g id="line2d_32">
    <path d="M 374.396783 2.153558 
L 375.233869 38.631694 
L 376.070955 52.81855 
L 376.908041 61.794513 
L 377.745128 68.375369 
L 378.582214 73.573747 
L 379.4193 77.87085 
L 381.093472 84.725172 
L 382.767645 90.092306 
L 384.441817 94.503934 
L 386.11599 98.249403 
L 387.790162 101.50375 
L 389.464335 104.380967 
L 391.975593 108.154882 
L 394.486852 111.430673 
L 396.99811 114.324633 
L 399.509369 116.916558 
L 402.857714 119.999129 
L 406.206059 122.741287 
L 409.554404 125.210795 
L 413.739835 127.988216 
L 417.925266 130.48628 
L 422.947783 133.186196 
L 427.9703 135.621398 
L 433.829904 138.190323 
L 439.689507 140.51847 
L 446.386197 142.936874 
L 453.919973 145.402963 
L 462.290835 147.883555 
L 471.498784 150.353605 
L 481.543818 152.794783 
L 492.425939 155.194091 
L 504.145146 157.54267 
L 516.701439 159.834802 
L 530.931905 162.2002 
L 545.999457 164.48134 
L 562.741181 166.792307 
L 581.157078 169.108464 
L 601.247147 171.41104 
L 623.848475 173.769586 
L 624.685561 173.852784 
L 624.685561 173.852784 
" clip-path="url(#p0394d55fcb)" style="fill: none; stroke: #3fb950; stroke-width: 1.5; stroke-linecap: square"/>
   </g>
   <g id="line2d_33">
    <path d="M 374.396783 173.852784 
L 396.99811 171.502503 
L 417.925266 169.108464 
L 437.178249 166.681721 
L 454.757059 164.237974 
L 470.661697 161.798797 
L 484.892163 159.392972 
L 497.448456 157.057745 
L 509.167663 154.660601 
L 520.049784 152.206592 
L 530.094819 149.703925 
L 539.302767 147.165016 
L 547.673629 144.607809 
L 555.207405 142.057311 
L 561.904095 139.547262 
L 567.763698 137.121688 
L 572.786216 134.835874 
L 577.808733 132.318401 
L 581.994164 130.006346 
L 586.179595 127.457003 
L 590.365026 124.616034 
L 593.713371 122.08358 
L 597.061716 119.263575 
L 600.410061 116.082253 
L 602.921319 113.396915 
L 605.432578 110.38598 
L 607.943837 106.959455 
L 609.618009 104.380967 
L 611.292182 101.50375 
L 612.966354 98.249403 
L 614.640526 94.503934 
L 616.314699 90.092306 
L 617.988871 84.725172 
L 618.825958 81.533502 
L 619.663044 77.87085 
L 620.50013 73.573747 
L 621.337216 68.375369 
L 622.174302 61.794513 
L 623.011389 52.81855 
L 623.848475 38.631694 
L 624.685561 2.153558 
L 624.685561 2.153558 
" clip-path="url(#p0394d55fcb)" style="fill: none; stroke: #ff7b72; stroke-width: 1.5; stroke-linecap: square"/>
   </g>
   <g id="patch_9">
    <path d="M 361.882344 173.877656 
L 361.882344 24.72 
" style="fill: none; stroke: #000000; stroke-width: 0.8; stroke-linejoin: miter; stroke-linecap: square"/>
   </g>
   <g id="patch_10">
    <path d="M 637.2 173.877656 
L 637.2 24.72 
" style="fill: none; stroke: #000000; stroke-width: 0.8; stroke-linejoin: miter; stroke-linecap: square"/>
   </g>
   <g id="patch_11">
    <path d="M 361.882344 173.877656 
L 637.2 173.877656 
" style="fill: none; stroke: #000000; stroke-width: 0.8; stroke-linejoin: miter; stroke-linecap: square"/>
   </g>
   <g id="patch_12">
    <path d="M 361.882344 24.72 
L 637.2 24.72 
" style="fill: none; stroke: #000000; stroke-width: 0.8; stroke-linejoin: miter; stroke-linecap: square"/>
   </g>
   <g id="text_35">
    <!-- Confidently wrong = heavily punished -->
    <g transform="translate(404.030234 18.72) scale(0.1 -0.1)">
     <defs>
      <path id="DejaVuSans-26" d="M 4122 4306 
L 4122 3641 
Q 3803 3938 3442 4084 
Q 3081 4231 2675 4231 
Q 1875 4231 1450 3742 
Q 1025 3253 1025 2328 
Q 1025 1406 1450 917 
Q 1875 428 2675 428 
Q 3081 428 3442 575 
Q 3803 722 4122 1019 
L 4122 359 
Q 3791 134 3420 21 
Q 3050 -91 2638 -91 
Q 1578 -91 968 557 
Q 359 1206 359 2328 
Q 359 3453 968 4101 
Q 1578 4750 2638 4750 
Q 3056 4750 3426 4639 
Q 3797 4528 4122 4306 
z
" transform="scale(0.015625)"/>
      <path id="DejaVuSans-13af" d="M 3431 3500 
L 3431 0 
L 2853 0 
L 2853 3053 
L 1275 3053 
L 1275 0 
L 697 0 
L 697 3053 
L 147 3053 
L 147 3500 
L 697 3500 
L 697 3744 
Q 697 4316 967 4589 
Q 1238 4863 1797 4863 
L 2375 4863 
L 2375 4384 
L 1825 4384 
Q 1516 4384 1395 4259 
Q 1275 4134 1275 3809 
L 1275 3500 
L 3431 3500 
z
M 2853 4856 
L 3431 4856 
L 3431 4128 
L 2853 4128 
L 2853 4856 
z
" transform="scale(0.015625)"/>
      <path id="DejaVuSans-4b" d="M 3513 2113 
L 3513 0 
L 2938 0 
L 2938 2094 
Q 2938 2591 2744 2837 
Q 2550 3084 2163 3084 
Q 1697 3084 1428 2787 
Q 1159 2491 1159 1978 
L 1159 0 
L 581 0 
L 581 4863 
L 1159 4863 
L 1159 2956 
Q 1366 3272 1645 3428 
Q 1925 3584 2291 3584 
Q 2894 3584 3203 3211 
Q 3513 2838 3513 2113 
z
" transform="scale(0.015625)"/>
      <path id="DejaVuSans-59" d="M 191 3500 
L 800 3500 
L 1894 563 
L 2988 3500 
L 3597 3500 
L 2284 0 
L 1503 0 
L 191 3500 
z
" transform="scale(0.015625)"/>
     </defs>
     <use xlink:href="#DejaVuSans-26"/>
     <use xlink:href="#DejaVuSans-52" transform="translate(69.828125 0)"/>
     <use xlink:href="#DejaVuSans-51" transform="translate(131.015625 0)"/>
     <use xlink:href="#DejaVuSans-13af" transform="translate(194.390625 0)"/>
     <use xlink:href="#DejaVuSans-47" transform="translate(257.375 0)"/>
     <use xlink:href="#DejaVuSans-48" transform="translate(320.859375 0)"/>
     <use xlink:href="#DejaVuSans-51" transform="translate(382.390625 0)"/>
     <use xlink:href="#DejaVuSans-57" transform="translate(445.765625 0)"/>
     <use xlink:href="#DejaVuSans-4f" transform="translate(484.96875 0)"/>
     <use xlink:href="#DejaVuSans-5c" transform="translate(512.75 0)"/>
     <use xlink:href="#DejaVuSans-3" transform="translate(571.9375 0)"/>
     <use xlink:href="#DejaVuSans-5a" transform="translate(603.71875 0)"/>
     <use xlink:href="#DejaVuSans-55" transform="translate(685.5 0)"/>
     <use xlink:href="#DejaVuSans-52" transform="translate(724.40625 0)"/>
     <use xlink:href="#DejaVuSans-51" transform="translate(785.59375 0)"/>
     <use xlink:href="#DejaVuSans-4a" transform="translate(848.96875 0)"/>
     <use xlink:href="#DejaVuSans-3" transform="translate(912.453125 0)"/>
     <use xlink:href="#DejaVuSans-20" transform="translate(944.234375 0)"/>
     <use xlink:href="#DejaVuSans-3" transform="translate(1028.03125 0)"/>
     <use xlink:href="#DejaVuSans-4b" transform="translate(1059.8125 0)"/>
     <use xlink:href="#DejaVuSans-48" transform="translate(1123.1875 0)"/>
     <use xlink:href="#DejaVuSans-44" transform="translate(1184.71875 0)"/>
     <use xlink:href="#DejaVuSans-59" transform="translate(1246 0)"/>
     <use xlink:href="#DejaVuSans-4c" transform="translate(1305.1875 0)"/>
     <use xlink:href="#DejaVuSans-4f" transform="translate(1332.96875 0)"/>
     <use xlink:href="#DejaVuSans-5c" transform="translate(1360.75 0)"/>
     <use xlink:href="#DejaVuSans-3" transform="translate(1419.9375 0)"/>
     <use xlink:href="#DejaVuSans-53" transform="translate(1451.71875 0)"/>
     <use xlink:href="#DejaVuSans-58" transform="translate(1515.203125 0)"/>
     <use xlink:href="#DejaVuSans-51" transform="translate(1578.578125 0)"/>
     <use xlink:href="#DejaVuSans-4c" transform="translate(1641.953125 0)"/>
     <use xlink:href="#DejaVuSans-56" transform="translate(1669.734375 0)"/>
     <use xlink:href="#DejaVuSans-4b" transform="translate(1721.828125 0)"/>
     <use xlink:href="#DejaVuSans-48" transform="translate(1785.203125 0)"/>
     <use xlink:href="#DejaVuSans-47" transform="translate(1846.734375 0)"/>
    </g>
   </g>
   <g id="legend_1">
    <g id="patch_13">
     <path d="M 463.146172 55.12125 
L 535.936172 55.12125 
Q 537.536172 55.12125 537.536172 53.52125 
L 537.536172 30.32 
Q 537.536172 28.72 535.936172 28.72 
L 463.146172 28.72 
Q 461.546172 28.72 461.546172 30.32 
L 461.546172 53.52125 
Q 461.546172 55.12125 463.146172 55.12125 
z
" style="fill: #ffffff; opacity: 0.8; stroke: #cccccc; stroke-linejoin: miter"/>
    </g>
    <g id="line2d_34">
     <path d="M 464.746172 35.19875 
L 472.746172 35.19875 
L 480.746172 35.19875 
" style="fill: none; stroke: #3fb950; stroke-width: 1.5; stroke-linecap: square"/>
    </g>
    <g id="text_36">
     <!-- loss if y = 1 -->
     <g transform="translate(487.146172 37.99875) scale(0.08 -0.08)">
      <defs>
       <path id="DejaVuSans-49" d="M 2375 4863 
L 2375 4384 
L 1825 4384 
Q 1516 4384 1395 4259 
Q 1275 4134 1275 3809 
L 1275 3500 
L 2222 3500 
L 2222 3053 
L 1275 3053 
L 1275 0 
L 697 0 
L 697 3053 
L 147 3053 
L 147 3500 
L 697 3500 
L 697 3744 
Q 697 4328 969 4595 
Q 1241 4863 1831 4863 
L 2375 4863 
z
" transform="scale(0.015625)"/>
      </defs>
      <use xlink:href="#DejaVuSans-4f"/>
      <use xlink:href="#DejaVuSans-52" transform="translate(27.78125 0)"/>
      <use xlink:href="#DejaVuSans-56" transform="translate(88.96875 0)"/>
      <use xlink:href="#DejaVuSans-56" transform="translate(141.0625 0)"/>
      <use xlink:href="#DejaVuSans-3" transform="translate(193.15625 0)"/>
      <use xlink:href="#DejaVuSans-4c" transform="translate(224.9375 0)"/>
      <use xlink:href="#DejaVuSans-49" transform="translate(252.71875 0)"/>
      <use xlink:href="#DejaVuSans-3" transform="translate(287.921875 0)"/>
      <use xlink:href="#DejaVuSans-5c" transform="translate(319.703125 0)"/>
      <use xlink:href="#DejaVuSans-3" transform="translate(378.890625 0)"/>
      <use xlink:href="#DejaVuSans-20" transform="translate(410.671875 0)"/>
      <use xlink:href="#DejaVuSans-3" transform="translate(494.46875 0)"/>
      <use xlink:href="#DejaVuSans-14" transform="translate(526.25 0)"/>
     </g>
    </g>
    <g id="line2d_35">
     <path d="M 464.746172 47.199375 
L 472.746172 47.199375 
L 480.746172 47.199375 
" style="fill: none; stroke: #ff7b72; stroke-width: 1.5; stroke-linecap: square"/>
    </g>
    <g id="text_37">
     <!-- loss if y = 0 -->
     <g transform="translate(487.146172 49.999375) scale(0.08 -0.08)">
      <use xlink:href="#DejaVuSans-4f"/>
      <use xlink:href="#DejaVuSans-52" transform="translate(27.78125 0)"/>
      <use xlink:href="#DejaVuSans-56" transform="translate(88.96875 0)"/>
      <use xlink:href="#DejaVuSans-56" transform="translate(141.0625 0)"/>
      <use xlink:href="#DejaVuSans-3" transform="translate(193.15625 0)"/>
      <use xlink:href="#DejaVuSans-4c" transform="translate(224.9375 0)"/>
      <use xlink:href="#DejaVuSans-49" transform="translate(252.71875 0)"/>
      <use xlink:href="#DejaVuSans-3" transform="translate(287.921875 0)"/>
      <use xlink:href="#DejaVuSans-5c" transform="translate(319.703125 0)"/>
      <use xlink:href="#DejaVuSans-3" transform="translate(378.890625 0)"/>
      <use xlink:href="#DejaVuSans-20" transform="translate(410.671875 0)"/>
      <use xlink:href="#DejaVuSans-3" transform="translate(494.46875 0)"/>
      <use xlink:href="#DejaVuSans-13" transform="translate(526.25 0)"/>
     </g>
    </g>
   </g>
  </g>
 </g>
 <defs>
  <clipPath id="p96e2db5b93">
   <rect x="47.962344" y="24.72" width="275.317656" height="149.157656"/>
  </clipPath>
  <clipPath id="p0394d55fcb">
   <rect x="361.882344" y="24.72" width="275.317656" height="149.157656"/>
  </clipPath>
 </defs>
</svg>

