<?xml version="1.0" encoding="utf-8" standalone="no"?>
<!DOCTYPE svg PUBLIC "-//W3C//DTD SVG 1.1//EN"
  "http://www.w3.org/Graphics/SVG/1.1/DTD/svg11.dtd">
<svg xmlns:xlink="http://www.w3.org/1999/xlink" width="576pt" height="288pt" viewBox="0 0 576 288" xmlns="http://www.w3.org/2000/svg" version="1.1">
 <metadata>
  <rdf:RDF xmlns:dc="http://purl.org/dc/elements/1.1/" xmlns:cc="http://creativecommons.org/ns#" xmlns:rdf="http://www.w3.org/1999/02/22-rdf-syntax-ns#">
   <cc:Work>
    <dc:type rdf:resource="http://purl.org/dc/dcmitype/StillImage"/>
    <dc:date>2026-07-04T22:07:50.320136</dc:date>
    <dc:format>image/svg+xml</dc:format>
    <dc:creator>
     <cc:Agent>
      <dc:title>Matplotlib v3.11.0, https://matplotlib.org/</dc:title>
     </cc:Agent>
    </dc:creator>
   </cc:Work>
  </rdf:RDF>
 </metadata>
 <defs>
  <style type="text/css">*{stroke-linejoin: round; stroke-linecap: butt}</style>
 </defs>
 <g id="figure_1">
  <g id="patch_1">
   <path d="M 0 288 
L 576 288 
L 576 0 
L 0 0 
L 0 288 
z
" style="fill: none"/>
  </g>
  <g id="axes_1">
   <g id="patch_2">
    <path d="M 262.597232 208.744208 
Q 301.802982 177.345664 341.881402 145.248228 
" style="fill: none; stroke: #000000; stroke-linecap: round"/>
    <path d="M 266.095128 207.992728 
L 262.597232 208.744208 
L 264.094786 205.495003 
" style="fill: none; stroke: #000000; stroke-linecap: round"/>
   </g>
   <g id="text_1">
    <g id="patch_3">
     <path d="M 197.218125 254.404375 
L 267.901875 254.404375 
Q 270.301875 254.404375 270.301875 252.004375 
L 270.301875 213.595625 
Q 270.301875 211.195625 267.901875 211.195625 
L 197.218125 211.195625 
Q 194.818125 211.195625 194.818125 213.595625 
L 194.818125 252.004375 
Q 194.818125 254.404375 197.218125 254.404375 
z
" style="fill: #4de88e; stroke: #000000; stroke-linejoin: miter"/>
    </g>
    <!-- gini = 0.168 -->
    <g transform="translate(207.9175 220.475156) scale(0.08 -0.08)">
     <defs>
      <path id="DejaVuSans-4a" d="M 2906 1791 
Q 2906 2416 2648 2759 
Q 2391 3103 1925 3103 
Q 1463 3103 1205 2759 
Q 947 2416 947 1791 
Q 947 1169 1205 825 
Q 1463 481 1925 481 
Q 2391 481 2648 825 
Q 2906 1169 2906 1791 
z
M 3481 434 
Q 3481 -459 3084 -895 
Q 2688 -1331 1869 -1331 
Q 1566 -1331 1297 -1286 
Q 1028 -1241 775 -1147 
L 775 -588 
Q 1028 -725 1275 -790 
Q 1522 -856 1778 -856 
Q 2344 -856 2625 -561 
Q 2906 -266 2906 331 
L 2906 616 
Q 2728 306 2450 153 
Q 2172 0 1784 0 
Q 1141 0 747 490 
Q 353 981 353 1791 
Q 353 2603 747 3093 
Q 1141 3584 1784 3584 
Q 2172 3584 2450 3431 
Q 2728 3278 2906 2969 
L 2906 3500 
L 3481 3500 
L 3481 434 
z
" transform="scale(0.015625)"/>
      <path id="DejaVuSans-4c" d="M 603 3500 
L 1178 3500 
L 1178 0 
L 603 0 
L 603 3500 
z
M 603 4863 
L 1178 4863 
L 1178 4134 
L 603 4134 
L 603 4863 
z
" transform="scale(0.015625)"/>
      <path id="DejaVuSans-51" d="M 3513 2113 
L 3513 0 
L 2938 0 
L 2938 2094 
Q 2938 2591 2744 2837 
Q 2550 3084 2163 3084 
Q 1697 3084 1428 2787 
Q 1159 2491 1159 1978 
L 1159 0 
L 581 0 
L 581 3500 
L 1159 3500 
L 1159 2956 
Q 1366 3272 1645 3428 
Q 1925 3584 2291 3584 
Q 2894 3584 3203 3211 
Q 3513 2838 3513 2113 
z
" transform="scale(0.015625)"/>
      <path id="DejaVuSans-3" transform="scale(0.015625)"/>
      <path id="DejaVuSans-20" d="M 678 2906 
L 4684 2906 
L 4684 2381 
L 678 2381 
L 678 2906 
z
M 678 1631 
L 4684 1631 
L 4684 1100 
L 678 1100 
L 678 1631 
z
" transform="scale(0.015625)"/>
      <path id="DejaVuSans-13" d="M 2034 4250 
Q 1547 4250 1301 3770 
Q 1056 3291 1056 2328 
Q 1056 1369 1301 889 
Q 1547 409 2034 409 
Q 2525 409 2770 889 
Q 3016 1369 3016 2328 
Q 3016 3291 2770 3770 
Q 2525 4250 2034 4250 
z
M 2034 4750 
Q 2819 4750 3233 4129 
Q 3647 3509 3647 2328 
Q 3647 1150 3233 529 
Q 2819 -91 2034 -91 
Q 1250 -91 836 529 
Q 422 1150 422 2328 
Q 422 3509 836 4129 
Q 1250 4750 2034 4750 
z
" transform="scale(0.015625)"/>
      <path id="DejaVuSans-11" d="M 684 794 
L 1344 794 
L 1344 0 
L 684 0 
L 684 794 
z
" transform="scale(0.015625)"/>
      <path id="DejaVuSans-14" d="M 794 531 
L 1825 531 
L 1825 4091 
L 703 3866 
L 703 4441 
L 1819 4666 
L 2450 4666 
L 2450 531 
L 3481 531 
L 3481 0 
L 794 0 
L 794 531 
z
" transform="scale(0.015625)"/>
      <path id="DejaVuSans-19" d="M 2113 2584 
Q 1688 2584 1439 2293 
Q 1191 2003 1191 1497 
Q 1191 994 1439 701 
Q 1688 409 2113 409 
Q 2538 409 2786 701 
Q 3034 994 3034 1497 
Q 3034 2003 2786 2293 
Q 2538 2584 2113 2584 
z
M 3366 4563 
L 3366 3988 
Q 3128 4100 2886 4159 
Q 2644 4219 2406 4219 
Q 1781 4219 1451 3797 
Q 1122 3375 1075 2522 
Q 1259 2794 1537 2939 
Q 1816 3084 2150 3084 
Q 2853 3084 3261 2657 
Q 3669 2231 3669 1497 
Q 3669 778 3244 343 
Q 2819 -91 2113 -91 
Q 1303 -91 875 529 
Q 447 1150 447 2328 
Q 447 3434 972 4092 
Q 1497 4750 2381 4750 
Q 2619 4750 2861 4703 
Q 3103 4656 3366 4563 
z
" transform="scale(0.015625)"/>
      <path id="DejaVuSans-1b" d="M 2034 2216 
Q 1584 2216 1326 1975 
Q 1069 1734 1069 1313 
Q 1069 891 1326 650 
Q 1584 409 2034 409 
Q 2484 409 2743 651 
Q 3003 894 3003 1313 
Q 3003 1734 2745 1975 
Q 2488 2216 2034 2216 
z
M 1403 2484 
Q 997 2584 770 2862 
Q 544 3141 544 3541 
Q 544 4100 942 4425 
Q 1341 4750 2034 4750 
Q 2731 4750 3128 4425 
Q 3525 4100 3525 3541 
Q 3525 3141 3298 2862 
Q 3072 2584 2669 2484 
Q 3125 2378 3379 2068 
Q 3634 1759 3634 1313 
Q 3634 634 3220 271 
Q 2806 -91 2034 -91 
Q 1263 -91 848 271 
Q 434 634 434 1313 
Q 434 1759 690 2068 
Q 947 2378 1403 2484 
z
M 1172 3481 
Q 1172 3119 1398 2916 
Q 1625 2713 2034 2713 
Q 2441 2713 2670 2916 
Q 2900 3119 2900 3481 
Q 2900 3844 2670 4047 
Q 2441 4250 2034 4250 
Q 1625 4250 1398 4047 
Q 1172 3844 1172 3481 
z
" transform="scale(0.015625)"/>
     </defs>
     <use xlink:href="#DejaVuSans-4a"/>
     <use xlink:href="#DejaVuSans-4c" transform="translate(63.484375 0)"/>
     <use xlink:href="#DejaVuSans-51" transform="translate(91.265625 0)"/>
     <use xlink:href="#DejaVuSans-4c" transform="translate(154.640625 0)"/>
     <use xlink:href="#DejaVuSans-3" transform="translate(182.421875 0)"/>
     <use xlink:href="#DejaVuSans-20" transform="translate(214.203125 0)"/>
     <use xlink:href="#DejaVuSans-3" transform="translate(298 0)"/>
     <use xlink:href="#DejaVuSans-13" transform="translate(329.78125 0)"/>
     <use xlink:href="#DejaVuSans-11" transform="translate(393.40625 0)"/>
     <use xlink:href="#DejaVuSans-14" transform="translate(425.1875 0)"/>
     <use xlink:href="#DejaVuSans-19" transform="translate(488.8125 0)"/>
     <use xlink:href="#DejaVuSans-1b" transform="translate(552.4375 0)"/>
    </g>
    <!-- samples = 54 -->
    <g transform="translate(204.94875 230.077344) scale(0.08 -0.08)">
     <defs>
      <path id="DejaVuSans-56" d="M 2834 3397 
L 2834 2853 
Q 2591 2978 2328 3040 
Q 2066 3103 1784 3103 
Q 1356 3103 1142 2972 
Q 928 2841 928 2578 
Q 928 2378 1081 2264 
Q 1234 2150 1697 2047 
L 1894 2003 
Q 2506 1872 2764 1633 
Q 3022 1394 3022 966 
Q 3022 478 2636 193 
Q 2250 -91 1575 -91 
Q 1294 -91 989 -36 
Q 684 19 347 128 
L 347 722 
Q 666 556 975 473 
Q 1284 391 1588 391 
Q 1994 391 2212 530 
Q 2431 669 2431 922 
Q 2431 1156 2273 1281 
Q 2116 1406 1581 1522 
L 1381 1569 
Q 847 1681 609 1914 
Q 372 2147 372 2553 
Q 372 3047 722 3315 
Q 1072 3584 1716 3584 
Q 2034 3584 2315 3537 
Q 2597 3491 2834 3397 
z
" transform="scale(0.015625)"/>
      <path id="DejaVuSans-44" d="M 2194 1759 
Q 1497 1759 1228 1600 
Q 959 1441 959 1056 
Q 959 750 1161 570 
Q 1363 391 1709 391 
Q 2188 391 2477 730 
Q 2766 1069 2766 1631 
L 2766 1759 
L 2194 1759 
z
M 3341 1997 
L 3341 0 
L 2766 0 
L 2766 531 
Q 2569 213 2275 61 
Q 1981 -91 1556 -91 
Q 1019 -91 701 211 
Q 384 513 384 1019 
Q 384 1609 779 1909 
Q 1175 2209 1959 2209 
L 2766 2209 
L 2766 2266 
Q 2766 2663 2505 2880 
Q 2244 3097 1772 3097 
Q 1472 3097 1187 3025 
Q 903 2953 641 2809 
L 641 3341 
Q 956 3463 1253 3523 
Q 1550 3584 1831 3584 
Q 2591 3584 2966 3190 
Q 3341 2797 3341 1997 
z
" transform="scale(0.015625)"/>
      <path id="DejaVuSans-50" d="M 3328 2828 
Q 3544 3216 3844 3400 
Q 4144 3584 4550 3584 
Q 5097 3584 5394 3201 
Q 5691 2819 5691 2113 
L 5691 0 
L 5113 0 
L 5113 2094 
Q 5113 2597 4934 2840 
Q 4756 3084 4391 3084 
Q 3944 3084 3684 2787 
Q 3425 2491 3425 1978 
L 3425 0 
L 2847 0 
L 2847 2094 
Q 2847 2600 2669 2842 
Q 2491 3084 2119 3084 
Q 1678 3084 1418 2786 
Q 1159 2488 1159 1978 
L 1159 0 
L 581 0 
L 581 3500 
L 1159 3500 
L 1159 2956 
Q 1356 3278 1631 3431 
Q 1906 3584 2284 3584 
Q 2666 3584 2933 3390 
Q 3200 3197 3328 2828 
z
" transform="scale(0.015625)"/>
      <path id="DejaVuSans-53" d="M 1159 525 
L 1159 -1331 
L 581 -1331 
L 581 3500 
L 1159 3500 
L 1159 2969 
Q 1341 3281 1617 3432 
Q 1894 3584 2278 3584 
Q 2916 3584 3314 3078 
Q 3713 2572 3713 1747 
Q 3713 922 3314 415 
Q 2916 -91 2278 -91 
Q 1894 -91 1617 61 
Q 1341 213 1159 525 
z
M 3116 1747 
Q 3116 2381 2855 2742 
Q 2594 3103 2138 3103 
Q 1681 3103 1420 2742 
Q 1159 2381 1159 1747 
Q 1159 1113 1420 752 
Q 1681 391 2138 391 
Q 2594 391 2855 752 
Q 3116 1113 3116 1747 
z
" transform="scale(0.015625)"/>
      <path id="DejaVuSans-4f" d="M 603 4863 
L 1178 4863 
L 1178 0 
L 603 0 
L 603 4863 
z
" transform="scale(0.015625)"/>
      <path id="DejaVuSans-48" d="M 3597 1894 
L 3597 1613 
L 953 1613 
Q 991 1019 1311 708 
Q 1631 397 2203 397 
Q 2534 397 2845 478 
Q 3156 559 3463 722 
L 3463 178 
Q 3153 47 2828 -22 
Q 2503 -91 2169 -91 
Q 1331 -91 842 396 
Q 353 884 353 1716 
Q 353 2575 817 3079 
Q 1281 3584 2069 3584 
Q 2775 3584 3186 3129 
Q 3597 2675 3597 1894 
z
M 3022 2063 
Q 3016 2534 2758 2815 
Q 2500 3097 2075 3097 
Q 1594 3097 1305 2825 
Q 1016 2553 972 2059 
L 3022 2063 
z
" transform="scale(0.015625)"/>
      <path id="DejaVuSans-18" d="M 691 4666 
L 3169 4666 
L 3169 4134 
L 1269 4134 
L 1269 2991 
Q 1406 3038 1543 3061 
Q 1681 3084 1819 3084 
Q 2600 3084 3056 2656 
Q 3513 2228 3513 1497 
Q 3513 744 3044 326 
Q 2575 -91 1722 -91 
Q 1428 -91 1123 -41 
Q 819 9 494 109 
L 494 744 
Q 775 591 1075 516 
Q 1375 441 1709 441 
Q 2250 441 2565 725 
Q 2881 1009 2881 1497 
Q 2881 1984 2565 2268 
Q 2250 2553 1709 2553 
Q 1456 2553 1204 2497 
Q 953 2441 691 2322 
L 691 4666 
z
" transform="scale(0.015625)"/>
      <path id="DejaVuSans-17" d="M 2419 4116 
L 825 1625 
L 2419 1625 
L 2419 4116 
z
M 2253 4666 
L 3047 4666 
L 3047 1625 
L 3713 1625 
L 3713 1100 
L 3047 1100 
L 3047 0 
L 2419 0 
L 2419 1100 
L 313 1100 
L 313 1709 
L 2253 4666 
z
" transform="scale(0.015625)"/>
     </defs>
     <use xlink:href="#DejaVuSans-56"/>
     <use xlink:href="#DejaVuSans-44" transform="translate(52.09375 0)"/>
     <use xlink:href="#DejaVuSans-50" transform="translate(113.375 0)"/>
     <use xlink:href="#DejaVuSans-53" transform="translate(210.78125 0)"/>
     <use xlink:href="#DejaVuSans-4f" transform="translate(274.265625 0)"/>
     <use xlink:href="#DejaVuSans-48" transform="translate(302.046875 0)"/>
     <use xlink:href="#DejaVuSans-56" transform="translate(363.578125 0)"/>
     <use xlink:href="#DejaVuSans-3" transform="translate(415.671875 0)"/>
     <use xlink:href="#DejaVuSans-20" transform="translate(447.453125 0)"/>
     <use xlink:href="#DejaVuSans-3" transform="translate(531.25 0)"/>
     <use xlink:href="#DejaVuSans-18" transform="translate(563.03125 0)"/>
     <use xlink:href="#DejaVuSans-17" transform="translate(626.65625 0)"/>
    </g>
    <!-- value = [0, 49, 5] -->
    <g transform="translate(197.353125 239.679531) scale(0.08 -0.08)">
     <defs>
      <path id="DejaVuSans-59" d="M 191 3500 
L 800 3500 
L 1894 563 
L 2988 3500 
L 3597 3500 
L 2284 0 
L 1503 0 
L 191 3500 
z
" transform="scale(0.015625)"/>
      <path id="DejaVuSans-58" d="M 544 1381 
L 544 3500 
L 1119 3500 
L 1119 1403 
Q 1119 906 1312 657 
Q 1506 409 1894 409 
Q 2359 409 2629 706 
Q 2900 1003 2900 1516 
L 2900 3500 
L 3475 3500 
L 3475 0 
L 2900 0 
L 2900 538 
Q 2691 219 2414 64 
Q 2138 -91 1772 -91 
Q 1169 -91 856 284 
Q 544 659 544 1381 
z
M 1991 3584 
L 1991 3584 
z
" transform="scale(0.015625)"/>
      <path id="DejaVuSans-3e" d="M 550 4863 
L 1875 4863 
L 1875 4416 
L 1125 4416 
L 1125 -397 
L 1875 -397 
L 1875 -844 
L 550 -844 
L 550 4863 
z
" transform="scale(0.015625)"/>
      <path id="DejaVuSans-f" d="M 750 794 
L 1409 794 
L 1409 256 
L 897 -744 
L 494 -744 
L 750 256 
L 750 794 
z
" transform="scale(0.015625)"/>
      <path id="DejaVuSans-1c" d="M 703 97 
L 703 672 
Q 941 559 1184 500 
Q 1428 441 1663 441 
Q 2288 441 2617 861 
Q 2947 1281 2994 2138 
Q 2813 1869 2534 1725 
Q 2256 1581 1919 1581 
Q 1219 1581 811 2004 
Q 403 2428 403 3163 
Q 403 3881 828 4315 
Q 1253 4750 1959 4750 
Q 2769 4750 3195 4129 
Q 3622 3509 3622 2328 
Q 3622 1225 3098 567 
Q 2575 -91 1691 -91 
Q 1453 -91 1209 -44 
Q 966 3 703 97 
z
M 1959 2075 
Q 2384 2075 2632 2365 
Q 2881 2656 2881 3163 
Q 2881 3666 2632 3958 
Q 2384 4250 1959 4250 
Q 1534 4250 1286 3958 
Q 1038 3666 1038 3163 
Q 1038 2656 1286 2365 
Q 1534 2075 1959 2075 
z
" transform="scale(0.015625)"/>
      <path id="DejaVuSans-40" d="M 1947 4863 
L 1947 -844 
L 622 -844 
L 622 -397 
L 1369 -397 
L 1369 4416 
L 622 4416 
L 622 4863 
L 1947 4863 
z
" transform="scale(0.015625)"/>
     </defs>
     <use xlink:href="#DejaVuSans-59"/>
     <use xlink:href="#DejaVuSans-44" transform="translate(59.1875 0)"/>
     <use xlink:href="#DejaVuSans-4f" transform="translate(120.46875 0)"/>
     <use xlink:href="#DejaVuSans-58" transform="translate(148.25 0)"/>
     <use xlink:href="#DejaVuSans-48" transform="translate(211.625 0)"/>
     <use xlink:href="#DejaVuSans-3" transform="translate(273.15625 0)"/>
     <use xlink:href="#DejaVuSans-20" transform="translate(304.9375 0)"/>
     <use xlink:href="#DejaVuSans-3" transform="translate(388.734375 0)"/>
     <use xlink:href="#DejaVuSans-3e" transform="translate(420.515625 0)"/>
     <use xlink:href="#DejaVuSans-13" transform="translate(459.53125 0)"/>
     <use xlink:href="#DejaVuSans-f" transform="translate(523.15625 0)"/>
     <use xlink:href="#DejaVuSans-3" transform="translate(554.9375 0)"/>
     <use xlink:href="#DejaVuSans-17" transform="translate(586.71875 0)"/>
     <use xlink:href="#DejaVuSans-1c" transform="translate(650.34375 0)"/>
     <use xlink:href="#DejaVuSans-f" transform="translate(713.96875 0)"/>
     <use xlink:href="#DejaVuSans-3" transform="translate(745.75 0)"/>
     <use xlink:href="#DejaVuSans-18" transform="translate(777.53125 0)"/>
     <use xlink:href="#DejaVuSans-40" transform="translate(841.15625 0)"/>
    </g>
    <!-- class = versicolor -->
    <g transform="translate(197.218125 249.281719) scale(0.08 -0.08)">
     <defs>
      <path id="DejaVuSans-46" d="M 3122 3366 
L 3122 2828 
Q 2878 2963 2633 3030 
Q 2388 3097 2138 3097 
Q 1578 3097 1268 2742 
Q 959 2388 959 1747 
Q 959 1106 1268 751 
Q 1578 397 2138 397 
Q 2388 397 2633 464 
Q 2878 531 3122 666 
L 3122 134 
Q 2881 22 2623 -34 
Q 2366 -91 2075 -91 
Q 1284 -91 818 406 
Q 353 903 353 1747 
Q 353 2603 823 3093 
Q 1294 3584 2113 3584 
Q 2378 3584 2631 3529 
Q 2884 3475 3122 3366 
z
" transform="scale(0.015625)"/>
      <path id="DejaVuSans-55" d="M 2631 2963 
Q 2534 3019 2420 3045 
Q 2306 3072 2169 3072 
Q 1681 3072 1420 2755 
Q 1159 2438 1159 1844 
L 1159 0 
L 581 0 
L 581 3500 
L 1159 3500 
L 1159 2956 
Q 1341 3275 1631 3429 
Q 1922 3584 2338 3584 
Q 2397 3584 2469 3576 
Q 2541 3569 2628 3553 
L 2631 2963 
z
" transform="scale(0.015625)"/>
      <path id="DejaVuSans-52" d="M 1959 3097 
Q 1497 3097 1228 2736 
Q 959 2375 959 1747 
Q 959 1119 1226 758 
Q 1494 397 1959 397 
Q 2419 397 2687 759 
Q 2956 1122 2956 1747 
Q 2956 2369 2687 2733 
Q 2419 3097 1959 3097 
z
M 1959 3584 
Q 2709 3584 3137 3096 
Q 3566 2609 3566 1747 
Q 3566 888 3137 398 
Q 2709 -91 1959 -91 
Q 1206 -91 779 398 
Q 353 888 353 1747 
Q 353 2609 779 3096 
Q 1206 3584 1959 3584 
z
" transform="scale(0.015625)"/>
     </defs>
     <use xlink:href="#DejaVuSans-46"/>
     <use xlink:href="#DejaVuSans-4f" transform="translate(54.984375 0)"/>
     <use xlink:href="#DejaVuSans-44" transform="translate(82.765625 0)"/>
     <use xlink:href="#DejaVuSans-56" transform="translate(144.046875 0)"/>
     <use xlink:href="#DejaVuSans-56" transform="translate(196.140625 0)"/>
     <use xlink:href="#DejaVuSans-3" transform="translate(248.234375 0)"/>
     <use xlink:href="#DejaVuSans-20" transform="translate(280.015625 0)"/>
     <use xlink:href="#DejaVuSans-3" transform="translate(363.8125 0)"/>
     <use xlink:href="#DejaVuSans-59" transform="translate(395.59375 0)"/>
     <use xlink:href="#DejaVuSans-48" transform="translate(454.78125 0)"/>
     <use xlink:href="#DejaVuSans-55" transform="translate(516.3125 0)"/>
     <use xlink:href="#DejaVuSans-56" transform="translate(557.421875 0)"/>
     <use xlink:href="#DejaVuSans-4c" transform="translate(609.515625 0)"/>
     <use xlink:href="#DejaVuSans-46" transform="translate(637.296875 0)"/>
     <use xlink:href="#DejaVuSans-52" transform="translate(692.28125 0)"/>
     <use xlink:href="#DejaVuSans-4f" transform="translate(753.46875 0)"/>
     <use xlink:href="#DejaVuSans-52" transform="translate(781.25 0)"/>
     <use xlink:href="#DejaVuSans-55" transform="translate(842.4375 0)"/>
    </g>
   </g>
   <g id="patch_4">
    <path d="M 424.282768 208.744208 
Q 385.077018 177.345664 344.998598 145.248228 
" style="fill: none; stroke: #000000; stroke-linecap: round"/>
    <path d="M 422.785214 205.495003 
L 424.282768 208.744208 
L 420.784872 207.992728 
" style="fill: none; stroke: #000000; stroke-linecap: round"/>
   </g>
   <g id="text_2">
    <g id="patch_5">
     <path d="M 419.113125 254.404375 
L 489.526875 254.404375 
Q 491.926875 254.404375 491.926875 252.004375 
L 491.926875 213.595625 
Q 491.926875 211.195625 489.526875 211.195625 
L 419.113125 211.195625 
Q 416.713125 211.195625 416.713125 213.595625 
L 416.713125 252.004375 
Q 416.713125 254.404375 419.113125 254.404375 
z
" style="fill: #843de6; stroke: #000000; stroke-linejoin: miter"/>
    </g>
    <!-- gini = 0.043 -->
    <g transform="translate(429.6775 220.475156) scale(0.08 -0.08)">
     <defs>
      <path id="DejaVuSans-16" d="M 2597 2516 
Q 3050 2419 3304 2112 
Q 3559 1806 3559 1356 
Q 3559 666 3084 287 
Q 2609 -91 1734 -91 
Q 1441 -91 1130 -33 
Q 819 25 488 141 
L 488 750 
Q 750 597 1062 519 
Q 1375 441 1716 441 
Q 2309 441 2620 675 
Q 2931 909 2931 1356 
Q 2931 1769 2642 2001 
Q 2353 2234 1838 2234 
L 1294 2234 
L 1294 2753 
L 1863 2753 
Q 2328 2753 2575 2939 
Q 2822 3125 2822 3475 
Q 2822 3834 2567 4026 
Q 2313 4219 1838 4219 
Q 1578 4219 1281 4162 
Q 984 4106 628 3988 
L 628 4550 
Q 988 4650 1302 4700 
Q 1616 4750 1894 4750 
Q 2613 4750 3031 4423 
Q 3450 4097 3450 3541 
Q 3450 3153 3228 2886 
Q 3006 2619 2597 2516 
z
" transform="scale(0.015625)"/>
     </defs>
     <use xlink:href="#DejaVuSans-4a"/>
     <use xlink:href="#DejaVuSans-4c" transform="translate(63.484375 0)"/>
     <use xlink:href="#DejaVuSans-51" transform="translate(91.265625 0)"/>
     <use xlink:href="#DejaVuSans-4c" transform="translate(154.640625 0)"/>
     <use xlink:href="#DejaVuSans-3" transform="translate(182.421875 0)"/>
     <use xlink:href="#DejaVuSans-20" transform="translate(214.203125 0)"/>
     <use xlink:href="#DejaVuSans-3" transform="translate(298 0)"/>
     <use xlink:href="#DejaVuSans-13" transform="translate(329.78125 0)"/>
     <use xlink:href="#DejaVuSans-11" transform="translate(393.40625 0)"/>
     <use xlink:href="#DejaVuSans-13" transform="translate(425.1875 0)"/>
     <use xlink:href="#DejaVuSans-17" transform="translate(488.8125 0)"/>
     <use xlink:href="#DejaVuSans-16" transform="translate(552.4375 0)"/>
    </g>
    <!-- samples = 46 -->
    <g transform="translate(426.70875 230.077344) scale(0.08 -0.08)">
     <use xlink:href="#DejaVuSans-56"/>
     <use xlink:href="#DejaVuSans-44" transform="translate(52.09375 0)"/>
     <use xlink:href="#DejaVuSans-50" transform="translate(113.375 0)"/>
     <use xlink:href="#DejaVuSans-53" transform="translate(210.78125 0)"/>
     <use xlink:href="#DejaVuSans-4f" transform="translate(274.265625 0)"/>
     <use xlink:href="#DejaVuSans-48" transform="translate(302.046875 0)"/>
     <use xlink:href="#DejaVuSans-56" transform="translate(363.578125 0)"/>
     <use xlink:href="#DejaVuSans-3" transform="translate(415.671875 0)"/>
     <use xlink:href="#DejaVuSans-20" transform="translate(447.453125 0)"/>
     <use xlink:href="#DejaVuSans-3" transform="translate(531.25 0)"/>
     <use xlink:href="#DejaVuSans-17" transform="translate(563.03125 0)"/>
     <use xlink:href="#DejaVuSans-19" transform="translate(626.65625 0)"/>
    </g>
    <!-- value = [0, 1, 45] -->
    <g transform="translate(419.113125 239.679531) scale(0.08 -0.08)">
     <use xlink:href="#DejaVuSans-59"/>
     <use xlink:href="#DejaVuSans-44" transform="translate(59.1875 0)"/>
     <use xlink:href="#DejaVuSans-4f" transform="translate(120.46875 0)"/>
     <use xlink:href="#DejaVuSans-58" transform="translate(148.25 0)"/>
     <use xlink:href="#DejaVuSans-48" transform="translate(211.625 0)"/>
     <use xlink:href="#DejaVuSans-3" transform="translate(273.15625 0)"/>
     <use xlink:href="#DejaVuSans-20" transform="translate(304.9375 0)"/>
     <use xlink:href="#DejaVuSans-3" transform="translate(388.734375 0)"/>
     <use xlink:href="#DejaVuSans-3e" transform="translate(420.515625 0)"/>
     <use xlink:href="#DejaVuSans-13" transform="translate(459.53125 0)"/>
     <use xlink:href="#DejaVuSans-f" transform="translate(523.15625 0)"/>
     <use xlink:href="#DejaVuSans-3" transform="translate(554.9375 0)"/>
     <use xlink:href="#DejaVuSans-14" transform="translate(586.71875 0)"/>
     <use xlink:href="#DejaVuSans-f" transform="translate(650.34375 0)"/>
     <use xlink:href="#DejaVuSans-3" transform="translate(682.125 0)"/>
     <use xlink:href="#DejaVuSans-17" transform="translate(713.90625 0)"/>
     <use xlink:href="#DejaVuSans-18" transform="translate(777.53125 0)"/>
     <use xlink:href="#DejaVuSans-40" transform="translate(841.15625 0)"/>
    </g>
    <!-- class = virginica -->
    <g transform="translate(421.495625 249.281719) scale(0.08 -0.08)">
     <use xlink:href="#DejaVuSans-46"/>
     <use xlink:href="#DejaVuSans-4f" transform="translate(54.984375 0)"/>
     <use xlink:href="#DejaVuSans-44" transform="translate(82.765625 0)"/>
     <use xlink:href="#DejaVuSans-56" transform="translate(144.046875 0)"/>
     <use xlink:href="#DejaVuSans-56" transform="translate(196.140625 0)"/>
     <use xlink:href="#DejaVuSans-3" transform="translate(248.234375 0)"/>
     <use xlink:href="#DejaVuSans-20" transform="translate(280.015625 0)"/>
     <use xlink:href="#DejaVuSans-3" transform="translate(363.8125 0)"/>
     <use xlink:href="#DejaVuSans-59" transform="translate(395.59375 0)"/>
     <use xlink:href="#DejaVuSans-4c" transform="translate(454.78125 0)"/>
     <use xlink:href="#DejaVuSans-55" transform="translate(482.5625 0)"/>
     <use xlink:href="#DejaVuSans-4a" transform="translate(521.921875 0)"/>
     <use xlink:href="#DejaVuSans-4c" transform="translate(585.40625 0)"/>
     <use xlink:href="#DejaVuSans-51" transform="translate(613.1875 0)"/>
     <use xlink:href="#DejaVuSans-4c" transform="translate(676.5625 0)"/>
     <use xlink:href="#DejaVuSans-46" transform="translate(704.34375 0)"/>
     <use xlink:href="#DejaVuSans-44" transform="translate(759.328125 0)"/>
    </g>
   </g>
   <g id="patch_6">
    <path d="M 151.717232 119.944208 
Q 190.922982 88.545664 231.001402 56.448228 
" style="fill: none; stroke: #000000; stroke-linecap: round"/>
    <path d="M 155.215128 119.192728 
L 151.717232 119.944208 
L 153.214786 116.695003 
" style="fill: none; stroke: #000000; stroke-linecap: round"/>
   </g>
   <g id="text_3">
    <g id="patch_7">
     <path d="M 86.473125 165.604375 
L 156.886875 165.604375 
Q 159.286875 165.604375 159.286875 163.204375 
L 159.286875 124.795625 
Q 159.286875 122.395625 156.886875 122.395625 
L 86.473125 122.395625 
Q 84.073125 122.395625 84.073125 124.795625 
L 84.073125 163.204375 
Q 84.073125 165.604375 86.473125 165.604375 
z
" style="fill: #e58139; stroke: #000000; stroke-linejoin: miter"/>
    </g>
    <!-- gini = 0.0 -->
    <g transform="translate(102.1275 131.675156) scale(0.08 -0.08)">
     <use xlink:href="#DejaVuSans-4a"/>
     <use xlink:href="#DejaVuSans-4c" transform="translate(63.484375 0)"/>
     <use xlink:href="#DejaVuSans-51" transform="translate(91.265625 0)"/>
     <use xlink:href="#DejaVuSans-4c" transform="translate(154.640625 0)"/>
     <use xlink:href="#DejaVuSans-3" transform="translate(182.421875 0)"/>
     <use xlink:href="#DejaVuSans-20" transform="translate(214.203125 0)"/>
     <use xlink:href="#DejaVuSans-3" transform="translate(298 0)"/>
     <use xlink:href="#DejaVuSans-13" transform="translate(329.78125 0)"/>
     <use xlink:href="#DejaVuSans-11" transform="translate(393.40625 0)"/>
     <use xlink:href="#DejaVuSans-13" transform="translate(425.1875 0)"/>
    </g>
    <!-- samples = 50 -->
    <g transform="translate(94.06875 141.277344) scale(0.08 -0.08)">
     <use xlink:href="#DejaVuSans-56"/>
     <use xlink:href="#DejaVuSans-44" transform="translate(52.09375 0)"/>
     <use xlink:href="#DejaVuSans-50" transform="translate(113.375 0)"/>
     <use xlink:href="#DejaVuSans-53" transform="translate(210.78125 0)"/>
     <use xlink:href="#DejaVuSans-4f" transform="translate(274.265625 0)"/>
     <use xlink:href="#DejaVuSans-48" transform="translate(302.046875 0)"/>
     <use xlink:href="#DejaVuSans-56" transform="translate(363.578125 0)"/>
     <use xlink:href="#DejaVuSans-3" transform="translate(415.671875 0)"/>
     <use xlink:href="#DejaVuSans-20" transform="translate(447.453125 0)"/>
     <use xlink:href="#DejaVuSans-3" transform="translate(531.25 0)"/>
     <use xlink:href="#DejaVuSans-18" transform="translate(563.03125 0)"/>
     <use xlink:href="#DejaVuSans-13" transform="translate(626.65625 0)"/>
    </g>
    <!-- value = [50, 0, 0] -->
    <g transform="translate(86.473125 150.879531) scale(0.08 -0.08)">
     <use xlink:href="#DejaVuSans-59"/>
     <use xlink:href="#DejaVuSans-44" transform="translate(59.1875 0)"/>
     <use xlink:href="#DejaVuSans-4f" transform="translate(120.46875 0)"/>
     <use xlink:href="#DejaVuSans-58" transform="translate(148.25 0)"/>
     <use xlink:href="#DejaVuSans-48" transform="translate(211.625 0)"/>
     <use xlink:href="#DejaVuSans-3" transform="translate(273.15625 0)"/>
     <use xlink:href="#DejaVuSans-20" transform="translate(304.9375 0)"/>
     <use xlink:href="#DejaVuSans-3" transform="translate(388.734375 0)"/>
     <use xlink:href="#DejaVuSans-3e" transform="translate(420.515625 0)"/>
     <use xlink:href="#DejaVuSans-18" transform="translate(459.53125 0)"/>
     <use xlink:href="#DejaVuSans-13" transform="translate(523.15625 0)"/>
     <use xlink:href="#DejaVuSans-f" transform="translate(586.78125 0)"/>
     <use xlink:href="#DejaVuSans-3" transform="translate(618.5625 0)"/>
     <use xlink:href="#DejaVuSans-13" transform="translate(650.34375 0)"/>
     <use xlink:href="#DejaVuSans-f" transform="translate(713.96875 0)"/>
     <use xlink:href="#DejaVuSans-3" transform="translate(745.75 0)"/>
     <use xlink:href="#DejaVuSans-13" transform="translate(777.53125 0)"/>
     <use xlink:href="#DejaVuSans-40" transform="translate(841.15625 0)"/>
    </g>
    <!-- class = setosa -->
    <g transform="translate(92.760625 160.481719) scale(0.08 -0.08)">
     <defs>
      <path id="DejaVuSans-57" d="M 1172 4494 
L 1172 3500 
L 2356 3500 
L 2356 3053 
L 1172 3053 
L 1172 1153 
Q 1172 725 1289 603 
Q 1406 481 1766 481 
L 2356 481 
L 2356 0 
L 1766 0 
Q 1100 0 847 248 
Q 594 497 594 1153 
L 594 3053 
L 172 3053 
L 172 3500 
L 594 3500 
L 594 4494 
L 1172 4494 
z
" transform="scale(0.015625)"/>
     </defs>
     <use xlink:href="#DejaVuSans-46"/>
     <use xlink:href="#DejaVuSans-4f" transform="translate(54.984375 0)"/>
     <use xlink:href="#DejaVuSans-44" transform="translate(82.765625 0)"/>
     <use xlink:href="#DejaVuSans-56" transform="translate(144.046875 0)"/>
     <use xlink:href="#DejaVuSans-56" transform="translate(196.140625 0)"/>
     <use xlink:href="#DejaVuSans-3" transform="translate(248.234375 0)"/>
     <use xlink:href="#DejaVuSans-20" transform="translate(280.015625 0)"/>
     <use xlink:href="#DejaVuSans-3" transform="translate(363.8125 0)"/>
     <use xlink:href="#DejaVuSans-56" transform="translate(395.59375 0)"/>
     <use xlink:href="#DejaVuSans-48" transform="translate(447.6875 0)"/>
     <use xlink:href="#DejaVuSans-57" transform="translate(509.21875 0)"/>
     <use xlink:href="#DejaVuSans-52" transform="translate(548.421875 0)"/>
     <use xlink:href="#DejaVuSans-56" transform="translate(609.609375 0)"/>
     <use xlink:href="#DejaVuSans-44" transform="translate(661.703125 0)"/>
    </g>
   </g>
   <g id="text_4">
    <!-- True   -->
    <g transform="translate(155.04375 99.6) scale(0.08 -0.08)">
     <defs>
      <path id="DejaVuSans-37" d="M -19 4666 
L 3928 4666 
L 3928 4134 
L 2272 4134 
L 2272 0 
L 1638 0 
L 1638 4134 
L -19 4134 
L -19 4666 
z
" transform="scale(0.015625)"/>
     </defs>
     <use xlink:href="#DejaVuSans-37"/>
     <use xlink:href="#DejaVuSans-55" transform="translate(46.375 0)"/>
     <use xlink:href="#DejaVuSans-58" transform="translate(87.484375 0)"/>
     <use xlink:href="#DejaVuSans-48" transform="translate(150.859375 0)"/>
     <use xlink:href="#DejaVuSans-3" transform="translate(212.390625 0)"/>
     <use xlink:href="#DejaVuSans-3" transform="translate(244.171875 0)"/>
    </g>
   </g>
   <g id="patch_8">
    <path d="M 307.41074 115.145398 
Q 271.201632 86.146761 234.119854 56.449234 
" style="fill: none; stroke: #000000; stroke-linecap: round"/>
    <path d="M 305.913187 111.896193 
L 307.41074 115.145398 
L 303.912844 114.393918 
" style="fill: none; stroke: #000000; stroke-linecap: round"/>
   </g>
   <g id="text_5">
    <g id="patch_9">
     <path d="M 302.86 170.405469 
L 384.02 170.405469 
Q 386.42 170.405469 386.42 168.005469 
L 386.42 119.994531 
Q 386.42 117.594531 384.02 117.594531 
L 302.86 117.594531 
Q 300.46 117.594531 300.46 119.994531 
L 300.46 168.005469 
Q 300.46 170.405469 302.86 170.405469 
z
" style="fill: #ffffff; stroke: #000000; stroke-linejoin: miter"/>
    </g>
    <!-- petal width &lt;= 1.75 -->
    <g transform="translate(302.86 126.874063) scale(0.08 -0.08)">
     <defs>
      <path id="DejaVuSans-5a" d="M 269 3500 
L 844 3500 
L 1563 769 
L 2278 3500 
L 2956 3500 
L 3675 769 
L 4391 3500 
L 4966 3500 
L 4050 0 
L 3372 0 
L 2619 2869 
L 1863 0 
L 1184 0 
L 269 3500 
z
" transform="scale(0.015625)"/>
      <path id="DejaVuSans-47" d="M 2906 2969 
L 2906 4863 
L 3481 4863 
L 3481 0 
L 2906 0 
L 2906 525 
Q 2725 213 2448 61 
Q 2172 -91 1784 -91 
Q 1150 -91 751 415 
Q 353 922 353 1747 
Q 353 2572 751 3078 
Q 1150 3584 1784 3584 
Q 2172 3584 2448 3432 
Q 2725 3281 2906 2969 
z
M 947 1747 
Q 947 1113 1208 752 
Q 1469 391 1925 391 
Q 2381 391 2643 752 
Q 2906 1113 2906 1747 
Q 2906 2381 2643 2742 
Q 2381 3103 1925 3103 
Q 1469 3103 1208 2742 
Q 947 2381 947 1747 
z
" transform="scale(0.015625)"/>
      <path id="DejaVuSans-4b" d="M 3513 2113 
L 3513 0 
L 2938 0 
L 2938 2094 
Q 2938 2591 2744 2837 
Q 2550 3084 2163 3084 
Q 1697 3084 1428 2787 
Q 1159 2491 1159 1978 
L 1159 0 
L 581 0 
L 581 4863 
L 1159 4863 
L 1159 2956 
Q 1366 3272 1645 3428 
Q 1925 3584 2291 3584 
Q 2894 3584 3203 3211 
Q 3513 2838 3513 2113 
z
" transform="scale(0.015625)"/>
      <path id="DejaVuSans-1f" d="M 4684 3150 
L 1459 2003 
L 4684 863 
L 4684 294 
L 678 1747 
L 678 2266 
L 4684 3719 
L 4684 3150 
z
" transform="scale(0.015625)"/>
      <path id="DejaVuSans-1a" d="M 525 4666 
L 3525 4666 
L 3525 4397 
L 1831 0 
L 1172 0 
L 2766 4134 
L 525 4134 
L 525 4666 
z
" transform="scale(0.015625)"/>
     </defs>
     <use xlink:href="#DejaVuSans-53"/>
     <use xlink:href="#DejaVuSans-48" transform="translate(63.484375 0)"/>
     <use xlink:href="#DejaVuSans-57" transform="translate(125.015625 0)"/>
     <use xlink:href="#DejaVuSans-44" transform="translate(164.21875 0)"/>
     <use xlink:href="#DejaVuSans-4f" transform="translate(225.5 0)"/>
     <use xlink:href="#DejaVuSans-3" transform="translate(253.28125 0)"/>
     <use xlink:href="#DejaVuSans-5a" transform="translate(285.0625 0)"/>
     <use xlink:href="#DejaVuSans-4c" transform="translate(366.84375 0)"/>
     <use xlink:href="#DejaVuSans-47" transform="translate(394.625 0)"/>
     <use xlink:href="#DejaVuSans-57" transform="translate(458.109375 0)"/>
     <use xlink:href="#DejaVuSans-4b" transform="translate(497.3125 0)"/>
     <use xlink:href="#DejaVuSans-3" transform="translate(560.6875 0)"/>
     <use xlink:href="#DejaVuSans-1f" transform="translate(592.46875 0)"/>
     <use xlink:href="#DejaVuSans-20" transform="translate(676.265625 0)"/>
     <use xlink:href="#DejaVuSans-3" transform="translate(760.0625 0)"/>
     <use xlink:href="#DejaVuSans-14" transform="translate(791.84375 0)"/>
     <use xlink:href="#DejaVuSans-11" transform="translate(855.46875 0)"/>
     <use xlink:href="#DejaVuSans-1a" transform="translate(887.25 0)"/>
     <use xlink:href="#DejaVuSans-18" transform="translate(950.875 0)"/>
    </g>
    <!-- gini = 0.5 -->
    <g transform="translate(323.8875 136.47625) scale(0.08 -0.08)">
     <use xlink:href="#DejaVuSans-4a"/>
     <use xlink:href="#DejaVuSans-4c" transform="translate(63.484375 0)"/>
     <use xlink:href="#DejaVuSans-51" transform="translate(91.265625 0)"/>
     <use xlink:href="#DejaVuSans-4c" transform="translate(154.640625 0)"/>
     <use xlink:href="#DejaVuSans-3" transform="translate(182.421875 0)"/>
     <use xlink:href="#DejaVuSans-20" transform="translate(214.203125 0)"/>
     <use xlink:href="#DejaVuSans-3" transform="translate(298 0)"/>
     <use xlink:href="#DejaVuSans-13" transform="translate(329.78125 0)"/>
     <use xlink:href="#DejaVuSans-11" transform="translate(393.40625 0)"/>
     <use xlink:href="#DejaVuSans-18" transform="translate(425.1875 0)"/>
    </g>
    <!-- samples = 100 -->
    <g transform="translate(313.28375 146.078438) scale(0.08 -0.08)">
     <use xlink:href="#DejaVuSans-56"/>
     <use xlink:href="#DejaVuSans-44" transform="translate(52.09375 0)"/>
     <use xlink:href="#DejaVuSans-50" transform="translate(113.375 0)"/>
     <use xlink:href="#DejaVuSans-53" transform="translate(210.78125 0)"/>
     <use xlink:href="#DejaVuSans-4f" transform="translate(274.265625 0)"/>
     <use xlink:href="#DejaVuSans-48" transform="translate(302.046875 0)"/>
     <use xlink:href="#DejaVuSans-56" transform="translate(363.578125 0)"/>
     <use xlink:href="#DejaVuSans-3" transform="translate(415.671875 0)"/>
     <use xlink:href="#DejaVuSans-20" transform="translate(447.453125 0)"/>
     <use xlink:href="#DejaVuSans-3" transform="translate(531.25 0)"/>
     <use xlink:href="#DejaVuSans-14" transform="translate(563.03125 0)"/>
     <use xlink:href="#DejaVuSans-13" transform="translate(626.65625 0)"/>
     <use xlink:href="#DejaVuSans-13" transform="translate(690.28125 0)"/>
    </g>
    <!-- value = [0, 50, 50] -->
    <g transform="translate(305.688125 155.680625) scale(0.08 -0.08)">
     <use xlink:href="#DejaVuSans-59"/>
     <use xlink:href="#DejaVuSans-44" transform="translate(59.1875 0)"/>
     <use xlink:href="#DejaVuSans-4f" transform="translate(120.46875 0)"/>
     <use xlink:href="#DejaVuSans-58" transform="translate(148.25 0)"/>
     <use xlink:href="#DejaVuSans-48" transform="translate(211.625 0)"/>
     <use xlink:href="#DejaVuSans-3" transform="translate(273.15625 0)"/>
     <use xlink:href="#DejaVuSans-20" transform="translate(304.9375 0)"/>
     <use xlink:href="#DejaVuSans-3" transform="translate(388.734375 0)"/>
     <use xlink:href="#DejaVuSans-3e" transform="translate(420.515625 0)"/>
     <use xlink:href="#DejaVuSans-13" transform="translate(459.53125 0)"/>
     <use xlink:href="#DejaVuSans-f" transform="translate(523.15625 0)"/>
     <use xlink:href="#DejaVuSans-3" transform="translate(554.9375 0)"/>
     <use xlink:href="#DejaVuSans-18" transform="translate(586.71875 0)"/>
     <use xlink:href="#DejaVuSans-13" transform="translate(650.34375 0)"/>
     <use xlink:href="#DejaVuSans-f" transform="translate(713.96875 0)"/>
     <use xlink:href="#DejaVuSans-3" transform="translate(745.75 0)"/>
     <use xlink:href="#DejaVuSans-18" transform="translate(777.53125 0)"/>
     <use xlink:href="#DejaVuSans-13" transform="translate(841.15625 0)"/>
     <use xlink:href="#DejaVuSans-40" transform="translate(904.78125 0)"/>
    </g>
    <!-- class = versicolor -->
    <g transform="translate(308.098125 165.282813) scale(0.08 -0.08)">
     <use xlink:href="#DejaVuSans-46"/>
     <use xlink:href="#DejaVuSans-4f" transform="translate(54.984375 0)"/>
     <use xlink:href="#DejaVuSans-44" transform="translate(82.765625 0)"/>
     <use xlink:href="#DejaVuSans-56" transform="translate(144.046875 0)"/>
     <use xlink:href="#DejaVuSans-56" transform="translate(196.140625 0)"/>
     <use xlink:href="#DejaVuSans-3" transform="translate(248.234375 0)"/>
     <use xlink:href="#DejaVuSans-20" transform="translate(280.015625 0)"/>
     <use xlink:href="#DejaVuSans-3" transform="translate(363.8125 0)"/>
     <use xlink:href="#DejaVuSans-59" transform="translate(395.59375 0)"/>
     <use xlink:href="#DejaVuSans-48" transform="translate(454.78125 0)"/>
     <use xlink:href="#DejaVuSans-55" transform="translate(516.3125 0)"/>
     <use xlink:href="#DejaVuSans-56" transform="translate(557.421875 0)"/>
     <use xlink:href="#DejaVuSans-4c" transform="translate(609.515625 0)"/>
     <use xlink:href="#DejaVuSans-46" transform="translate(637.296875 0)"/>
     <use xlink:href="#DejaVuSans-52" transform="translate(692.28125 0)"/>
     <use xlink:href="#DejaVuSans-4f" transform="translate(753.46875 0)"/>
     <use xlink:href="#DejaVuSans-52" transform="translate(781.25 0)"/>
     <use xlink:href="#DejaVuSans-55" transform="translate(842.4375 0)"/>
    </g>
   </g>
   <g id="text_6">
    <!--   False -->
    <g transform="translate(288 99.6) scale(0.08 -0.08)">
     <defs>
      <path id="DejaVuSans-29" d="M 628 4666 
L 3309 4666 
L 3309 4134 
L 1259 4134 
L 1259 2759 
L 3109 2759 
L 3109 2228 
L 1259 2228 
L 1259 0 
L 628 0 
L 628 4666 
z
" transform="scale(0.015625)"/>
     </defs>
     <use xlink:href="#DejaVuSans-3"/>
     <use xlink:href="#DejaVuSans-3" transform="translate(31.78125 0)"/>
     <use xlink:href="#DejaVuSans-29" transform="translate(63.5625 0)"/>
     <use xlink:href="#DejaVuSans-44" transform="translate(111.90625 0)"/>
     <use xlink:href="#DejaVuSans-4f" transform="translate(173.1875 0)"/>
     <use xlink:href="#DejaVuSans-56" transform="translate(200.96875 0)"/>
     <use xlink:href="#DejaVuSans-48" transform="translate(253.0625 0)"/>
    </g>
   </g>
   <g id="patch_10">
    <path d="M 232.56 55.2 
Q 232.56 55.2 232.56 55.2 
" style="fill: none; stroke: #000000; stroke-linecap: round"/>
   </g>
   <g id="text_7">
    <g id="patch_11">
     <path d="M 192.263125 81.605469 
L 272.856875 81.605469 
Q 275.256875 81.605469 275.256875 79.205469 
L 275.256875 31.194531 
Q 275.256875 28.794531 272.856875 28.794531 
L 192.263125 28.794531 
Q 189.863125 28.794531 189.863125 31.194531 
L 189.863125 79.205469 
Q 189.863125 81.605469 192.263125 81.605469 
z
" style="fill: #ffffff; stroke: #000000; stroke-linejoin: miter"/>
    </g>
    <!-- petal width &lt;= 0.8 -->
    <g transform="translate(194.525 38.074063) scale(0.08 -0.08)">
     <use xlink:href="#DejaVuSans-53"/>
     <use xlink:href="#DejaVuSans-48" transform="translate(63.484375 0)"/>
     <use xlink:href="#DejaVuSans-57" transform="translate(125.015625 0)"/>
     <use xlink:href="#DejaVuSans-44" transform="translate(164.21875 0)"/>
     <use xlink:href="#DejaVuSans-4f" transform="translate(225.5 0)"/>
     <use xlink:href="#DejaVuSans-3" transform="translate(253.28125 0)"/>
     <use xlink:href="#DejaVuSans-5a" transform="translate(285.0625 0)"/>
     <use xlink:href="#DejaVuSans-4c" transform="translate(366.84375 0)"/>
     <use xlink:href="#DejaVuSans-47" transform="translate(394.625 0)"/>
     <use xlink:href="#DejaVuSans-57" transform="translate(458.109375 0)"/>
     <use xlink:href="#DejaVuSans-4b" transform="translate(497.3125 0)"/>
     <use xlink:href="#DejaVuSans-3" transform="translate(560.6875 0)"/>
     <use xlink:href="#DejaVuSans-1f" transform="translate(592.46875 0)"/>
     <use xlink:href="#DejaVuSans-20" transform="translate(676.265625 0)"/>
     <use xlink:href="#DejaVuSans-3" transform="translate(760.0625 0)"/>
     <use xlink:href="#DejaVuSans-13" transform="translate(791.84375 0)"/>
     <use xlink:href="#DejaVuSans-11" transform="translate(855.46875 0)"/>
     <use xlink:href="#DejaVuSans-1b" transform="translate(887.25 0)"/>
    </g>
    <!-- gini = 0.667 -->
    <g transform="translate(207.9175 47.67625) scale(0.08 -0.08)">
     <use xlink:href="#DejaVuSans-4a"/>
     <use xlink:href="#DejaVuSans-4c" transform="translate(63.484375 0)"/>
     <use xlink:href="#DejaVuSans-51" transform="translate(91.265625 0)"/>
     <use xlink:href="#DejaVuSans-4c" transform="translate(154.640625 0)"/>
     <use xlink:href="#DejaVuSans-3" transform="translate(182.421875 0)"/>
     <use xlink:href="#DejaVuSans-20" transform="translate(214.203125 0)"/>
     <use xlink:href="#DejaVuSans-3" transform="translate(298 0)"/>
     <use xlink:href="#DejaVuSans-13" transform="translate(329.78125 0)"/>
     <use xlink:href="#DejaVuSans-11" transform="translate(393.40625 0)"/>
     <use xlink:href="#DejaVuSans-19" transform="translate(425.1875 0)"/>
     <use xlink:href="#DejaVuSans-19" transform="translate(488.8125 0)"/>
     <use xlink:href="#DejaVuSans-1a" transform="translate(552.4375 0)"/>
    </g>
    <!-- samples = 150 -->
    <g transform="translate(202.40375 57.278438) scale(0.08 -0.08)">
     <use xlink:href="#DejaVuSans-56"/>
     <use xlink:href="#DejaVuSans-44" transform="translate(52.09375 0)"/>
     <use xlink:href="#DejaVuSans-50" transform="translate(113.375 0)"/>
     <use xlink:href="#DejaVuSans-53" transform="translate(210.78125 0)"/>
     <use xlink:href="#DejaVuSans-4f" transform="translate(274.265625 0)"/>
     <use xlink:href="#DejaVuSans-48" transform="translate(302.046875 0)"/>
     <use xlink:href="#DejaVuSans-56" transform="translate(363.578125 0)"/>
     <use xlink:href="#DejaVuSans-3" transform="translate(415.671875 0)"/>
     <use xlink:href="#DejaVuSans-20" transform="translate(447.453125 0)"/>
     <use xlink:href="#DejaVuSans-3" transform="translate(531.25 0)"/>
     <use xlink:href="#DejaVuSans-14" transform="translate(563.03125 0)"/>
     <use xlink:href="#DejaVuSans-18" transform="translate(626.65625 0)"/>
     <use xlink:href="#DejaVuSans-13" transform="translate(690.28125 0)"/>
    </g>
    <!-- value = [50, 50, 50] -->
    <g transform="translate(192.263125 66.880625) scale(0.08 -0.08)">
     <use xlink:href="#DejaVuSans-59"/>
     <use xlink:href="#DejaVuSans-44" transform="translate(59.1875 0)"/>
     <use xlink:href="#DejaVuSans-4f" transform="translate(120.46875 0)"/>
     <use xlink:href="#DejaVuSans-58" transform="translate(148.25 0)"/>
     <use xlink:href="#DejaVuSans-48" transform="translate(211.625 0)"/>
     <use xlink:href="#DejaVuSans-3" transform="translate(273.15625 0)"/>
     <use xlink:href="#DejaVuSans-20" transform="translate(304.9375 0)"/>
     <use xlink:href="#DejaVuSans-3" transform="translate(388.734375 0)"/>
     <use xlink:href="#DejaVuSans-3e" transform="translate(420.515625 0)"/>
     <use xlink:href="#DejaVuSans-18" transform="translate(459.53125 0)"/>
     <use xlink:href="#DejaVuSans-13" transform="translate(523.15625 0)"/>
     <use xlink:href="#DejaVuSans-f" transform="translate(586.78125 0)"/>
     <use xlink:href="#DejaVuSans-3" transform="translate(618.5625 0)"/>
     <use xlink:href="#DejaVuSans-18" transform="translate(650.34375 0)"/>
     <use xlink:href="#DejaVuSans-13" transform="translate(713.96875 0)"/>
     <use xlink:href="#DejaVuSans-f" transform="translate(777.59375 0)"/>
     <use xlink:href="#DejaVuSans-3" transform="translate(809.375 0)"/>
     <use xlink:href="#DejaVuSans-18" transform="translate(841.15625 0)"/>
     <use xlink:href="#DejaVuSans-13" transform="translate(904.78125 0)"/>
     <use xlink:href="#DejaVuSans-40" transform="translate(968.40625 0)"/>
    </g>
    <!-- class = setosa -->
    <g transform="translate(203.640625 76.482813) scale(0.08 -0.08)">
     <use xlink:href="#DejaVuSans-46"/>
     <use xlink:href="#DejaVuSans-4f" transform="translate(54.984375 0)"/>
     <use xlink:href="#DejaVuSans-44" transform="translate(82.765625 0)"/>
     <use xlink:href="#DejaVuSans-56" transform="translate(144.046875 0)"/>
     <use xlink:href="#DejaVuSans-56" transform="translate(196.140625 0)"/>
     <use xlink:href="#DejaVuSans-3" transform="translate(248.234375 0)"/>
     <use xlink:href="#DejaVuSans-20" transform="translate(280.015625 0)"/>
     <use xlink:href="#DejaVuSans-3" transform="translate(363.8125 0)"/>
     <use xlink:href="#DejaVuSans-56" transform="translate(395.59375 0)"/>
     <use xlink:href="#DejaVuSans-48" transform="translate(447.6875 0)"/>
     <use xlink:href="#DejaVuSans-57" transform="translate(509.21875 0)"/>
     <use xlink:href="#DejaVuSans-52" transform="translate(548.421875 0)"/>
     <use xlink:href="#DejaVuSans-56" transform="translate(609.609375 0)"/>
     <use xlink:href="#DejaVuSans-44" transform="translate(661.703125 0)"/>
    </g>
   </g>
  </g>
 </g>
</svg>

