<?xml version="1.0" encoding="utf-8" standalone="no"?>
<!DOCTYPE svg PUBLIC "-//W3C//DTD SVG 1.1//EN"
  "http://www.w3.org/Graphics/SVG/1.1/DTD/svg11.dtd">
<svg xmlns:xlink="http://www.w3.org/1999/xlink" width="648pt" height="244.8pt" viewBox="0 0 648 244.8" xmlns="http://www.w3.org/2000/svg" version="1.1">
 <metadata>
  <rdf:RDF xmlns:dc="http://purl.org/dc/elements/1.1/" xmlns:cc="http://creativecommons.org/ns#" xmlns:rdf="http://www.w3.org/1999/02/22-rdf-syntax-ns#">
   <cc:Work>
    <dc:type rdf:resource="http://purl.org/dc/dcmitype/StillImage"/>
    <dc:date>2026-07-04T22:08:16.389769</dc:date>
    <dc:format>image/svg+xml</dc:format>
    <dc:creator>
     <cc:Agent>
      <dc:title>Matplotlib v3.11.0, https://matplotlib.org/</dc:title>
     </cc:Agent>
    </dc:creator>
   </cc:Work>
  </rdf:RDF>
 </metadata>
 <defs>
  <style type="text/css">*{stroke-linejoin: round; stroke-linecap: butt}</style>
 </defs>
 <g id="figure_1">
  <g id="patch_1">
   <path d="M 0 244.8 
L 648 244.8 
L 648 0 
L 0 0 
L 0 244.8 
z
" style="fill: none"/>
  </g>
  <g id="axes_1">
   <g id="patch_2">
    <path d="M 47.962344 202.677656 
L 318.6 202.677656 
L 318.6 24.72 
L 47.962344 24.72 
L 47.962344 202.677656 
z
" style="fill: none"/>
   </g>
   <g id="matplotlib.axis_1">
    <g id="xtick_1">
     <g id="line2d_1">
      <defs>
       <path id="ma3d3e7b7d1" d="M 0 0 
L 0 3.5 
" style="stroke: #000000; stroke-width: 0.8"/>
      </defs>
      <g>
       <use xlink:href="#ma3d3e7b7d1" x="60.264055" y="202.677656" style="stroke: #000000; stroke-width: 0.8"/>
      </g>
     </g>
     <g id="text_1">
      <!-- 0.0 -->
      <g transform="translate(52.312493 217.275312) scale(0.1 -0.1)">
       <defs>
        <path id="DejaVuSans-13" d="M 2034 4250 
Q 1547 4250 1301 3770 
Q 1056 3291 1056 2328 
Q 1056 1369 1301 889 
Q 1547 409 2034 409 
Q 2525 409 2770 889 
Q 3016 1369 3016 2328 
Q 3016 3291 2770 3770 
Q 2525 4250 2034 4250 
z
M 2034 4750 
Q 2819 4750 3233 4129 
Q 3647 3509 3647 2328 
Q 3647 1150 3233 529 
Q 2819 -91 2034 -91 
Q 1250 -91 836 529 
Q 422 1150 422 2328 
Q 422 3509 836 4129 
Q 1250 4750 2034 4750 
z
" transform="scale(0.015625)"/>
        <path id="DejaVuSans-11" d="M 684 794 
L 1344 794 
L 1344 0 
L 684 0 
L 684 794 
z
" transform="scale(0.015625)"/>
       </defs>
       <use xlink:href="#DejaVuSans-13"/>
       <use xlink:href="#DejaVuSans-11" transform="translate(63.625 0)"/>
       <use xlink:href="#DejaVuSans-13" transform="translate(95.40625 0)"/>
      </g>
     </g>
    </g>
    <g id="xtick_2">
     <g id="line2d_2">
      <g>
       <use xlink:href="#ma3d3e7b7d1" x="109.470902" y="202.677656" style="stroke: #000000; stroke-width: 0.8"/>
      </g>
     </g>
     <g id="text_2">
      <!-- 0.2 -->
      <g transform="translate(101.519339 217.275312) scale(0.1 -0.1)">
       <defs>
        <path id="DejaVuSans-15" d="M 1228 531 
L 3431 531 
L 3431 0 
L 469 0 
L 469 531 
Q 828 903 1448 1529 
Q 2069 2156 2228 2338 
Q 2531 2678 2651 2914 
Q 2772 3150 2772 3378 
Q 2772 3750 2511 3984 
Q 2250 4219 1831 4219 
Q 1534 4219 1204 4116 
Q 875 4013 500 3803 
L 500 4441 
Q 881 4594 1212 4672 
Q 1544 4750 1819 4750 
Q 2544 4750 2975 4387 
Q 3406 4025 3406 3419 
Q 3406 3131 3298 2873 
Q 3191 2616 2906 2266 
Q 2828 2175 2409 1742 
Q 1991 1309 1228 531 
z
" transform="scale(0.015625)"/>
       </defs>
       <use xlink:href="#DejaVuSans-13"/>
       <use xlink:href="#DejaVuSans-11" transform="translate(63.625 0)"/>
       <use xlink:href="#DejaVuSans-15" transform="translate(95.40625 0)"/>
      </g>
     </g>
    </g>
    <g id="xtick_3">
     <g id="line2d_3">
      <g>
       <use xlink:href="#ma3d3e7b7d1" x="158.677749" y="202.677656" style="stroke: #000000; stroke-width: 0.8"/>
      </g>
     </g>
     <g id="text_3">
      <!-- 0.4 -->
      <g transform="translate(150.726186 217.275312) scale(0.1 -0.1)">
       <defs>
        <path id="DejaVuSans-17" d="M 2419 4116 
L 825 1625 
L 2419 1625 
L 2419 4116 
z
M 2253 4666 
L 3047 4666 
L 3047 1625 
L 3713 1625 
L 3713 1100 
L 3047 1100 
L 3047 0 
L 2419 0 
L 2419 1100 
L 313 1100 
L 313 1709 
L 2253 4666 
z
" transform="scale(0.015625)"/>
       </defs>
       <use xlink:href="#DejaVuSans-13"/>
       <use xlink:href="#DejaVuSans-11" transform="translate(63.625 0)"/>
       <use xlink:href="#DejaVuSans-17" transform="translate(95.40625 0)"/>
      </g>
     </g>
    </g>
    <g id="xtick_4">
     <g id="line2d_4">
      <g>
       <use xlink:href="#ma3d3e7b7d1" x="207.884595" y="202.677656" style="stroke: #000000; stroke-width: 0.8"/>
      </g>
     </g>
     <g id="text_4">
      <!-- 0.6 -->
      <g transform="translate(199.933033 217.275312) scale(0.1 -0.1)">
       <defs>
        <path id="DejaVuSans-19" d="M 2113 2584 
Q 1688 2584 1439 2293 
Q 1191 2003 1191 1497 
Q 1191 994 1439 701 
Q 1688 409 2113 409 
Q 2538 409 2786 701 
Q 3034 994 3034 1497 
Q 3034 2003 2786 2293 
Q 2538 2584 2113 2584 
z
M 3366 4563 
L 3366 3988 
Q 3128 4100 2886 4159 
Q 2644 4219 2406 4219 
Q 1781 4219 1451 3797 
Q 1122 3375 1075 2522 
Q 1259 2794 1537 2939 
Q 1816 3084 2150 3084 
Q 2853 3084 3261 2657 
Q 3669 2231 3669 1497 
Q 3669 778 3244 343 
Q 2819 -91 2113 -91 
Q 1303 -91 875 529 
Q 447 1150 447 2328 
Q 447 3434 972 4092 
Q 1497 4750 2381 4750 
Q 2619 4750 2861 4703 
Q 3103 4656 3366 4563 
z
" transform="scale(0.015625)"/>
       </defs>
       <use xlink:href="#DejaVuSans-13"/>
       <use xlink:href="#DejaVuSans-11" transform="translate(63.625 0)"/>
       <use xlink:href="#DejaVuSans-19" transform="translate(95.40625 0)"/>
      </g>
     </g>
    </g>
    <g id="xtick_5">
     <g id="line2d_5">
      <g>
       <use xlink:href="#ma3d3e7b7d1" x="257.091442" y="202.677656" style="stroke: #000000; stroke-width: 0.8"/>
      </g>
     </g>
     <g id="text_5">
      <!-- 0.8 -->
      <g transform="translate(249.139879 217.275312) scale(0.1 -0.1)">
       <defs>
        <path id="DejaVuSans-1b" d="M 2034 2216 
Q 1584 2216 1326 1975 
Q 1069 1734 1069 1313 
Q 1069 891 1326 650 
Q 1584 409 2034 409 
Q 2484 409 2743 651 
Q 3003 894 3003 1313 
Q 3003 1734 2745 1975 
Q 2488 2216 2034 2216 
z
M 1403 2484 
Q 997 2584 770 2862 
Q 544 3141 544 3541 
Q 544 4100 942 4425 
Q 1341 4750 2034 4750 
Q 2731 4750 3128 4425 
Q 3525 4100 3525 3541 
Q 3525 3141 3298 2862 
Q 3072 2584 2669 2484 
Q 3125 2378 3379 2068 
Q 3634 1759 3634 1313 
Q 3634 634 3220 271 
Q 2806 -91 2034 -91 
Q 1263 -91 848 271 
Q 434 634 434 1313 
Q 434 1759 690 2068 
Q 947 2378 1403 2484 
z
M 1172 3481 
Q 1172 3119 1398 2916 
Q 1625 2713 2034 2713 
Q 2441 2713 2670 2916 
Q 2900 3119 2900 3481 
Q 2900 3844 2670 4047 
Q 2441 4250 2034 4250 
Q 1625 4250 1398 4047 
Q 1172 3844 1172 3481 
z
" transform="scale(0.015625)"/>
       </defs>
       <use xlink:href="#DejaVuSans-13"/>
       <use xlink:href="#DejaVuSans-11" transform="translate(63.625 0)"/>
       <use xlink:href="#DejaVuSans-1b" transform="translate(95.40625 0)"/>
      </g>
     </g>
    </g>
    <g id="xtick_6">
     <g id="line2d_6">
      <g>
       <use xlink:href="#ma3d3e7b7d1" x="306.298288" y="202.677656" style="stroke: #000000; stroke-width: 0.8"/>
      </g>
     </g>
     <g id="text_6">
      <!-- 1.0 -->
      <g transform="translate(298.346726 217.275312) scale(0.1 -0.1)">
       <defs>
        <path id="DejaVuSans-14" d="M 794 531 
L 1825 531 
L 1825 4091 
L 703 3866 
L 703 4441 
L 1819 4666 
L 2450 4666 
L 2450 531 
L 3481 531 
L 3481 0 
L 794 0 
L 794 531 
z
" transform="scale(0.015625)"/>
       </defs>
       <use xlink:href="#DejaVuSans-14"/>
       <use xlink:href="#DejaVuSans-11" transform="translate(63.625 0)"/>
       <use xlink:href="#DejaVuSans-13" transform="translate(95.40625 0)"/>
      </g>
     </g>
    </g>
    <g id="text_7">
     <!-- False Positive Rate -->
     <g transform="translate(136.811641 231.276094) scale(0.1 -0.1)">
      <defs>
       <path id="DejaVuSans-29" d="M 628 4666 
L 3309 4666 
L 3309 4134 
L 1259 4134 
L 1259 2759 
L 3109 2759 
L 3109 2228 
L 1259 2228 
L 1259 0 
L 628 0 
L 628 4666 
z
" transform="scale(0.015625)"/>
       <path id="DejaVuSans-44" d="M 2194 1759 
Q 1497 1759 1228 1600 
Q 959 1441 959 1056 
Q 959 750 1161 570 
Q 1363 391 1709 391 
Q 2188 391 2477 730 
Q 2766 1069 2766 1631 
L 2766 1759 
L 2194 1759 
z
M 3341 1997 
L 3341 0 
L 2766 0 
L 2766 531 
Q 2569 213 2275 61 
Q 1981 -91 1556 -91 
Q 1019 -91 701 211 
Q 384 513 384 1019 
Q 384 1609 779 1909 
Q 1175 2209 1959 2209 
L 2766 2209 
L 2766 2266 
Q 2766 2663 2505 2880 
Q 2244 3097 1772 3097 
Q 1472 3097 1187 3025 
Q 903 2953 641 2809 
L 641 3341 
Q 956 3463 1253 3523 
Q 1550 3584 1831 3584 
Q 2591 3584 2966 3190 
Q 3341 2797 3341 1997 
z
" transform="scale(0.015625)"/>
       <path id="DejaVuSans-4f" d="M 603 4863 
L 1178 4863 
L 1178 0 
L 603 0 
L 603 4863 
z
" transform="scale(0.015625)"/>
       <path id="DejaVuSans-56" d="M 2834 3397 
L 2834 2853 
Q 2591 2978 2328 3040 
Q 2066 3103 1784 3103 
Q 1356 3103 1142 2972 
Q 928 2841 928 2578 
Q 928 2378 1081 2264 
Q 1234 2150 1697 2047 
L 1894 2003 
Q 2506 1872 2764 1633 
Q 3022 1394 3022 966 
Q 3022 478 2636 193 
Q 2250 -91 1575 -91 
Q 1294 -91 989 -36 
Q 684 19 347 128 
L 347 722 
Q 666 556 975 473 
Q 1284 391 1588 391 
Q 1994 391 2212 530 
Q 2431 669 2431 922 
Q 2431 1156 2273 1281 
Q 2116 1406 1581 1522 
L 1381 1569 
Q 847 1681 609 1914 
Q 372 2147 372 2553 
Q 372 3047 722 3315 
Q 1072 3584 1716 3584 
Q 2034 3584 2315 3537 
Q 2597 3491 2834 3397 
z
" transform="scale(0.015625)"/>
       <path id="DejaVuSans-48" d="M 3597 1894 
L 3597 1613 
L 953 1613 
Q 991 1019 1311 708 
Q 1631 397 2203 397 
Q 2534 397 2845 478 
Q 3156 559 3463 722 
L 3463 178 
Q 3153 47 2828 -22 
Q 2503 -91 2169 -91 
Q 1331 -91 842 396 
Q 353 884 353 1716 
Q 353 2575 817 3079 
Q 1281 3584 2069 3584 
Q 2775 3584 3186 3129 
Q 3597 2675 3597 1894 
z
M 3022 2063 
Q 3016 2534 2758 2815 
Q 2500 3097 2075 3097 
Q 1594 3097 1305 2825 
Q 1016 2553 972 2059 
L 3022 2063 
z
" transform="scale(0.015625)"/>
       <path id="DejaVuSans-3" transform="scale(0.015625)"/>
       <path id="DejaVuSans-33" d="M 1259 4147 
L 1259 2394 
L 2053 2394 
Q 2494 2394 2734 2622 
Q 2975 2850 2975 3272 
Q 2975 3691 2734 3919 
Q 2494 4147 2053 4147 
L 1259 4147 
z
M 628 4666 
L 2053 4666 
Q 2838 4666 3239 4311 
Q 3641 3956 3641 3272 
Q 3641 2581 3239 2228 
Q 2838 1875 2053 1875 
L 1259 1875 
L 1259 0 
L 628 0 
L 628 4666 
z
" transform="scale(0.015625)"/>
       <path id="DejaVuSans-52" d="M 1959 3097 
Q 1497 3097 1228 2736 
Q 959 2375 959 1747 
Q 959 1119 1226 758 
Q 1494 397 1959 397 
Q 2419 397 2687 759 
Q 2956 1122 2956 1747 
Q 2956 2369 2687 2733 
Q 2419 3097 1959 3097 
z
M 1959 3584 
Q 2709 3584 3137 3096 
Q 3566 2609 3566 1747 
Q 3566 888 3137 398 
Q 2709 -91 1959 -91 
Q 1206 -91 779 398 
Q 353 888 353 1747 
Q 353 2609 779 3096 
Q 1206 3584 1959 3584 
z
" transform="scale(0.015625)"/>
       <path id="DejaVuSans-4c" d="M 603 3500 
L 1178 3500 
L 1178 0 
L 603 0 
L 603 3500 
z
M 603 4863 
L 1178 4863 
L 1178 4134 
L 603 4134 
L 603 4863 
z
" transform="scale(0.015625)"/>
       <path id="DejaVuSans-57" d="M 1172 4494 
L 1172 3500 
L 2356 3500 
L 2356 3053 
L 1172 3053 
L 1172 1153 
Q 1172 725 1289 603 
Q 1406 481 1766 481 
L 2356 481 
L 2356 0 
L 1766 0 
Q 1100 0 847 248 
Q 594 497 594 1153 
L 594 3053 
L 172 3053 
L 172 3500 
L 594 3500 
L 594 4494 
L 1172 4494 
z
" transform="scale(0.015625)"/>
       <path id="DejaVuSans-59" d="M 191 3500 
L 800 3500 
L 1894 563 
L 2988 3500 
L 3597 3500 
L 2284 0 
L 1503 0 
L 191 3500 
z
" transform="scale(0.015625)"/>
       <path id="DejaVuSans-35" d="M 2841 2188 
Q 3044 2119 3236 1894 
Q 3428 1669 3622 1275 
L 4263 0 
L 3584 0 
L 2988 1197 
Q 2756 1666 2539 1819 
Q 2322 1972 1947 1972 
L 1259 1972 
L 1259 0 
L 628 0 
L 628 4666 
L 2053 4666 
Q 2853 4666 3247 4331 
Q 3641 3997 3641 3322 
Q 3641 2881 3436 2590 
Q 3231 2300 2841 2188 
z
M 1259 4147 
L 1259 2491 
L 2053 2491 
Q 2509 2491 2742 2702 
Q 2975 2913 2975 3322 
Q 2975 3731 2742 3939 
Q 2509 4147 2053 4147 
L 1259 4147 
z
" transform="scale(0.015625)"/>
      </defs>
      <use xlink:href="#DejaVuSans-29"/>
      <use xlink:href="#DejaVuSans-44" transform="translate(48.34375 0)"/>
      <use xlink:href="#DejaVuSans-4f" transform="translate(109.625 0)"/>
      <use xlink:href="#DejaVuSans-56" transform="translate(137.40625 0)"/>
      <use xlink:href="#DejaVuSans-48" transform="translate(189.5 0)"/>
      <use xlink:href="#DejaVuSans-3" transform="translate(251.03125 0)"/>
      <use xlink:href="#DejaVuSans-33" transform="translate(282.8125 0)"/>
      <use xlink:href="#DejaVuSans-52" transform="translate(339.546875 0)"/>
      <use xlink:href="#DejaVuSans-56" transform="translate(400.734375 0)"/>
      <use xlink:href="#DejaVuSans-4c" transform="translate(452.828125 0)"/>
      <use xlink:href="#DejaVuSans-57" transform="translate(480.609375 0)"/>
      <use xlink:href="#DejaVuSans-4c" transform="translate(519.8125 0)"/>
      <use xlink:href="#DejaVuSans-59" transform="translate(547.59375 0)"/>
      <use xlink:href="#DejaVuSans-48" transform="translate(606.78125 0)"/>
      <use xlink:href="#DejaVuSans-3" transform="translate(668.3125 0)"/>
      <use xlink:href="#DejaVuSans-35" transform="translate(700.09375 0)"/>
      <use xlink:href="#DejaVuSans-44" transform="translate(767.375 0)"/>
      <use xlink:href="#DejaVuSans-57" transform="translate(828.65625 0)"/>
      <use xlink:href="#DejaVuSans-48" transform="translate(867.859375 0)"/>
     </g>
    </g>
   </g>
   <g id="matplotlib.axis_2">
    <g id="ytick_1">
     <g id="line2d_7">
      <defs>
       <path id="m0a05818a40" d="M 0 0 
L -3.5 0 
" style="stroke: #000000; stroke-width: 0.8"/>
      </defs>
      <g>
       <use xlink:href="#m0a05818a40" x="47.962344" y="194.588672" style="stroke: #000000; stroke-width: 0.8"/>
      </g>
     </g>
     <g id="text_8">
      <!-- 0.0 -->
      <g transform="translate(25.059219 198.3875) scale(0.1 -0.1)">
       <use xlink:href="#DejaVuSans-13"/>
       <use xlink:href="#DejaVuSans-11" transform="translate(63.625 0)"/>
       <use xlink:href="#DejaVuSans-13" transform="translate(95.40625 0)"/>
      </g>
     </g>
    </g>
    <g id="ytick_2">
     <g id="line2d_8">
      <g>
       <use xlink:href="#m0a05818a40" x="47.962344" y="162.232734" style="stroke: #000000; stroke-width: 0.8"/>
      </g>
     </g>
     <g id="text_9">
      <!-- 0.2 -->
      <g transform="translate(25.059219 166.031562) scale(0.1 -0.1)">
       <use xlink:href="#DejaVuSans-13"/>
       <use xlink:href="#DejaVuSans-11" transform="translate(63.625 0)"/>
       <use xlink:href="#DejaVuSans-15" transform="translate(95.40625 0)"/>
      </g>
     </g>
    </g>
    <g id="ytick_3">
     <g id="line2d_9">
      <g>
       <use xlink:href="#m0a05818a40" x="47.962344" y="129.876797" style="stroke: #000000; stroke-width: 0.8"/>
      </g>
     </g>
     <g id="text_10">
      <!-- 0.4 -->
      <g transform="translate(25.059219 133.675625) scale(0.1 -0.1)">
       <use xlink:href="#DejaVuSans-13"/>
       <use xlink:href="#DejaVuSans-11" transform="translate(63.625 0)"/>
       <use xlink:href="#DejaVuSans-17" transform="translate(95.40625 0)"/>
      </g>
     </g>
    </g>
    <g id="ytick_4">
     <g id="line2d_10">
      <g>
       <use xlink:href="#m0a05818a40" x="47.962344" y="97.520859" style="stroke: #000000; stroke-width: 0.8"/>
      </g>
     </g>
     <g id="text_11">
      <!-- 0.6 -->
      <g transform="translate(25.059219 101.319687) scale(0.1 -0.1)">
       <use xlink:href="#DejaVuSans-13"/>
       <use xlink:href="#DejaVuSans-11" transform="translate(63.625 0)"/>
       <use xlink:href="#DejaVuSans-19" transform="translate(95.40625 0)"/>
      </g>
     </g>
    </g>
    <g id="ytick_5">
     <g id="line2d_11">
      <g>
       <use xlink:href="#m0a05818a40" x="47.962344" y="65.164922" style="stroke: #000000; stroke-width: 0.8"/>
      </g>
     </g>
     <g id="text_12">
      <!-- 0.8 -->
      <g transform="translate(25.059219 68.96375) scale(0.1 -0.1)">
       <use xlink:href="#DejaVuSans-13"/>
       <use xlink:href="#DejaVuSans-11" transform="translate(63.625 0)"/>
       <use xlink:href="#DejaVuSans-1b" transform="translate(95.40625 0)"/>
      </g>
     </g>
    </g>
    <g id="ytick_6">
     <g id="line2d_12">
      <g>
       <use xlink:href="#m0a05818a40" x="47.962344" y="32.808984" style="stroke: #000000; stroke-width: 0.8"/>
      </g>
     </g>
     <g id="text_13">
      <!-- 1.0 -->
      <g transform="translate(25.059219 36.607812) scale(0.1 -0.1)">
       <use xlink:href="#DejaVuSans-14"/>
       <use xlink:href="#DejaVuSans-11" transform="translate(63.625 0)"/>
       <use xlink:href="#DejaVuSans-13" transform="translate(95.40625 0)"/>
      </g>
     </g>
    </g>
    <g id="text_14">
     <!-- True Positive Rate (recall) -->
     <g transform="translate(18.656875 177.340234) rotate(-90) scale(0.1 -0.1)">
      <defs>
       <path id="DejaVuSans-37" d="M -19 4666 
L 3928 4666 
L 3928 4134 
L 2272 4134 
L 2272 0 
L 1638 0 
L 1638 4134 
L -19 4134 
L -19 4666 
z
" transform="scale(0.015625)"/>
       <path id="DejaVuSans-55" d="M 2631 2963 
Q 2534 3019 2420 3045 
Q 2306 3072 2169 3072 
Q 1681 3072 1420 2755 
Q 1159 2438 1159 1844 
L 1159 0 
L 581 0 
L 581 3500 
L 1159 3500 
L 1159 2956 
Q 1341 3275 1631 3429 
Q 1922 3584 2338 3584 
Q 2397 3584 2469 3576 
Q 2541 3569 2628 3553 
L 2631 2963 
z
" transform="scale(0.015625)"/>
       <path id="DejaVuSans-58" d="M 544 1381 
L 544 3500 
L 1119 3500 
L 1119 1403 
Q 1119 906 1312 657 
Q 1506 409 1894 409 
Q 2359 409 2629 706 
Q 2900 1003 2900 1516 
L 2900 3500 
L 3475 3500 
L 3475 0 
L 2900 0 
L 2900 538 
Q 2691 219 2414 64 
Q 2138 -91 1772 -91 
Q 1169 -91 856 284 
Q 544 659 544 1381 
z
M 1991 3584 
L 1991 3584 
z
" transform="scale(0.015625)"/>
       <path id="DejaVuSans-b" d="M 1984 4856 
Q 1566 4138 1362 3434 
Q 1159 2731 1159 2009 
Q 1159 1288 1364 580 
Q 1569 -128 1984 -844 
L 1484 -844 
Q 1016 -109 783 600 
Q 550 1309 550 2009 
Q 550 2706 781 3412 
Q 1013 4119 1484 4856 
L 1984 4856 
z
" transform="scale(0.015625)"/>
       <path id="DejaVuSans-46" d="M 3122 3366 
L 3122 2828 
Q 2878 2963 2633 3030 
Q 2388 3097 2138 3097 
Q 1578 3097 1268 2742 
Q 959 2388 959 1747 
Q 959 1106 1268 751 
Q 1578 397 2138 397 
Q 2388 397 2633 464 
Q 2878 531 3122 666 
L 3122 134 
Q 2881 22 2623 -34 
Q 2366 -91 2075 -91 
Q 1284 -91 818 406 
Q 353 903 353 1747 
Q 353 2603 823 3093 
Q 1294 3584 2113 3584 
Q 2378 3584 2631 3529 
Q 2884 3475 3122 3366 
z
" transform="scale(0.015625)"/>
       <path id="DejaVuSans-c" d="M 513 4856 
L 1013 4856 
Q 1481 4119 1714 3412 
Q 1947 2706 1947 2009 
Q 1947 1309 1714 600 
Q 1481 -109 1013 -844 
L 513 -844 
Q 928 -128 1133 580 
Q 1338 1288 1338 2009 
Q 1338 2731 1133 3434 
Q 928 4138 513 4856 
z
" transform="scale(0.015625)"/>
      </defs>
      <use xlink:href="#DejaVuSans-37"/>
      <use xlink:href="#DejaVuSans-55" transform="translate(46.375 0)"/>
      <use xlink:href="#DejaVuSans-58" transform="translate(87.484375 0)"/>
      <use xlink:href="#DejaVuSans-48" transform="translate(150.859375 0)"/>
      <use xlink:href="#DejaVuSans-3" transform="translate(212.390625 0)"/>
      <use xlink:href="#DejaVuSans-33" transform="translate(244.171875 0)"/>
      <use xlink:href="#DejaVuSans-52" transform="translate(300.90625 0)"/>
      <use xlink:href="#DejaVuSans-56" transform="translate(362.09375 0)"/>
      <use xlink:href="#DejaVuSans-4c" transform="translate(414.1875 0)"/>
      <use xlink:href="#DejaVuSans-57" transform="translate(441.96875 0)"/>
      <use xlink:href="#DejaVuSans-4c" transform="translate(481.171875 0)"/>
      <use xlink:href="#DejaVuSans-59" transform="translate(508.953125 0)"/>
      <use xlink:href="#DejaVuSans-48" transform="translate(568.140625 0)"/>
      <use xlink:href="#DejaVuSans-3" transform="translate(629.671875 0)"/>
      <use xlink:href="#DejaVuSans-35" transform="translate(661.453125 0)"/>
      <use xlink:href="#DejaVuSans-44" transform="translate(728.734375 0)"/>
      <use xlink:href="#DejaVuSans-57" transform="translate(790.015625 0)"/>
      <use xlink:href="#DejaVuSans-48" transform="translate(829.21875 0)"/>
      <use xlink:href="#DejaVuSans-3" transform="translate(890.75 0)"/>
      <use xlink:href="#DejaVuSans-b" transform="translate(922.53125 0)"/>
      <use xlink:href="#DejaVuSans-55" transform="translate(961.546875 0)"/>
      <use xlink:href="#DejaVuSans-48" transform="translate(1000.453125 0)"/>
      <use xlink:href="#DejaVuSans-46" transform="translate(1061.984375 0)"/>
      <use xlink:href="#DejaVuSans-44" transform="translate(1116.96875 0)"/>
      <use xlink:href="#DejaVuSans-4f" transform="translate(1178.25 0)"/>
      <use xlink:href="#DejaVuSans-4f" transform="translate(1206.03125 0)"/>
      <use xlink:href="#DejaVuSans-c" transform="translate(1233.8125 0)"/>
     </g>
    </g>
   </g>
   <g id="line2d_13">
    <path d="M 60.264055 194.588672 
L 60.264055 167.168386 
L 60.525516 167.168386 
L 60.525516 165.797372 
L 60.656246 165.797372 
L 60.656246 163.055343 
L 60.786976 163.055343 
L 60.786976 161.684329 
L 60.917706 161.684329 
L 60.917706 158.9423 
L 61.048437 158.9423 
L 61.048437 157.571286 
L 61.571357 157.571286 
L 61.571357 156.200271 
L 61.832818 156.200271 
L 61.832818 154.829257 
L 61.963548 154.829257 
L 61.963548 153.458243 
L 62.355739 153.458243 
L 62.355739 150.716214 
L 62.486469 150.716214 
L 62.486469 149.3452 
L 62.747929 149.3452 
L 62.747929 147.974186 
L 63.14012 147.974186 
L 63.14012 146.603171 
L 63.53231 146.603171 
L 63.53231 145.232157 
L 63.793771 145.232157 
L 63.793771 142.490128 
L 64.578152 142.490128 
L 64.578152 141.119114 
L 65.101073 141.119114 
L 65.101073 139.7481 
L 65.493263 139.7481 
L 65.493263 138.377086 
L 65.885454 138.377086 
L 65.885454 135.635057 
L 66.277645 135.635057 
L 66.277645 131.522014 
L 67.584946 131.522014 
L 67.584946 130.151 
L 67.715677 130.151 
L 67.715677 128.779985 
L 67.977137 128.779985 
L 67.977137 126.037957 
L 68.369328 126.037957 
L 68.369328 124.666943 
L 68.630788 124.666943 
L 68.630788 123.295928 
L 68.761518 123.295928 
L 68.761518 121.924914 
L 69.153709 121.924914 
L 69.153709 120.5539 
L 69.545899 120.5539 
L 69.545899 119.182885 
L 69.93809 119.182885 
L 69.93809 116.440857 
L 70.19955 116.440857 
L 70.19955 113.698828 
L 70.853201 113.698828 
L 70.853201 112.327814 
L 71.114662 112.327814 
L 71.114662 110.9568 
L 72.814154 110.9568 
L 72.814154 109.585785 
L 73.467805 109.585785 
L 73.467805 108.214771 
L 75.298028 108.214771 
L 75.298028 105.472742 
L 75.690219 105.472742 
L 75.690219 104.101728 
L 76.73606 104.101728 
L 76.73606 102.730714 
L 78.566283 102.730714 
L 78.566283 101.359699 
L 79.219934 101.359699 
L 79.219934 98.617671 
L 79.742855 98.617671 
L 79.742855 97.246657 
L 80.135046 97.246657 
L 80.135046 95.875642 
L 80.657966 95.875642 
L 80.657966 93.133614 
L 81.311617 93.133614 
L 81.311617 90.391585 
L 83.795491 90.391585 
L 83.795491 89.020571 
L 84.056951 89.020571 
L 84.056951 87.649556 
L 87.194476 87.649556 
L 87.194476 86.278542 
L 91.639303 86.278542 
L 91.639303 84.907528 
L 92.162224 84.907528 
L 92.162224 82.165499 
L 92.946605 82.165499 
L 92.946605 80.794485 
L 94.515367 80.794485 
L 94.515367 79.423471 
L 96.737781 79.423471 
L 96.737781 78.052456 
L 100.528956 78.052456 
L 100.528956 76.681442 
L 101.966989 76.681442 
L 101.966989 75.310428 
L 105.496704 75.310428 
L 105.496704 73.939413 
L 111.902484 73.939413 
L 111.902484 72.568399 
L 112.163944 72.568399 
L 112.163944 71.197385 
L 113.994167 71.197385 
L 113.994167 69.82637 
L 114.647818 69.82637 
L 114.647818 68.455356 
L 116.08585 68.455356 
L 116.08585 67.084342 
L 117.131692 67.084342 
L 117.131692 65.713328 
L 118.438994 65.713328 
L 118.438994 64.342313 
L 126.152075 64.342313 
L 126.152075 62.971299 
L 132.557855 62.971299 
L 132.557855 61.600285 
L 136.871952 61.600285 
L 136.871952 60.22927 
L 137.525603 60.22927 
L 137.525603 58.858256 
L 148.114749 58.858256 
L 148.114749 57.487242 
L 149.944971 57.487242 
L 149.944971 56.116227 
L 171.253994 56.116227 
L 171.253994 54.745213 
L 177.790504 54.745213 
L 177.790504 53.374199 
L 198.968796 53.374199 
L 198.968796 52.003185 
L 213.741308 52.003185 
L 213.741308 50.63217 
L 219.624167 50.63217 
L 219.624167 49.261156 
L 223.938264 49.261156 
L 223.938264 47.890142 
L 230.736234 47.890142 
L 230.736234 46.519127 
L 230.997694 46.519127 
L 230.997694 45.148113 
L 240.410268 45.148113 
L 240.410268 43.777099 
L 252.175986 43.777099 
L 252.175986 42.406084 
L 258.581766 42.406084 
L 258.581766 41.03507 
L 261.45783 41.03507 
L 261.45783 39.664056 
L 268.517261 39.664056 
L 268.517261 38.293042 
L 277.799105 38.293042 
L 277.799105 36.922027 
L 280.413709 36.922027 
L 280.413709 35.551013 
L 290.218474 35.551013 
L 290.218474 34.179999 
L 298.454476 34.179999 
L 298.454476 32.808984 
L 306.298288 32.808984 
L 306.298288 32.808984 
" clip-path="url(#pd24b5fb817)" style="fill: none; stroke: #58a6ff; stroke-width: 1.5; stroke-linecap: square"/>
   </g>
   <g id="line2d_14">
    <path d="M 60.264055 194.588672 
L 306.298288 32.808984 
" clip-path="url(#pd24b5fb817)" style="fill: none; stroke-dasharray: 3.7,1.6; stroke-dashoffset: 0; stroke: #808080"/>
   </g>
   <g id="patch_3">
    <path d="M 47.962344 202.677656 
L 47.962344 24.72 
" style="fill: none; stroke: #000000; stroke-width: 0.8; stroke-linejoin: miter; stroke-linecap: square"/>
   </g>
   <g id="patch_4">
    <path d="M 318.6 202.677656 
L 318.6 24.72 
" style="fill: none; stroke: #000000; stroke-width: 0.8; stroke-linejoin: miter; stroke-linecap: square"/>
   </g>
   <g id="patch_5">
    <path d="M 47.962344 202.677656 
L 318.6 202.677656 
" style="fill: none; stroke: #000000; stroke-width: 0.8; stroke-linejoin: miter; stroke-linecap: square"/>
   </g>
   <g id="patch_6">
    <path d="M 47.962344 24.72 
L 318.6 24.72 
" style="fill: none; stroke: #000000; stroke-width: 0.8; stroke-linejoin: miter; stroke-linecap: square"/>
   </g>
   <g id="text_15">
    <!-- ROC curve -->
    <g transform="translate(156.781172 18.72) scale(0.1 -0.1)">
     <defs>
      <path id="DejaVuSans-32" d="M 2522 4238 
Q 1834 4238 1429 3725 
Q 1025 3213 1025 2328 
Q 1025 1447 1429 934 
Q 1834 422 2522 422 
Q 3209 422 3611 934 
Q 4013 1447 4013 2328 
Q 4013 3213 3611 3725 
Q 3209 4238 2522 4238 
z
M 2522 4750 
Q 3503 4750 4090 4092 
Q 4678 3434 4678 2328 
Q 4678 1225 4090 567 
Q 3503 -91 2522 -91 
Q 1538 -91 948 565 
Q 359 1222 359 2328 
Q 359 3434 948 4092 
Q 1538 4750 2522 4750 
z
" transform="scale(0.015625)"/>
      <path id="DejaVuSans-26" d="M 4122 4306 
L 4122 3641 
Q 3803 3938 3442 4084 
Q 3081 4231 2675 4231 
Q 1875 4231 1450 3742 
Q 1025 3253 1025 2328 
Q 1025 1406 1450 917 
Q 1875 428 2675 428 
Q 3081 428 3442 575 
Q 3803 722 4122 1019 
L 4122 359 
Q 3791 134 3420 21 
Q 3050 -91 2638 -91 
Q 1578 -91 968 557 
Q 359 1206 359 2328 
Q 359 3453 968 4101 
Q 1578 4750 2638 4750 
Q 3056 4750 3426 4639 
Q 3797 4528 4122 4306 
z
" transform="scale(0.015625)"/>
     </defs>
     <use xlink:href="#DejaVuSans-35"/>
     <use xlink:href="#DejaVuSans-32" transform="translate(69.484375 0)"/>
     <use xlink:href="#DejaVuSans-26" transform="translate(148.203125 0)"/>
     <use xlink:href="#DejaVuSans-3" transform="translate(218.03125 0)"/>
     <use xlink:href="#DejaVuSans-46" transform="translate(249.8125 0)"/>
     <use xlink:href="#DejaVuSans-58" transform="translate(304.796875 0)"/>
     <use xlink:href="#DejaVuSans-55" transform="translate(368.171875 0)"/>
     <use xlink:href="#DejaVuSans-59" transform="translate(409.28125 0)"/>
     <use xlink:href="#DejaVuSans-48" transform="translate(468.46875 0)"/>
    </g>
   </g>
   <g id="legend_1">
    <g id="patch_7">
     <path d="M 53.562344 55.12125 
L 165.489844 55.12125 
Q 167.089844 55.12125 167.089844 53.52125 
L 167.089844 30.32 
Q 167.089844 28.72 165.489844 28.72 
L 53.562344 28.72 
Q 51.962344 28.72 51.962344 30.32 
L 51.962344 53.52125 
Q 51.962344 55.12125 53.562344 55.12125 
z
" style="fill: #ffffff; opacity: 0.8; stroke: #cccccc; stroke-linejoin: miter"/>
    </g>
    <g id="line2d_15">
     <path d="M 55.162344 35.19875 
L 63.162344 35.19875 
L 71.162344 35.19875 
" style="fill: none; stroke: #58a6ff; stroke-width: 1.5; stroke-linecap: square"/>
    </g>
    <g id="text_16">
     <!-- model (AUC = 0.83) -->
     <g transform="translate(77.562344 37.99875) scale(0.08 -0.08)">
      <defs>
       <path id="DejaVuSans-50" d="M 3328 2828 
Q 3544 3216 3844 3400 
Q 4144 3584 4550 3584 
Q 5097 3584 5394 3201 
Q 5691 2819 5691 2113 
L 5691 0 
L 5113 0 
L 5113 2094 
Q 5113 2597 4934 2840 
Q 4756 3084 4391 3084 
Q 3944 3084 3684 2787 
Q 3425 2491 3425 1978 
L 3425 0 
L 2847 0 
L 2847 2094 
Q 2847 2600 2669 2842 
Q 2491 3084 2119 3084 
Q 1678 3084 1418 2786 
Q 1159 2488 1159 1978 
L 1159 0 
L 581 0 
L 581 3500 
L 1159 3500 
L 1159 2956 
Q 1356 3278 1631 3431 
Q 1906 3584 2284 3584 
Q 2666 3584 2933 3390 
Q 3200 3197 3328 2828 
z
" transform="scale(0.015625)"/>
       <path id="DejaVuSans-47" d="M 2906 2969 
L 2906 4863 
L 3481 4863 
L 3481 0 
L 2906 0 
L 2906 525 
Q 2725 213 2448 61 
Q 2172 -91 1784 -91 
Q 1150 -91 751 415 
Q 353 922 353 1747 
Q 353 2572 751 3078 
Q 1150 3584 1784 3584 
Q 2172 3584 2448 3432 
Q 2725 3281 2906 2969 
z
M 947 1747 
Q 947 1113 1208 752 
Q 1469 391 1925 391 
Q 2381 391 2643 752 
Q 2906 1113 2906 1747 
Q 2906 2381 2643 2742 
Q 2381 3103 1925 3103 
Q 1469 3103 1208 2742 
Q 947 2381 947 1747 
z
" transform="scale(0.015625)"/>
       <path id="DejaVuSans-24" d="M 2188 4044 
L 1331 1722 
L 3047 1722 
L 2188 4044 
z
M 1831 4666 
L 2547 4666 
L 4325 0 
L 3669 0 
L 3244 1197 
L 1141 1197 
L 716 0 
L 50 0 
L 1831 4666 
z
" transform="scale(0.015625)"/>
       <path id="DejaVuSans-38" d="M 556 4666 
L 1191 4666 
L 1191 1831 
Q 1191 1081 1462 751 
Q 1734 422 2344 422 
Q 2950 422 3222 751 
Q 3494 1081 3494 1831 
L 3494 4666 
L 4128 4666 
L 4128 1753 
Q 4128 841 3676 375 
Q 3225 -91 2344 -91 
Q 1459 -91 1007 375 
Q 556 841 556 1753 
L 556 4666 
z
" transform="scale(0.015625)"/>
       <path id="DejaVuSans-20" d="M 678 2906 
L 4684 2906 
L 4684 2381 
L 678 2381 
L 678 2906 
z
M 678 1631 
L 4684 1631 
L 4684 1100 
L 678 1100 
L 678 1631 
z
" transform="scale(0.015625)"/>
       <path id="DejaVuSans-16" d="M 2597 2516 
Q 3050 2419 3304 2112 
Q 3559 1806 3559 1356 
Q 3559 666 3084 287 
Q 2609 -91 1734 -91 
Q 1441 -91 1130 -33 
Q 819 25 488 141 
L 488 750 
Q 750 597 1062 519 
Q 1375 441 1716 441 
Q 2309 441 2620 675 
Q 2931 909 2931 1356 
Q 2931 1769 2642 2001 
Q 2353 2234 1838 2234 
L 1294 2234 
L 1294 2753 
L 1863 2753 
Q 2328 2753 2575 2939 
Q 2822 3125 2822 3475 
Q 2822 3834 2567 4026 
Q 2313 4219 1838 4219 
Q 1578 4219 1281 4162 
Q 984 4106 628 3988 
L 628 4550 
Q 988 4650 1302 4700 
Q 1616 4750 1894 4750 
Q 2613 4750 3031 4423 
Q 3450 4097 3450 3541 
Q 3450 3153 3228 2886 
Q 3006 2619 2597 2516 
z
" transform="scale(0.015625)"/>
      </defs>
      <use xlink:href="#DejaVuSans-50"/>
      <use xlink:href="#DejaVuSans-52" transform="translate(97.40625 0)"/>
      <use xlink:href="#DejaVuSans-47" transform="translate(158.59375 0)"/>
      <use xlink:href="#DejaVuSans-48" transform="translate(222.078125 0)"/>
      <use xlink:href="#DejaVuSans-4f" transform="translate(283.609375 0)"/>
      <use xlink:href="#DejaVuSans-3" transform="translate(311.390625 0)"/>
      <use xlink:href="#DejaVuSans-b" transform="translate(343.171875 0)"/>
      <use xlink:href="#DejaVuSans-24" transform="translate(382.1875 0)"/>
      <use xlink:href="#DejaVuSans-38" transform="translate(450.59375 0)"/>
      <use xlink:href="#DejaVuSans-26" transform="translate(523.78125 0)"/>
      <use xlink:href="#DejaVuSans-3" transform="translate(593.609375 0)"/>
      <use xlink:href="#DejaVuSans-20" transform="translate(625.390625 0)"/>
      <use xlink:href="#DejaVuSans-3" transform="translate(709.1875 0)"/>
      <use xlink:href="#DejaVuSans-13" transform="translate(740.96875 0)"/>
      <use xlink:href="#DejaVuSans-11" transform="translate(804.59375 0)"/>
      <use xlink:href="#DejaVuSans-1b" transform="translate(836.375 0)"/>
      <use xlink:href="#DejaVuSans-16" transform="translate(900 0)"/>
      <use xlink:href="#DejaVuSans-c" transform="translate(963.625 0)"/>
     </g>
    </g>
    <g id="line2d_16">
     <path d="M 55.162344 47.199375 
L 63.162344 47.199375 
L 71.162344 47.199375 
" style="fill: none; stroke-dasharray: 3.7,1.6; stroke-dashoffset: 0; stroke: #808080"/>
    </g>
    <g id="text_17">
     <!-- random (AUC = 0.50) -->
     <g transform="translate(77.562344 49.999375) scale(0.08 -0.08)">
      <defs>
       <path id="DejaVuSans-51" d="M 3513 2113 
L 3513 0 
L 2938 0 
L 2938 2094 
Q 2938 2591 2744 2837 
Q 2550 3084 2163 3084 
Q 1697 3084 1428 2787 
Q 1159 2491 1159 1978 
L 1159 0 
L 581 0 
L 581 3500 
L 1159 3500 
L 1159 2956 
Q 1366 3272 1645 3428 
Q 1925 3584 2291 3584 
Q 2894 3584 3203 3211 
Q 3513 2838 3513 2113 
z
" transform="scale(0.015625)"/>
       <path id="DejaVuSans-18" d="M 691 4666 
L 3169 4666 
L 3169 4134 
L 1269 4134 
L 1269 2991 
Q 1406 3038 1543 3061 
Q 1681 3084 1819 3084 
Q 2600 3084 3056 2656 
Q 3513 2228 3513 1497 
Q 3513 744 3044 326 
Q 2575 -91 1722 -91 
Q 1428 -91 1123 -41 
Q 819 9 494 109 
L 494 744 
Q 775 591 1075 516 
Q 1375 441 1709 441 
Q 2250 441 2565 725 
Q 2881 1009 2881 1497 
Q 2881 1984 2565 2268 
Q 2250 2553 1709 2553 
Q 1456 2553 1204 2497 
Q 953 2441 691 2322 
L 691 4666 
z
" transform="scale(0.015625)"/>
      </defs>
      <use xlink:href="#DejaVuSans-55"/>
      <use xlink:href="#DejaVuSans-44" transform="translate(41.109375 0)"/>
      <use xlink:href="#DejaVuSans-51" transform="translate(102.390625 0)"/>
      <use xlink:href="#DejaVuSans-47" transform="translate(165.765625 0)"/>
      <use xlink:href="#DejaVuSans-52" transform="translate(229.25 0)"/>
      <use xlink:href="#DejaVuSans-50" transform="translate(290.4375 0)"/>
      <use xlink:href="#DejaVuSans-3" transform="translate(387.84375 0)"/>
      <use xlink:href="#DejaVuSans-b" transform="translate(419.625 0)"/>
      <use xlink:href="#DejaVuSans-24" transform="translate(458.640625 0)"/>
      <use xlink:href="#DejaVuSans-38" transform="translate(527.046875 0)"/>
      <use xlink:href="#DejaVuSans-26" transform="translate(600.234375 0)"/>
      <use xlink:href="#DejaVuSans-3" transform="translate(670.0625 0)"/>
      <use xlink:href="#DejaVuSans-20" transform="translate(701.84375 0)"/>
      <use xlink:href="#DejaVuSans-3" transform="translate(785.640625 0)"/>
      <use xlink:href="#DejaVuSans-13" transform="translate(817.421875 0)"/>
      <use xlink:href="#DejaVuSans-11" transform="translate(881.046875 0)"/>
      <use xlink:href="#DejaVuSans-18" transform="translate(912.828125 0)"/>
      <use xlink:href="#DejaVuSans-13" transform="translate(976.453125 0)"/>
      <use xlink:href="#DejaVuSans-c" transform="translate(1040.078125 0)"/>
     </g>
    </g>
   </g>
  </g>
  <g id="axes_2">
   <g id="patch_8">
    <path d="M 366.562344 202.677656 
L 637.2 202.677656 
L 637.2 24.72 
L 366.562344 24.72 
L 366.562344 202.677656 
z
" style="fill: none"/>
   </g>
   <g id="matplotlib.axis_3">
    <g id="xtick_7">
     <g id="line2d_17">
      <g>
       <use xlink:href="#ma3d3e7b7d1" x="378.864055" y="202.677656" style="stroke: #000000; stroke-width: 0.8"/>
      </g>
     </g>
     <g id="text_18">
      <!-- 0.0 -->
      <g transform="translate(370.912493 217.275312) scale(0.1 -0.1)">
       <use xlink:href="#DejaVuSans-13"/>
       <use xlink:href="#DejaVuSans-11" transform="translate(63.625 0)"/>
       <use xlink:href="#DejaVuSans-13" transform="translate(95.40625 0)"/>
      </g>
     </g>
    </g>
    <g id="xtick_8">
     <g id="line2d_18">
      <g>
       <use xlink:href="#ma3d3e7b7d1" x="428.070902" y="202.677656" style="stroke: #000000; stroke-width: 0.8"/>
      </g>
     </g>
     <g id="text_19">
      <!-- 0.2 -->
      <g transform="translate(420.119339 217.275312) scale(0.1 -0.1)">
       <use xlink:href="#DejaVuSans-13"/>
       <use xlink:href="#DejaVuSans-11" transform="translate(63.625 0)"/>
       <use xlink:href="#DejaVuSans-15" transform="translate(95.40625 0)"/>
      </g>
     </g>
    </g>
    <g id="xtick_9">
     <g id="line2d_19">
      <g>
       <use xlink:href="#ma3d3e7b7d1" x="477.277749" y="202.677656" style="stroke: #000000; stroke-width: 0.8"/>
      </g>
     </g>
     <g id="text_20">
      <!-- 0.4 -->
      <g transform="translate(469.326186 217.275312) scale(0.1 -0.1)">
       <use xlink:href="#DejaVuSans-13"/>
       <use xlink:href="#DejaVuSans-11" transform="translate(63.625 0)"/>
       <use xlink:href="#DejaVuSans-17" transform="translate(95.40625 0)"/>
      </g>
     </g>
    </g>
    <g id="xtick_10">
     <g id="line2d_20">
      <g>
       <use xlink:href="#ma3d3e7b7d1" x="526.484595" y="202.677656" style="stroke: #000000; stroke-width: 0.8"/>
      </g>
     </g>
     <g id="text_21">
      <!-- 0.6 -->
      <g transform="translate(518.533033 217.275312) scale(0.1 -0.1)">
       <use xlink:href="#DejaVuSans-13"/>
       <use xlink:href="#DejaVuSans-11" transform="translate(63.625 0)"/>
       <use xlink:href="#DejaVuSans-19" transform="translate(95.40625 0)"/>
      </g>
     </g>
    </g>
    <g id="xtick_11">
     <g id="line2d_21">
      <g>
       <use xlink:href="#ma3d3e7b7d1" x="575.691442" y="202.677656" style="stroke: #000000; stroke-width: 0.8"/>
      </g>
     </g>
     <g id="text_22">
      <!-- 0.8 -->
      <g transform="translate(567.739879 217.275312) scale(0.1 -0.1)">
       <use xlink:href="#DejaVuSans-13"/>
       <use xlink:href="#DejaVuSans-11" transform="translate(63.625 0)"/>
       <use xlink:href="#DejaVuSans-1b" transform="translate(95.40625 0)"/>
      </g>
     </g>
    </g>
    <g id="xtick_12">
     <g id="line2d_22">
      <g>
       <use xlink:href="#ma3d3e7b7d1" x="624.898288" y="202.677656" style="stroke: #000000; stroke-width: 0.8"/>
      </g>
     </g>
     <g id="text_23">
      <!-- 1.0 -->
      <g transform="translate(616.946726 217.275312) scale(0.1 -0.1)">
       <use xlink:href="#DejaVuSans-14"/>
       <use xlink:href="#DejaVuSans-11" transform="translate(63.625 0)"/>
       <use xlink:href="#DejaVuSans-13" transform="translate(95.40625 0)"/>
      </g>
     </g>
    </g>
    <g id="text_24">
     <!-- Recall -->
     <g transform="translate(486.963203 231.276094) scale(0.1 -0.1)">
      <use xlink:href="#DejaVuSans-35"/>
      <use xlink:href="#DejaVuSans-48" transform="translate(65 0)"/>
      <use xlink:href="#DejaVuSans-46" transform="translate(126.53125 0)"/>
      <use xlink:href="#DejaVuSans-44" transform="translate(181.515625 0)"/>
      <use xlink:href="#DejaVuSans-4f" transform="translate(242.796875 0)"/>
      <use xlink:href="#DejaVuSans-4f" transform="translate(270.578125 0)"/>
     </g>
    </g>
   </g>
   <g id="matplotlib.axis_4">
    <g id="ytick_7">
     <g id="line2d_23">
      <g>
       <use xlink:href="#m0a05818a40" x="366.562344" y="170.347507" style="stroke: #000000; stroke-width: 0.8"/>
      </g>
     </g>
     <g id="text_25">
      <!-- 0.2 -->
      <g transform="translate(343.659219 174.146335) scale(0.1 -0.1)">
       <use xlink:href="#DejaVuSans-13"/>
       <use xlink:href="#DejaVuSans-11" transform="translate(63.625 0)"/>
       <use xlink:href="#DejaVuSans-15" transform="translate(95.40625 0)"/>
      </g>
     </g>
    </g>
    <g id="ytick_8">
     <g id="line2d_24">
      <g>
       <use xlink:href="#m0a05818a40" x="366.562344" y="135.962877" style="stroke: #000000; stroke-width: 0.8"/>
      </g>
     </g>
     <g id="text_26">
      <!-- 0.4 -->
      <g transform="translate(343.659219 139.761705) scale(0.1 -0.1)">
       <use xlink:href="#DejaVuSans-13"/>
       <use xlink:href="#DejaVuSans-11" transform="translate(63.625 0)"/>
       <use xlink:href="#DejaVuSans-17" transform="translate(95.40625 0)"/>
      </g>
     </g>
    </g>
    <g id="ytick_9">
     <g id="line2d_25">
      <g>
       <use xlink:href="#m0a05818a40" x="366.562344" y="101.578246" style="stroke: #000000; stroke-width: 0.8"/>
      </g>
     </g>
     <g id="text_27">
      <!-- 0.6 -->
      <g transform="translate(343.659219 105.377074) scale(0.1 -0.1)">
       <use xlink:href="#DejaVuSans-13"/>
       <use xlink:href="#DejaVuSans-11" transform="translate(63.625 0)"/>
       <use xlink:href="#DejaVuSans-19" transform="translate(95.40625 0)"/>
      </g>
     </g>
    </g>
    <g id="ytick_10">
     <g id="line2d_26">
      <g>
       <use xlink:href="#m0a05818a40" x="366.562344" y="67.193615" style="stroke: #000000; stroke-width: 0.8"/>
      </g>
     </g>
     <g id="text_28">
      <!-- 0.8 -->
      <g transform="translate(343.659219 70.992443) scale(0.1 -0.1)">
       <use xlink:href="#DejaVuSans-13"/>
       <use xlink:href="#DejaVuSans-11" transform="translate(63.625 0)"/>
       <use xlink:href="#DejaVuSans-1b" transform="translate(95.40625 0)"/>
      </g>
     </g>
    </g>
    <g id="ytick_11">
     <g id="line2d_27">
      <g>
       <use xlink:href="#m0a05818a40" x="366.562344" y="32.808984" style="stroke: #000000; stroke-width: 0.8"/>
      </g>
     </g>
     <g id="text_29">
      <!-- 1.0 -->
      <g transform="translate(343.659219 36.607813) scale(0.1 -0.1)">
       <use xlink:href="#DejaVuSans-14"/>
       <use xlink:href="#DejaVuSans-11" transform="translate(63.625 0)"/>
       <use xlink:href="#DejaVuSans-13" transform="translate(95.40625 0)"/>
      </g>
     </g>
    </g>
    <g id="text_30">
     <!-- Precision -->
     <g transform="translate(337.256875 136.008203) rotate(-90) scale(0.1 -0.1)">
      <use xlink:href="#DejaVuSans-33"/>
      <use xlink:href="#DejaVuSans-55" transform="translate(58.546875 0)"/>
      <use xlink:href="#DejaVuSans-48" transform="translate(97.453125 0)"/>
      <use xlink:href="#DejaVuSans-46" transform="translate(158.984375 0)"/>
      <use xlink:href="#DejaVuSans-4c" transform="translate(213.96875 0)"/>
      <use xlink:href="#DejaVuSans-56" transform="translate(241.75 0)"/>
      <use xlink:href="#DejaVuSans-4c" transform="translate(293.84375 0)"/>
      <use xlink:href="#DejaVuSans-52" transform="translate(321.625 0)"/>
      <use xlink:href="#DejaVuSans-51" transform="translate(382.8125 0)"/>
     </g>
    </g>
   </g>
   <g id="line2d_28">
    <path d="M 624.898288 194.588672 
L 624.898288 194.274956 
L 622.813252 194.358229 
L 622.813252 194.250111 
L 622.813252 194.009852 
L 620.728217 194.095826 
L 620.728217 193.986941 
L 620.728217 193.652646 
L 618.643181 193.742053 
L 618.643181 193.63098 
L 618.643181 193.6185 
L 616.558145 193.708944 
L 616.558145 193.60253 
L 616.558145 193.250451 
L 614.473109 193.344496 
L 614.473109 193.236684 
L 614.473109 192.972261 
L 612.388073 193.069271 
L 612.388073 192.962338 
L 612.388073 192.911762 
L 610.303037 193.010105 
L 610.303037 192.901096 
L 610.303037 192.646343 
L 608.218001 192.747634 
L 608.218001 192.640356 
L 608.218001 192.022765 
L 606.132965 192.129835 
L 606.132965 192.018689 
L 606.132965 191.488588 
L 601.962894 191.694734 
L 601.962894 191.611041 
L 601.962894 191.195878 
L 599.877858 191.31251 
L 599.877858 191.202922 
L 599.877858 190.978286 
L 597.792822 191.097749 
L 597.792822 190.993986 
L 597.792822 190.61804 
L 595.707786 190.741521 
L 595.707786 190.631185 
L 595.707786 189.384492 
L 593.62275 189.519007 
L 593.62275 189.413725 
L 593.62275 187.059399 
L 591.537714 187.213495 
L 591.537714 187.107855 
L 591.537714 186.292431 
L 589.452679 186.453992 
L 589.452679 186.357282 
L 589.452679 182.668302 
L 587.367643 182.858963 
L 587.367643 182.775158 
L 587.367643 182.462299 
L 585.282607 182.656402 
L 585.282607 182.570169 
L 585.282607 180.064903 
L 583.197571 180.278627 
L 583.197571 180.171687 
L 583.197571 180.099873 
L 581.112535 180.315526 
L 581.112535 180.207806 
L 581.112535 179.075913 
L 579.027499 179.301286 
L 579.027499 179.222675 
L 579.027499 177.224433 
L 576.942463 177.465528 
L 576.942463 177.374182 
L 576.942463 174.486398 
L 574.857427 174.74925 
L 574.857427 174.637582 
L 574.857427 174.182466 
L 572.772392 174.450219 
L 572.772392 174.392758 
L 572.772392 173.984343 
L 570.687356 174.256357 
L 570.687356 174.197524 
L 570.687356 173.596449 
L 568.60232 173.874136 
L 568.60232 173.813152 
L 568.60232 173.566785 
L 566.517284 173.847739 
L 566.517284 173.78597 
L 566.517284 172.959892 
L 564.432248 173.248268 
L 564.432248 173.183353 
L 564.432248 173.11817 
L 562.347212 173.408665 
L 562.347212 173.343678 
L 562.347212 169.872144 
L 560.262176 170.188687 
L 560.262176 170.108725 
L 560.262176 167.891462 
L 558.17714 168.224999 
L 558.17714 168.134635 
L 558.17714 167.205764 
L 556.092105 167.547741 
L 556.092105 167.452883 
L 556.092105 164.585248 
L 554.007069 164.948268 
L 554.007069 164.838367 
L 554.007069 162.993569 
L 551.922033 163.370915 
L 551.922033 161.880421 
L 549.836997 162.26919 
L 549.836997 161.487664 
L 545.666925 162.281977 
L 545.666925 161.75135 
L 543.581889 162.155558 
L 543.581889 157.076246 
L 541.496853 157.513807 
L 541.496853 153.155192 
L 539.411818 153.619849 
L 539.411818 153.222088 
L 537.326782 153.692452 
L 537.326782 149.600663 
L 533.15671 150.594634 
L 533.15671 149.417732 
L 528.986638 150.440616 
L 528.986638 149.471124 
L 526.901602 149.994273 
L 526.901602 149.247847 
L 524.816566 149.779532 
L 524.816566 148.757158 
L 520.646495 149.845873 
L 520.646495 148.526492 
L 518.561459 149.085513 
L 518.561459 145.048971 
L 516.476423 145.633554 
L 516.476423 143.06405 
L 514.391387 143.666537 
L 514.391387 142.648777 
L 510.221315 143.882932 
L 510.221315 138.688487 
L 508.136279 139.338055 
L 508.136279 137.268622 
L 506.051244 137.93397 
L 506.051244 131.90358 
L 503.966208 132.596549 
L 503.966208 131.573349 
L 501.881172 132.278809 
L 501.881172 129.595352 
L 497.7111 131.050786 
L 497.7111 129.92588 
L 493.541028 131.431569 
L 493.541028 129.686317 
L 491.455993 130.461336 
L 491.455993 128.635004 
L 489.370957 129.426955 
L 489.370957 127.512416 
L 487.285921 128.321847 
L 487.285921 127.663138 
L 485.200885 128.487957 
L 485.200885 127.138502 
L 483.115849 127.98073 
L 483.115849 125.868306 
L 478.945777 127.607733 
L 478.945777 126.138696 
L 476.860741 127.036097 
L 476.860741 126.281767 
L 474.775706 127.198167 
L 474.775706 118.770561 
L 468.520598 121.668142 
L 468.520598 118.770561 
L 464.350526 120.817265 
L 464.350526 117.709307 
L 462.26549 118.770561 
L 462.26549 115.421409 
L 460.180454 116.508414 
L 460.180454 111.607096 
L 458.095419 112.716929 
L 458.095419 104.223217 
L 453.925347 106.490336 
L 453.925347 103.269293 
L 451.840311 104.443632 
L 451.840311 99.165289 
L 449.755275 100.350223 
L 449.755275 94.441813 
L 447.670239 95.62706 
L 447.670239 91.262857 
L 445.585203 92.455793 
L 445.585203 90.116702 
L 441.415132 92.608342 
L 441.415132 84.785752 
L 439.330096 86.023294 
L 439.330096 83.127956 
L 437.24506 84.38593 
L 437.24506 78.05192 
L 435.160024 79.274702 
L 435.160024 64.06774 
L 433.074988 65.044576 
L 433.074988 60.538525 
L 428.904916 62.450907 
L 428.904916 57.369435 
L 426.81988 58.279081 
L 426.81988 52.646271 
L 422.649809 54.299379 
L 422.649809 47.758824 
L 420.564773 48.438362 
L 420.564773 32.808984 
L 378.864055 32.808984 
L 378.864055 32.808984 
" clip-path="url(#p7633e616fd)" style="fill: none; stroke: #f0883e; stroke-width: 1.5; stroke-linecap: square"/>
   </g>
   <g id="line2d_29">
    <path d="M 366.562344 194.588672 
L 637.2 194.588672 
" clip-path="url(#p7633e616fd)" style="fill: none; stroke-dasharray: 3.7,1.6; stroke-dashoffset: 0; stroke: #808080"/>
   </g>
   <g id="patch_9">
    <path d="M 366.562344 202.677656 
L 366.562344 24.72 
" style="fill: none; stroke: #000000; stroke-width: 0.8; stroke-linejoin: miter; stroke-linecap: square"/>
   </g>
   <g id="patch_10">
    <path d="M 637.2 202.677656 
L 637.2 24.72 
" style="fill: none; stroke: #000000; stroke-width: 0.8; stroke-linejoin: miter; stroke-linecap: square"/>
   </g>
   <g id="patch_11">
    <path d="M 366.562344 202.677656 
L 637.2 202.677656 
" style="fill: none; stroke: #000000; stroke-width: 0.8; stroke-linejoin: miter; stroke-linecap: square"/>
   </g>
   <g id="patch_12">
    <path d="M 366.562344 24.72 
L 637.2 24.72 
" style="fill: none; stroke: #000000; stroke-width: 0.8; stroke-linejoin: miter; stroke-linecap: square"/>
   </g>
   <g id="text_31">
    <!-- Precision–Recall curve (5% positives) -->
    <g transform="translate(409.326484 18.72) scale(0.1 -0.1)">
     <defs>
      <path id="DejaVuSans-af5" d="M 313 1978 
L 2888 1978 
L 2888 1528 
L 313 1528 
L 313 1978 
z
" transform="scale(0.015625)"/>
      <path id="DejaVuSans-8" d="M 4653 2053 
Q 4381 2053 4226 1822 
Q 4072 1591 4072 1178 
Q 4072 772 4226 539 
Q 4381 306 4653 306 
Q 4919 306 5073 539 
Q 5228 772 5228 1178 
Q 5228 1588 5073 1820 
Q 4919 2053 4653 2053 
z
M 4653 2450 
Q 5147 2450 5437 2106 
Q 5728 1763 5728 1178 
Q 5728 594 5436 251 
Q 5144 -91 4653 -91 
Q 4153 -91 3862 251 
Q 3572 594 3572 1178 
Q 3572 1766 3864 2108 
Q 4156 2450 4653 2450 
z
M 1428 4353 
Q 1159 4353 1004 4120 
Q 850 3888 850 3481 
Q 850 3069 1003 2837 
Q 1156 2606 1428 2606 
Q 1700 2606 1854 2837 
Q 2009 3069 2009 3481 
Q 2009 3884 1853 4118 
Q 1697 4353 1428 4353 
z
M 4250 4750 
L 4750 4750 
L 1831 -91 
L 1331 -91 
L 4250 4750 
z
M 1428 4750 
Q 1922 4750 2215 4408 
Q 2509 4066 2509 3481 
Q 2509 2891 2217 2550 
Q 1925 2209 1428 2209 
Q 931 2209 642 2551 
Q 353 2894 353 3481 
Q 353 4063 643 4406 
Q 934 4750 1428 4750 
z
" transform="scale(0.015625)"/>
      <path id="DejaVuSans-53" d="M 1159 525 
L 1159 -1331 
L 581 -1331 
L 581 3500 
L 1159 3500 
L 1159 2969 
Q 1341 3281 1617 3432 
Q 1894 3584 2278 3584 
Q 2916 3584 3314 3078 
Q 3713 2572 3713 1747 
Q 3713 922 3314 415 
Q 2916 -91 2278 -91 
Q 1894 -91 1617 61 
Q 1341 213 1159 525 
z
M 3116 1747 
Q 3116 2381 2855 2742 
Q 2594 3103 2138 3103 
Q 1681 3103 1420 2742 
Q 1159 2381 1159 1747 
Q 1159 1113 1420 752 
Q 1681 391 2138 391 
Q 2594 391 2855 752 
Q 3116 1113 3116 1747 
z
" transform="scale(0.015625)"/>
     </defs>
     <use xlink:href="#DejaVuSans-33"/>
     <use xlink:href="#DejaVuSans-55" transform="translate(58.546875 0)"/>
     <use xlink:href="#DejaVuSans-48" transform="translate(97.453125 0)"/>
     <use xlink:href="#DejaVuSans-46" transform="translate(158.984375 0)"/>
     <use xlink:href="#DejaVuSans-4c" transform="translate(213.96875 0)"/>
     <use xlink:href="#DejaVuSans-56" transform="translate(241.75 0)"/>
     <use xlink:href="#DejaVuSans-4c" transform="translate(293.84375 0)"/>
     <use xlink:href="#DejaVuSans-52" transform="translate(321.625 0)"/>
     <use xlink:href="#DejaVuSans-51" transform="translate(382.8125 0)"/>
     <use xlink:href="#DejaVuSans-af5" transform="translate(446.1875 0)"/>
     <use xlink:href="#DejaVuSans-35" transform="translate(496.1875 0)"/>
     <use xlink:href="#DejaVuSans-48" transform="translate(561.1875 0)"/>
     <use xlink:href="#DejaVuSans-46" transform="translate(622.71875 0)"/>
     <use xlink:href="#DejaVuSans-44" transform="translate(677.703125 0)"/>
     <use xlink:href="#DejaVuSans-4f" transform="translate(738.984375 0)"/>
     <use xlink:href="#DejaVuSans-4f" transform="translate(766.765625 0)"/>
     <use xlink:href="#DejaVuSans-3" transform="translate(794.546875 0)"/>
     <use xlink:href="#DejaVuSans-46" transform="translate(826.328125 0)"/>
     <use xlink:href="#DejaVuSans-58" transform="translate(881.3125 0)"/>
     <use xlink:href="#DejaVuSans-55" transform="translate(944.6875 0)"/>
     <use xlink:href="#DejaVuSans-59" transform="translate(985.796875 0)"/>
     <use xlink:href="#DejaVuSans-48" transform="translate(1044.984375 0)"/>
     <use xlink:href="#DejaVuSans-3" transform="translate(1106.515625 0)"/>
     <use xlink:href="#DejaVuSans-b" transform="translate(1138.296875 0)"/>
     <use xlink:href="#DejaVuSans-18" transform="translate(1177.3125 0)"/>
     <use xlink:href="#DejaVuSans-8" transform="translate(1240.9375 0)"/>
     <use xlink:href="#DejaVuSans-3" transform="translate(1335.953125 0)"/>
     <use xlink:href="#DejaVuSans-53" transform="translate(1367.734375 0)"/>
     <use xlink:href="#DejaVuSans-52" transform="translate(1431.21875 0)"/>
     <use xlink:href="#DejaVuSans-56" transform="translate(1492.40625 0)"/>
     <use xlink:href="#DejaVuSans-4c" transform="translate(1544.5 0)"/>
     <use xlink:href="#DejaVuSans-57" transform="translate(1572.28125 0)"/>
     <use xlink:href="#DejaVuSans-4c" transform="translate(1611.484375 0)"/>
     <use xlink:href="#DejaVuSans-59" transform="translate(1639.265625 0)"/>
     <use xlink:href="#DejaVuSans-48" transform="translate(1698.453125 0)"/>
     <use xlink:href="#DejaVuSans-56" transform="translate(1759.984375 0)"/>
     <use xlink:href="#DejaVuSans-c" transform="translate(1812.078125 0)"/>
    </g>
   </g>
   <g id="legend_2">
    <g id="patch_13">
     <path d="M 492.29875 55.12125 
L 631.6 55.12125 
Q 633.2 55.12125 633.2 53.52125 
L 633.2 30.32 
Q 633.2 28.72 631.6 28.72 
L 492.29875 28.72 
Q 490.69875 28.72 490.69875 30.32 
L 490.69875 53.52125 
Q 490.69875 55.12125 492.29875 55.12125 
z
" style="fill: #ffffff; opacity: 0.8; stroke: #cccccc; stroke-linejoin: miter"/>
    </g>
    <g id="line2d_30">
     <path d="M 493.89875 35.19875 
L 501.89875 35.19875 
L 509.89875 35.19875 
" style="fill: none; stroke: #f0883e; stroke-width: 1.5; stroke-linecap: square"/>
    </g>
    <g id="text_32">
     <!-- model (AP = 0.47) -->
     <g transform="translate(516.29875 37.99875) scale(0.08 -0.08)">
      <defs>
       <path id="DejaVuSans-1a" d="M 525 4666 
L 3525 4666 
L 3525 4397 
L 1831 0 
L 1172 0 
L 2766 4134 
L 525 4134 
L 525 4666 
z
" transform="scale(0.015625)"/>
      </defs>
      <use xlink:href="#DejaVuSans-50"/>
      <use xlink:href="#DejaVuSans-52" transform="translate(97.40625 0)"/>
      <use xlink:href="#DejaVuSans-47" transform="translate(158.59375 0)"/>
      <use xlink:href="#DejaVuSans-48" transform="translate(222.078125 0)"/>
      <use xlink:href="#DejaVuSans-4f" transform="translate(283.609375 0)"/>
      <use xlink:href="#DejaVuSans-3" transform="translate(311.390625 0)"/>
      <use xlink:href="#DejaVuSans-b" transform="translate(343.171875 0)"/>
      <use xlink:href="#DejaVuSans-24" transform="translate(382.1875 0)"/>
      <use xlink:href="#DejaVuSans-33" transform="translate(450.59375 0)"/>
      <use xlink:href="#DejaVuSans-3" transform="translate(510.890625 0)"/>
      <use xlink:href="#DejaVuSans-20" transform="translate(542.671875 0)"/>
      <use xlink:href="#DejaVuSans-3" transform="translate(626.46875 0)"/>
      <use xlink:href="#DejaVuSans-13" transform="translate(658.25 0)"/>
      <use xlink:href="#DejaVuSans-11" transform="translate(721.875 0)"/>
      <use xlink:href="#DejaVuSans-17" transform="translate(753.65625 0)"/>
      <use xlink:href="#DejaVuSans-1a" transform="translate(817.28125 0)"/>
      <use xlink:href="#DejaVuSans-c" transform="translate(880.90625 0)"/>
     </g>
    </g>
    <g id="line2d_31">
     <path d="M 493.89875 47.199375 
L 501.89875 47.199375 
L 509.89875 47.199375 
" style="fill: none; stroke-dasharray: 3.7,1.6; stroke-dashoffset: 0; stroke: #808080"/>
    </g>
    <g id="text_33">
     <!-- random (prevalence = 0.06) -->
     <g transform="translate(516.29875 49.999375) scale(0.08 -0.08)">
      <use xlink:href="#DejaVuSans-55"/>
      <use xlink:href="#DejaVuSans-44" transform="translate(41.109375 0)"/>
      <use xlink:href="#DejaVuSans-51" transform="translate(102.390625 0)"/>
      <use xlink:href="#DejaVuSans-47" transform="translate(165.765625 0)"/>
      <use xlink:href="#DejaVuSans-52" transform="translate(229.25 0)"/>
      <use xlink:href="#DejaVuSans-50" transform="translate(290.4375 0)"/>
      <use xlink:href="#DejaVuSans-3" transform="translate(387.84375 0)"/>
      <use xlink:href="#DejaVuSans-b" transform="translate(419.625 0)"/>
      <use xlink:href="#DejaVuSans-53" transform="translate(458.640625 0)"/>
      <use xlink:href="#DejaVuSans-55" transform="translate(522.125 0)"/>
      <use xlink:href="#DejaVuSans-48" transform="translate(561.03125 0)"/>
      <use xlink:href="#DejaVuSans-59" transform="translate(622.5625 0)"/>
      <use xlink:href="#DejaVuSans-44" transform="translate(681.75 0)"/>
      <use xlink:href="#DejaVuSans-4f" transform="translate(743.03125 0)"/>
      <use xlink:href="#DejaVuSans-48" transform="translate(770.8125 0)"/>
      <use xlink:href="#DejaVuSans-51" transform="translate(832.34375 0)"/>
      <use xlink:href="#DejaVuSans-46" transform="translate(895.71875 0)"/>
      <use xlink:href="#DejaVuSans-48" transform="translate(950.703125 0)"/>
      <use xlink:href="#DejaVuSans-3" transform="translate(1012.234375 0)"/>
      <use xlink:href="#DejaVuSans-20" transform="translate(1044.015625 0)"/>
      <use xlink:href="#DejaVuSans-3" transform="translate(1127.8125 0)"/>
      <use xlink:href="#DejaVuSans-13" transform="translate(1159.59375 0)"/>
      <use xlink:href="#DejaVuSans-11" transform="translate(1223.21875 0)"/>
      <use xlink:href="#DejaVuSans-13" transform="translate(1255 0)"/>
      <use xlink:href="#DejaVuSans-19" transform="translate(1318.625 0)"/>
      <use xlink:href="#DejaVuSans-c" transform="translate(1382.25 0)"/>
     </g>
    </g>
   </g>
  </g>
 </g>
 <defs>
  <clipPath id="pd24b5fb817">
   <rect x="47.962344" y="24.72" width="270.637656" height="177.957656"/>
  </clipPath>
  <clipPath id="p7633e616fd">
   <rect x="366.562344" y="24.72" width="270.637656" height="177.957656"/>
  </clipPath>
 </defs>
</svg>

