<?xml version="1.0" encoding="utf-8" standalone="no"?>
<!DOCTYPE svg PUBLIC "-//W3C//DTD SVG 1.1//EN"
  "http://www.w3.org/Graphics/SVG/1.1/DTD/svg11.dtd">
<svg xmlns:xlink="http://www.w3.org/1999/xlink" width="720pt" height="208.8pt" viewBox="0 0 720 208.8" xmlns="http://www.w3.org/2000/svg" version="1.1">
 <metadata>
  <rdf:RDF xmlns:dc="http://purl.org/dc/elements/1.1/" xmlns:cc="http://creativecommons.org/ns#" xmlns:rdf="http://www.w3.org/1999/02/22-rdf-syntax-ns#">
   <cc:Work>
    <dc:type rdf:resource="http://purl.org/dc/dcmitype/StillImage"/>
    <dc:date>2026-07-04T22:08:04.468016</dc:date>
    <dc:format>image/svg+xml</dc:format>
    <dc:creator>
     <cc:Agent>
      <dc:title>Matplotlib v3.11.0, https://matplotlib.org/</dc:title>
     </cc:Agent>
    </dc:creator>
   </cc:Work>
  </rdf:RDF>
 </metadata>
 <defs>
  <style type="text/css">*{stroke-linejoin: round; stroke-linecap: butt}</style>
 </defs>
 <g id="figure_1">
  <g id="patch_1">
   <path d="M 0 208.8 
L 720 208.8 
L 720 0 
L 0 0 
L 0 208.8 
z
" style="fill: none"/>
  </g>
  <g id="axes_1">
   <g id="patch_2">
    <path d="M 34.36 184 
L 249.773333 184 
L 249.773333 24.72 
L 34.36 24.72 
L 34.36 184 
z
" style="fill: none"/>
   </g>
   <g id="PathCollection_1">
    <defs>
     <path id="mc26272680c" d="M 0 1.732051 
C 0.459345 1.732051 0.899939 1.549551 1.224745 1.224745 
C 1.549551 0.899939 1.732051 0.459345 1.732051 0 
C 1.732051 -0.459345 1.549551 -0.899939 1.224745 -1.224745 
C 0.899939 -1.549551 0.459345 -1.732051 0 -1.732051 
C -0.459345 -1.732051 -0.899939 -1.549551 -1.224745 -1.224745 
C -1.549551 -0.899939 -1.732051 -0.459345 -1.732051 0 
C -1.732051 0.459345 -1.549551 0.899939 -1.224745 1.224745 
C -0.899939 1.549551 -0.459345 1.732051 0 1.732051 
z
" style="stroke: #f0883e"/>
    </defs>
    <g clip-path="url(#p4acf6364b5)">
     <use xlink:href="#mc26272680c" x="49.548425" y="117.63149" style="fill: #f0883e; stroke: #f0883e"/>
     <use xlink:href="#mc26272680c" x="70.400941" y="73.281703" style="fill: #f0883e; stroke: #f0883e"/>
     <use xlink:href="#mc26272680c" x="72.382336" y="74.213602" style="fill: #f0883e; stroke: #f0883e"/>
     <use xlink:href="#mc26272680c" x="83.994217" y="59.631019" style="fill: #f0883e; stroke: #f0883e"/>
     <use xlink:href="#mc26272680c" x="95.520416" y="57.844083" style="fill: #f0883e; stroke: #f0883e"/>
     <use xlink:href="#mc26272680c" x="99.064047" y="37.495033" style="fill: #f0883e; stroke: #f0883e"/>
     <use xlink:href="#mc26272680c" x="103.52625" y="74.864131" style="fill: #f0883e; stroke: #f0883e"/>
     <use xlink:href="#mc26272680c" x="105.217563" y="67.589432" style="fill: #f0883e; stroke: #f0883e"/>
     <use xlink:href="#mc26272680c" x="108.722977" y="42.957099" style="fill: #f0883e; stroke: #f0883e"/>
     <use xlink:href="#mc26272680c" x="123.093253" y="71.905566" style="fill: #f0883e; stroke: #f0883e"/>
     <use xlink:href="#mc26272680c" x="124.285106" y="73.130746" style="fill: #f0883e; stroke: #f0883e"/>
     <use xlink:href="#mc26272680c" x="127.051662" y="89.54551" style="fill: #f0883e; stroke: #f0883e"/>
     <use xlink:href="#mc26272680c" x="132.960144" y="109.845292" style="fill: #f0883e; stroke: #f0883e"/>
     <use xlink:href="#mc26272680c" x="139.166611" y="98.396741" style="fill: #f0883e; stroke: #f0883e"/>
     <use xlink:href="#mc26272680c" x="144.381699" y="106.437527" style="fill: #f0883e; stroke: #f0883e"/>
     <use xlink:href="#mc26272680c" x="149.536283" y="128.43835" style="fill: #f0883e; stroke: #f0883e"/>
     <use xlink:href="#mc26272680c" x="151.778614" y="125.482062" style="fill: #f0883e; stroke: #f0883e"/>
     <use xlink:href="#mc26272680c" x="191.095656" y="149.401211" style="fill: #f0883e; stroke: #f0883e"/>
     <use xlink:href="#mc26272680c" x="191.712216" y="159.043669" style="fill: #f0883e; stroke: #f0883e"/>
     <use xlink:href="#mc26272680c" x="198.549747" y="148.40794" style="fill: #f0883e; stroke: #f0883e"/>
     <use xlink:href="#mc26272680c" x="206.240765" y="142.379185" style="fill: #f0883e; stroke: #f0883e"/>
     <use xlink:href="#mc26272680c" x="229.925824" y="117.995238" style="fill: #f0883e; stroke: #f0883e"/>
     <use xlink:href="#mc26272680c" x="230.281109" y="123.509779" style="fill: #f0883e; stroke: #f0883e"/>
     <use xlink:href="#mc26272680c" x="232.473135" y="108.348824" style="fill: #f0883e; stroke: #f0883e"/>
     <use xlink:href="#mc26272680c" x="236.209578" y="99.844621" style="fill: #f0883e; stroke: #f0883e"/>
    </g>
   </g>
   <g id="matplotlib.axis_1">
    <g id="xtick_1">
     <g id="line2d_1">
      <defs>
       <path id="m114298f6f4" d="M 0 0 
L 0 3.5 
" style="stroke: #000000; stroke-width: 0.8"/>
      </defs>
      <g>
       <use xlink:href="#m114298f6f4" x="44.151515" y="184" style="stroke: #000000; stroke-width: 0.8"/>
      </g>
     </g>
     <g id="text_1">
      <!-- 0.0 -->
      <g transform="translate(38.585421 196.318359) scale(0.07 -0.07)">
       <defs>
        <path id="DejaVuSans-13" d="M 2034 4250 
Q 1547 4250 1301 3770 
Q 1056 3291 1056 2328 
Q 1056 1369 1301 889 
Q 1547 409 2034 409 
Q 2525 409 2770 889 
Q 3016 1369 3016 2328 
Q 3016 3291 2770 3770 
Q 2525 4250 2034 4250 
z
M 2034 4750 
Q 2819 4750 3233 4129 
Q 3647 3509 3647 2328 
Q 3647 1150 3233 529 
Q 2819 -91 2034 -91 
Q 1250 -91 836 529 
Q 422 1150 422 2328 
Q 422 3509 836 4129 
Q 1250 4750 2034 4750 
z
" transform="scale(0.015625)"/>
        <path id="DejaVuSans-11" d="M 684 794 
L 1344 794 
L 1344 0 
L 684 0 
L 684 794 
z
" transform="scale(0.015625)"/>
       </defs>
       <use xlink:href="#DejaVuSans-13"/>
       <use xlink:href="#DejaVuSans-11" transform="translate(63.625 0)"/>
       <use xlink:href="#DejaVuSans-13" transform="translate(95.40625 0)"/>
      </g>
     </g>
    </g>
    <g id="xtick_2">
     <g id="line2d_2">
      <g>
       <use xlink:href="#m114298f6f4" x="83.317576" y="184" style="stroke: #000000; stroke-width: 0.8"/>
      </g>
     </g>
     <g id="text_2">
      <!-- 0.2 -->
      <g transform="translate(77.751482 196.318359) scale(0.07 -0.07)">
       <defs>
        <path id="DejaVuSans-15" d="M 1228 531 
L 3431 531 
L 3431 0 
L 469 0 
L 469 531 
Q 828 903 1448 1529 
Q 2069 2156 2228 2338 
Q 2531 2678 2651 2914 
Q 2772 3150 2772 3378 
Q 2772 3750 2511 3984 
Q 2250 4219 1831 4219 
Q 1534 4219 1204 4116 
Q 875 4013 500 3803 
L 500 4441 
Q 881 4594 1212 4672 
Q 1544 4750 1819 4750 
Q 2544 4750 2975 4387 
Q 3406 4025 3406 3419 
Q 3406 3131 3298 2873 
Q 3191 2616 2906 2266 
Q 2828 2175 2409 1742 
Q 1991 1309 1228 531 
z
" transform="scale(0.015625)"/>
       </defs>
       <use xlink:href="#DejaVuSans-13"/>
       <use xlink:href="#DejaVuSans-11" transform="translate(63.625 0)"/>
       <use xlink:href="#DejaVuSans-15" transform="translate(95.40625 0)"/>
      </g>
     </g>
    </g>
    <g id="xtick_3">
     <g id="line2d_3">
      <g>
       <use xlink:href="#m114298f6f4" x="122.483636" y="184" style="stroke: #000000; stroke-width: 0.8"/>
      </g>
     </g>
     <g id="text_3">
      <!-- 0.4 -->
      <g transform="translate(116.917543 196.318359) scale(0.07 -0.07)">
       <defs>
        <path id="DejaVuSans-17" d="M 2419 4116 
L 825 1625 
L 2419 1625 
L 2419 4116 
z
M 2253 4666 
L 3047 4666 
L 3047 1625 
L 3713 1625 
L 3713 1100 
L 3047 1100 
L 3047 0 
L 2419 0 
L 2419 1100 
L 313 1100 
L 313 1709 
L 2253 4666 
z
" transform="scale(0.015625)"/>
       </defs>
       <use xlink:href="#DejaVuSans-13"/>
       <use xlink:href="#DejaVuSans-11" transform="translate(63.625 0)"/>
       <use xlink:href="#DejaVuSans-17" transform="translate(95.40625 0)"/>
      </g>
     </g>
    </g>
    <g id="xtick_4">
     <g id="line2d_4">
      <g>
       <use xlink:href="#m114298f6f4" x="161.649697" y="184" style="stroke: #000000; stroke-width: 0.8"/>
      </g>
     </g>
     <g id="text_4">
      <!-- 0.6 -->
      <g transform="translate(156.083603 196.318359) scale(0.07 -0.07)">
       <defs>
        <path id="DejaVuSans-19" d="M 2113 2584 
Q 1688 2584 1439 2293 
Q 1191 2003 1191 1497 
Q 1191 994 1439 701 
Q 1688 409 2113 409 
Q 2538 409 2786 701 
Q 3034 994 3034 1497 
Q 3034 2003 2786 2293 
Q 2538 2584 2113 2584 
z
M 3366 4563 
L 3366 3988 
Q 3128 4100 2886 4159 
Q 2644 4219 2406 4219 
Q 1781 4219 1451 3797 
Q 1122 3375 1075 2522 
Q 1259 2794 1537 2939 
Q 1816 3084 2150 3084 
Q 2853 3084 3261 2657 
Q 3669 2231 3669 1497 
Q 3669 778 3244 343 
Q 2819 -91 2113 -91 
Q 1303 -91 875 529 
Q 447 1150 447 2328 
Q 447 3434 972 4092 
Q 1497 4750 2381 4750 
Q 2619 4750 2861 4703 
Q 3103 4656 3366 4563 
z
" transform="scale(0.015625)"/>
       </defs>
       <use xlink:href="#DejaVuSans-13"/>
       <use xlink:href="#DejaVuSans-11" transform="translate(63.625 0)"/>
       <use xlink:href="#DejaVuSans-19" transform="translate(95.40625 0)"/>
      </g>
     </g>
    </g>
    <g id="xtick_5">
     <g id="line2d_5">
      <g>
       <use xlink:href="#m114298f6f4" x="200.815758" y="184" style="stroke: #000000; stroke-width: 0.8"/>
      </g>
     </g>
     <g id="text_5">
      <!-- 0.8 -->
      <g transform="translate(195.249664 196.318359) scale(0.07 -0.07)">
       <defs>
        <path id="DejaVuSans-1b" d="M 2034 2216 
Q 1584 2216 1326 1975 
Q 1069 1734 1069 1313 
Q 1069 891 1326 650 
Q 1584 409 2034 409 
Q 2484 409 2743 651 
Q 3003 894 3003 1313 
Q 3003 1734 2745 1975 
Q 2488 2216 2034 2216 
z
M 1403 2484 
Q 997 2584 770 2862 
Q 544 3141 544 3541 
Q 544 4100 942 4425 
Q 1341 4750 2034 4750 
Q 2731 4750 3128 4425 
Q 3525 4100 3525 3541 
Q 3525 3141 3298 2862 
Q 3072 2584 2669 2484 
Q 3125 2378 3379 2068 
Q 3634 1759 3634 1313 
Q 3634 634 3220 271 
Q 2806 -91 2034 -91 
Q 1263 -91 848 271 
Q 434 634 434 1313 
Q 434 1759 690 2068 
Q 947 2378 1403 2484 
z
M 1172 3481 
Q 1172 3119 1398 2916 
Q 1625 2713 2034 2713 
Q 2441 2713 2670 2916 
Q 2900 3119 2900 3481 
Q 2900 3844 2670 4047 
Q 2441 4250 2034 4250 
Q 1625 4250 1398 4047 
Q 1172 3844 1172 3481 
z
" transform="scale(0.015625)"/>
       </defs>
       <use xlink:href="#DejaVuSans-13"/>
       <use xlink:href="#DejaVuSans-11" transform="translate(63.625 0)"/>
       <use xlink:href="#DejaVuSans-1b" transform="translate(95.40625 0)"/>
      </g>
     </g>
    </g>
    <g id="xtick_6">
     <g id="line2d_6">
      <g>
       <use xlink:href="#m114298f6f4" x="239.981818" y="184" style="stroke: #000000; stroke-width: 0.8"/>
      </g>
     </g>
     <g id="text_6">
      <!-- 1.0 -->
      <g transform="translate(234.415724 196.318359) scale(0.07 -0.07)">
       <defs>
        <path id="DejaVuSans-14" d="M 794 531 
L 1825 531 
L 1825 4091 
L 703 3866 
L 703 4441 
L 1819 4666 
L 2450 4666 
L 2450 531 
L 3481 531 
L 3481 0 
L 794 0 
L 794 531 
z
" transform="scale(0.015625)"/>
       </defs>
       <use xlink:href="#DejaVuSans-14"/>
       <use xlink:href="#DejaVuSans-11" transform="translate(63.625 0)"/>
       <use xlink:href="#DejaVuSans-13" transform="translate(95.40625 0)"/>
      </g>
     </g>
    </g>
   </g>
   <g id="matplotlib.axis_2">
    <g id="ytick_1">
     <g id="line2d_7">
      <defs>
       <path id="m7e642679a3" d="M 0 0 
L -3.5 0 
" style="stroke: #000000; stroke-width: 0.8"/>
      </defs>
      <g>
       <use xlink:href="#m7e642679a3" x="34.36" y="170.726667" style="stroke: #000000; stroke-width: 0.8"/>
      </g>
     </g>
     <g id="text_7">
      <!-- −1.5 -->
      <g transform="translate(10.362031 173.385846) scale(0.07 -0.07)">
       <defs>
        <path id="DejaVuSans-c9c" d="M 678 2272 
L 4684 2272 
L 4684 1741 
L 678 1741 
L 678 2272 
z
" transform="scale(0.015625)"/>
        <path id="DejaVuSans-18" d="M 691 4666 
L 3169 4666 
L 3169 4134 
L 1269 4134 
L 1269 2991 
Q 1406 3038 1543 3061 
Q 1681 3084 1819 3084 
Q 2600 3084 3056 2656 
Q 3513 2228 3513 1497 
Q 3513 744 3044 326 
Q 2575 -91 1722 -91 
Q 1428 -91 1123 -41 
Q 819 9 494 109 
L 494 744 
Q 775 591 1075 516 
Q 1375 441 1709 441 
Q 2250 441 2565 725 
Q 2881 1009 2881 1497 
Q 2881 1984 2565 2268 
Q 2250 2553 1709 2553 
Q 1456 2553 1204 2497 
Q 953 2441 691 2322 
L 691 4666 
z
" transform="scale(0.015625)"/>
       </defs>
       <use xlink:href="#DejaVuSans-c9c"/>
       <use xlink:href="#DejaVuSans-14" transform="translate(83.796875 0)"/>
       <use xlink:href="#DejaVuSans-11" transform="translate(147.421875 0)"/>
       <use xlink:href="#DejaVuSans-18" transform="translate(179.203125 0)"/>
      </g>
     </g>
    </g>
    <g id="ytick_2">
     <g id="line2d_8">
      <g>
       <use xlink:href="#m7e642679a3" x="34.36" y="148.604444" style="stroke: #000000; stroke-width: 0.8"/>
      </g>
     </g>
     <g id="text_8">
      <!-- −1.0 -->
      <g transform="translate(10.362031 151.263624) scale(0.07 -0.07)">
       <use xlink:href="#DejaVuSans-c9c"/>
       <use xlink:href="#DejaVuSans-14" transform="translate(83.796875 0)"/>
       <use xlink:href="#DejaVuSans-11" transform="translate(147.421875 0)"/>
       <use xlink:href="#DejaVuSans-13" transform="translate(179.203125 0)"/>
      </g>
     </g>
    </g>
    <g id="ytick_3">
     <g id="line2d_9">
      <g>
       <use xlink:href="#m7e642679a3" x="34.36" y="126.482222" style="stroke: #000000; stroke-width: 0.8"/>
      </g>
     </g>
     <g id="text_9">
      <!-- −0.5 -->
      <g transform="translate(10.362031 129.141402) scale(0.07 -0.07)">
       <use xlink:href="#DejaVuSans-c9c"/>
       <use xlink:href="#DejaVuSans-13" transform="translate(83.796875 0)"/>
       <use xlink:href="#DejaVuSans-11" transform="translate(147.421875 0)"/>
       <use xlink:href="#DejaVuSans-18" transform="translate(179.203125 0)"/>
      </g>
     </g>
    </g>
    <g id="ytick_4">
     <g id="line2d_10">
      <g>
       <use xlink:href="#m7e642679a3" x="34.36" y="104.36" style="stroke: #000000; stroke-width: 0.8"/>
      </g>
     </g>
     <g id="text_10">
      <!-- 0.0 -->
      <g transform="translate(16.227812 107.01918) scale(0.07 -0.07)">
       <use xlink:href="#DejaVuSans-13"/>
       <use xlink:href="#DejaVuSans-11" transform="translate(63.625 0)"/>
       <use xlink:href="#DejaVuSans-13" transform="translate(95.40625 0)"/>
      </g>
     </g>
    </g>
    <g id="ytick_5">
     <g id="line2d_11">
      <g>
       <use xlink:href="#m7e642679a3" x="34.36" y="82.237778" style="stroke: #000000; stroke-width: 0.8"/>
      </g>
     </g>
     <g id="text_11">
      <!-- 0.5 -->
      <g transform="translate(16.227812 84.896957) scale(0.07 -0.07)">
       <use xlink:href="#DejaVuSans-13"/>
       <use xlink:href="#DejaVuSans-11" transform="translate(63.625 0)"/>
       <use xlink:href="#DejaVuSans-18" transform="translate(95.40625 0)"/>
      </g>
     </g>
    </g>
    <g id="ytick_6">
     <g id="line2d_12">
      <g>
       <use xlink:href="#m7e642679a3" x="34.36" y="60.115556" style="stroke: #000000; stroke-width: 0.8"/>
      </g>
     </g>
     <g id="text_12">
      <!-- 1.0 -->
      <g transform="translate(16.227812 62.774735) scale(0.07 -0.07)">
       <use xlink:href="#DejaVuSans-14"/>
       <use xlink:href="#DejaVuSans-11" transform="translate(63.625 0)"/>
       <use xlink:href="#DejaVuSans-13" transform="translate(95.40625 0)"/>
      </g>
     </g>
    </g>
    <g id="ytick_7">
     <g id="line2d_13">
      <g>
       <use xlink:href="#m7e642679a3" x="34.36" y="37.993333" style="stroke: #000000; stroke-width: 0.8"/>
      </g>
     </g>
     <g id="text_13">
      <!-- 1.5 -->
      <g transform="translate(16.227812 40.652513) scale(0.07 -0.07)">
       <use xlink:href="#DejaVuSans-14"/>
       <use xlink:href="#DejaVuSans-11" transform="translate(63.625 0)"/>
       <use xlink:href="#DejaVuSans-18" transform="translate(95.40625 0)"/>
      </g>
     </g>
    </g>
   </g>
   <g id="line2d_14">
    <path d="M 44.151515 104.36 
L 53.008162 91.955839 
L 57.928521 85.433197 
L 61.864809 80.546582 
L 65.801096 76.039298 
L 68.753312 72.951222 
L 71.705528 70.144739 
L 74.657743 67.645011 
L 77.609959 65.474448 
L 80.562175 63.652511 
L 83.51439 62.195535 
L 85.482534 61.433562 
L 87.450678 60.842707 
L 89.418821 60.425324 
L 91.386965 60.183078 
L 93.355109 60.116934 
L 95.323253 60.227156 
L 97.291396 60.513304 
L 99.25954 60.974238 
L 101.227684 61.60812 
L 103.195828 62.412424 
L 105.163971 63.383944 
L 108.116187 65.146101 
L 111.068403 67.259828 
L 114.020618 69.706175 
L 116.972834 72.463208 
L 119.925049 75.506209 
L 123.861337 79.960892 
L 127.797624 84.804235 
L 132.717984 91.286941 
L 138.622415 99.480568 
L 152.399421 118.760913 
L 157.319781 125.158913 
L 161.256068 129.912103 
L 165.192356 134.258265 
L 168.144571 137.208853 
L 171.096787 139.864937 
L 174.049003 142.202704 
L 177.001218 144.201195 
L 179.953434 145.842491 
L 181.921578 146.730846 
L 183.889721 147.450297 
L 185.857865 147.997979 
L 187.826009 148.371706 
L 189.794153 148.56999 
L 191.762296 148.59204 
L 193.73044 148.437768 
L 195.698584 148.107789 
L 197.666728 147.603418 
L 199.634871 146.926667 
L 201.603015 146.080232 
L 204.555231 144.499987 
L 207.507446 142.559869 
L 210.459662 140.277273 
L 213.411878 137.672663 
L 216.364093 134.76939 
L 219.316309 131.593484 
L 223.252596 126.98438 
L 227.188884 122.014885 
L 232.109243 115.41726 
L 238.997746 105.756733 
L 239.981818 104.36 
L 239.981818 104.36 
" clip-path="url(#p4acf6364b5)" style="fill: none; stroke-dasharray: 3.7,1.6; stroke-dashoffset: 0; stroke: #808080"/>
   </g>
   <g id="line2d_15">
    <path d="M 44.151515 58.797736 
L 239.981818 136.371473 
L 239.981818 136.371473 
" clip-path="url(#p4acf6364b5)" style="fill: none; stroke: #58a6ff; stroke-width: 1.4; stroke-linecap: square"/>
   </g>
   <g id="patch_3">
    <path d="M 34.36 184 
L 34.36 24.72 
" style="fill: none; stroke: #000000; stroke-width: 0.8; stroke-linejoin: miter; stroke-linecap: square"/>
   </g>
   <g id="patch_4">
    <path d="M 249.773333 184 
L 249.773333 24.72 
" style="fill: none; stroke: #000000; stroke-width: 0.8; stroke-linejoin: miter; stroke-linecap: square"/>
   </g>
   <g id="patch_5">
    <path d="M 34.36 184 
L 249.773333 184 
" style="fill: none; stroke: #000000; stroke-width: 0.8; stroke-linejoin: miter; stroke-linecap: square"/>
   </g>
   <g id="patch_6">
    <path d="M 34.36 24.72 
L 249.773333 24.72 
" style="fill: none; stroke: #000000; stroke-width: 0.8; stroke-linejoin: miter; stroke-linecap: square"/>
   </g>
   <g id="text_14">
    <!-- Degree 1 — underfit -->
    <g transform="translate(96.255964 18.72) scale(0.09 -0.09)">
     <defs>
      <path id="DejaVuSans-27" d="M 1259 4147 
L 1259 519 
L 2022 519 
Q 2988 519 3436 956 
Q 3884 1394 3884 2338 
Q 3884 3275 3436 3711 
Q 2988 4147 2022 4147 
L 1259 4147 
z
M 628 4666 
L 1925 4666 
Q 3281 4666 3915 4102 
Q 4550 3538 4550 2338 
Q 4550 1131 3912 565 
Q 3275 0 1925 0 
L 628 0 
L 628 4666 
z
" transform="scale(0.015625)"/>
      <path id="DejaVuSans-48" d="M 3597 1894 
L 3597 1613 
L 953 1613 
Q 991 1019 1311 708 
Q 1631 397 2203 397 
Q 2534 397 2845 478 
Q 3156 559 3463 722 
L 3463 178 
Q 3153 47 2828 -22 
Q 2503 -91 2169 -91 
Q 1331 -91 842 396 
Q 353 884 353 1716 
Q 353 2575 817 3079 
Q 1281 3584 2069 3584 
Q 2775 3584 3186 3129 
Q 3597 2675 3597 1894 
z
M 3022 2063 
Q 3016 2534 2758 2815 
Q 2500 3097 2075 3097 
Q 1594 3097 1305 2825 
Q 1016 2553 972 2059 
L 3022 2063 
z
" transform="scale(0.015625)"/>
      <path id="DejaVuSans-4a" d="M 2906 1791 
Q 2906 2416 2648 2759 
Q 2391 3103 1925 3103 
Q 1463 3103 1205 2759 
Q 947 2416 947 1791 
Q 947 1169 1205 825 
Q 1463 481 1925 481 
Q 2391 481 2648 825 
Q 2906 1169 2906 1791 
z
M 3481 434 
Q 3481 -459 3084 -895 
Q 2688 -1331 1869 -1331 
Q 1566 -1331 1297 -1286 
Q 1028 -1241 775 -1147 
L 775 -588 
Q 1028 -725 1275 -790 
Q 1522 -856 1778 -856 
Q 2344 -856 2625 -561 
Q 2906 -266 2906 331 
L 2906 616 
Q 2728 306 2450 153 
Q 2172 0 1784 0 
Q 1141 0 747 490 
Q 353 981 353 1791 
Q 353 2603 747 3093 
Q 1141 3584 1784 3584 
Q 2172 3584 2450 3431 
Q 2728 3278 2906 2969 
L 2906 3500 
L 3481 3500 
L 3481 434 
z
" transform="scale(0.015625)"/>
      <path id="DejaVuSans-55" d="M 2631 2963 
Q 2534 3019 2420 3045 
Q 2306 3072 2169 3072 
Q 1681 3072 1420 2755 
Q 1159 2438 1159 1844 
L 1159 0 
L 581 0 
L 581 3500 
L 1159 3500 
L 1159 2956 
Q 1341 3275 1631 3429 
Q 1922 3584 2338 3584 
Q 2397 3584 2469 3576 
Q 2541 3569 2628 3553 
L 2631 2963 
z
" transform="scale(0.015625)"/>
      <path id="DejaVuSans-3" transform="scale(0.015625)"/>
      <path id="DejaVuSans-af6" d="M 313 1978 
L 6088 1978 
L 6088 1528 
L 313 1528 
L 313 1978 
z
" transform="scale(0.015625)"/>
      <path id="DejaVuSans-58" d="M 544 1381 
L 544 3500 
L 1119 3500 
L 1119 1403 
Q 1119 906 1312 657 
Q 1506 409 1894 409 
Q 2359 409 2629 706 
Q 2900 1003 2900 1516 
L 2900 3500 
L 3475 3500 
L 3475 0 
L 2900 0 
L 2900 538 
Q 2691 219 2414 64 
Q 2138 -91 1772 -91 
Q 1169 -91 856 284 
Q 544 659 544 1381 
z
M 1991 3584 
L 1991 3584 
z
" transform="scale(0.015625)"/>
      <path id="DejaVuSans-51" d="M 3513 2113 
L 3513 0 
L 2938 0 
L 2938 2094 
Q 2938 2591 2744 2837 
Q 2550 3084 2163 3084 
Q 1697 3084 1428 2787 
Q 1159 2491 1159 1978 
L 1159 0 
L 581 0 
L 581 3500 
L 1159 3500 
L 1159 2956 
Q 1366 3272 1645 3428 
Q 1925 3584 2291 3584 
Q 2894 3584 3203 3211 
Q 3513 2838 3513 2113 
z
" transform="scale(0.015625)"/>
      <path id="DejaVuSans-47" d="M 2906 2969 
L 2906 4863 
L 3481 4863 
L 3481 0 
L 2906 0 
L 2906 525 
Q 2725 213 2448 61 
Q 2172 -91 1784 -91 
Q 1150 -91 751 415 
Q 353 922 353 1747 
Q 353 2572 751 3078 
Q 1150 3584 1784 3584 
Q 2172 3584 2448 3432 
Q 2725 3281 2906 2969 
z
M 947 1747 
Q 947 1113 1208 752 
Q 1469 391 1925 391 
Q 2381 391 2643 752 
Q 2906 1113 2906 1747 
Q 2906 2381 2643 2742 
Q 2381 3103 1925 3103 
Q 1469 3103 1208 2742 
Q 947 2381 947 1747 
z
" transform="scale(0.015625)"/>
      <path id="DejaVuSans-13af" d="M 3431 3500 
L 3431 0 
L 2853 0 
L 2853 3053 
L 1275 3053 
L 1275 0 
L 697 0 
L 697 3053 
L 147 3053 
L 147 3500 
L 697 3500 
L 697 3744 
Q 697 4316 967 4589 
Q 1238 4863 1797 4863 
L 2375 4863 
L 2375 4384 
L 1825 4384 
Q 1516 4384 1395 4259 
Q 1275 4134 1275 3809 
L 1275 3500 
L 3431 3500 
z
M 2853 4856 
L 3431 4856 
L 3431 4128 
L 2853 4128 
L 2853 4856 
z
" transform="scale(0.015625)"/>
      <path id="DejaVuSans-57" d="M 1172 4494 
L 1172 3500 
L 2356 3500 
L 2356 3053 
L 1172 3053 
L 1172 1153 
Q 1172 725 1289 603 
Q 1406 481 1766 481 
L 2356 481 
L 2356 0 
L 1766 0 
Q 1100 0 847 248 
Q 594 497 594 1153 
L 594 3053 
L 172 3053 
L 172 3500 
L 594 3500 
L 594 4494 
L 1172 4494 
z
" transform="scale(0.015625)"/>
     </defs>
     <use xlink:href="#DejaVuSans-27"/>
     <use xlink:href="#DejaVuSans-48" transform="translate(77 0)"/>
     <use xlink:href="#DejaVuSans-4a" transform="translate(138.53125 0)"/>
     <use xlink:href="#DejaVuSans-55" transform="translate(202.015625 0)"/>
     <use xlink:href="#DejaVuSans-48" transform="translate(240.921875 0)"/>
     <use xlink:href="#DejaVuSans-48" transform="translate(302.453125 0)"/>
     <use xlink:href="#DejaVuSans-3" transform="translate(363.984375 0)"/>
     <use xlink:href="#DejaVuSans-14" transform="translate(395.765625 0)"/>
     <use xlink:href="#DejaVuSans-3" transform="translate(459.390625 0)"/>
     <use xlink:href="#DejaVuSans-af6" transform="translate(491.171875 0)"/>
     <use xlink:href="#DejaVuSans-3" transform="translate(591.171875 0)"/>
     <use xlink:href="#DejaVuSans-58" transform="translate(622.953125 0)"/>
     <use xlink:href="#DejaVuSans-51" transform="translate(686.328125 0)"/>
     <use xlink:href="#DejaVuSans-47" transform="translate(749.703125 0)"/>
     <use xlink:href="#DejaVuSans-48" transform="translate(813.1875 0)"/>
     <use xlink:href="#DejaVuSans-55" transform="translate(874.71875 0)"/>
     <use xlink:href="#DejaVuSans-13af" transform="translate(915.828125 0)"/>
     <use xlink:href="#DejaVuSans-57" transform="translate(978.8125 0)"/>
    </g>
   </g>
   <g id="legend_1">
    <g id="patch_7">
     <path d="M 177.289427 51.321094 
L 244.873333 51.321094 
Q 246.273333 51.321094 246.273333 49.921094 
L 246.273333 29.62 
Q 246.273333 28.22 244.873333 28.22 
L 177.289427 28.22 
Q 175.889427 28.22 175.889427 29.62 
L 175.889427 49.921094 
Q 175.889427 51.321094 177.289427 51.321094 
z
" style="fill: #ffffff; opacity: 0.8; stroke: #cccccc; stroke-linejoin: miter"/>
    </g>
    <g id="line2d_16">
     <path d="M 178.689427 33.888906 
L 185.689427 33.888906 
L 192.689427 33.888906 
" style="fill: none; stroke-dasharray: 3.7,1.6; stroke-dashoffset: 0; stroke: #808080"/>
    </g>
    <g id="text_15">
     <!-- true function -->
     <g transform="translate(198.289427 36.338906) scale(0.07 -0.07)">
      <defs>
       <path id="DejaVuSans-49" d="M 2375 4863 
L 2375 4384 
L 1825 4384 
Q 1516 4384 1395 4259 
Q 1275 4134 1275 3809 
L 1275 3500 
L 2222 3500 
L 2222 3053 
L 1275 3053 
L 1275 0 
L 697 0 
L 697 3053 
L 147 3053 
L 147 3500 
L 697 3500 
L 697 3744 
Q 697 4328 969 4595 
Q 1241 4863 1831 4863 
L 2375 4863 
z
" transform="scale(0.015625)"/>
       <path id="DejaVuSans-46" d="M 3122 3366 
L 3122 2828 
Q 2878 2963 2633 3030 
Q 2388 3097 2138 3097 
Q 1578 3097 1268 2742 
Q 959 2388 959 1747 
Q 959 1106 1268 751 
Q 1578 397 2138 397 
Q 2388 397 2633 464 
Q 2878 531 3122 666 
L 3122 134 
Q 2881 22 2623 -34 
Q 2366 -91 2075 -91 
Q 1284 -91 818 406 
Q 353 903 353 1747 
Q 353 2603 823 3093 
Q 1294 3584 2113 3584 
Q 2378 3584 2631 3529 
Q 2884 3475 3122 3366 
z
" transform="scale(0.015625)"/>
       <path id="DejaVuSans-4c" d="M 603 3500 
L 1178 3500 
L 1178 0 
L 603 0 
L 603 3500 
z
M 603 4863 
L 1178 4863 
L 1178 4134 
L 603 4134 
L 603 4863 
z
" transform="scale(0.015625)"/>
       <path id="DejaVuSans-52" d="M 1959 3097 
Q 1497 3097 1228 2736 
Q 959 2375 959 1747 
Q 959 1119 1226 758 
Q 1494 397 1959 397 
Q 2419 397 2687 759 
Q 2956 1122 2956 1747 
Q 2956 2369 2687 2733 
Q 2419 3097 1959 3097 
z
M 1959 3584 
Q 2709 3584 3137 3096 
Q 3566 2609 3566 1747 
Q 3566 888 3137 398 
Q 2709 -91 1959 -91 
Q 1206 -91 779 398 
Q 353 888 353 1747 
Q 353 2609 779 3096 
Q 1206 3584 1959 3584 
z
" transform="scale(0.015625)"/>
      </defs>
      <use xlink:href="#DejaVuSans-57"/>
      <use xlink:href="#DejaVuSans-55" transform="translate(39.203125 0)"/>
      <use xlink:href="#DejaVuSans-58" transform="translate(80.3125 0)"/>
      <use xlink:href="#DejaVuSans-48" transform="translate(143.6875 0)"/>
      <use xlink:href="#DejaVuSans-3" transform="translate(205.21875 0)"/>
      <use xlink:href="#DejaVuSans-49" transform="translate(237 0)"/>
      <use xlink:href="#DejaVuSans-58" transform="translate(272.203125 0)"/>
      <use xlink:href="#DejaVuSans-51" transform="translate(335.578125 0)"/>
      <use xlink:href="#DejaVuSans-46" transform="translate(398.953125 0)"/>
      <use xlink:href="#DejaVuSans-57" transform="translate(453.9375 0)"/>
      <use xlink:href="#DejaVuSans-4c" transform="translate(493.140625 0)"/>
      <use xlink:href="#DejaVuSans-52" transform="translate(520.921875 0)"/>
      <use xlink:href="#DejaVuSans-51" transform="translate(582.109375 0)"/>
     </g>
    </g>
    <g id="line2d_17">
     <path d="M 178.689427 44.389453 
L 185.689427 44.389453 
L 192.689427 44.389453 
" style="fill: none; stroke: #58a6ff; stroke-width: 1.4; stroke-linecap: square"/>
    </g>
    <g id="text_16">
     <!-- model -->
     <g transform="translate(198.289427 46.839453) scale(0.07 -0.07)">
      <defs>
       <path id="DejaVuSans-50" d="M 3328 2828 
Q 3544 3216 3844 3400 
Q 4144 3584 4550 3584 
Q 5097 3584 5394 3201 
Q 5691 2819 5691 2113 
L 5691 0 
L 5113 0 
L 5113 2094 
Q 5113 2597 4934 2840 
Q 4756 3084 4391 3084 
Q 3944 3084 3684 2787 
Q 3425 2491 3425 1978 
L 3425 0 
L 2847 0 
L 2847 2094 
Q 2847 2600 2669 2842 
Q 2491 3084 2119 3084 
Q 1678 3084 1418 2786 
Q 1159 2488 1159 1978 
L 1159 0 
L 581 0 
L 581 3500 
L 1159 3500 
L 1159 2956 
Q 1356 3278 1631 3431 
Q 1906 3584 2284 3584 
Q 2666 3584 2933 3390 
Q 3200 3197 3328 2828 
z
" transform="scale(0.015625)"/>
       <path id="DejaVuSans-4f" d="M 603 4863 
L 1178 4863 
L 1178 0 
L 603 0 
L 603 4863 
z
" transform="scale(0.015625)"/>
      </defs>
      <use xlink:href="#DejaVuSans-50"/>
      <use xlink:href="#DejaVuSans-52" transform="translate(97.40625 0)"/>
      <use xlink:href="#DejaVuSans-47" transform="translate(158.59375 0)"/>
      <use xlink:href="#DejaVuSans-48" transform="translate(222.078125 0)"/>
      <use xlink:href="#DejaVuSans-4f" transform="translate(283.609375 0)"/>
     </g>
    </g>
   </g>
  </g>
  <g id="axes_2">
   <g id="patch_8">
    <path d="M 264.073333 184 
L 479.486667 184 
L 479.486667 24.72 
L 264.073333 24.72 
L 264.073333 184 
z
" style="fill: none"/>
   </g>
   <g id="PathCollection_2">
    <g clip-path="url(#p6d4e97e1e2)">
     <use xlink:href="#mc26272680c" x="279.261758" y="117.63149" style="fill: #f0883e; stroke: #f0883e"/>
     <use xlink:href="#mc26272680c" x="300.114275" y="73.281703" style="fill: #f0883e; stroke: #f0883e"/>
     <use xlink:href="#mc26272680c" x="302.095669" y="74.213602" style="fill: #f0883e; stroke: #f0883e"/>
     <use xlink:href="#mc26272680c" x="313.70755" y="59.631019" style="fill: #f0883e; stroke: #f0883e"/>
     <use xlink:href="#mc26272680c" x="325.233749" y="57.844083" style="fill: #f0883e; stroke: #f0883e"/>
     <use xlink:href="#mc26272680c" x="328.777381" y="37.495033" style="fill: #f0883e; stroke: #f0883e"/>
     <use xlink:href="#mc26272680c" x="333.239584" y="74.864131" style="fill: #f0883e; stroke: #f0883e"/>
     <use xlink:href="#mc26272680c" x="334.930896" y="67.589432" style="fill: #f0883e; stroke: #f0883e"/>
     <use xlink:href="#mc26272680c" x="338.43631" y="42.957099" style="fill: #f0883e; stroke: #f0883e"/>
     <use xlink:href="#mc26272680c" x="352.806587" y="71.905566" style="fill: #f0883e; stroke: #f0883e"/>
     <use xlink:href="#mc26272680c" x="353.998439" y="73.130746" style="fill: #f0883e; stroke: #f0883e"/>
     <use xlink:href="#mc26272680c" x="356.764995" y="89.54551" style="fill: #f0883e; stroke: #f0883e"/>
     <use xlink:href="#mc26272680c" x="362.673478" y="109.845292" style="fill: #f0883e; stroke: #f0883e"/>
     <use xlink:href="#mc26272680c" x="368.879944" y="98.396741" style="fill: #f0883e; stroke: #f0883e"/>
     <use xlink:href="#mc26272680c" x="374.095032" y="106.437527" style="fill: #f0883e; stroke: #f0883e"/>
     <use xlink:href="#mc26272680c" x="379.249617" y="128.43835" style="fill: #f0883e; stroke: #f0883e"/>
     <use xlink:href="#mc26272680c" x="381.491947" y="125.482062" style="fill: #f0883e; stroke: #f0883e"/>
     <use xlink:href="#mc26272680c" x="420.80899" y="149.401211" style="fill: #f0883e; stroke: #f0883e"/>
     <use xlink:href="#mc26272680c" x="421.425549" y="159.043669" style="fill: #f0883e; stroke: #f0883e"/>
     <use xlink:href="#mc26272680c" x="428.26308" y="148.40794" style="fill: #f0883e; stroke: #f0883e"/>
     <use xlink:href="#mc26272680c" x="435.954098" y="142.379185" style="fill: #f0883e; stroke: #f0883e"/>
     <use xlink:href="#mc26272680c" x="459.639157" y="117.995238" style="fill: #f0883e; stroke: #f0883e"/>
     <use xlink:href="#mc26272680c" x="459.994442" y="123.509779" style="fill: #f0883e; stroke: #f0883e"/>
     <use xlink:href="#mc26272680c" x="462.186468" y="108.348824" style="fill: #f0883e; stroke: #f0883e"/>
     <use xlink:href="#mc26272680c" x="465.922912" y="99.844621" style="fill: #f0883e; stroke: #f0883e"/>
    </g>
   </g>
   <g id="matplotlib.axis_3">
    <g id="xtick_7">
     <g id="line2d_18">
      <g>
       <use xlink:href="#m114298f6f4" x="273.864848" y="184" style="stroke: #000000; stroke-width: 0.8"/>
      </g>
     </g>
     <g id="text_17">
      <!-- 0.0 -->
      <g transform="translate(268.298755 196.318359) scale(0.07 -0.07)">
       <use xlink:href="#DejaVuSans-13"/>
       <use xlink:href="#DejaVuSans-11" transform="translate(63.625 0)"/>
       <use xlink:href="#DejaVuSans-13" transform="translate(95.40625 0)"/>
      </g>
     </g>
    </g>
    <g id="xtick_8">
     <g id="line2d_19">
      <g>
       <use xlink:href="#m114298f6f4" x="313.030909" y="184" style="stroke: #000000; stroke-width: 0.8"/>
      </g>
     </g>
     <g id="text_18">
      <!-- 0.2 -->
      <g transform="translate(307.464815 196.318359) scale(0.07 -0.07)">
       <use xlink:href="#DejaVuSans-13"/>
       <use xlink:href="#DejaVuSans-11" transform="translate(63.625 0)"/>
       <use xlink:href="#DejaVuSans-15" transform="translate(95.40625 0)"/>
      </g>
     </g>
    </g>
    <g id="xtick_9">
     <g id="line2d_20">
      <g>
       <use xlink:href="#m114298f6f4" x="352.19697" y="184" style="stroke: #000000; stroke-width: 0.8"/>
      </g>
     </g>
     <g id="text_19">
      <!-- 0.4 -->
      <g transform="translate(346.630876 196.318359) scale(0.07 -0.07)">
       <use xlink:href="#DejaVuSans-13"/>
       <use xlink:href="#DejaVuSans-11" transform="translate(63.625 0)"/>
       <use xlink:href="#DejaVuSans-17" transform="translate(95.40625 0)"/>
      </g>
     </g>
    </g>
    <g id="xtick_10">
     <g id="line2d_21">
      <g>
       <use xlink:href="#m114298f6f4" x="391.36303" y="184" style="stroke: #000000; stroke-width: 0.8"/>
      </g>
     </g>
     <g id="text_20">
      <!-- 0.6 -->
      <g transform="translate(385.796937 196.318359) scale(0.07 -0.07)">
       <use xlink:href="#DejaVuSans-13"/>
       <use xlink:href="#DejaVuSans-11" transform="translate(63.625 0)"/>
       <use xlink:href="#DejaVuSans-19" transform="translate(95.40625 0)"/>
      </g>
     </g>
    </g>
    <g id="xtick_11">
     <g id="line2d_22">
      <g>
       <use xlink:href="#m114298f6f4" x="430.529091" y="184" style="stroke: #000000; stroke-width: 0.8"/>
      </g>
     </g>
     <g id="text_21">
      <!-- 0.8 -->
      <g transform="translate(424.962997 196.318359) scale(0.07 -0.07)">
       <use xlink:href="#DejaVuSans-13"/>
       <use xlink:href="#DejaVuSans-11" transform="translate(63.625 0)"/>
       <use xlink:href="#DejaVuSans-1b" transform="translate(95.40625 0)"/>
      </g>
     </g>
    </g>
    <g id="xtick_12">
     <g id="line2d_23">
      <g>
       <use xlink:href="#m114298f6f4" x="469.695152" y="184" style="stroke: #000000; stroke-width: 0.8"/>
      </g>
     </g>
     <g id="text_22">
      <!-- 1.0 -->
      <g transform="translate(464.129058 196.318359) scale(0.07 -0.07)">
       <use xlink:href="#DejaVuSans-14"/>
       <use xlink:href="#DejaVuSans-11" transform="translate(63.625 0)"/>
       <use xlink:href="#DejaVuSans-13" transform="translate(95.40625 0)"/>
      </g>
     </g>
    </g>
   </g>
   <g id="matplotlib.axis_4">
    <g id="ytick_8">
     <g id="line2d_24">
      <g>
       <use xlink:href="#m7e642679a3" x="264.073333" y="170.726667" style="stroke: #000000; stroke-width: 0.8"/>
      </g>
     </g>
    </g>
    <g id="ytick_9">
     <g id="line2d_25">
      <g>
       <use xlink:href="#m7e642679a3" x="264.073333" y="148.604444" style="stroke: #000000; stroke-width: 0.8"/>
      </g>
     </g>
    </g>
    <g id="ytick_10">
     <g id="line2d_26">
      <g>
       <use xlink:href="#m7e642679a3" x="264.073333" y="126.482222" style="stroke: #000000; stroke-width: 0.8"/>
      </g>
     </g>
    </g>
    <g id="ytick_11">
     <g id="line2d_27">
      <g>
       <use xlink:href="#m7e642679a3" x="264.073333" y="104.36" style="stroke: #000000; stroke-width: 0.8"/>
      </g>
     </g>
    </g>
    <g id="ytick_12">
     <g id="line2d_28">
      <g>
       <use xlink:href="#m7e642679a3" x="264.073333" y="82.237778" style="stroke: #000000; stroke-width: 0.8"/>
      </g>
     </g>
    </g>
    <g id="ytick_13">
     <g id="line2d_29">
      <g>
       <use xlink:href="#m7e642679a3" x="264.073333" y="60.115556" style="stroke: #000000; stroke-width: 0.8"/>
      </g>
     </g>
    </g>
    <g id="ytick_14">
     <g id="line2d_30">
      <g>
       <use xlink:href="#m7e642679a3" x="264.073333" y="37.993333" style="stroke: #000000; stroke-width: 0.8"/>
      </g>
     </g>
    </g>
   </g>
   <g id="line2d_31">
    <path d="M 273.864848 104.36 
L 282.721495 91.955839 
L 287.641855 85.433197 
L 291.578142 80.546582 
L 295.51443 76.039298 
L 298.466645 72.951222 
L 301.418861 70.144739 
L 304.371077 67.645011 
L 307.323292 65.474448 
L 310.275508 63.652511 
L 313.227723 62.195535 
L 315.195867 61.433562 
L 317.164011 60.842707 
L 319.132155 60.425324 
L 321.100298 60.183078 
L 323.068442 60.116934 
L 325.036586 60.227156 
L 327.00473 60.513304 
L 328.972873 60.974238 
L 330.941017 61.60812 
L 332.909161 62.412424 
L 334.877305 63.383944 
L 337.82952 65.146101 
L 340.781736 67.259828 
L 343.733952 69.706175 
L 346.686167 72.463208 
L 349.638383 75.506209 
L 353.57467 79.960892 
L 357.510958 84.804235 
L 362.431317 91.286941 
L 368.335748 99.480568 
L 382.112755 118.760913 
L 387.033114 125.158913 
L 390.969402 129.912103 
L 394.905689 134.258265 
L 397.857905 137.208853 
L 400.81012 139.864937 
L 403.762336 142.202704 
L 406.714552 144.201195 
L 409.666767 145.842491 
L 411.634911 146.730846 
L 413.603055 147.450297 
L 415.571198 147.997979 
L 417.539342 148.371706 
L 419.507486 148.56999 
L 421.47563 148.59204 
L 423.443773 148.437768 
L 425.411917 148.107789 
L 427.380061 147.603418 
L 429.348205 146.926667 
L 431.316348 146.080232 
L 434.268564 144.499987 
L 437.22078 142.559869 
L 440.172995 140.277273 
L 443.125211 137.672663 
L 446.077427 134.76939 
L 449.029642 131.593484 
L 452.96593 126.98438 
L 456.902217 122.014885 
L 461.822577 115.41726 
L 468.71108 105.756733 
L 469.695152 104.36 
L 469.695152 104.36 
" clip-path="url(#p6d4e97e1e2)" style="fill: none; stroke-dasharray: 3.7,1.6; stroke-dashoffset: 0; stroke: #808080"/>
   </g>
   <g id="line2d_32">
    <path d="M 273.864848 130.984883 
L 277.801136 121.091668 
L 281.737423 111.70283 
L 285.673711 102.828828 
L 289.609998 94.501733 
L 293.546286 86.770659 
L 296.498502 81.400141 
L 299.450717 76.428263 
L 302.402933 71.885272 
L 305.355148 67.801595 
L 308.307364 64.206783 
L 310.275508 62.095597 
L 312.243652 60.221563 
L 314.211795 58.591528 
L 316.179939 57.211548 
L 318.148083 56.086791 
L 320.116227 55.221439 
L 322.08437 54.618611 
L 324.052514 54.280287 
L 326.020658 54.207255 
L 327.988802 54.399053 
L 329.956945 54.853942 
L 331.925089 55.568873 
L 333.893233 56.539481 
L 335.861377 57.760081 
L 337.82952 59.223687 
L 339.797664 60.92203 
L 341.765808 62.845601 
L 344.718023 66.129538 
L 347.670239 69.855064 
L 350.622455 73.976179 
L 353.57467 78.442357 
L 357.510958 84.839708 
L 362.431317 93.354064 
L 379.160539 122.983588 
L 383.096827 129.321559 
L 386.049042 133.75232 
L 389.001258 137.856264 
L 391.953473 141.592648 
L 394.905689 144.925083 
L 397.857905 147.821768 
L 399.826048 149.497283 
L 401.794192 150.960311 
L 403.762336 152.205198 
L 405.73048 153.227434 
L 407.698623 154.023738 
L 409.666767 154.592158 
L 411.634911 154.932195 
L 413.603055 155.04494 
L 415.571198 154.933227 
L 417.539342 154.601804 
L 419.507486 154.057503 
L 421.47563 153.30941 
L 423.443773 152.369023 
L 426.395989 150.629272 
L 429.348205 148.547239 
L 432.30042 146.193663 
L 436.236708 142.774143 
L 448.04557 132.31102 
L 451.981858 128.870289 
L 453.950002 126.970053 
L 455.918145 124.782535 
L 457.886289 122.110972 
L 458.870361 120.512018 
L 459.854433 118.683018 
L 460.838505 116.574972 
L 461.822577 114.131562 
L 462.806648 111.288331 
L 463.79072 107.971803 
L 464.774792 104.098518 
L 465.758864 99.573987 
L 466.742936 94.291554 
L 467.727008 88.131165 
L 468.71108 80.958036 
L 469.695152 72.621209 
L 469.695152 72.621209 
" clip-path="url(#p6d4e97e1e2)" style="fill: none; stroke: #58a6ff; stroke-width: 1.4; stroke-linecap: square"/>
   </g>
   <g id="patch_9">
    <path d="M 264.073333 184 
L 264.073333 24.72 
" style="fill: none; stroke: #000000; stroke-width: 0.8; stroke-linejoin: miter; stroke-linecap: square"/>
   </g>
   <g id="patch_10">
    <path d="M 479.486667 184 
L 479.486667 24.72 
" style="fill: none; stroke: #000000; stroke-width: 0.8; stroke-linejoin: miter; stroke-linecap: square"/>
   </g>
   <g id="patch_11">
    <path d="M 264.073333 184 
L 479.486667 184 
" style="fill: none; stroke: #000000; stroke-width: 0.8; stroke-linejoin: miter; stroke-linecap: square"/>
   </g>
   <g id="patch_12">
    <path d="M 264.073333 24.72 
L 479.486667 24.72 
" style="fill: none; stroke: #000000; stroke-width: 0.8; stroke-linejoin: miter; stroke-linecap: square"/>
   </g>
   <g id="text_23">
    <!-- Degree 15 — overfit -->
    <g transform="translate(326.249844 18.72) scale(0.09 -0.09)">
     <defs>
      <path id="DejaVuSans-59" d="M 191 3500 
L 800 3500 
L 1894 563 
L 2988 3500 
L 3597 3500 
L 2284 0 
L 1503 0 
L 191 3500 
z
" transform="scale(0.015625)"/>
     </defs>
     <use xlink:href="#DejaVuSans-27"/>
     <use xlink:href="#DejaVuSans-48" transform="translate(77 0)"/>
     <use xlink:href="#DejaVuSans-4a" transform="translate(138.53125 0)"/>
     <use xlink:href="#DejaVuSans-55" transform="translate(202.015625 0)"/>
     <use xlink:href="#DejaVuSans-48" transform="translate(240.921875 0)"/>
     <use xlink:href="#DejaVuSans-48" transform="translate(302.453125 0)"/>
     <use xlink:href="#DejaVuSans-3" transform="translate(363.984375 0)"/>
     <use xlink:href="#DejaVuSans-14" transform="translate(395.765625 0)"/>
     <use xlink:href="#DejaVuSans-18" transform="translate(459.390625 0)"/>
     <use xlink:href="#DejaVuSans-3" transform="translate(523.015625 0)"/>
     <use xlink:href="#DejaVuSans-af6" transform="translate(554.796875 0)"/>
     <use xlink:href="#DejaVuSans-3" transform="translate(654.796875 0)"/>
     <use xlink:href="#DejaVuSans-52" transform="translate(686.578125 0)"/>
     <use xlink:href="#DejaVuSans-59" transform="translate(747.765625 0)"/>
     <use xlink:href="#DejaVuSans-48" transform="translate(806.953125 0)"/>
     <use xlink:href="#DejaVuSans-55" transform="translate(868.484375 0)"/>
     <use xlink:href="#DejaVuSans-13af" transform="translate(909.59375 0)"/>
     <use xlink:href="#DejaVuSans-57" transform="translate(972.578125 0)"/>
    </g>
   </g>
  </g>
  <g id="axes_3">
   <g id="patch_13">
    <path d="M 493.786667 184 
L 709.2 184 
L 709.2 24.72 
L 493.786667 24.72 
L 493.786667 184 
z
" style="fill: none"/>
   </g>
   <g id="PathCollection_3">
    <g clip-path="url(#pb62c5093c2)">
     <use xlink:href="#mc26272680c" x="508.975091" y="117.63149" style="fill: #f0883e; stroke: #f0883e"/>
     <use xlink:href="#mc26272680c" x="529.827608" y="73.281703" style="fill: #f0883e; stroke: #f0883e"/>
     <use xlink:href="#mc26272680c" x="531.809002" y="74.213602" style="fill: #f0883e; stroke: #f0883e"/>
     <use xlink:href="#mc26272680c" x="543.420883" y="59.631019" style="fill: #f0883e; stroke: #f0883e"/>
     <use xlink:href="#mc26272680c" x="554.947083" y="57.844083" style="fill: #f0883e; stroke: #f0883e"/>
     <use xlink:href="#mc26272680c" x="558.490714" y="37.495033" style="fill: #f0883e; stroke: #f0883e"/>
     <use xlink:href="#mc26272680c" x="562.952917" y="74.864131" style="fill: #f0883e; stroke: #f0883e"/>
     <use xlink:href="#mc26272680c" x="564.64423" y="67.589432" style="fill: #f0883e; stroke: #f0883e"/>
     <use xlink:href="#mc26272680c" x="568.149644" y="42.957099" style="fill: #f0883e; stroke: #f0883e"/>
     <use xlink:href="#mc26272680c" x="582.51992" y="71.905566" style="fill: #f0883e; stroke: #f0883e"/>
     <use xlink:href="#mc26272680c" x="583.711773" y="73.130746" style="fill: #f0883e; stroke: #f0883e"/>
     <use xlink:href="#mc26272680c" x="586.478329" y="89.54551" style="fill: #f0883e; stroke: #f0883e"/>
     <use xlink:href="#mc26272680c" x="592.386811" y="109.845292" style="fill: #f0883e; stroke: #f0883e"/>
     <use xlink:href="#mc26272680c" x="598.593277" y="98.396741" style="fill: #f0883e; stroke: #f0883e"/>
     <use xlink:href="#mc26272680c" x="603.808366" y="106.437527" style="fill: #f0883e; stroke: #f0883e"/>
     <use xlink:href="#mc26272680c" x="608.96295" y="128.43835" style="fill: #f0883e; stroke: #f0883e"/>
     <use xlink:href="#mc26272680c" x="611.20528" y="125.482062" style="fill: #f0883e; stroke: #f0883e"/>
     <use xlink:href="#mc26272680c" x="650.522323" y="149.401211" style="fill: #f0883e; stroke: #f0883e"/>
     <use xlink:href="#mc26272680c" x="651.138882" y="159.043669" style="fill: #f0883e; stroke: #f0883e"/>
     <use xlink:href="#mc26272680c" x="657.976414" y="148.40794" style="fill: #f0883e; stroke: #f0883e"/>
     <use xlink:href="#mc26272680c" x="665.667432" y="142.379185" style="fill: #f0883e; stroke: #f0883e"/>
     <use xlink:href="#mc26272680c" x="689.352491" y="117.995238" style="fill: #f0883e; stroke: #f0883e"/>
     <use xlink:href="#mc26272680c" x="689.707775" y="123.509779" style="fill: #f0883e; stroke: #f0883e"/>
     <use xlink:href="#mc26272680c" x="691.899801" y="108.348824" style="fill: #f0883e; stroke: #f0883e"/>
     <use xlink:href="#mc26272680c" x="695.636245" y="99.844621" style="fill: #f0883e; stroke: #f0883e"/>
    </g>
   </g>
   <g id="matplotlib.axis_5">
    <g id="xtick_13">
     <g id="line2d_33">
      <g>
       <use xlink:href="#m114298f6f4" x="503.578182" y="184" style="stroke: #000000; stroke-width: 0.8"/>
      </g>
     </g>
     <g id="text_24">
      <!-- 0.0 -->
      <g transform="translate(498.012088 196.318359) scale(0.07 -0.07)">
       <use xlink:href="#DejaVuSans-13"/>
       <use xlink:href="#DejaVuSans-11" transform="translate(63.625 0)"/>
       <use xlink:href="#DejaVuSans-13" transform="translate(95.40625 0)"/>
      </g>
     </g>
    </g>
    <g id="xtick_14">
     <g id="line2d_34">
      <g>
       <use xlink:href="#m114298f6f4" x="542.744242" y="184" style="stroke: #000000; stroke-width: 0.8"/>
      </g>
     </g>
     <g id="text_25">
      <!-- 0.2 -->
      <g transform="translate(537.178149 196.318359) scale(0.07 -0.07)">
       <use xlink:href="#DejaVuSans-13"/>
       <use xlink:href="#DejaVuSans-11" transform="translate(63.625 0)"/>
       <use xlink:href="#DejaVuSans-15" transform="translate(95.40625 0)"/>
      </g>
     </g>
    </g>
    <g id="xtick_15">
     <g id="line2d_35">
      <g>
       <use xlink:href="#m114298f6f4" x="581.910303" y="184" style="stroke: #000000; stroke-width: 0.8"/>
      </g>
     </g>
     <g id="text_26">
      <!-- 0.4 -->
      <g transform="translate(576.344209 196.318359) scale(0.07 -0.07)">
       <use xlink:href="#DejaVuSans-13"/>
       <use xlink:href="#DejaVuSans-11" transform="translate(63.625 0)"/>
       <use xlink:href="#DejaVuSans-17" transform="translate(95.40625 0)"/>
      </g>
     </g>
    </g>
    <g id="xtick_16">
     <g id="line2d_36">
      <g>
       <use xlink:href="#m114298f6f4" x="621.076364" y="184" style="stroke: #000000; stroke-width: 0.8"/>
      </g>
     </g>
     <g id="text_27">
      <!-- 0.6 -->
      <g transform="translate(615.51027 196.318359) scale(0.07 -0.07)">
       <use xlink:href="#DejaVuSans-13"/>
       <use xlink:href="#DejaVuSans-11" transform="translate(63.625 0)"/>
       <use xlink:href="#DejaVuSans-19" transform="translate(95.40625 0)"/>
      </g>
     </g>
    </g>
    <g id="xtick_17">
     <g id="line2d_37">
      <g>
       <use xlink:href="#m114298f6f4" x="660.242424" y="184" style="stroke: #000000; stroke-width: 0.8"/>
      </g>
     </g>
     <g id="text_28">
      <!-- 0.8 -->
      <g transform="translate(654.67633 196.318359) scale(0.07 -0.07)">
       <use xlink:href="#DejaVuSans-13"/>
       <use xlink:href="#DejaVuSans-11" transform="translate(63.625 0)"/>
       <use xlink:href="#DejaVuSans-1b" transform="translate(95.40625 0)"/>
      </g>
     </g>
    </g>
    <g id="xtick_18">
     <g id="line2d_38">
      <g>
       <use xlink:href="#m114298f6f4" x="699.408485" y="184" style="stroke: #000000; stroke-width: 0.8"/>
      </g>
     </g>
     <g id="text_29">
      <!-- 1.0 -->
      <g transform="translate(693.842391 196.318359) scale(0.07 -0.07)">
       <use xlink:href="#DejaVuSans-14"/>
       <use xlink:href="#DejaVuSans-11" transform="translate(63.625 0)"/>
       <use xlink:href="#DejaVuSans-13" transform="translate(95.40625 0)"/>
      </g>
     </g>
    </g>
   </g>
   <g id="matplotlib.axis_6">
    <g id="ytick_15">
     <g id="line2d_39">
      <g>
       <use xlink:href="#m7e642679a3" x="493.786667" y="170.726667" style="stroke: #000000; stroke-width: 0.8"/>
      </g>
     </g>
    </g>
    <g id="ytick_16">
     <g id="line2d_40">
      <g>
       <use xlink:href="#m7e642679a3" x="493.786667" y="148.604444" style="stroke: #000000; stroke-width: 0.8"/>
      </g>
     </g>
    </g>
    <g id="ytick_17">
     <g id="line2d_41">
      <g>
       <use xlink:href="#m7e642679a3" x="493.786667" y="126.482222" style="stroke: #000000; stroke-width: 0.8"/>
      </g>
     </g>
    </g>
    <g id="ytick_18">
     <g id="line2d_42">
      <g>
       <use xlink:href="#m7e642679a3" x="493.786667" y="104.36" style="stroke: #000000; stroke-width: 0.8"/>
      </g>
     </g>
    </g>
    <g id="ytick_19">
     <g id="line2d_43">
      <g>
       <use xlink:href="#m7e642679a3" x="493.786667" y="82.237778" style="stroke: #000000; stroke-width: 0.8"/>
      </g>
     </g>
    </g>
    <g id="ytick_20">
     <g id="line2d_44">
      <g>
       <use xlink:href="#m7e642679a3" x="493.786667" y="60.115556" style="stroke: #000000; stroke-width: 0.8"/>
      </g>
     </g>
    </g>
    <g id="ytick_21">
     <g id="line2d_45">
      <g>
       <use xlink:href="#m7e642679a3" x="493.786667" y="37.993333" style="stroke: #000000; stroke-width: 0.8"/>
      </g>
     </g>
    </g>
   </g>
   <g id="line2d_46">
    <path d="M 503.578182 104.36 
L 512.434829 91.955839 
L 517.355188 85.433197 
L 521.291476 80.546582 
L 525.227763 76.039298 
L 528.179979 72.951222 
L 531.132194 70.144739 
L 534.08441 67.645011 
L 537.036626 65.474448 
L 539.988841 63.652511 
L 542.941057 62.195535 
L 544.909201 61.433562 
L 546.877344 60.842707 
L 548.845488 60.425324 
L 550.813632 60.183078 
L 552.781776 60.116934 
L 554.749919 60.227156 
L 556.718063 60.513304 
L 558.686207 60.974238 
L 560.654351 61.60812 
L 562.622494 62.412424 
L 564.590638 63.383944 
L 567.542854 65.146101 
L 570.495069 67.259828 
L 573.447285 69.706175 
L 576.399501 72.463208 
L 579.351716 75.506209 
L 583.288004 79.960892 
L 587.224291 84.804235 
L 592.144651 91.286941 
L 598.049082 99.480568 
L 611.826088 118.760913 
L 616.746447 125.158913 
L 620.682735 129.912103 
L 624.619022 134.258265 
L 627.571238 137.208853 
L 630.523454 139.864937 
L 633.475669 142.202704 
L 636.427885 144.201195 
L 639.380101 145.842491 
L 641.348244 146.730846 
L 643.316388 147.450297 
L 645.284532 147.997979 
L 647.252675 148.371706 
L 649.220819 148.56999 
L 651.188963 148.59204 
L 653.157107 148.437768 
L 655.12525 148.107789 
L 657.093394 147.603418 
L 659.061538 146.926667 
L 661.029682 146.080232 
L 663.981897 144.499987 
L 666.934113 142.559869 
L 669.886329 140.277273 
L 672.838544 137.672663 
L 675.79076 134.76939 
L 678.742975 131.593484 
L 682.679263 126.98438 
L 686.61555 122.014885 
L 691.53591 115.41726 
L 698.424413 105.756733 
L 699.408485 104.36 
L 699.408485 104.36 
" clip-path="url(#pb62c5093c2)" style="fill: none; stroke-dasharray: 3.7,1.6; stroke-dashoffset: 0; stroke: #808080"/>
   </g>
   <g id="line2d_47">
    <path d="M 503.578182 115.822831 
L 507.514469 107.647175 
L 511.450757 100.096984 
L 514.402972 94.852502 
L 517.355188 89.9721 
L 520.307404 85.460528 
L 523.259619 81.322183 
L 526.211835 77.561057 
L 529.164051 74.180687 
L 532.116266 71.184103 
L 535.068482 68.57377 
L 538.020697 66.35152 
L 540.972913 64.518491 
L 542.941057 63.512922 
L 544.909201 62.680426 
L 546.877344 62.020729 
L 548.845488 61.533371 
L 550.813632 61.217691 
L 552.781776 61.072815 
L 554.749919 61.097648 
L 556.718063 61.290859 
L 558.686207 61.650867 
L 560.654351 62.175829 
L 562.622494 62.863627 
L 565.57471 64.195293 
L 568.526926 65.878437 
L 571.479141 67.901999 
L 574.431357 70.253175 
L 577.383572 72.917304 
L 580.335788 75.87777 
L 583.288004 79.115899 
L 587.224291 83.829017 
L 591.160579 88.942928 
L 595.096866 94.394753 
L 600.017226 101.576786 
L 607.889801 113.545228 
L 615.762376 125.458161 
L 620.682735 132.513413 
L 624.619022 137.767706 
L 627.571238 141.407561 
L 630.523454 144.737193 
L 633.475669 147.71042 
L 636.427885 150.282729 
L 638.396029 151.754004 
L 640.364172 153.016742 
L 642.332316 154.060145 
L 644.30046 154.874381 
L 646.268604 155.450737 
L 648.236747 155.78177 
L 650.204891 155.861471 
L 652.173035 155.685425 
L 654.141179 155.250978 
L 656.109322 154.557397 
L 658.077466 153.606031 
L 660.04561 152.400461 
L 662.013754 150.946641 
L 663.981897 149.253027 
L 665.950041 147.330675 
L 668.902257 144.049064 
L 671.854472 140.342234 
L 674.806688 136.281772 
L 678.742975 130.465653 
L 690.551838 112.570489 
L 693.504054 108.555564 
L 696.456269 104.903266 
L 699.408485 101.655364 
L 699.408485 101.655364 
" clip-path="url(#pb62c5093c2)" style="fill: none; stroke: #58a6ff; stroke-width: 1.4; stroke-linecap: square"/>
   </g>
   <g id="patch_14">
    <path d="M 493.786667 184 
L 493.786667 24.72 
" style="fill: none; stroke: #000000; stroke-width: 0.8; stroke-linejoin: miter; stroke-linecap: square"/>
   </g>
   <g id="patch_15">
    <path d="M 709.2 184 
L 709.2 24.72 
" style="fill: none; stroke: #000000; stroke-width: 0.8; stroke-linejoin: miter; stroke-linecap: square"/>
   </g>
   <g id="patch_16">
    <path d="M 493.786667 184 
L 709.2 184 
" style="fill: none; stroke: #000000; stroke-width: 0.8; stroke-linejoin: miter; stroke-linecap: square"/>
   </g>
   <g id="patch_17">
    <path d="M 493.786667 24.72 
L 709.2 24.72 
" style="fill: none; stroke: #000000; stroke-width: 0.8; stroke-linejoin: miter; stroke-linecap: square"/>
   </g>
   <g id="text_30">
    <!-- Degree 15 + Ridge(α=0.01) -->
    <g transform="translate(538.198724 18.72) scale(0.09 -0.09)">
     <defs>
      <path id="DejaVuSans-e" d="M 2944 4013 
L 2944 2272 
L 4684 2272 
L 4684 1741 
L 2944 1741 
L 2944 0 
L 2419 0 
L 2419 1741 
L 678 1741 
L 678 2272 
L 2419 2272 
L 2419 4013 
L 2944 4013 
z
" transform="scale(0.015625)"/>
      <path id="DejaVuSans-35" d="M 2841 2188 
Q 3044 2119 3236 1894 
Q 3428 1669 3622 1275 
L 4263 0 
L 3584 0 
L 2988 1197 
Q 2756 1666 2539 1819 
Q 2322 1972 1947 1972 
L 1259 1972 
L 1259 0 
L 628 0 
L 628 4666 
L 2053 4666 
Q 2853 4666 3247 4331 
Q 3641 3997 3641 3322 
Q 3641 2881 3436 2590 
Q 3231 2300 2841 2188 
z
M 1259 4147 
L 1259 2491 
L 2053 2491 
Q 2509 2491 2742 2702 
Q 2975 2913 2975 3322 
Q 2975 3731 2742 3939 
Q 2509 4147 2053 4147 
L 1259 4147 
z
" transform="scale(0.015625)"/>
      <path id="DejaVuSans-b" d="M 1984 4856 
Q 1566 4138 1362 3434 
Q 1159 2731 1159 2009 
Q 1159 1288 1364 580 
Q 1569 -128 1984 -844 
L 1484 -844 
Q 1016 -109 783 600 
Q 550 1309 550 2009 
Q 550 2706 781 3412 
Q 1013 4119 1484 4856 
L 1984 4856 
z
" transform="scale(0.015625)"/>
      <path id="DejaVuSans-345" d="M 2644 1628 
L 2506 2350 
Q 2366 3091 1809 3091 
Q 1391 3091 1200 2747 
Q 959 2316 959 1747 
Q 959 1059 1194 731 
Q 1431 397 1809 397 
Q 2228 397 2453 1063 
L 2644 1628 
z
M 2966 2584 
L 3275 3500 
L 3788 3500 
L 3147 1603 
L 3272 919 
Q 3300 766 3409 638 
Q 3538 488 3638 488 
L 3913 488 
L 3913 0 
L 3569 0 
Q 3275 0 3013 263 
Q 2884 394 2831 669 
Q 2688 322 2394 50 
Q 2256 -78 1809 -78 
Q 1075 -78 719 397 
Q 353 888 353 1747 
Q 353 2666 750 3097 
Q 1191 3578 1809 3578 
Q 2781 3578 2966 2584 
z
" transform="scale(0.015625)"/>
      <path id="DejaVuSans-20" d="M 678 2906 
L 4684 2906 
L 4684 2381 
L 678 2381 
L 678 2906 
z
M 678 1631 
L 4684 1631 
L 4684 1100 
L 678 1100 
L 678 1631 
z
" transform="scale(0.015625)"/>
      <path id="DejaVuSans-c" d="M 513 4856 
L 1013 4856 
Q 1481 4119 1714 3412 
Q 1947 2706 1947 2009 
Q 1947 1309 1714 600 
Q 1481 -109 1013 -844 
L 513 -844 
Q 928 -128 1133 580 
Q 1338 1288 1338 2009 
Q 1338 2731 1133 3434 
Q 928 4138 513 4856 
z
" transform="scale(0.015625)"/>
     </defs>
     <use xlink:href="#DejaVuSans-27"/>
     <use xlink:href="#DejaVuSans-48" transform="translate(77 0)"/>
     <use xlink:href="#DejaVuSans-4a" transform="translate(138.53125 0)"/>
     <use xlink:href="#DejaVuSans-55" transform="translate(202.015625 0)"/>
     <use xlink:href="#DejaVuSans-48" transform="translate(240.921875 0)"/>
     <use xlink:href="#DejaVuSans-48" transform="translate(302.453125 0)"/>
     <use xlink:href="#DejaVuSans-3" transform="translate(363.984375 0)"/>
     <use xlink:href="#DejaVuSans-14" transform="translate(395.765625 0)"/>
     <use xlink:href="#DejaVuSans-18" transform="translate(459.390625 0)"/>
     <use xlink:href="#DejaVuSans-3" transform="translate(523.015625 0)"/>
     <use xlink:href="#DejaVuSans-e" transform="translate(554.796875 0)"/>
     <use xlink:href="#DejaVuSans-3" transform="translate(638.59375 0)"/>
     <use xlink:href="#DejaVuSans-35" transform="translate(670.375 0)"/>
     <use xlink:href="#DejaVuSans-4c" transform="translate(739.859375 0)"/>
     <use xlink:href="#DejaVuSans-47" transform="translate(767.640625 0)"/>
     <use xlink:href="#DejaVuSans-4a" transform="translate(831.125 0)"/>
     <use xlink:href="#DejaVuSans-48" transform="translate(894.609375 0)"/>
     <use xlink:href="#DejaVuSans-b" transform="translate(956.140625 0)"/>
     <use xlink:href="#DejaVuSans-345" transform="translate(995.15625 0)"/>
     <use xlink:href="#DejaVuSans-20" transform="translate(1061.078125 0)"/>
     <use xlink:href="#DejaVuSans-13" transform="translate(1144.875 0)"/>
     <use xlink:href="#DejaVuSans-11" transform="translate(1208.5 0)"/>
     <use xlink:href="#DejaVuSans-13" transform="translate(1240.28125 0)"/>
     <use xlink:href="#DejaVuSans-14" transform="translate(1303.90625 0)"/>
     <use xlink:href="#DejaVuSans-c" transform="translate(1367.53125 0)"/>
    </g>
   </g>
  </g>
 </g>
 <defs>
  <clipPath id="p4acf6364b5">
   <rect x="34.36" y="24.72" width="215.413333" height="159.28"/>
  </clipPath>
  <clipPath id="p6d4e97e1e2">
   <rect x="264.073333" y="24.72" width="215.413333" height="159.28"/>
  </clipPath>
  <clipPath id="pb62c5093c2">
   <rect x="493.786667" y="24.72" width="215.413333" height="159.28"/>
  </clipPath>
 </defs>
</svg>

